%TF.GenerationSoftware,KiCad,Pcbnew,8.0.1*%
%TF.CreationDate,2024-03-24T14:38:36+02:00*%
%TF.ProjectId,project,70726f6a-6563-4742-9e6b-696361645f70,rev?*%
%TF.SameCoordinates,Original*%
%TF.FileFunction,Copper,L1,Top*%
%TF.FilePolarity,Positive*%
%FSLAX46Y46*%
G04 Gerber Fmt 4.6, Leading zero omitted, Abs format (unit mm)*
G04 Created by KiCad (PCBNEW 8.0.1) date 2024-03-24 14:38:36*
%MOMM*%
%LPD*%
G01*
G04 APERTURE LIST*
G04 Aperture macros list*
%AMRoundRect*
0 Rectangle with rounded corners*
0 $1 Rounding radius*
0 $2 $3 $4 $5 $6 $7 $8 $9 X,Y pos of 4 corners*
0 Add a 4 corners polygon primitive as box body*
4,1,4,$2,$3,$4,$5,$6,$7,$8,$9,$2,$3,0*
0 Add four circle primitives for the rounded corners*
1,1,$1+$1,$2,$3*
1,1,$1+$1,$4,$5*
1,1,$1+$1,$6,$7*
1,1,$1+$1,$8,$9*
0 Add four rect primitives between the rounded corners*
20,1,$1+$1,$2,$3,$4,$5,0*
20,1,$1+$1,$4,$5,$6,$7,0*
20,1,$1+$1,$6,$7,$8,$9,0*
20,1,$1+$1,$8,$9,$2,$3,0*%
%AMFreePoly0*
4,1,19,0.500000,-0.750000,0.000000,-0.750000,0.000000,-0.744911,-0.071157,-0.744911,-0.207708,-0.704816,-0.327430,-0.627875,-0.420627,-0.520320,-0.479746,-0.390866,-0.500000,-0.250000,-0.500000,0.250000,-0.479746,0.390866,-0.420627,0.520320,-0.327430,0.627875,-0.207708,0.704816,-0.071157,0.744911,0.000000,0.744911,0.000000,0.750000,0.500000,0.750000,0.500000,-0.750000,0.500000,-0.750000,
$1*%
%AMFreePoly1*
4,1,19,0.000000,0.744911,0.071157,0.744911,0.207708,0.704816,0.327430,0.627875,0.420627,0.520320,0.479746,0.390866,0.500000,0.250000,0.500000,-0.250000,0.479746,-0.390866,0.420627,-0.520320,0.327430,-0.627875,0.207708,-0.704816,0.071157,-0.744911,0.000000,-0.744911,0.000000,-0.750000,-0.500000,-0.750000,-0.500000,0.750000,0.000000,0.750000,0.000000,0.744911,0.000000,0.744911,
$1*%
G04 Aperture macros list end*
%TA.AperFunction,SMDPad,CuDef*%
%ADD10R,1.000000X1.000000*%
%TD*%
%TA.AperFunction,ComponentPad*%
%ADD11C,2.250000*%
%TD*%
%TA.AperFunction,SMDPad,CuDef*%
%ADD12R,0.850000X0.300000*%
%TD*%
%TA.AperFunction,SMDPad,CuDef*%
%ADD13R,1.650000X2.380000*%
%TD*%
%TA.AperFunction,ComponentPad*%
%ADD14RoundRect,0.250000X0.400000X-0.750000X0.400000X0.750000X-0.400000X0.750000X-0.400000X-0.750000X0*%
%TD*%
%TA.AperFunction,ComponentPad*%
%ADD15O,1.300000X2.000000*%
%TD*%
%TA.AperFunction,SMDPad,CuDef*%
%ADD16R,0.800000X0.800000*%
%TD*%
%TA.AperFunction,SMDPad,CuDef*%
%ADD17R,0.950000X0.900000*%
%TD*%
%TA.AperFunction,SMDPad,CuDef*%
%ADD18R,2.513000X3.402000*%
%TD*%
%TA.AperFunction,SMDPad,CuDef*%
%ADD19R,1.525000X0.700000*%
%TD*%
%TA.AperFunction,SMDPad,CuDef*%
%ADD20R,0.600000X1.200000*%
%TD*%
%TA.AperFunction,SMDPad,CuDef*%
%ADD21FreePoly0,270.000000*%
%TD*%
%TA.AperFunction,SMDPad,CuDef*%
%ADD22FreePoly1,270.000000*%
%TD*%
%TA.AperFunction,SMDPad,CuDef*%
%ADD23R,0.812800X1.397000*%
%TD*%
%TA.AperFunction,SMDPad,CuDef*%
%ADD24R,0.720000X0.690000*%
%TD*%
%TA.AperFunction,ComponentPad*%
%ADD25R,1.700000X1.700000*%
%TD*%
%TA.AperFunction,ComponentPad*%
%ADD26O,1.700000X1.700000*%
%TD*%
%TA.AperFunction,SMDPad,CuDef*%
%ADD27R,1.750000X1.050000*%
%TD*%
%TA.AperFunction,ViaPad*%
%ADD28C,0.800000*%
%TD*%
%TA.AperFunction,ViaPad*%
%ADD29C,0.300000*%
%TD*%
%TA.AperFunction,Conductor*%
%ADD30C,0.250000*%
%TD*%
G04 APERTURE END LIST*
D10*
%TO.P,TP5,1,1*%
%TO.N,ADC*%
X775000Y-3325000D03*
%TD*%
%TO.P,TP3,1,1*%
%TO.N,Net-(IC1-CE)*%
X775000Y-775000D03*
%TD*%
D11*
%TO.P,S1,1,1*%
%TO.N,unconnected-(S1-Pad1)*%
X53000000Y-112500000D03*
%TO.P,S1,2,2*%
%TO.N,Net-(IC1-BAT)*%
X53000000Y-116500000D03*
%TO.P,S1,3,3*%
%TO.N,unconnected-(S1-Pad3)*%
X53000000Y-120500000D03*
%TO.P,S1,4,4*%
%TO.N,unconnected-(S1-Pad4)*%
X59000000Y-112500000D03*
%TO.P,S1,5,5*%
%TO.N,unconnected-(S1-Pad5)*%
X59000000Y-116500000D03*
%TO.P,S1,6,6*%
%TO.N,Load*%
X59000000Y-120500000D03*
%TD*%
D12*
%TO.P,IC2,1,IN1*%
%TO.N,PMW1*%
X63550000Y-106000000D03*
%TO.P,IC2,2,IN2*%
%TO.N,PMW2*%
X63550000Y-106500000D03*
%TO.P,IC2,3,GND*%
%TO.N,GNDPWR*%
X63550000Y-107000000D03*
%TO.P,IC2,4,IN3*%
%TO.N,PMW3*%
X63550000Y-107500000D03*
%TO.P,IC2,5,IN4*%
%TO.N,PMW4*%
X63550000Y-108000000D03*
%TO.P,IC2,6,OUT4*%
%TO.N,Motor2B*%
X66450000Y-108000000D03*
%TO.P,IC2,7,OUT3*%
%TO.N,Motor2*%
X66450000Y-107500000D03*
%TO.P,IC2,8,VBB*%
%TO.N,Load*%
X66450000Y-107000000D03*
%TO.P,IC2,9,OUT2*%
%TO.N,Motor1B*%
X66450000Y-106500000D03*
%TO.P,IC2,10,OUT1*%
%TO.N,Motor1*%
X66450000Y-106000000D03*
D13*
%TO.P,IC2,11,EP*%
%TO.N,GNDPWR*%
X65000000Y-107000000D03*
%TD*%
D14*
%TO.P,J2,1*%
%TO.N,GNDPWR*%
X80000000Y-109000000D03*
D15*
%TO.P,J2,2*%
%TO.N,Net-(IC1-BAT)*%
X82000000Y-109000000D03*
%TD*%
D10*
%TO.P,ADC,1,1*%
%TO.N,ADC*%
X72500000Y-127500000D03*
%TD*%
%TO.P,TP4,1,1*%
%TO.N,Net-(IC1-BAT)*%
X76500000Y-121000000D03*
%TD*%
%TO.P,TP1,1,1*%
%TO.N,Load*%
X75500000Y-125500000D03*
%TD*%
D16*
%TO.P,LED2,2,K*%
%TO.N,Net-(LED2-K)*%
X73000000Y-114250000D03*
%TO.P,LED2,1,A*%
%TO.N,Net-(IC1-CE)*%
X73000000Y-115750000D03*
%TD*%
D17*
%TO.P,LED1,1,K*%
%TO.N,Net-(LED1-K)*%
X76000000Y-114250000D03*
%TO.P,LED1,2,A*%
%TO.N,Net-(IC1-CE)*%
X76000000Y-115750000D03*
%TD*%
D18*
%TO.P,IC1,9,EP*%
%TO.N,GNDPWR*%
X67712000Y-116000000D03*
D19*
%TO.P,IC1,8,CE*%
%TO.N,Net-(IC1-CE)*%
X70424000Y-114095000D03*
%TO.P,IC1,7,~{CHRG}*%
%TO.N,Net-(IC1-~{CHRG})*%
X70424000Y-115365000D03*
%TO.P,IC1,6,~{STDBY}*%
%TO.N,Net-(IC1-~{STDBY})*%
X70424000Y-116635000D03*
%TO.P,IC1,5,BAT*%
%TO.N,Net-(IC1-BAT)*%
X70424000Y-117905000D03*
%TO.P,IC1,4,VCC*%
%TO.N,Net-(IC1-CE)*%
X65000000Y-117905000D03*
%TO.P,IC1,3,GND*%
%TO.N,GNDPWR*%
X65000000Y-116635000D03*
%TO.P,IC1,2,PROG*%
%TO.N,Net-(IC1-PROG)*%
X65000000Y-115365000D03*
%TO.P,IC1,1,TEMP*%
%TO.N,Net-(IC1-CE)*%
X65000000Y-114095000D03*
%TD*%
D10*
%TO.P,BatterytoLoad1,1,1*%
%TO.N,Net-(IC1-BAT)*%
X79500000Y-128000000D03*
%TD*%
D20*
%TO.P,R13,1,1*%
%TO.N,Net-(LED2-K)*%
X73950000Y-109250000D03*
%TO.P,R13,2,2*%
%TO.N,Net-(IC1-~{STDBY})*%
X73000000Y-109250000D03*
%TO.P,R13,3*%
%TO.N,N/C*%
X72050000Y-109250000D03*
%TO.P,R13,4*%
X72050000Y-111750000D03*
%TO.P,R13,5*%
X73950000Y-111750000D03*
%TD*%
D21*
%TO.P,JP2,1,A*%
%TO.N,Load*%
X68000000Y-122700000D03*
D22*
%TO.P,JP2,2,B*%
%TO.N,Net-(JP2-B)*%
X68000000Y-124000000D03*
%TD*%
D17*
%TO.P,R12,1,1*%
%TO.N,Net-(LED1-K)*%
X75000000Y-118900000D03*
%TO.P,R12,2,2*%
%TO.N,Net-(IC1-~{CHRG})*%
X75000000Y-120500000D03*
%TD*%
D23*
%TO.P,R4,1*%
%TO.N,Net-(IC1-PROG)*%
X63123700Y-120500000D03*
%TO.P,R4,2*%
%TO.N,GNDPWR*%
X64876300Y-120500000D03*
%TD*%
D21*
%TO.P,JP3,1,A*%
%TO.N,Net-(JP3-A)*%
X72000000Y-122500000D03*
D22*
%TO.P,JP3,2,B*%
%TO.N,ADC*%
X72000000Y-123800000D03*
%TD*%
D17*
%TO.P,R5,1,1*%
%TO.N,Net-(JP3-A)*%
X67500000Y-132600000D03*
%TO.P,R5,2,2*%
%TO.N,GNDPWR*%
X67500000Y-131000000D03*
%TD*%
D10*
%TO.P,5V,1,1*%
%TO.N,Net-(IC1-CE)*%
X70000000Y-111000000D03*
%TD*%
D24*
%TO.P,C2,1*%
%TO.N,Net-(IC1-CE)*%
X63070000Y-124260000D03*
%TO.P,C2,2*%
%TO.N,GNDPWR*%
X63070000Y-125180000D03*
%TD*%
D17*
%TO.P,R7,1,1*%
%TO.N,Net-(JP2-B)*%
X67500000Y-126700000D03*
%TO.P,R7,2,2*%
%TO.N,Net-(JP3-A)*%
X67500000Y-128300000D03*
%TD*%
D24*
%TO.P,C3,1*%
%TO.N,Net-(JP1-B)*%
X81000000Y-124040000D03*
%TO.P,C3,2*%
%TO.N,GNDPWR*%
X81000000Y-124960000D03*
%TD*%
%TO.P,C1,1*%
%TO.N,Net-(IC1-BAT)*%
X84000000Y-115540000D03*
%TO.P,C1,2*%
%TO.N,GNDPWR*%
X84000000Y-116460000D03*
%TD*%
D17*
%TO.P,R3,1,1*%
%TO.N,Load*%
X70000000Y-126700000D03*
%TO.P,R3,2,2*%
%TO.N,ADC*%
X70000000Y-128300000D03*
%TD*%
D21*
%TO.P,JP1,1,A*%
%TO.N,Net-(IC1-BAT)*%
X81000000Y-120500000D03*
D22*
%TO.P,JP1,2,B*%
%TO.N,Net-(JP1-B)*%
X81000000Y-121800000D03*
%TD*%
D25*
%TO.P,J1,1,P1*%
%TO.N,Motor1*%
X77625000Y-100765000D03*
D26*
%TO.P,J1,2,P2*%
%TO.N,PMW1*%
X77625000Y-103305000D03*
%TO.P,J1,3,P3*%
%TO.N,Motor1B*%
X75085000Y-100765000D03*
%TO.P,J1,4,P4*%
%TO.N,PMW2*%
X75085000Y-103305000D03*
%TO.P,J1,5,+12V*%
%TO.N,GNDPWR*%
X72545000Y-100765000D03*
%TO.P,J1,6,P6*%
X72545000Y-103305000D03*
%TO.P,J1,7,12V*%
%TO.N,Net-(IC1-BAT)*%
X70005000Y-100765000D03*
%TO.P,J1,8,+12V*%
X70005000Y-103305000D03*
%TO.P,J1,9,GND*%
%TO.N,unconnected-(J1-GND-Pad9)*%
X67465000Y-100765000D03*
%TO.P,J1,10,GND*%
%TO.N,ADC*%
X67465000Y-103305000D03*
%TO.P,J1,11,GND*%
%TO.N,Net-(IC1-CE)*%
X64925000Y-100765000D03*
%TO.P,J1,12,GND*%
%TO.N,unconnected-(J1-GND-Pad12)*%
X64925000Y-103305000D03*
%TO.P,J1,13,-12*%
%TO.N,Motor2*%
X62385000Y-100765000D03*
%TO.P,J1,14,-12V*%
%TO.N,PMW3*%
X62385000Y-103305000D03*
%TO.P,J1,15,-12V*%
%TO.N,Motor2B*%
X59845000Y-100765000D03*
%TO.P,J1,16,P16*%
%TO.N,PMW4*%
X59845000Y-103305000D03*
%TD*%
D27*
%TO.P,R2,1,1*%
%TO.N,Net-(IC1-CE)*%
X64500000Y-127500000D03*
%TO.P,R2,2,2*%
%TO.N,GNDPWR*%
X64500000Y-130400000D03*
%TD*%
D17*
%TO.P,R1,1,1*%
%TO.N,ADC*%
X69500000Y-130700000D03*
%TO.P,R1,2,2*%
%TO.N,GNDPWR*%
X69500000Y-132300000D03*
%TD*%
D28*
%TO.N,GNDPWR*%
X84000000Y-116500000D03*
%TO.N,Net-(IC1-~{CHRG})*%
X73500000Y-120500000D03*
X70500000Y-115500000D03*
%TO.N,GNDPWR*%
X64289847Y-124289847D03*
X66400000Y-130400000D03*
X65000000Y-109000000D03*
X67000000Y-116500000D03*
X65795847Y-121225000D03*
X82000000Y-115500000D03*
X64788000Y-116635000D03*
X81000000Y-124985002D03*
%TO.N,Net-(IC1-BAT)*%
X55000000Y-116500000D03*
%TO.N,Net-(IC1-CE)*%
X65000000Y-118000000D03*
X65000000Y-114000000D03*
X64500000Y-127500000D03*
X62000000Y-122675000D03*
X66000000Y-101500000D03*
D29*
%TO.N,Motor1B*%
X76000000Y-106500000D03*
D28*
%TO.N,Motor1*%
X78487347Y-105012653D03*
%TO.N,ADC*%
X69500000Y-130700000D03*
X75000000Y-104760000D03*
X68633591Y-103775896D03*
X72500000Y-127500000D03*
X72000000Y-124000000D03*
%TO.N,Net-(JP3-A)*%
X68500000Y-125500000D03*
X72000000Y-122500000D03*
%TO.N,Net-(LED1-K)*%
X78500000Y-118630000D03*
X77000000Y-114500000D03*
%TD*%
D30*
%TO.N,Net-(IC1-CE)*%
X71345000Y-114095000D02*
X73000000Y-115750000D01*
X70212000Y-114095000D02*
X71345000Y-114095000D01*
%TO.N,Net-(IC1-BAT)*%
X84000000Y-115540000D02*
X84960000Y-115540000D01*
X84960000Y-115540000D02*
X85000000Y-115500000D01*
X85000000Y-115500000D02*
X85000000Y-112000000D01*
X85000000Y-118000000D02*
X85000000Y-115500000D01*
X82000000Y-109793503D02*
X82000000Y-109000000D01*
X84206497Y-112000000D02*
X82000000Y-109793503D01*
X85000000Y-112000000D02*
X84206497Y-112000000D01*
X79000000Y-104500000D02*
X82000000Y-107500000D01*
X79000000Y-99790000D02*
X79000000Y-104500000D01*
X78800000Y-99590000D02*
X79000000Y-99790000D01*
X82000000Y-107500000D02*
X82000000Y-109950000D01*
X70005000Y-100765000D02*
X71180000Y-99590000D01*
X71180000Y-99590000D02*
X78800000Y-99590000D01*
%TO.N,Net-(LED1-K)*%
X76250000Y-114500000D02*
X76000000Y-114250000D01*
X77000000Y-114500000D02*
X76250000Y-114500000D01*
%TO.N,Net-(IC1-CE)*%
X73000000Y-115750000D02*
X76000000Y-115750000D01*
%TO.N,Net-(IC1-~{STDBY})*%
X74825000Y-108325000D02*
X73075000Y-108325000D01*
X77800000Y-111300000D02*
X74825000Y-108325000D01*
X77800000Y-112200000D02*
X77800000Y-111300000D01*
X77725000Y-114199695D02*
X77000305Y-113475000D01*
X77725000Y-115600000D02*
X77725000Y-114199695D01*
X73075000Y-108325000D02*
X73000000Y-108400000D01*
X76550000Y-116775000D02*
X77725000Y-115600000D01*
X70764500Y-116775000D02*
X76550000Y-116775000D01*
X77000305Y-113475000D02*
X76525000Y-113475000D01*
X76525000Y-113475000D02*
X77800000Y-112200000D01*
X70624500Y-116635000D02*
X70764500Y-116775000D01*
X73000000Y-108400000D02*
X73000000Y-109250000D01*
X70212000Y-116635000D02*
X70624500Y-116635000D01*
%TO.N,Net-(IC1-~{CHRG})*%
X73500000Y-120500000D02*
X75000000Y-120500000D01*
X70500000Y-115500000D02*
X70865000Y-115365000D01*
X70424000Y-115365000D02*
X70500000Y-115500000D01*
X70095000Y-115365000D02*
X70424000Y-115365000D01*
%TO.N,Net-(IC1-CE)*%
X70091000Y-113974000D02*
X70212000Y-114095000D01*
X65121000Y-113974000D02*
X70091000Y-113974000D01*
X65000000Y-114095000D02*
X65121000Y-113974000D01*
%TO.N,GNDPWR*%
X63399694Y-125180000D02*
X63070000Y-125180000D01*
X67500000Y-131000000D02*
X67000000Y-131000000D01*
X64500000Y-131175000D02*
X64500000Y-130400000D01*
X66400000Y-130400000D02*
X64500000Y-130400000D01*
X66700000Y-133375000D02*
X64500000Y-131175000D01*
X64876300Y-120500000D02*
X67500000Y-117876300D01*
X64289847Y-124289847D02*
X63399694Y-125180000D01*
X69500000Y-132300000D02*
X68425000Y-133375000D01*
X67500000Y-117876300D02*
X67500000Y-116000000D01*
X65070847Y-120500000D02*
X65795847Y-121225000D01*
X65000000Y-109000000D02*
X65000000Y-107000000D01*
X72545000Y-100765000D02*
X72545000Y-103305000D01*
X81000000Y-124960000D02*
X81000000Y-128150000D01*
X81000000Y-128150000D02*
X76850000Y-132300000D01*
X68425000Y-133375000D02*
X66700000Y-133375000D01*
X76850000Y-132300000D02*
X69500000Y-132300000D01*
X64876300Y-120500000D02*
X65070847Y-120500000D01*
X67000000Y-131000000D02*
X66400000Y-130400000D01*
X63550000Y-107000000D02*
X65000000Y-107000000D01*
%TO.N,Net-(IC1-BAT)*%
X77000000Y-120500000D02*
X81000000Y-120500000D01*
X84905000Y-117905000D02*
X85000000Y-118000000D01*
X55000000Y-116500000D02*
X53000000Y-116500000D01*
X81000000Y-120500000D02*
X82500000Y-120500000D01*
X82500000Y-120500000D02*
X85000000Y-118000000D01*
X70212000Y-117905000D02*
X84905000Y-117905000D01*
X53000000Y-117000000D02*
X53000000Y-116500000D01*
X70005000Y-100765000D02*
X70005000Y-103305000D01*
X76500000Y-121000000D02*
X77000000Y-120500000D01*
X76500000Y-125000000D02*
X79500000Y-128000000D01*
X57950000Y-121950000D02*
X53000000Y-117000000D01*
X66167000Y-121950000D02*
X57950000Y-121950000D01*
X70212000Y-117905000D02*
X66167000Y-121950000D01*
X76500000Y-121000000D02*
X76500000Y-125000000D01*
%TO.N,Net-(IC1-CE)*%
X66000000Y-101500000D02*
X65660000Y-101500000D01*
X64788000Y-117905000D02*
X65095000Y-117905000D01*
X63070000Y-124260000D02*
X63070000Y-123745000D01*
X63070000Y-123745000D02*
X62000000Y-122675000D01*
X70000000Y-111000000D02*
X70000000Y-113883000D01*
X70000000Y-113883000D02*
X70212000Y-114095000D01*
X65660000Y-101500000D02*
X64925000Y-100765000D01*
%TO.N,Net-(JP1-B)*%
X81000000Y-124040000D02*
X81000000Y-121800000D01*
%TO.N,Net-(IC1-PROG)*%
X64375500Y-115365000D02*
X63123700Y-116616800D01*
X63123700Y-116616800D02*
X63123700Y-120500000D01*
X64788000Y-115365000D02*
X64375500Y-115365000D01*
%TO.N,Motor1B*%
X66450000Y-106500000D02*
X76000000Y-106500000D01*
%TO.N,PMW4*%
X62688604Y-108000000D02*
X59845000Y-105156396D01*
X59845000Y-105156396D02*
X59845000Y-103305000D01*
X63550000Y-108000000D02*
X62688604Y-108000000D01*
%TO.N,Motor2B*%
X58670000Y-101940000D02*
X58670000Y-107170000D01*
X61500000Y-110000000D02*
X68000000Y-110000000D01*
X68000000Y-108000000D02*
X66450000Y-108000000D01*
X68000000Y-110000000D02*
X69000000Y-109000000D01*
X58670000Y-107170000D02*
X61500000Y-110000000D01*
X59845000Y-100765000D02*
X58670000Y-101940000D01*
X69000000Y-109000000D02*
X68000000Y-108000000D01*
%TO.N,PMW2*%
X62825000Y-106500000D02*
X63550000Y-106500000D01*
X63478604Y-105035000D02*
X62800000Y-105713604D01*
X75085000Y-103305000D02*
X73355000Y-105035000D01*
X73355000Y-105035000D02*
X63478604Y-105035000D01*
X62800000Y-106475000D02*
X62825000Y-106500000D01*
X62800000Y-105713604D02*
X62800000Y-106475000D01*
%TO.N,PMW3*%
X63550000Y-107500000D02*
X62825000Y-107500000D01*
X62000000Y-103690000D02*
X62385000Y-103305000D01*
X62000000Y-106675000D02*
X62000000Y-103690000D01*
X62825000Y-107500000D02*
X62000000Y-106675000D01*
%TO.N,Motor1*%
X66450000Y-106000000D02*
X77500000Y-106000000D01*
X77500000Y-106000000D02*
X78487347Y-105012653D01*
%TO.N,Load*%
X55140990Y-115050000D02*
X59000000Y-118909010D01*
X52399390Y-117950000D02*
X51550000Y-117100610D01*
X69900000Y-109372792D02*
X68272792Y-111000000D01*
X61213604Y-125850000D02*
X53313604Y-117950000D01*
X51550000Y-117100610D02*
X51550000Y-115899390D01*
X60000000Y-119500000D02*
X59000000Y-120500000D01*
X52399390Y-115050000D02*
X55140990Y-115050000D01*
X68000000Y-122700000D02*
X68755000Y-122700000D01*
X53313604Y-117950000D02*
X52399390Y-117950000D01*
X75500000Y-125500000D02*
X71200000Y-125500000D01*
X51550000Y-115899390D02*
X52399390Y-115050000D01*
X61000000Y-119500000D02*
X60000000Y-119500000D01*
X69900000Y-108627208D02*
X69900000Y-109372792D01*
X68755000Y-122700000D02*
X70000000Y-123945000D01*
X63000000Y-111000000D02*
X61000000Y-113000000D01*
X68272792Y-107000000D02*
X69900000Y-108627208D01*
X66450000Y-107000000D02*
X68272792Y-107000000D01*
X59000000Y-118909010D02*
X59000000Y-120500000D01*
X70000000Y-123945000D02*
X70000000Y-126700000D01*
X61000000Y-113000000D02*
X61000000Y-119500000D01*
X68000000Y-122700000D02*
X66905000Y-122700000D01*
X63755000Y-125850000D02*
X61213604Y-125850000D01*
X66905000Y-122700000D02*
X63755000Y-125850000D01*
X68272792Y-111000000D02*
X63000000Y-111000000D01*
X71200000Y-125500000D02*
X70000000Y-126700000D01*
%TO.N,PMW1*%
X63665000Y-105485000D02*
X76985000Y-105485000D01*
X63550000Y-105600000D02*
X63665000Y-105485000D01*
X77000000Y-105500000D02*
X77625000Y-104875000D01*
X77625000Y-104875000D02*
X77625000Y-103305000D01*
X63550000Y-106000000D02*
X63550000Y-105600000D01*
X76985000Y-105485000D02*
X77000000Y-105500000D01*
%TO.N,Motor2*%
X68186396Y-110450000D02*
X61313604Y-110450000D01*
X69450000Y-108813604D02*
X69450000Y-109186396D01*
X58220000Y-100728299D02*
X59358299Y-99590000D01*
X69450000Y-109186396D02*
X68186396Y-110450000D01*
X61313604Y-110450000D02*
X58220000Y-107356396D01*
X61210000Y-99590000D02*
X62385000Y-100765000D01*
X59358299Y-99590000D02*
X61210000Y-99590000D01*
X68136396Y-107500000D02*
X69450000Y-108813604D01*
X58220000Y-107356396D02*
X58220000Y-100728299D01*
X66450000Y-107500000D02*
X68136396Y-107500000D01*
%TO.N,ADC*%
X73876802Y-103876802D02*
X73876802Y-102851497D01*
X69357695Y-104500000D02*
X73253604Y-104500000D01*
X75775000Y-104760000D02*
X75000000Y-104760000D01*
X73253604Y-104500000D02*
X73876802Y-103876802D01*
X68633591Y-103775896D02*
X69357695Y-104500000D01*
X73876802Y-102851497D02*
X74598299Y-102130000D01*
X74598299Y-102130000D02*
X75571701Y-102130000D01*
X76260000Y-102818299D02*
X76260000Y-104275000D01*
X70000000Y-128300000D02*
X71700000Y-128300000D01*
X76260000Y-104275000D02*
X75775000Y-104760000D01*
X71700000Y-128300000D02*
X72500000Y-127500000D01*
X75571701Y-102130000D02*
X76260000Y-102818299D01*
%TO.N,Net-(JP2-B)*%
X67500000Y-126700000D02*
X67500000Y-124500000D01*
X67500000Y-124500000D02*
X68000000Y-124000000D01*
%TO.N,Net-(JP3-A)*%
X68300000Y-131800000D02*
X67500000Y-132600000D01*
X67500000Y-128300000D02*
X68300000Y-129100000D01*
X68300000Y-129100000D02*
X68300000Y-131800000D01*
X68500000Y-127300000D02*
X68500000Y-125500000D01*
X67500000Y-128300000D02*
X68500000Y-127300000D01*
%TO.N,Net-(LED1-K)*%
X75000000Y-118900000D02*
X78230000Y-118900000D01*
X78230000Y-118900000D02*
X78500000Y-118630000D01*
%TO.N,Net-(LED2-K)*%
X73950000Y-110200000D02*
X73950000Y-109250000D01*
X73000000Y-111150000D02*
X73950000Y-110200000D01*
X73000000Y-114250000D02*
X73000000Y-111150000D01*
%TD*%
M02*
