%TF.GenerationSoftware,KiCad,Pcbnew,8.0.1*%
%TF.CreationDate,2024-03-24T14:38:36+02:00*%
%TF.ProjectId,project,70726f6a-6563-4742-9e6b-696361645f70,rev?*%
%TF.SameCoordinates,Original*%
%TF.FileFunction,Copper,L2,Bot*%
%TF.FilePolarity,Positive*%
%FSLAX46Y46*%
G04 Gerber Fmt 4.6, Leading zero omitted, Abs format (unit mm)*
G04 Created by KiCad (PCBNEW 8.0.1) date 2024-03-24 14:38:36*
%MOMM*%
%LPD*%
G01*
G04 APERTURE LIST*
G04 Aperture macros list*
%AMRoundRect*
0 Rectangle with rounded corners*
0 $1 Rounding radius*
0 $2 $3 $4 $5 $6 $7 $8 $9 X,Y pos of 4 corners*
0 Add a 4 corners polygon primitive as box body*
4,1,4,$2,$3,$4,$5,$6,$7,$8,$9,$2,$3,0*
0 Add four circle primitives for the rounded corners*
1,1,$1+$1,$2,$3*
1,1,$1+$1,$4,$5*
1,1,$1+$1,$6,$7*
1,1,$1+$1,$8,$9*
0 Add four rect primitives between the rounded corners*
20,1,$1+$1,$2,$3,$4,$5,0*
20,1,$1+$1,$4,$5,$6,$7,0*
20,1,$1+$1,$6,$7,$8,$9,0*
20,1,$1+$1,$8,$9,$2,$3,0*%
G04 Aperture macros list end*
%TA.AperFunction,ComponentPad*%
%ADD10C,2.250000*%
%TD*%
%TA.AperFunction,ComponentPad*%
%ADD11RoundRect,0.250000X0.400000X-0.750000X0.400000X0.750000X-0.400000X0.750000X-0.400000X-0.750000X0*%
%TD*%
%TA.AperFunction,ComponentPad*%
%ADD12O,1.300000X2.000000*%
%TD*%
%TA.AperFunction,ComponentPad*%
%ADD13R,1.700000X1.700000*%
%TD*%
%TA.AperFunction,ComponentPad*%
%ADD14O,1.700000X1.700000*%
%TD*%
%TA.AperFunction,ViaPad*%
%ADD15C,0.800000*%
%TD*%
%TA.AperFunction,ViaPad*%
%ADD16C,0.300000*%
%TD*%
%TA.AperFunction,Conductor*%
%ADD17C,0.250000*%
%TD*%
G04 APERTURE END LIST*
D10*
%TO.P,S1,1,1*%
%TO.N,unconnected-(S1-Pad1)*%
X53000000Y-112500000D03*
%TO.P,S1,2,2*%
%TO.N,Net-(IC1-BAT)*%
X53000000Y-116500000D03*
%TO.P,S1,3,3*%
%TO.N,unconnected-(S1-Pad3)*%
X53000000Y-120500000D03*
%TO.P,S1,4,4*%
%TO.N,unconnected-(S1-Pad4)*%
X59000000Y-112500000D03*
%TO.P,S1,5,5*%
%TO.N,unconnected-(S1-Pad5)*%
X59000000Y-116500000D03*
%TO.P,S1,6,6*%
%TO.N,Load*%
X59000000Y-120500000D03*
%TD*%
D11*
%TO.P,J2,1*%
%TO.N,GNDPWR*%
X80000000Y-109000000D03*
D12*
%TO.P,J2,2*%
%TO.N,Net-(IC1-BAT)*%
X82000000Y-109000000D03*
%TD*%
D13*
%TO.P,J1,1,P1*%
%TO.N,Motor1*%
X77625000Y-100765000D03*
D14*
%TO.P,J1,2,P2*%
%TO.N,PMW1*%
X77625000Y-103305000D03*
%TO.P,J1,3,P3*%
%TO.N,Motor1B*%
X75085000Y-100765000D03*
%TO.P,J1,4,P4*%
%TO.N,PMW2*%
X75085000Y-103305000D03*
%TO.P,J1,5,+12V*%
%TO.N,GNDPWR*%
X72545000Y-100765000D03*
%TO.P,J1,6,P6*%
X72545000Y-103305000D03*
%TO.P,J1,7,12V*%
%TO.N,Net-(IC1-BAT)*%
X70005000Y-100765000D03*
%TO.P,J1,8,+12V*%
X70005000Y-103305000D03*
%TO.P,J1,9,GND*%
%TO.N,unconnected-(J1-GND-Pad9)*%
X67465000Y-100765000D03*
%TO.P,J1,10,GND*%
%TO.N,ADC*%
X67465000Y-103305000D03*
%TO.P,J1,11,GND*%
%TO.N,Net-(IC1-CE)*%
X64925000Y-100765000D03*
%TO.P,J1,12,GND*%
%TO.N,unconnected-(J1-GND-Pad12)*%
X64925000Y-103305000D03*
%TO.P,J1,13,-12*%
%TO.N,Motor2*%
X62385000Y-100765000D03*
%TO.P,J1,14,-12V*%
%TO.N,PMW3*%
X62385000Y-103305000D03*
%TO.P,J1,15,-12V*%
%TO.N,Motor2B*%
X59845000Y-100765000D03*
%TO.P,J1,16,P16*%
%TO.N,PMW4*%
X59845000Y-103305000D03*
%TD*%
D15*
%TO.N,GNDPWR*%
X84000000Y-116500000D03*
%TO.N,Net-(IC1-~{CHRG})*%
X73500000Y-120500000D03*
X70500000Y-115500000D03*
%TO.N,GNDPWR*%
X64289847Y-124289847D03*
X66400000Y-130400000D03*
X65000000Y-109000000D03*
X67000000Y-116500000D03*
X65795847Y-121225000D03*
X82000000Y-115500000D03*
X64788000Y-116635000D03*
X81000000Y-124985002D03*
%TO.N,Net-(IC1-BAT)*%
X55000000Y-116500000D03*
%TO.N,Net-(IC1-CE)*%
X65000000Y-118000000D03*
X65000000Y-114000000D03*
X64500000Y-127500000D03*
X62000000Y-122675000D03*
X66000000Y-101500000D03*
D16*
%TO.N,Motor1B*%
X76000000Y-106500000D03*
D15*
%TO.N,Motor1*%
X78487347Y-105012653D03*
%TO.N,ADC*%
X69500000Y-130700000D03*
X75000000Y-104760000D03*
X68633591Y-103775896D03*
X72500000Y-127500000D03*
X72000000Y-124000000D03*
%TO.N,Net-(JP3-A)*%
X68500000Y-125500000D03*
X72000000Y-122500000D03*
%TO.N,Net-(LED1-K)*%
X78500000Y-118630000D03*
X77000000Y-114500000D03*
%TD*%
D17*
%TO.N,Net-(LED1-K)*%
X78500000Y-118630000D02*
X78500000Y-116000000D01*
X78500000Y-116000000D02*
X77000000Y-114500000D01*
%TO.N,GNDPWR*%
X64289847Y-124289847D02*
X66400000Y-126400000D01*
X66400000Y-126400000D02*
X66400000Y-130400000D01*
X83250000Y-115750000D02*
X84000000Y-116500000D01*
X82250000Y-115750000D02*
X83250000Y-115750000D01*
X82000000Y-115500000D02*
X82250000Y-115750000D01*
X80000000Y-113500000D02*
X80000000Y-109000000D01*
X82000000Y-115500000D02*
X80000000Y-113500000D01*
%TO.N,Net-(IC1-CE)*%
X64063000Y-117063000D02*
X64063000Y-114937000D01*
X65000000Y-118000000D02*
X64063000Y-117063000D01*
X64063000Y-114937000D02*
X65000000Y-114000000D01*
%TO.N,Net-(IC1-~{CHRG})*%
X73500000Y-118500000D02*
X73500000Y-120500000D01*
X70500000Y-115500000D02*
X73500000Y-118500000D01*
%TO.N,GNDPWR*%
X64923000Y-116500000D02*
X64788000Y-116635000D01*
X81000000Y-125000000D02*
X81000000Y-124985002D01*
X72545000Y-110955000D02*
X72545000Y-103305000D01*
X67000000Y-116500000D02*
X64923000Y-116500000D01*
X65795847Y-121225000D02*
X64289847Y-122731000D01*
X72545000Y-100765000D02*
X73720000Y-99590000D01*
X64289847Y-122731000D02*
X64289847Y-124289847D01*
X66500000Y-130300000D02*
X66400000Y-130400000D01*
X67000000Y-116500000D02*
X72545000Y-110955000D01*
X65000000Y-109000000D02*
X67000000Y-111000000D01*
X83500000Y-117000000D02*
X82000000Y-115500000D01*
X78800000Y-99590000D02*
X79500000Y-100290000D01*
X67000000Y-111000000D02*
X67000000Y-116500000D01*
X65000000Y-109000000D02*
X65225000Y-109000000D01*
X81000000Y-125000000D02*
X84500000Y-121500000D01*
X72545000Y-103305000D02*
X72545000Y-100765000D01*
X84500000Y-117000000D02*
X83500000Y-117000000D01*
X84500000Y-121500000D02*
X84500000Y-117000000D01*
X73720000Y-99590000D02*
X78800000Y-99590000D01*
%TO.N,Net-(IC1-BAT)*%
X58450000Y-111050000D02*
X58399390Y-111050000D01*
X57550000Y-111950000D02*
X54000000Y-115500000D01*
X58399390Y-111050000D02*
X57550000Y-111899390D01*
X54500000Y-116000000D02*
X55000000Y-116500000D01*
X70005000Y-103305000D02*
X68640000Y-101940000D01*
X68640000Y-100278299D02*
X67951701Y-99590000D01*
X57550000Y-111899390D02*
X57550000Y-111950000D01*
X54000000Y-115500000D02*
X54500000Y-116000000D01*
X58500000Y-100448299D02*
X58500000Y-111000000D01*
X67951701Y-99590000D02*
X59358299Y-99590000D01*
X59358299Y-99590000D02*
X58500000Y-100448299D01*
X58500000Y-111000000D02*
X58450000Y-111050000D01*
X68640000Y-101940000D02*
X68640000Y-100278299D01*
%TO.N,Net-(IC1-CE)*%
X62000000Y-122675000D02*
X62000000Y-121000000D01*
X64095000Y-101595000D02*
X63560000Y-102130000D01*
X63560000Y-112560000D02*
X65000000Y-114000000D01*
X62000000Y-125000000D02*
X64500000Y-127500000D01*
X63560000Y-102130000D02*
X63560000Y-112560000D01*
X64190000Y-101500000D02*
X66000000Y-101500000D01*
X62000000Y-122675000D02*
X62000000Y-125000000D01*
X64925000Y-100765000D02*
X64095000Y-101595000D01*
X62000000Y-121000000D02*
X65000000Y-118000000D01*
X64095000Y-101595000D02*
X64190000Y-101500000D01*
%TO.N,Motor1B*%
X76000000Y-106500000D02*
X76450000Y-106050000D01*
X76450000Y-102130000D02*
X75085000Y-100765000D01*
X76450000Y-106050000D02*
X76450000Y-102130000D01*
%TO.N,Motor1*%
X78800000Y-101940000D02*
X77625000Y-100765000D01*
X78800000Y-104700000D02*
X78800000Y-101940000D01*
X78487347Y-105012653D02*
X78800000Y-104700000D01*
%TO.N,ADC*%
X72500000Y-127500000D02*
X72000000Y-128000000D01*
X69500000Y-129500000D02*
X69500000Y-130700000D01*
X68162695Y-103305000D02*
X68633591Y-103775896D01*
X75500000Y-127500000D02*
X72500000Y-127500000D01*
X75000000Y-121500000D02*
X72000000Y-124000000D01*
X72000000Y-128000000D02*
X71000000Y-128000000D01*
X76500000Y-126500000D02*
X75500000Y-127500000D01*
X72500000Y-124000000D02*
X76500000Y-124000000D01*
X76500000Y-124000000D02*
X76500000Y-126500000D01*
X67465000Y-103305000D02*
X68162695Y-103305000D01*
X75000000Y-104760000D02*
X75000000Y-121500000D01*
X72000000Y-124000000D02*
X72500000Y-124000000D01*
X71000000Y-128000000D02*
X69500000Y-129500000D01*
%TO.N,Net-(JP3-A)*%
X68500000Y-125500000D02*
X71500000Y-122500000D01*
X71500000Y-122500000D02*
X72000000Y-122500000D01*
%TD*%
M02*
