%TF.GenerationSoftware,KiCad,Pcbnew,8.0.0*%
%TF.CreationDate,2024-03-23T03:09:38+02:00*%
%TF.ProjectId,sensor,73656e73-6f72-42e6-9b69-6361645f7063,rev?*%
%TF.SameCoordinates,Original*%
%TF.FileFunction,Legend,Bot*%
%TF.FilePolarity,Positive*%
%FSLAX46Y46*%
G04 Gerber Fmt 4.6, Leading zero omitted, Abs format (unit mm)*
G04 Created by KiCad (PCBNEW 8.0.0) date 2024-03-23 03:09:38*
%MOMM*%
%LPD*%
G01*
G04 APERTURE LIST*
G04 Aperture macros list*
%AMRoundRect*
0 Rectangle with rounded corners*
0 $1 Rounding radius*
0 $2 $3 $4 $5 $6 $7 $8 $9 X,Y pos of 4 corners*
0 Add a 4 corners polygon primitive as box body*
4,1,4,$2,$3,$4,$5,$6,$7,$8,$9,$2,$3,0*
0 Add four circle primitives for the rounded corners*
1,1,$1+$1,$2,$3*
1,1,$1+$1,$4,$5*
1,1,$1+$1,$6,$7*
1,1,$1+$1,$8,$9*
0 Add four rect primitives between the rounded corners*
20,1,$1+$1,$2,$3,$4,$5,0*
20,1,$1+$1,$4,$5,$6,$7,0*
20,1,$1+$1,$6,$7,$8,$9,0*
20,1,$1+$1,$8,$9,$2,$3,0*%
G04 Aperture macros list end*
%ADD10R,1.700000X1.700000*%
%ADD11O,1.700000X1.700000*%
%ADD12R,1.800000X1.800000*%
%ADD13C,1.800000*%
%ADD14RoundRect,0.250200X-0.649800X0.649800X-0.649800X-0.649800X0.649800X-0.649800X0.649800X0.649800X0*%
%ADD15RoundRect,0.250200X0.649800X-0.649800X0.649800X0.649800X-0.649800X0.649800X-0.649800X-0.649800X0*%
%ADD16RoundRect,0.250200X0.649800X0.649800X-0.649800X0.649800X-0.649800X-0.649800X0.649800X-0.649800X0*%
G04 APERTURE END LIST*
%LPC*%
D10*
%TO.C,J16*%
X148035000Y-126650000D03*
D11*
X145495000Y-126650000D03*
%TD*%
D12*
%TO.C,D5*%
X108375000Y-103460000D03*
D13*
X105835000Y-103460000D03*
%TD*%
D14*
%TO.C,U2*%
X99025000Y-109770000D03*
D13*
X99025000Y-112310000D03*
X99025000Y-114850000D03*
%TD*%
D10*
%TO.C,J14*%
X141000000Y-126000000D03*
%TD*%
%TO.C,J17*%
X132270000Y-100180000D03*
D11*
X132270000Y-97640000D03*
%TD*%
D15*
%TO.C,U3*%
X135000000Y-114540000D03*
D13*
X135000000Y-112000000D03*
X135000000Y-109460000D03*
%TD*%
D12*
%TO.C,D1*%
X90595000Y-116740000D03*
D13*
X90595000Y-119280000D03*
%TD*%
D10*
%TO.C,J11*%
X98145000Y-98910000D03*
D11*
X95605000Y-98910000D03*
%TD*%
D10*
%TO.C,J6*%
X93000000Y-127000000D03*
%TD*%
D12*
%TO.C,D3*%
X144175000Y-106250000D03*
D13*
X144175000Y-103710000D03*
%TD*%
D12*
%TO.C,D2*%
X90595000Y-103750000D03*
D13*
X90595000Y-106290000D03*
%TD*%
D10*
%TO.C,J10*%
X113600000Y-98595000D03*
D11*
X116140000Y-98595000D03*
%TD*%
D10*
%TO.C,J13*%
X113765000Y-103085000D03*
D11*
X116305000Y-103085000D03*
%TD*%
D10*
%TO.C,J3*%
X100310000Y-121820000D03*
D11*
X100310000Y-124360000D03*
X102850000Y-121820000D03*
X102850000Y-124360000D03*
X105390000Y-121820000D03*
X105390000Y-124360000D03*
X107930000Y-121820000D03*
X107930000Y-124360000D03*
X110470000Y-121820000D03*
X110470000Y-124360000D03*
X113010000Y-121820000D03*
X113010000Y-124360000D03*
X115550000Y-121820000D03*
X115550000Y-124360000D03*
X118090000Y-121820000D03*
X118090000Y-124360000D03*
X120630000Y-121820000D03*
X120630000Y-124360000D03*
X123170000Y-121820000D03*
X123170000Y-124360000D03*
X125710000Y-121820000D03*
X125710000Y-124360000D03*
X128250000Y-121820000D03*
X128250000Y-124360000D03*
X130790000Y-121820000D03*
X130790000Y-124360000D03*
X133330000Y-121820000D03*
X133330000Y-124360000D03*
%TD*%
D10*
%TO.C,J12*%
X144735000Y-112275000D03*
D11*
X144735000Y-109735000D03*
%TD*%
D10*
%TO.C,J5*%
X90735000Y-110725000D03*
D11*
X90735000Y-113265000D03*
%TD*%
D12*
%TO.C,D6*%
X123375000Y-103460000D03*
D13*
X120835000Y-103460000D03*
%TD*%
D10*
%TO.C,J2*%
X86460000Y-123000000D03*
D11*
X89000000Y-123000000D03*
%TD*%
D16*
%TO.C,U4*%
X117750000Y-109380000D03*
D13*
X115210000Y-109380000D03*
X112670000Y-109380000D03*
%TD*%
D10*
%TO.C,J15*%
X127365000Y-97395000D03*
%TD*%
%TO.C,J8*%
X149275000Y-109725000D03*
D11*
X149275000Y-112265000D03*
%TD*%
D10*
%TO.C,J7*%
X86460000Y-127000000D03*
D11*
X89000000Y-127000000D03*
%TD*%
D10*
%TO.C,J1*%
X86735000Y-113275000D03*
D11*
X86735000Y-110735000D03*
%TD*%
D12*
%TO.C,D4*%
X144175000Y-119250000D03*
D13*
X144175000Y-116710000D03*
%TD*%
D10*
%TO.C,J9*%
X148010000Y-123000000D03*
D11*
X145470000Y-123000000D03*
%TD*%
D10*
%TO.C,J4*%
X117590000Y-128000000D03*
%TD*%
%LPD*%
M02*
