%TF.GenerationSoftware,KiCad,Pcbnew,8.0.0*%
%TF.CreationDate,2024-03-24T13:32:09+02:00*%
%TF.ProjectId,sensor,73656e73-6f72-42e6-9b69-6361645f7063,rev?*%
%TF.SameCoordinates,Original*%
%TF.FileFunction,Soldermask,Bot*%
%TF.FilePolarity,Negative*%
%FSLAX46Y46*%
G04 Gerber Fmt 4.6, Leading zero omitted, Abs format (unit mm)*
G04 Created by KiCad (PCBNEW 8.0.0) date 2024-03-24 13:32:09*
%MOMM*%
%LPD*%
G01*
G04 APERTURE LIST*
G04 Aperture macros list*
%AMRoundRect*
0 Rectangle with rounded corners*
0 $1 Rounding radius*
0 $2 $3 $4 $5 $6 $7 $8 $9 X,Y pos of 4 corners*
0 Add a 4 corners polygon primitive as box body*
4,1,4,$2,$3,$4,$5,$6,$7,$8,$9,$2,$3,0*
0 Add four circle primitives for the rounded corners*
1,1,$1+$1,$2,$3*
1,1,$1+$1,$4,$5*
1,1,$1+$1,$6,$7*
1,1,$1+$1,$8,$9*
0 Add four rect primitives between the rounded corners*
20,1,$1+$1,$2,$3,$4,$5,0*
20,1,$1+$1,$4,$5,$6,$7,0*
20,1,$1+$1,$6,$7,$8,$9,0*
20,1,$1+$1,$8,$9,$2,$3,0*%
%AMHorizOval*
0 Thick line with rounded ends*
0 $1 width*
0 $2 $3 position (X,Y) of the first rounded end (center of the circle)*
0 $4 $5 position (X,Y) of the second rounded end (center of the circle)*
0 Add line between two ends*
20,1,$1,$2,$3,$4,$5,0*
0 Add two circle primitives to create the rounded ends*
1,1,$1,$2,$3*
1,1,$1,$4,$5*%
%AMRotRect*
0 Rectangle, with rotation*
0 The origin of the aperture is its center*
0 $1 length*
0 $2 width*
0 $3 Rotation angle, in degrees counterclockwise*
0 Add horizontal line*
21,1,$1,$2,0,0,$3*%
G04 Aperture macros list end*
%ADD10R,1.700000X1.700000*%
%ADD11O,1.700000X1.700000*%
%ADD12RotRect,1.700000X1.700000X315.000000*%
%ADD13HorizOval,1.700000X0.000000X0.000000X0.000000X0.000000X0*%
%ADD14RoundRect,0.250200X0.649800X0.649800X-0.649800X0.649800X-0.649800X-0.649800X0.649800X-0.649800X0*%
%ADD15C,1.800000*%
%ADD16RotRect,1.800000X1.800000X135.000000*%
%ADD17RotRect,1.700000X1.700000X45.000000*%
%ADD18HorizOval,1.700000X0.000000X0.000000X0.000000X0.000000X0*%
%ADD19RoundRect,0.250200X0.000000X0.918956X-0.918956X0.000000X0.000000X-0.918956X0.918956X0.000000X0*%
%ADD20RotRect,1.800000X1.800000X225.000000*%
%ADD21R,1.800000X1.800000*%
%ADD22RoundRect,0.250200X0.918956X0.000000X0.000000X0.918956X-0.918956X0.000000X0.000000X-0.918956X0*%
G04 APERTURE END LIST*
D10*
%TO.C,J9*%
X168000000Y-100275000D03*
D11*
X168000000Y-97735000D03*
%TD*%
D12*
%TO.C,J5*%
X122051562Y-93398437D03*
D13*
X120255511Y-95194488D03*
%TD*%
D10*
%TO.C,J15*%
X144250000Y-89000000D03*
%TD*%
D12*
%TO.C,J1*%
X113401562Y-84992926D03*
D13*
X111605511Y-86788977D03*
%TD*%
D14*
%TO.C,U4*%
X142040000Y-94525000D03*
D15*
X139500000Y-94525000D03*
X136960000Y-94525000D03*
%TD*%
D16*
%TO.C,D1*%
X161296051Y-92320153D03*
D15*
X159500000Y-90524102D03*
%TD*%
D10*
%TO.C,J2*%
X111275000Y-107275000D03*
D11*
X111275000Y-104735000D03*
%TD*%
D17*
%TO.C,J12*%
X157598439Y-93098437D03*
D18*
X159394490Y-94894488D03*
%TD*%
D19*
%TO.C,U2*%
X126960836Y-96928734D03*
D15*
X125164785Y-98724785D03*
X123368734Y-100520836D03*
%TD*%
D10*
%TO.C,J3*%
X123600000Y-106250000D03*
D11*
X123600000Y-108790000D03*
X126140000Y-106250000D03*
X126140000Y-108790000D03*
X128680000Y-106250000D03*
X128680000Y-108790000D03*
X131220000Y-106250000D03*
X131220000Y-108790000D03*
X133760000Y-106250000D03*
X133760000Y-108790000D03*
X136300000Y-106250000D03*
X136300000Y-108790000D03*
X138840000Y-106250000D03*
X138840000Y-108790000D03*
X141380000Y-106250000D03*
X141380000Y-108790000D03*
X143920000Y-106250000D03*
X143920000Y-108790000D03*
X146460000Y-106250000D03*
X146460000Y-108790000D03*
X149000000Y-106250000D03*
X149000000Y-108790000D03*
X151540000Y-106250000D03*
X151540000Y-108790000D03*
X154080000Y-106250000D03*
X154080000Y-108790000D03*
X156620000Y-106250000D03*
X156620000Y-108790000D03*
%TD*%
D10*
%TO.C,J11*%
X145975000Y-80750000D03*
D11*
X148515000Y-80750000D03*
%TD*%
D10*
%TO.C,J13*%
X137975000Y-89000000D03*
D11*
X140515000Y-89000000D03*
%TD*%
D17*
%TO.C,J8*%
X165725000Y-84000000D03*
D18*
X167521051Y-85796051D03*
%TD*%
D10*
%TO.C,J10*%
X141025000Y-76750000D03*
D11*
X138485000Y-76750000D03*
%TD*%
D10*
%TO.C,J7*%
X114010000Y-100000000D03*
D11*
X111470000Y-100000000D03*
%TD*%
D10*
%TO.C,J14*%
X166000000Y-93500000D03*
%TD*%
D20*
%TO.C,D2*%
X119881460Y-91113693D03*
D15*
X118085409Y-92909744D03*
%TD*%
D10*
%TO.C,J6*%
X117750000Y-99500000D03*
%TD*%
D21*
%TO.C,D3*%
X140750000Y-85825000D03*
D15*
X138210000Y-85825000D03*
%TD*%
D22*
%TO.C,U3*%
X156071267Y-99520836D03*
D15*
X154275216Y-97724785D03*
X152479165Y-95928734D03*
%TD*%
D10*
%TO.C,J16*%
X164250000Y-100500000D03*
D11*
X164250000Y-97960000D03*
%TD*%
D10*
%TO.C,J17*%
X149025000Y-77000000D03*
D11*
X146485000Y-77000000D03*
%TD*%
M02*
