%TF.GenerationSoftware,KiCad,Pcbnew,8.0.0*%
%TF.CreationDate,2024-03-24T13:58:47+02:00*%
%TF.ProjectId,sensor,73656e73-6f72-42e6-9b69-6361645f7063,rev?*%
%TF.SameCoordinates,Original*%
%TF.FileFunction,Legend,Top*%
%TF.FilePolarity,Positive*%
%FSLAX46Y46*%
G04 Gerber Fmt 4.6, Leading zero omitted, Abs format (unit mm)*
G04 Created by KiCad (PCBNEW 8.0.0) date 2024-03-24 13:58:47*
%MOMM*%
%LPD*%
G01*
G04 APERTURE LIST*
G04 Aperture macros list*
%AMRoundRect*
0 Rectangle with rounded corners*
0 $1 Rounding radius*
0 $2 $3 $4 $5 $6 $7 $8 $9 X,Y pos of 4 corners*
0 Add a 4 corners polygon primitive as box body*
4,1,4,$2,$3,$4,$5,$6,$7,$8,$9,$2,$3,0*
0 Add four circle primitives for the rounded corners*
1,1,$1+$1,$2,$3*
1,1,$1+$1,$4,$5*
1,1,$1+$1,$6,$7*
1,1,$1+$1,$8,$9*
0 Add four rect primitives between the rounded corners*
20,1,$1+$1,$2,$3,$4,$5,0*
20,1,$1+$1,$4,$5,$6,$7,0*
20,1,$1+$1,$6,$7,$8,$9,0*
20,1,$1+$1,$8,$9,$2,$3,0*%
%AMHorizOval*
0 Thick line with rounded ends*
0 $1 width*
0 $2 $3 position (X,Y) of the first rounded end (center of the circle)*
0 $4 $5 position (X,Y) of the second rounded end (center of the circle)*
0 Add line between two ends*
20,1,$1,$2,$3,$4,$5,0*
0 Add two circle primitives to create the rounded ends*
1,1,$1,$2,$3*
1,1,$1,$4,$5*%
%AMRotRect*
0 Rectangle, with rotation*
0 The origin of the aperture is its center*
0 $1 length*
0 $2 width*
0 $3 Rotation angle, in degrees counterclockwise*
0 Add horizontal line*
21,1,$1,$2,0,0,$3*%
G04 Aperture macros list end*
%ADD10C,0.150000*%
%ADD11C,0.120000*%
%ADD12R,1.700000X1.700000*%
%ADD13O,1.700000X1.700000*%
%ADD14RotRect,1.700000X1.700000X315.000000*%
%ADD15HorizOval,1.700000X0.000000X0.000000X0.000000X0.000000X0*%
%ADD16RoundRect,0.250200X0.649800X0.649800X-0.649800X0.649800X-0.649800X-0.649800X0.649800X-0.649800X0*%
%ADD17C,1.800000*%
%ADD18RotRect,1.800000X1.800000X135.000000*%
%ADD19RotRect,1.700000X1.700000X45.000000*%
%ADD20HorizOval,1.700000X0.000000X0.000000X0.000000X0.000000X0*%
%ADD21RoundRect,0.250200X0.000000X0.918956X-0.918956X0.000000X0.000000X-0.918956X0.918956X0.000000X0*%
%ADD22C,1.000000*%
%ADD23RoundRect,0.250000X0.450000X-0.262500X0.450000X0.262500X-0.450000X0.262500X-0.450000X-0.262500X0*%
%ADD24RoundRect,0.250000X-0.625000X0.312500X-0.625000X-0.312500X0.625000X-0.312500X0.625000X0.312500X0*%
%ADD25RoundRect,0.250000X-0.450000X0.262500X-0.450000X-0.262500X0.450000X-0.262500X0.450000X0.262500X0*%
%ADD26RoundRect,0.150000X0.150000X-0.587500X0.150000X0.587500X-0.150000X0.587500X-0.150000X-0.587500X0*%
%ADD27RoundRect,0.250000X0.262500X0.450000X-0.262500X0.450000X-0.262500X-0.450000X0.262500X-0.450000X0*%
%ADD28RoundRect,0.150000X0.150000X-0.825000X0.150000X0.825000X-0.150000X0.825000X-0.150000X-0.825000X0*%
%ADD29RotRect,1.800000X1.800000X225.000000*%
%ADD30R,1.800000X1.800000*%
%ADD31RoundRect,0.250200X0.918956X0.000000X0.000000X0.918956X-0.918956X0.000000X0.000000X-0.918956X0*%
G04 APERTURE END LIST*
D10*
X167666666Y-102059819D02*
X167666666Y-102774104D01*
X167666666Y-102774104D02*
X167619047Y-102916961D01*
X167619047Y-102916961D02*
X167523809Y-103012200D01*
X167523809Y-103012200D02*
X167380952Y-103059819D01*
X167380952Y-103059819D02*
X167285714Y-103059819D01*
X168190476Y-103059819D02*
X168380952Y-103059819D01*
X168380952Y-103059819D02*
X168476190Y-103012200D01*
X168476190Y-103012200D02*
X168523809Y-102964580D01*
X168523809Y-102964580D02*
X168619047Y-102821723D01*
X168619047Y-102821723D02*
X168666666Y-102631247D01*
X168666666Y-102631247D02*
X168666666Y-102250295D01*
X168666666Y-102250295D02*
X168619047Y-102155057D01*
X168619047Y-102155057D02*
X168571428Y-102107438D01*
X168571428Y-102107438D02*
X168476190Y-102059819D01*
X168476190Y-102059819D02*
X168285714Y-102059819D01*
X168285714Y-102059819D02*
X168190476Y-102107438D01*
X168190476Y-102107438D02*
X168142857Y-102155057D01*
X168142857Y-102155057D02*
X168095238Y-102250295D01*
X168095238Y-102250295D02*
X168095238Y-102488390D01*
X168095238Y-102488390D02*
X168142857Y-102583628D01*
X168142857Y-102583628D02*
X168190476Y-102631247D01*
X168190476Y-102631247D02*
X168285714Y-102678866D01*
X168285714Y-102678866D02*
X168476190Y-102678866D01*
X168476190Y-102678866D02*
X168571428Y-102631247D01*
X168571428Y-102631247D02*
X168619047Y-102583628D01*
X168619047Y-102583628D02*
X168666666Y-102488390D01*
X123848919Y-91129674D02*
X123343843Y-91634750D01*
X123343843Y-91634750D02*
X123209156Y-91702094D01*
X123209156Y-91702094D02*
X123074469Y-91702094D01*
X123074469Y-91702094D02*
X122939782Y-91634750D01*
X122939782Y-91634750D02*
X122872438Y-91567407D01*
X124522354Y-91803109D02*
X124185637Y-91466392D01*
X124185637Y-91466392D02*
X123815248Y-91769437D01*
X123815248Y-91769437D02*
X123882591Y-91769437D01*
X123882591Y-91769437D02*
X123983606Y-91803109D01*
X123983606Y-91803109D02*
X124151965Y-91971468D01*
X124151965Y-91971468D02*
X124185637Y-92072483D01*
X124185637Y-92072483D02*
X124185637Y-92139827D01*
X124185637Y-92139827D02*
X124151965Y-92240842D01*
X124151965Y-92240842D02*
X123983606Y-92409201D01*
X123983606Y-92409201D02*
X123882591Y-92442872D01*
X123882591Y-92442872D02*
X123815248Y-92442872D01*
X123815248Y-92442872D02*
X123714232Y-92409201D01*
X123714232Y-92409201D02*
X123545874Y-92240842D01*
X123545874Y-92240842D02*
X123512202Y-92139827D01*
X123512202Y-92139827D02*
X123512202Y-92072483D01*
X143440476Y-90784819D02*
X143440476Y-91499104D01*
X143440476Y-91499104D02*
X143392857Y-91641961D01*
X143392857Y-91641961D02*
X143297619Y-91737200D01*
X143297619Y-91737200D02*
X143154762Y-91784819D01*
X143154762Y-91784819D02*
X143059524Y-91784819D01*
X144440476Y-91784819D02*
X143869048Y-91784819D01*
X144154762Y-91784819D02*
X144154762Y-90784819D01*
X144154762Y-90784819D02*
X144059524Y-90927676D01*
X144059524Y-90927676D02*
X143964286Y-91022914D01*
X143964286Y-91022914D02*
X143869048Y-91070533D01*
X145345238Y-90784819D02*
X144869048Y-90784819D01*
X144869048Y-90784819D02*
X144821429Y-91261009D01*
X144821429Y-91261009D02*
X144869048Y-91213390D01*
X144869048Y-91213390D02*
X144964286Y-91165771D01*
X144964286Y-91165771D02*
X145202381Y-91165771D01*
X145202381Y-91165771D02*
X145297619Y-91213390D01*
X145297619Y-91213390D02*
X145345238Y-91261009D01*
X145345238Y-91261009D02*
X145392857Y-91356247D01*
X145392857Y-91356247D02*
X145392857Y-91594342D01*
X145392857Y-91594342D02*
X145345238Y-91689580D01*
X145345238Y-91689580D02*
X145297619Y-91737200D01*
X145297619Y-91737200D02*
X145202381Y-91784819D01*
X145202381Y-91784819D02*
X144964286Y-91784819D01*
X144964286Y-91784819D02*
X144869048Y-91737200D01*
X144869048Y-91737200D02*
X144821429Y-91689580D01*
X112544289Y-89378796D02*
X112039213Y-89883872D01*
X112039213Y-89883872D02*
X111904526Y-89951216D01*
X111904526Y-89951216D02*
X111769839Y-89951216D01*
X111769839Y-89951216D02*
X111635152Y-89883872D01*
X111635152Y-89883872D02*
X111567808Y-89816529D01*
X112544289Y-90793010D02*
X112140228Y-90388949D01*
X112342259Y-90590979D02*
X113049366Y-89883872D01*
X113049366Y-89883872D02*
X112881007Y-89917544D01*
X112881007Y-89917544D02*
X112746320Y-89917544D01*
X112746320Y-89917544D02*
X112645305Y-89883872D01*
X133988095Y-92454819D02*
X133988095Y-93264342D01*
X133988095Y-93264342D02*
X134035714Y-93359580D01*
X134035714Y-93359580D02*
X134083333Y-93407200D01*
X134083333Y-93407200D02*
X134178571Y-93454819D01*
X134178571Y-93454819D02*
X134369047Y-93454819D01*
X134369047Y-93454819D02*
X134464285Y-93407200D01*
X134464285Y-93407200D02*
X134511904Y-93359580D01*
X134511904Y-93359580D02*
X134559523Y-93264342D01*
X134559523Y-93264342D02*
X134559523Y-92454819D01*
X135464285Y-92788152D02*
X135464285Y-93454819D01*
X135226190Y-92407200D02*
X134988095Y-93121485D01*
X134988095Y-93121485D02*
X135607142Y-93121485D01*
X161656482Y-93799693D02*
X162363589Y-93092587D01*
X162363589Y-93092587D02*
X162531948Y-93260945D01*
X162531948Y-93260945D02*
X162599291Y-93395632D01*
X162599291Y-93395632D02*
X162599291Y-93530319D01*
X162599291Y-93530319D02*
X162565619Y-93631335D01*
X162565619Y-93631335D02*
X162464604Y-93799693D01*
X162464604Y-93799693D02*
X162363589Y-93900709D01*
X162363589Y-93900709D02*
X162195230Y-94001724D01*
X162195230Y-94001724D02*
X162094215Y-94035396D01*
X162094215Y-94035396D02*
X161959528Y-94035396D01*
X161959528Y-94035396D02*
X161824841Y-93968052D01*
X161824841Y-93968052D02*
X161656482Y-93799693D01*
X162733978Y-94877189D02*
X162329917Y-94473128D01*
X162531948Y-94675159D02*
X163239054Y-93968052D01*
X163239054Y-93968052D02*
X163070696Y-94001724D01*
X163070696Y-94001724D02*
X162936009Y-94001724D01*
X162936009Y-94001724D02*
X162834993Y-93968052D01*
X110941666Y-109059819D02*
X110941666Y-109774104D01*
X110941666Y-109774104D02*
X110894047Y-109916961D01*
X110894047Y-109916961D02*
X110798809Y-110012200D01*
X110798809Y-110012200D02*
X110655952Y-110059819D01*
X110655952Y-110059819D02*
X110560714Y-110059819D01*
X111370238Y-109155057D02*
X111417857Y-109107438D01*
X111417857Y-109107438D02*
X111513095Y-109059819D01*
X111513095Y-109059819D02*
X111751190Y-109059819D01*
X111751190Y-109059819D02*
X111846428Y-109107438D01*
X111846428Y-109107438D02*
X111894047Y-109155057D01*
X111894047Y-109155057D02*
X111941666Y-109250295D01*
X111941666Y-109250295D02*
X111941666Y-109345533D01*
X111941666Y-109345533D02*
X111894047Y-109488390D01*
X111894047Y-109488390D02*
X111322619Y-110059819D01*
X111322619Y-110059819D02*
X111941666Y-110059819D01*
X155042080Y-91686917D02*
X155547156Y-92191993D01*
X155547156Y-92191993D02*
X155614500Y-92326680D01*
X155614500Y-92326680D02*
X155614500Y-92461367D01*
X155614500Y-92461367D02*
X155547156Y-92596054D01*
X155547156Y-92596054D02*
X155479813Y-92663398D01*
X156456294Y-91686917D02*
X156052233Y-92090978D01*
X156254263Y-91888947D02*
X155547156Y-91181840D01*
X155547156Y-91181840D02*
X155580828Y-91350199D01*
X155580828Y-91350199D02*
X155580828Y-91484886D01*
X155580828Y-91484886D02*
X155547156Y-91585901D01*
X156085904Y-90777779D02*
X156085904Y-90710436D01*
X156085904Y-90710436D02*
X156119576Y-90609421D01*
X156119576Y-90609421D02*
X156287935Y-90441062D01*
X156287935Y-90441062D02*
X156388950Y-90407390D01*
X156388950Y-90407390D02*
X156456294Y-90407390D01*
X156456294Y-90407390D02*
X156557309Y-90441062D01*
X156557309Y-90441062D02*
X156624652Y-90508405D01*
X156624652Y-90508405D02*
X156691996Y-90643092D01*
X156691996Y-90643092D02*
X156691996Y-91451214D01*
X156691996Y-91451214D02*
X157129729Y-91013482D01*
X125965875Y-100546803D02*
X126538295Y-101119223D01*
X126538295Y-101119223D02*
X126639310Y-101152895D01*
X126639310Y-101152895D02*
X126706654Y-101152895D01*
X126706654Y-101152895D02*
X126807669Y-101119223D01*
X126807669Y-101119223D02*
X126942356Y-100984536D01*
X126942356Y-100984536D02*
X126976028Y-100883521D01*
X126976028Y-100883521D02*
X126976028Y-100816177D01*
X126976028Y-100816177D02*
X126942356Y-100715162D01*
X126942356Y-100715162D02*
X126369936Y-100142742D01*
X126740326Y-99907040D02*
X126740326Y-99839697D01*
X126740326Y-99839697D02*
X126773997Y-99738681D01*
X126773997Y-99738681D02*
X126942356Y-99570323D01*
X126942356Y-99570323D02*
X127043371Y-99536651D01*
X127043371Y-99536651D02*
X127110715Y-99536651D01*
X127110715Y-99536651D02*
X127211730Y-99570323D01*
X127211730Y-99570323D02*
X127279074Y-99637666D01*
X127279074Y-99637666D02*
X127346417Y-99772353D01*
X127346417Y-99772353D02*
X127346417Y-100580475D01*
X127346417Y-100580475D02*
X127784150Y-100142742D01*
X114506819Y-109011904D02*
X114506819Y-108440476D01*
X115506819Y-108726190D02*
X114506819Y-108726190D01*
X115506819Y-108107142D02*
X114506819Y-108107142D01*
X114506819Y-108107142D02*
X114506819Y-107726190D01*
X114506819Y-107726190D02*
X114554438Y-107630952D01*
X114554438Y-107630952D02*
X114602057Y-107583333D01*
X114602057Y-107583333D02*
X114697295Y-107535714D01*
X114697295Y-107535714D02*
X114840152Y-107535714D01*
X114840152Y-107535714D02*
X114935390Y-107583333D01*
X114935390Y-107583333D02*
X114983009Y-107630952D01*
X114983009Y-107630952D02*
X115030628Y-107726190D01*
X115030628Y-107726190D02*
X115030628Y-108107142D01*
X115506819Y-106583333D02*
X115506819Y-107154761D01*
X115506819Y-106869047D02*
X114506819Y-106869047D01*
X114506819Y-106869047D02*
X114649676Y-106964285D01*
X114649676Y-106964285D02*
X114744914Y-107059523D01*
X114744914Y-107059523D02*
X114792533Y-107154761D01*
X145238095Y-95204819D02*
X145809523Y-95204819D01*
X145523809Y-96204819D02*
X145523809Y-95204819D01*
X146142857Y-96204819D02*
X146142857Y-95204819D01*
X146142857Y-95204819D02*
X146523809Y-95204819D01*
X146523809Y-95204819D02*
X146619047Y-95252438D01*
X146619047Y-95252438D02*
X146666666Y-95300057D01*
X146666666Y-95300057D02*
X146714285Y-95395295D01*
X146714285Y-95395295D02*
X146714285Y-95538152D01*
X146714285Y-95538152D02*
X146666666Y-95633390D01*
X146666666Y-95633390D02*
X146619047Y-95681009D01*
X146619047Y-95681009D02*
X146523809Y-95728628D01*
X146523809Y-95728628D02*
X146142857Y-95728628D01*
X147571428Y-95204819D02*
X147380952Y-95204819D01*
X147380952Y-95204819D02*
X147285714Y-95252438D01*
X147285714Y-95252438D02*
X147238095Y-95300057D01*
X147238095Y-95300057D02*
X147142857Y-95442914D01*
X147142857Y-95442914D02*
X147095238Y-95633390D01*
X147095238Y-95633390D02*
X147095238Y-96014342D01*
X147095238Y-96014342D02*
X147142857Y-96109580D01*
X147142857Y-96109580D02*
X147190476Y-96157200D01*
X147190476Y-96157200D02*
X147285714Y-96204819D01*
X147285714Y-96204819D02*
X147476190Y-96204819D01*
X147476190Y-96204819D02*
X147571428Y-96157200D01*
X147571428Y-96157200D02*
X147619047Y-96109580D01*
X147619047Y-96109580D02*
X147666666Y-96014342D01*
X147666666Y-96014342D02*
X147666666Y-95776247D01*
X147666666Y-95776247D02*
X147619047Y-95681009D01*
X147619047Y-95681009D02*
X147571428Y-95633390D01*
X147571428Y-95633390D02*
X147476190Y-95585771D01*
X147476190Y-95585771D02*
X147285714Y-95585771D01*
X147285714Y-95585771D02*
X147190476Y-95633390D01*
X147190476Y-95633390D02*
X147142857Y-95681009D01*
X147142857Y-95681009D02*
X147095238Y-95776247D01*
X158804819Y-101629166D02*
X158328628Y-101962499D01*
X158804819Y-102200594D02*
X157804819Y-102200594D01*
X157804819Y-102200594D02*
X157804819Y-101819642D01*
X157804819Y-101819642D02*
X157852438Y-101724404D01*
X157852438Y-101724404D02*
X157900057Y-101676785D01*
X157900057Y-101676785D02*
X157995295Y-101629166D01*
X157995295Y-101629166D02*
X158138152Y-101629166D01*
X158138152Y-101629166D02*
X158233390Y-101676785D01*
X158233390Y-101676785D02*
X158281009Y-101724404D01*
X158281009Y-101724404D02*
X158328628Y-101819642D01*
X158328628Y-101819642D02*
X158328628Y-102200594D01*
X157804819Y-101295832D02*
X157804819Y-100676785D01*
X157804819Y-100676785D02*
X158185771Y-101010118D01*
X158185771Y-101010118D02*
X158185771Y-100867261D01*
X158185771Y-100867261D02*
X158233390Y-100772023D01*
X158233390Y-100772023D02*
X158281009Y-100724404D01*
X158281009Y-100724404D02*
X158376247Y-100676785D01*
X158376247Y-100676785D02*
X158614342Y-100676785D01*
X158614342Y-100676785D02*
X158709580Y-100724404D01*
X158709580Y-100724404D02*
X158757200Y-100772023D01*
X158757200Y-100772023D02*
X158804819Y-100867261D01*
X158804819Y-100867261D02*
X158804819Y-101152975D01*
X158804819Y-101152975D02*
X158757200Y-101248213D01*
X158757200Y-101248213D02*
X158709580Y-101295832D01*
X120284819Y-107853333D02*
X120999104Y-107853333D01*
X120999104Y-107853333D02*
X121141961Y-107900952D01*
X121141961Y-107900952D02*
X121237200Y-107996190D01*
X121237200Y-107996190D02*
X121284819Y-108139047D01*
X121284819Y-108139047D02*
X121284819Y-108234285D01*
X120284819Y-107472380D02*
X120284819Y-106853333D01*
X120284819Y-106853333D02*
X120665771Y-107186666D01*
X120665771Y-107186666D02*
X120665771Y-107043809D01*
X120665771Y-107043809D02*
X120713390Y-106948571D01*
X120713390Y-106948571D02*
X120761009Y-106900952D01*
X120761009Y-106900952D02*
X120856247Y-106853333D01*
X120856247Y-106853333D02*
X121094342Y-106853333D01*
X121094342Y-106853333D02*
X121189580Y-106900952D01*
X121189580Y-106900952D02*
X121237200Y-106948571D01*
X121237200Y-106948571D02*
X121284819Y-107043809D01*
X121284819Y-107043809D02*
X121284819Y-107329523D01*
X121284819Y-107329523D02*
X121237200Y-107424761D01*
X121237200Y-107424761D02*
X121189580Y-107472380D01*
X167738095Y-92006819D02*
X168309523Y-92006819D01*
X168023809Y-93006819D02*
X168023809Y-92006819D01*
X168642857Y-93006819D02*
X168642857Y-92006819D01*
X168642857Y-92006819D02*
X169023809Y-92006819D01*
X169023809Y-92006819D02*
X169119047Y-92054438D01*
X169119047Y-92054438D02*
X169166666Y-92102057D01*
X169166666Y-92102057D02*
X169214285Y-92197295D01*
X169214285Y-92197295D02*
X169214285Y-92340152D01*
X169214285Y-92340152D02*
X169166666Y-92435390D01*
X169166666Y-92435390D02*
X169119047Y-92483009D01*
X169119047Y-92483009D02*
X169023809Y-92530628D01*
X169023809Y-92530628D02*
X168642857Y-92530628D01*
X169547619Y-92006819D02*
X170166666Y-92006819D01*
X170166666Y-92006819D02*
X169833333Y-92387771D01*
X169833333Y-92387771D02*
X169976190Y-92387771D01*
X169976190Y-92387771D02*
X170071428Y-92435390D01*
X170071428Y-92435390D02*
X170119047Y-92483009D01*
X170119047Y-92483009D02*
X170166666Y-92578247D01*
X170166666Y-92578247D02*
X170166666Y-92816342D01*
X170166666Y-92816342D02*
X170119047Y-92911580D01*
X170119047Y-92911580D02*
X170071428Y-92959200D01*
X170071428Y-92959200D02*
X169976190Y-93006819D01*
X169976190Y-93006819D02*
X169690476Y-93006819D01*
X169690476Y-93006819D02*
X169595238Y-92959200D01*
X169595238Y-92959200D02*
X169547619Y-92911580D01*
X161304819Y-106666666D02*
X160828628Y-106999999D01*
X161304819Y-107238094D02*
X160304819Y-107238094D01*
X160304819Y-107238094D02*
X160304819Y-106857142D01*
X160304819Y-106857142D02*
X160352438Y-106761904D01*
X160352438Y-106761904D02*
X160400057Y-106714285D01*
X160400057Y-106714285D02*
X160495295Y-106666666D01*
X160495295Y-106666666D02*
X160638152Y-106666666D01*
X160638152Y-106666666D02*
X160733390Y-106714285D01*
X160733390Y-106714285D02*
X160781009Y-106761904D01*
X160781009Y-106761904D02*
X160828628Y-106857142D01*
X160828628Y-106857142D02*
X160828628Y-107238094D01*
X160304819Y-105761904D02*
X160304819Y-106238094D01*
X160304819Y-106238094D02*
X160781009Y-106285713D01*
X160781009Y-106285713D02*
X160733390Y-106238094D01*
X160733390Y-106238094D02*
X160685771Y-106142856D01*
X160685771Y-106142856D02*
X160685771Y-105904761D01*
X160685771Y-105904761D02*
X160733390Y-105809523D01*
X160733390Y-105809523D02*
X160781009Y-105761904D01*
X160781009Y-105761904D02*
X160876247Y-105714285D01*
X160876247Y-105714285D02*
X161114342Y-105714285D01*
X161114342Y-105714285D02*
X161209580Y-105761904D01*
X161209580Y-105761904D02*
X161257200Y-105809523D01*
X161257200Y-105809523D02*
X161304819Y-105904761D01*
X161304819Y-105904761D02*
X161304819Y-106142856D01*
X161304819Y-106142856D02*
X161257200Y-106238094D01*
X161257200Y-106238094D02*
X161209580Y-106285713D01*
X151524819Y-94129166D02*
X151048628Y-94462499D01*
X151524819Y-94700594D02*
X150524819Y-94700594D01*
X150524819Y-94700594D02*
X150524819Y-94319642D01*
X150524819Y-94319642D02*
X150572438Y-94224404D01*
X150572438Y-94224404D02*
X150620057Y-94176785D01*
X150620057Y-94176785D02*
X150715295Y-94129166D01*
X150715295Y-94129166D02*
X150858152Y-94129166D01*
X150858152Y-94129166D02*
X150953390Y-94176785D01*
X150953390Y-94176785D02*
X151001009Y-94224404D01*
X151001009Y-94224404D02*
X151048628Y-94319642D01*
X151048628Y-94319642D02*
X151048628Y-94700594D01*
X150858152Y-93272023D02*
X151524819Y-93272023D01*
X150477200Y-93510118D02*
X151191485Y-93748213D01*
X151191485Y-93748213D02*
X151191485Y-93129166D01*
X143099819Y-81559523D02*
X143814104Y-81559523D01*
X143814104Y-81559523D02*
X143956961Y-81607142D01*
X143956961Y-81607142D02*
X144052200Y-81702380D01*
X144052200Y-81702380D02*
X144099819Y-81845237D01*
X144099819Y-81845237D02*
X144099819Y-81940475D01*
X144099819Y-80559523D02*
X144099819Y-81130951D01*
X144099819Y-80845237D02*
X143099819Y-80845237D01*
X143099819Y-80845237D02*
X143242676Y-80940475D01*
X143242676Y-80940475D02*
X143337914Y-81035713D01*
X143337914Y-81035713D02*
X143385533Y-81130951D01*
X144099819Y-79607142D02*
X144099819Y-80178570D01*
X144099819Y-79892856D02*
X143099819Y-79892856D01*
X143099819Y-79892856D02*
X143242676Y-79988094D01*
X143242676Y-79988094D02*
X143337914Y-80083332D01*
X143337914Y-80083332D02*
X143385533Y-80178570D01*
X122104819Y-104416666D02*
X121628628Y-104749999D01*
X122104819Y-104988094D02*
X121104819Y-104988094D01*
X121104819Y-104988094D02*
X121104819Y-104607142D01*
X121104819Y-104607142D02*
X121152438Y-104511904D01*
X121152438Y-104511904D02*
X121200057Y-104464285D01*
X121200057Y-104464285D02*
X121295295Y-104416666D01*
X121295295Y-104416666D02*
X121438152Y-104416666D01*
X121438152Y-104416666D02*
X121533390Y-104464285D01*
X121533390Y-104464285D02*
X121581009Y-104511904D01*
X121581009Y-104511904D02*
X121628628Y-104607142D01*
X121628628Y-104607142D02*
X121628628Y-104988094D01*
X122104819Y-103464285D02*
X122104819Y-104035713D01*
X122104819Y-103749999D02*
X121104819Y-103749999D01*
X121104819Y-103749999D02*
X121247676Y-103845237D01*
X121247676Y-103845237D02*
X121342914Y-103940475D01*
X121342914Y-103940475D02*
X121390533Y-104035713D01*
X154756819Y-104261904D02*
X154756819Y-103690476D01*
X155756819Y-103976190D02*
X154756819Y-103976190D01*
X155756819Y-103357142D02*
X154756819Y-103357142D01*
X154756819Y-103357142D02*
X154756819Y-102976190D01*
X154756819Y-102976190D02*
X154804438Y-102880952D01*
X154804438Y-102880952D02*
X154852057Y-102833333D01*
X154852057Y-102833333D02*
X154947295Y-102785714D01*
X154947295Y-102785714D02*
X155090152Y-102785714D01*
X155090152Y-102785714D02*
X155185390Y-102833333D01*
X155185390Y-102833333D02*
X155233009Y-102880952D01*
X155233009Y-102880952D02*
X155280628Y-102976190D01*
X155280628Y-102976190D02*
X155280628Y-103357142D01*
X154756819Y-101880952D02*
X154756819Y-102357142D01*
X154756819Y-102357142D02*
X155233009Y-102404761D01*
X155233009Y-102404761D02*
X155185390Y-102357142D01*
X155185390Y-102357142D02*
X155137771Y-102261904D01*
X155137771Y-102261904D02*
X155137771Y-102023809D01*
X155137771Y-102023809D02*
X155185390Y-101928571D01*
X155185390Y-101928571D02*
X155233009Y-101880952D01*
X155233009Y-101880952D02*
X155328247Y-101833333D01*
X155328247Y-101833333D02*
X155566342Y-101833333D01*
X155566342Y-101833333D02*
X155661580Y-101880952D01*
X155661580Y-101880952D02*
X155709200Y-101928571D01*
X155709200Y-101928571D02*
X155756819Y-102023809D01*
X155756819Y-102023809D02*
X155756819Y-102261904D01*
X155756819Y-102261904D02*
X155709200Y-102357142D01*
X155709200Y-102357142D02*
X155661580Y-102404761D01*
X114150057Y-104095238D02*
X114102438Y-104190476D01*
X114102438Y-104190476D02*
X114007200Y-104285714D01*
X114007200Y-104285714D02*
X113864342Y-104428571D01*
X113864342Y-104428571D02*
X113816723Y-104523809D01*
X113816723Y-104523809D02*
X113816723Y-104619047D01*
X114054819Y-104571428D02*
X114007200Y-104666666D01*
X114007200Y-104666666D02*
X113911961Y-104761904D01*
X113911961Y-104761904D02*
X113721485Y-104809523D01*
X113721485Y-104809523D02*
X113388152Y-104809523D01*
X113388152Y-104809523D02*
X113197676Y-104761904D01*
X113197676Y-104761904D02*
X113102438Y-104666666D01*
X113102438Y-104666666D02*
X113054819Y-104571428D01*
X113054819Y-104571428D02*
X113054819Y-104380952D01*
X113054819Y-104380952D02*
X113102438Y-104285714D01*
X113102438Y-104285714D02*
X113197676Y-104190476D01*
X113197676Y-104190476D02*
X113388152Y-104142857D01*
X113388152Y-104142857D02*
X113721485Y-104142857D01*
X113721485Y-104142857D02*
X113911961Y-104190476D01*
X113911961Y-104190476D02*
X114007200Y-104285714D01*
X114007200Y-104285714D02*
X114054819Y-104380952D01*
X114054819Y-104380952D02*
X114054819Y-104571428D01*
X114054819Y-103190476D02*
X114054819Y-103761904D01*
X114054819Y-103476190D02*
X113054819Y-103476190D01*
X113054819Y-103476190D02*
X113197676Y-103571428D01*
X113197676Y-103571428D02*
X113292914Y-103666666D01*
X113292914Y-103666666D02*
X113340533Y-103761904D01*
X152506819Y-82011904D02*
X152506819Y-81440476D01*
X153506819Y-81726190D02*
X152506819Y-81726190D01*
X153506819Y-81107142D02*
X152506819Y-81107142D01*
X152506819Y-81107142D02*
X152506819Y-80726190D01*
X152506819Y-80726190D02*
X152554438Y-80630952D01*
X152554438Y-80630952D02*
X152602057Y-80583333D01*
X152602057Y-80583333D02*
X152697295Y-80535714D01*
X152697295Y-80535714D02*
X152840152Y-80535714D01*
X152840152Y-80535714D02*
X152935390Y-80583333D01*
X152935390Y-80583333D02*
X152983009Y-80630952D01*
X152983009Y-80630952D02*
X153030628Y-80726190D01*
X153030628Y-80726190D02*
X153030628Y-81107142D01*
X152840152Y-79678571D02*
X153506819Y-79678571D01*
X152459200Y-79916666D02*
X153173485Y-80154761D01*
X153173485Y-80154761D02*
X153173485Y-79535714D01*
X165150057Y-105595238D02*
X165102438Y-105690476D01*
X165102438Y-105690476D02*
X165007200Y-105785714D01*
X165007200Y-105785714D02*
X164864342Y-105928571D01*
X164864342Y-105928571D02*
X164816723Y-106023809D01*
X164816723Y-106023809D02*
X164816723Y-106119047D01*
X165054819Y-106071428D02*
X165007200Y-106166666D01*
X165007200Y-106166666D02*
X164911961Y-106261904D01*
X164911961Y-106261904D02*
X164721485Y-106309523D01*
X164721485Y-106309523D02*
X164388152Y-106309523D01*
X164388152Y-106309523D02*
X164197676Y-106261904D01*
X164197676Y-106261904D02*
X164102438Y-106166666D01*
X164102438Y-106166666D02*
X164054819Y-106071428D01*
X164054819Y-106071428D02*
X164054819Y-105880952D01*
X164054819Y-105880952D02*
X164102438Y-105785714D01*
X164102438Y-105785714D02*
X164197676Y-105690476D01*
X164197676Y-105690476D02*
X164388152Y-105642857D01*
X164388152Y-105642857D02*
X164721485Y-105642857D01*
X164721485Y-105642857D02*
X164911961Y-105690476D01*
X164911961Y-105690476D02*
X165007200Y-105785714D01*
X165007200Y-105785714D02*
X165054819Y-105880952D01*
X165054819Y-105880952D02*
X165054819Y-106071428D01*
X164150057Y-105261904D02*
X164102438Y-105214285D01*
X164102438Y-105214285D02*
X164054819Y-105119047D01*
X164054819Y-105119047D02*
X164054819Y-104880952D01*
X164054819Y-104880952D02*
X164102438Y-104785714D01*
X164102438Y-104785714D02*
X164150057Y-104738095D01*
X164150057Y-104738095D02*
X164245295Y-104690476D01*
X164245295Y-104690476D02*
X164340533Y-104690476D01*
X164340533Y-104690476D02*
X164483390Y-104738095D01*
X164483390Y-104738095D02*
X165054819Y-105309523D01*
X165054819Y-105309523D02*
X165054819Y-104690476D01*
X134929819Y-90009523D02*
X135644104Y-90009523D01*
X135644104Y-90009523D02*
X135786961Y-90057142D01*
X135786961Y-90057142D02*
X135882200Y-90152380D01*
X135882200Y-90152380D02*
X135929819Y-90295237D01*
X135929819Y-90295237D02*
X135929819Y-90390475D01*
X135929819Y-89009523D02*
X135929819Y-89580951D01*
X135929819Y-89295237D02*
X134929819Y-89295237D01*
X134929819Y-89295237D02*
X135072676Y-89390475D01*
X135072676Y-89390475D02*
X135167914Y-89485713D01*
X135167914Y-89485713D02*
X135215533Y-89580951D01*
X134929819Y-88676189D02*
X134929819Y-88057142D01*
X134929819Y-88057142D02*
X135310771Y-88390475D01*
X135310771Y-88390475D02*
X135310771Y-88247618D01*
X135310771Y-88247618D02*
X135358390Y-88152380D01*
X135358390Y-88152380D02*
X135406009Y-88104761D01*
X135406009Y-88104761D02*
X135501247Y-88057142D01*
X135501247Y-88057142D02*
X135739342Y-88057142D01*
X135739342Y-88057142D02*
X135834580Y-88104761D01*
X135834580Y-88104761D02*
X135882200Y-88152380D01*
X135882200Y-88152380D02*
X135929819Y-88247618D01*
X135929819Y-88247618D02*
X135929819Y-88533332D01*
X135929819Y-88533332D02*
X135882200Y-88628570D01*
X135882200Y-88628570D02*
X135834580Y-88676189D01*
X147800057Y-87095238D02*
X147752438Y-87190476D01*
X147752438Y-87190476D02*
X147657200Y-87285714D01*
X147657200Y-87285714D02*
X147514342Y-87428571D01*
X147514342Y-87428571D02*
X147466723Y-87523809D01*
X147466723Y-87523809D02*
X147466723Y-87619047D01*
X147704819Y-87571428D02*
X147657200Y-87666666D01*
X147657200Y-87666666D02*
X147561961Y-87761904D01*
X147561961Y-87761904D02*
X147371485Y-87809523D01*
X147371485Y-87809523D02*
X147038152Y-87809523D01*
X147038152Y-87809523D02*
X146847676Y-87761904D01*
X146847676Y-87761904D02*
X146752438Y-87666666D01*
X146752438Y-87666666D02*
X146704819Y-87571428D01*
X146704819Y-87571428D02*
X146704819Y-87380952D01*
X146704819Y-87380952D02*
X146752438Y-87285714D01*
X146752438Y-87285714D02*
X146847676Y-87190476D01*
X146847676Y-87190476D02*
X147038152Y-87142857D01*
X147038152Y-87142857D02*
X147371485Y-87142857D01*
X147371485Y-87142857D02*
X147561961Y-87190476D01*
X147561961Y-87190476D02*
X147657200Y-87285714D01*
X147657200Y-87285714D02*
X147704819Y-87380952D01*
X147704819Y-87380952D02*
X147704819Y-87571428D01*
X146704819Y-86809523D02*
X146704819Y-86190476D01*
X146704819Y-86190476D02*
X147085771Y-86523809D01*
X147085771Y-86523809D02*
X147085771Y-86380952D01*
X147085771Y-86380952D02*
X147133390Y-86285714D01*
X147133390Y-86285714D02*
X147181009Y-86238095D01*
X147181009Y-86238095D02*
X147276247Y-86190476D01*
X147276247Y-86190476D02*
X147514342Y-86190476D01*
X147514342Y-86190476D02*
X147609580Y-86238095D01*
X147609580Y-86238095D02*
X147657200Y-86285714D01*
X147657200Y-86285714D02*
X147704819Y-86380952D01*
X147704819Y-86380952D02*
X147704819Y-86666666D01*
X147704819Y-86666666D02*
X147657200Y-86761904D01*
X147657200Y-86761904D02*
X147609580Y-86809523D01*
X163456237Y-82202642D02*
X163961313Y-82707718D01*
X163961313Y-82707718D02*
X164028657Y-82842405D01*
X164028657Y-82842405D02*
X164028657Y-82977092D01*
X164028657Y-82977092D02*
X163961313Y-83111779D01*
X163961313Y-83111779D02*
X163893970Y-83179123D01*
X164197016Y-82067955D02*
X164096000Y-82101626D01*
X164096000Y-82101626D02*
X164028657Y-82101626D01*
X164028657Y-82101626D02*
X163927642Y-82067955D01*
X163927642Y-82067955D02*
X163893970Y-82034283D01*
X163893970Y-82034283D02*
X163860298Y-81933268D01*
X163860298Y-81933268D02*
X163860298Y-81865924D01*
X163860298Y-81865924D02*
X163893970Y-81764909D01*
X163893970Y-81764909D02*
X164028657Y-81630222D01*
X164028657Y-81630222D02*
X164129672Y-81596550D01*
X164129672Y-81596550D02*
X164197016Y-81596550D01*
X164197016Y-81596550D02*
X164298031Y-81630222D01*
X164298031Y-81630222D02*
X164331703Y-81663894D01*
X164331703Y-81663894D02*
X164365374Y-81764909D01*
X164365374Y-81764909D02*
X164365374Y-81832252D01*
X164365374Y-81832252D02*
X164331703Y-81933268D01*
X164331703Y-81933268D02*
X164197016Y-82067955D01*
X164197016Y-82067955D02*
X164163344Y-82168970D01*
X164163344Y-82168970D02*
X164163344Y-82236313D01*
X164163344Y-82236313D02*
X164197016Y-82337329D01*
X164197016Y-82337329D02*
X164331703Y-82472016D01*
X164331703Y-82472016D02*
X164432718Y-82505687D01*
X164432718Y-82505687D02*
X164500061Y-82505687D01*
X164500061Y-82505687D02*
X164601077Y-82472016D01*
X164601077Y-82472016D02*
X164735764Y-82337329D01*
X164735764Y-82337329D02*
X164769435Y-82236313D01*
X164769435Y-82236313D02*
X164769435Y-82168970D01*
X164769435Y-82168970D02*
X164735764Y-82067955D01*
X164735764Y-82067955D02*
X164601077Y-81933268D01*
X164601077Y-81933268D02*
X164500061Y-81899596D01*
X164500061Y-81899596D02*
X164432718Y-81899596D01*
X164432718Y-81899596D02*
X164331703Y-81933268D01*
X142809819Y-77559523D02*
X143524104Y-77559523D01*
X143524104Y-77559523D02*
X143666961Y-77607142D01*
X143666961Y-77607142D02*
X143762200Y-77702380D01*
X143762200Y-77702380D02*
X143809819Y-77845237D01*
X143809819Y-77845237D02*
X143809819Y-77940475D01*
X143809819Y-76559523D02*
X143809819Y-77130951D01*
X143809819Y-76845237D02*
X142809819Y-76845237D01*
X142809819Y-76845237D02*
X142952676Y-76940475D01*
X142952676Y-76940475D02*
X143047914Y-77035713D01*
X143047914Y-77035713D02*
X143095533Y-77130951D01*
X142809819Y-75940475D02*
X142809819Y-75845237D01*
X142809819Y-75845237D02*
X142857438Y-75749999D01*
X142857438Y-75749999D02*
X142905057Y-75702380D01*
X142905057Y-75702380D02*
X143000295Y-75654761D01*
X143000295Y-75654761D02*
X143190771Y-75607142D01*
X143190771Y-75607142D02*
X143428866Y-75607142D01*
X143428866Y-75607142D02*
X143619342Y-75654761D01*
X143619342Y-75654761D02*
X143714580Y-75702380D01*
X143714580Y-75702380D02*
X143762200Y-75749999D01*
X143762200Y-75749999D02*
X143809819Y-75845237D01*
X143809819Y-75845237D02*
X143809819Y-75940475D01*
X143809819Y-75940475D02*
X143762200Y-76035713D01*
X143762200Y-76035713D02*
X143714580Y-76083332D01*
X143714580Y-76083332D02*
X143619342Y-76130951D01*
X143619342Y-76130951D02*
X143428866Y-76178570D01*
X143428866Y-76178570D02*
X143190771Y-76178570D01*
X143190771Y-76178570D02*
X143000295Y-76130951D01*
X143000295Y-76130951D02*
X142905057Y-76083332D01*
X142905057Y-76083332D02*
X142857438Y-76035713D01*
X142857438Y-76035713D02*
X142809819Y-75940475D01*
X114204819Y-98083333D02*
X114919104Y-98083333D01*
X114919104Y-98083333D02*
X115061961Y-98130952D01*
X115061961Y-98130952D02*
X115157200Y-98226190D01*
X115157200Y-98226190D02*
X115204819Y-98369047D01*
X115204819Y-98369047D02*
X115204819Y-98464285D01*
X114204819Y-97702380D02*
X114204819Y-97035714D01*
X114204819Y-97035714D02*
X115204819Y-97464285D01*
X165190476Y-90624819D02*
X165190476Y-91339104D01*
X165190476Y-91339104D02*
X165142857Y-91481961D01*
X165142857Y-91481961D02*
X165047619Y-91577200D01*
X165047619Y-91577200D02*
X164904762Y-91624819D01*
X164904762Y-91624819D02*
X164809524Y-91624819D01*
X166190476Y-91624819D02*
X165619048Y-91624819D01*
X165904762Y-91624819D02*
X165904762Y-90624819D01*
X165904762Y-90624819D02*
X165809524Y-90767676D01*
X165809524Y-90767676D02*
X165714286Y-90862914D01*
X165714286Y-90862914D02*
X165619048Y-90910533D01*
X167047619Y-90958152D02*
X167047619Y-91624819D01*
X166809524Y-90577200D02*
X166571429Y-91291485D01*
X166571429Y-91291485D02*
X167190476Y-91291485D01*
X147333333Y-87104819D02*
X147000000Y-86628628D01*
X146761905Y-87104819D02*
X146761905Y-86104819D01*
X146761905Y-86104819D02*
X147142857Y-86104819D01*
X147142857Y-86104819D02*
X147238095Y-86152438D01*
X147238095Y-86152438D02*
X147285714Y-86200057D01*
X147285714Y-86200057D02*
X147333333Y-86295295D01*
X147333333Y-86295295D02*
X147333333Y-86438152D01*
X147333333Y-86438152D02*
X147285714Y-86533390D01*
X147285714Y-86533390D02*
X147238095Y-86581009D01*
X147238095Y-86581009D02*
X147142857Y-86628628D01*
X147142857Y-86628628D02*
X146761905Y-86628628D01*
X148190476Y-86104819D02*
X148000000Y-86104819D01*
X148000000Y-86104819D02*
X147904762Y-86152438D01*
X147904762Y-86152438D02*
X147857143Y-86200057D01*
X147857143Y-86200057D02*
X147761905Y-86342914D01*
X147761905Y-86342914D02*
X147714286Y-86533390D01*
X147714286Y-86533390D02*
X147714286Y-86914342D01*
X147714286Y-86914342D02*
X147761905Y-87009580D01*
X147761905Y-87009580D02*
X147809524Y-87057200D01*
X147809524Y-87057200D02*
X147904762Y-87104819D01*
X147904762Y-87104819D02*
X148095238Y-87104819D01*
X148095238Y-87104819D02*
X148190476Y-87057200D01*
X148190476Y-87057200D02*
X148238095Y-87009580D01*
X148238095Y-87009580D02*
X148285714Y-86914342D01*
X148285714Y-86914342D02*
X148285714Y-86676247D01*
X148285714Y-86676247D02*
X148238095Y-86581009D01*
X148238095Y-86581009D02*
X148190476Y-86533390D01*
X148190476Y-86533390D02*
X148095238Y-86485771D01*
X148095238Y-86485771D02*
X147904762Y-86485771D01*
X147904762Y-86485771D02*
X147809524Y-86533390D01*
X147809524Y-86533390D02*
X147761905Y-86581009D01*
X147761905Y-86581009D02*
X147714286Y-86676247D01*
X134477319Y-101319404D02*
X135286842Y-101319404D01*
X135286842Y-101319404D02*
X135382080Y-101271785D01*
X135382080Y-101271785D02*
X135429700Y-101224166D01*
X135429700Y-101224166D02*
X135477319Y-101128928D01*
X135477319Y-101128928D02*
X135477319Y-100938452D01*
X135477319Y-100938452D02*
X135429700Y-100843214D01*
X135429700Y-100843214D02*
X135382080Y-100795595D01*
X135382080Y-100795595D02*
X135286842Y-100747976D01*
X135286842Y-100747976D02*
X134477319Y-100747976D01*
X135477319Y-99747976D02*
X135477319Y-100319404D01*
X135477319Y-100033690D02*
X134477319Y-100033690D01*
X134477319Y-100033690D02*
X134620176Y-100128928D01*
X134620176Y-100128928D02*
X134715414Y-100224166D01*
X134715414Y-100224166D02*
X134763033Y-100319404D01*
X121799693Y-89843517D02*
X121092587Y-89136410D01*
X121092587Y-89136410D02*
X121260945Y-88968051D01*
X121260945Y-88968051D02*
X121395632Y-88900708D01*
X121395632Y-88900708D02*
X121530319Y-88900708D01*
X121530319Y-88900708D02*
X121631335Y-88934380D01*
X121631335Y-88934380D02*
X121799693Y-89035395D01*
X121799693Y-89035395D02*
X121900709Y-89136410D01*
X121900709Y-89136410D02*
X122001724Y-89304769D01*
X122001724Y-89304769D02*
X122035396Y-89405784D01*
X122035396Y-89405784D02*
X122035396Y-89540471D01*
X122035396Y-89540471D02*
X121968052Y-89675158D01*
X121968052Y-89675158D02*
X121799693Y-89843517D01*
X121833365Y-88530319D02*
X121833365Y-88462975D01*
X121833365Y-88462975D02*
X121867037Y-88361960D01*
X121867037Y-88361960D02*
X122035396Y-88193601D01*
X122035396Y-88193601D02*
X122136411Y-88159929D01*
X122136411Y-88159929D02*
X122203754Y-88159929D01*
X122203754Y-88159929D02*
X122304770Y-88193601D01*
X122304770Y-88193601D02*
X122372113Y-88260945D01*
X122372113Y-88260945D02*
X122439457Y-88395632D01*
X122439457Y-88395632D02*
X122439457Y-89203754D01*
X122439457Y-89203754D02*
X122877189Y-88766021D01*
X128256819Y-95761904D02*
X128256819Y-95190476D01*
X129256819Y-95476190D02*
X128256819Y-95476190D01*
X129256819Y-94857142D02*
X128256819Y-94857142D01*
X128256819Y-94857142D02*
X128256819Y-94476190D01*
X128256819Y-94476190D02*
X128304438Y-94380952D01*
X128304438Y-94380952D02*
X128352057Y-94333333D01*
X128352057Y-94333333D02*
X128447295Y-94285714D01*
X128447295Y-94285714D02*
X128590152Y-94285714D01*
X128590152Y-94285714D02*
X128685390Y-94333333D01*
X128685390Y-94333333D02*
X128733009Y-94380952D01*
X128733009Y-94380952D02*
X128780628Y-94476190D01*
X128780628Y-94476190D02*
X128780628Y-94857142D01*
X128352057Y-93904761D02*
X128304438Y-93857142D01*
X128304438Y-93857142D02*
X128256819Y-93761904D01*
X128256819Y-93761904D02*
X128256819Y-93523809D01*
X128256819Y-93523809D02*
X128304438Y-93428571D01*
X128304438Y-93428571D02*
X128352057Y-93380952D01*
X128352057Y-93380952D02*
X128447295Y-93333333D01*
X128447295Y-93333333D02*
X128542533Y-93333333D01*
X128542533Y-93333333D02*
X128685390Y-93380952D01*
X128685390Y-93380952D02*
X129256819Y-93952380D01*
X129256819Y-93952380D02*
X129256819Y-93333333D01*
X117416666Y-96954819D02*
X117416666Y-97669104D01*
X117416666Y-97669104D02*
X117369047Y-97811961D01*
X117369047Y-97811961D02*
X117273809Y-97907200D01*
X117273809Y-97907200D02*
X117130952Y-97954819D01*
X117130952Y-97954819D02*
X117035714Y-97954819D01*
X118321428Y-96954819D02*
X118130952Y-96954819D01*
X118130952Y-96954819D02*
X118035714Y-97002438D01*
X118035714Y-97002438D02*
X117988095Y-97050057D01*
X117988095Y-97050057D02*
X117892857Y-97192914D01*
X117892857Y-97192914D02*
X117845238Y-97383390D01*
X117845238Y-97383390D02*
X117845238Y-97764342D01*
X117845238Y-97764342D02*
X117892857Y-97859580D01*
X117892857Y-97859580D02*
X117940476Y-97907200D01*
X117940476Y-97907200D02*
X118035714Y-97954819D01*
X118035714Y-97954819D02*
X118226190Y-97954819D01*
X118226190Y-97954819D02*
X118321428Y-97907200D01*
X118321428Y-97907200D02*
X118369047Y-97859580D01*
X118369047Y-97859580D02*
X118416666Y-97764342D01*
X118416666Y-97764342D02*
X118416666Y-97526247D01*
X118416666Y-97526247D02*
X118369047Y-97431009D01*
X118369047Y-97431009D02*
X118321428Y-97383390D01*
X118321428Y-97383390D02*
X118226190Y-97335771D01*
X118226190Y-97335771D02*
X118035714Y-97335771D01*
X118035714Y-97335771D02*
X117940476Y-97383390D01*
X117940476Y-97383390D02*
X117892857Y-97431009D01*
X117892857Y-97431009D02*
X117845238Y-97526247D01*
X142261905Y-86454819D02*
X142261905Y-85454819D01*
X142261905Y-85454819D02*
X142500000Y-85454819D01*
X142500000Y-85454819D02*
X142642857Y-85502438D01*
X142642857Y-85502438D02*
X142738095Y-85597676D01*
X142738095Y-85597676D02*
X142785714Y-85692914D01*
X142785714Y-85692914D02*
X142833333Y-85883390D01*
X142833333Y-85883390D02*
X142833333Y-86026247D01*
X142833333Y-86026247D02*
X142785714Y-86216723D01*
X142785714Y-86216723D02*
X142738095Y-86311961D01*
X142738095Y-86311961D02*
X142642857Y-86407200D01*
X142642857Y-86407200D02*
X142500000Y-86454819D01*
X142500000Y-86454819D02*
X142261905Y-86454819D01*
X143166667Y-85454819D02*
X143785714Y-85454819D01*
X143785714Y-85454819D02*
X143452381Y-85835771D01*
X143452381Y-85835771D02*
X143595238Y-85835771D01*
X143595238Y-85835771D02*
X143690476Y-85883390D01*
X143690476Y-85883390D02*
X143738095Y-85931009D01*
X143738095Y-85931009D02*
X143785714Y-86026247D01*
X143785714Y-86026247D02*
X143785714Y-86264342D01*
X143785714Y-86264342D02*
X143738095Y-86359580D01*
X143738095Y-86359580D02*
X143690476Y-86407200D01*
X143690476Y-86407200D02*
X143595238Y-86454819D01*
X143595238Y-86454819D02*
X143309524Y-86454819D01*
X143309524Y-86454819D02*
X143214286Y-86407200D01*
X143214286Y-86407200D02*
X143166667Y-86359580D01*
X152453197Y-98525875D02*
X151880777Y-99098295D01*
X151880777Y-99098295D02*
X151847105Y-99199310D01*
X151847105Y-99199310D02*
X151847105Y-99266654D01*
X151847105Y-99266654D02*
X151880777Y-99367669D01*
X151880777Y-99367669D02*
X152015464Y-99502356D01*
X152015464Y-99502356D02*
X152116479Y-99536028D01*
X152116479Y-99536028D02*
X152183823Y-99536028D01*
X152183823Y-99536028D02*
X152284838Y-99502356D01*
X152284838Y-99502356D02*
X152857258Y-98929936D01*
X153126632Y-99199310D02*
X153564364Y-99637043D01*
X153564364Y-99637043D02*
X153059288Y-99670715D01*
X153059288Y-99670715D02*
X153160303Y-99771730D01*
X153160303Y-99771730D02*
X153193975Y-99872745D01*
X153193975Y-99872745D02*
X153193975Y-99940089D01*
X153193975Y-99940089D02*
X153160303Y-100041104D01*
X153160303Y-100041104D02*
X152991945Y-100209463D01*
X152991945Y-100209463D02*
X152890929Y-100243135D01*
X152890929Y-100243135D02*
X152823586Y-100243135D01*
X152823586Y-100243135D02*
X152722571Y-100209463D01*
X152722571Y-100209463D02*
X152520540Y-100007432D01*
X152520540Y-100007432D02*
X152486868Y-99906417D01*
X152486868Y-99906417D02*
X152486868Y-99839074D01*
X164290476Y-102454819D02*
X164290476Y-103169104D01*
X164290476Y-103169104D02*
X164242857Y-103311961D01*
X164242857Y-103311961D02*
X164147619Y-103407200D01*
X164147619Y-103407200D02*
X164004762Y-103454819D01*
X164004762Y-103454819D02*
X163909524Y-103454819D01*
X165290476Y-103454819D02*
X164719048Y-103454819D01*
X165004762Y-103454819D02*
X165004762Y-102454819D01*
X165004762Y-102454819D02*
X164909524Y-102597676D01*
X164909524Y-102597676D02*
X164814286Y-102692914D01*
X164814286Y-102692914D02*
X164719048Y-102740533D01*
X166147619Y-102454819D02*
X165957143Y-102454819D01*
X165957143Y-102454819D02*
X165861905Y-102502438D01*
X165861905Y-102502438D02*
X165814286Y-102550057D01*
X165814286Y-102550057D02*
X165719048Y-102692914D01*
X165719048Y-102692914D02*
X165671429Y-102883390D01*
X165671429Y-102883390D02*
X165671429Y-103264342D01*
X165671429Y-103264342D02*
X165719048Y-103359580D01*
X165719048Y-103359580D02*
X165766667Y-103407200D01*
X165766667Y-103407200D02*
X165861905Y-103454819D01*
X165861905Y-103454819D02*
X166052381Y-103454819D01*
X166052381Y-103454819D02*
X166147619Y-103407200D01*
X166147619Y-103407200D02*
X166195238Y-103359580D01*
X166195238Y-103359580D02*
X166242857Y-103264342D01*
X166242857Y-103264342D02*
X166242857Y-103026247D01*
X166242857Y-103026247D02*
X166195238Y-102931009D01*
X166195238Y-102931009D02*
X166147619Y-102883390D01*
X166147619Y-102883390D02*
X166052381Y-102835771D01*
X166052381Y-102835771D02*
X165861905Y-102835771D01*
X165861905Y-102835771D02*
X165766667Y-102883390D01*
X165766667Y-102883390D02*
X165719048Y-102931009D01*
X165719048Y-102931009D02*
X165671429Y-103026247D01*
X150979819Y-77559523D02*
X151694104Y-77559523D01*
X151694104Y-77559523D02*
X151836961Y-77607142D01*
X151836961Y-77607142D02*
X151932200Y-77702380D01*
X151932200Y-77702380D02*
X151979819Y-77845237D01*
X151979819Y-77845237D02*
X151979819Y-77940475D01*
X151979819Y-76559523D02*
X151979819Y-77130951D01*
X151979819Y-76845237D02*
X150979819Y-76845237D01*
X150979819Y-76845237D02*
X151122676Y-76940475D01*
X151122676Y-76940475D02*
X151217914Y-77035713D01*
X151217914Y-77035713D02*
X151265533Y-77130951D01*
X150979819Y-76226189D02*
X150979819Y-75559523D01*
X150979819Y-75559523D02*
X151979819Y-75988094D01*
X125304819Y-89416666D02*
X124828628Y-89749999D01*
X125304819Y-89988094D02*
X124304819Y-89988094D01*
X124304819Y-89988094D02*
X124304819Y-89607142D01*
X124304819Y-89607142D02*
X124352438Y-89511904D01*
X124352438Y-89511904D02*
X124400057Y-89464285D01*
X124400057Y-89464285D02*
X124495295Y-89416666D01*
X124495295Y-89416666D02*
X124638152Y-89416666D01*
X124638152Y-89416666D02*
X124733390Y-89464285D01*
X124733390Y-89464285D02*
X124781009Y-89511904D01*
X124781009Y-89511904D02*
X124828628Y-89607142D01*
X124828628Y-89607142D02*
X124828628Y-89988094D01*
X124400057Y-89035713D02*
X124352438Y-88988094D01*
X124352438Y-88988094D02*
X124304819Y-88892856D01*
X124304819Y-88892856D02*
X124304819Y-88654761D01*
X124304819Y-88654761D02*
X124352438Y-88559523D01*
X124352438Y-88559523D02*
X124400057Y-88511904D01*
X124400057Y-88511904D02*
X124495295Y-88464285D01*
X124495295Y-88464285D02*
X124590533Y-88464285D01*
X124590533Y-88464285D02*
X124733390Y-88511904D01*
X124733390Y-88511904D02*
X125304819Y-89083332D01*
X125304819Y-89083332D02*
X125304819Y-88464285D01*
D11*
%TO.C,J9*%
X166670000Y-99005000D02*
X166670000Y-96405000D01*
X169330000Y-96405000D02*
X166670000Y-96405000D01*
X169330000Y-99005000D02*
X166670000Y-99005000D01*
X169330000Y-99005000D02*
X169330000Y-96405000D01*
X169330000Y-100275000D02*
X169330000Y-101605000D01*
X169330000Y-101605000D02*
X168000000Y-101605000D01*
%TO.C,J5*%
X118374607Y-95194488D02*
X120255511Y-97075392D01*
X120213084Y-93356011D02*
X118374607Y-95194488D01*
X120213084Y-93356011D02*
X122093988Y-95236915D01*
X121111110Y-92457985D02*
X122051562Y-91517533D01*
X122051562Y-91517533D02*
X122992014Y-92457985D01*
X122093988Y-95236915D02*
X120255511Y-97075392D01*
%TO.C,J15*%
X142920000Y-87730000D02*
X142920000Y-87670000D01*
X145580000Y-87670000D02*
X142920000Y-87670000D01*
X145580000Y-87730000D02*
X142920000Y-87730000D01*
X145580000Y-87730000D02*
X145580000Y-87670000D01*
X145580000Y-89000000D02*
X145580000Y-90330000D01*
X145580000Y-90330000D02*
X144250000Y-90330000D01*
%TO.C,J1*%
X109724607Y-86788977D02*
X111605511Y-88669881D01*
X111563084Y-84950500D02*
X109724607Y-86788977D01*
X111563084Y-84950500D02*
X113443988Y-86831404D01*
X112461110Y-84052474D02*
X113401562Y-83112022D01*
X113401562Y-83112022D02*
X114342014Y-84052474D01*
X113443988Y-86831404D02*
X111605511Y-88669881D01*
%TO.C,U4*%
X136900000Y-93025000D02*
X141990000Y-93025000D01*
X136900000Y-93365000D02*
X136900000Y-93025000D01*
X136900000Y-95685000D02*
X136900000Y-96035000D01*
X136900000Y-96035000D02*
X139500000Y-96035000D01*
X137400001Y-93025000D02*
G75*
G02*
X141599916Y-93023264I2099999J-100000D01*
G01*
%TO.C,D1*%
X159867695Y-89180599D02*
X160659655Y-88388639D01*
X160150538Y-89463442D02*
X159867695Y-89180599D01*
X160150538Y-89463442D02*
X162879970Y-86734009D01*
X160263675Y-89760426D02*
X160263675Y-89760426D01*
X160263675Y-89760426D02*
X160355599Y-89668503D01*
X160355599Y-89668503D02*
X160263675Y-89760426D01*
X160355599Y-89668503D02*
X160355599Y-89668503D01*
X160659655Y-88388639D02*
X160942498Y-88671482D01*
X160942498Y-88671482D02*
X160150538Y-89463442D01*
X162059726Y-91556478D02*
X162059726Y-91556478D01*
X162059726Y-91556478D02*
X162151650Y-91464554D01*
X162151650Y-91464554D02*
X162059726Y-91556478D01*
X162151650Y-91464554D02*
X162151650Y-91464554D01*
X162356711Y-91669615D02*
X160150538Y-89463442D01*
X162356711Y-91669615D02*
X165086143Y-88940183D01*
X162879971Y-86734010D02*
G75*
G02*
X165086142Y-88940182I1103086J-1103085D01*
G01*
%TO.C,J2*%
X109945000Y-106005000D02*
X109945000Y-103405000D01*
X112605000Y-103405000D02*
X109945000Y-103405000D01*
X112605000Y-106005000D02*
X109945000Y-106005000D01*
X112605000Y-106005000D02*
X112605000Y-103405000D01*
X112605000Y-107275000D02*
X112605000Y-108605000D01*
X112605000Y-108605000D02*
X111275000Y-108605000D01*
%TO.C,J12*%
X155717535Y-93098437D02*
X156657987Y-92157985D01*
X156657987Y-94038889D02*
X155717535Y-93098437D01*
X157556013Y-94936915D02*
X159394490Y-96775392D01*
X157556013Y-94936915D02*
X159436917Y-93056011D01*
X159394490Y-96775392D02*
X161275394Y-94894488D01*
X159436917Y-93056011D02*
X161275394Y-94894488D01*
%TO.C,U2*%
X122265647Y-99502603D02*
X125864820Y-95903429D01*
X122506063Y-99743019D02*
X122265647Y-99502603D01*
X124146551Y-101383507D02*
X124394038Y-101630994D01*
X124394038Y-101630994D02*
X126232516Y-99792516D01*
X122619200Y-99149049D02*
G75*
G02*
X125587762Y-96178033I1555635J1414213D01*
G01*
%TO.C,TP1*%
X117200000Y-107750000D02*
G75*
G02*
X115800000Y-107750000I-700000J0D01*
G01*
X115800000Y-107750000D02*
G75*
G02*
X117200000Y-107750000I700000J0D01*
G01*
%TO.C,TP6*%
X146700000Y-94000000D02*
G75*
G02*
X145300000Y-94000000I-700000J0D01*
G01*
X145300000Y-94000000D02*
G75*
G02*
X146700000Y-94000000I700000J0D01*
G01*
%TO.C,R3*%
X159265000Y-101689564D02*
X159265000Y-101235436D01*
X160735000Y-101689564D02*
X160735000Y-101235436D01*
%TO.C,J3*%
X122270000Y-104920000D02*
X123600000Y-104920000D01*
X122270000Y-106250000D02*
X122270000Y-104920000D01*
X122270000Y-107520000D02*
X124870000Y-107520000D01*
X122270000Y-110120000D02*
X122270000Y-107520000D01*
X122270000Y-110120000D02*
X157950000Y-110120000D01*
X124870000Y-104920000D02*
X157950000Y-104920000D01*
X124870000Y-107520000D02*
X124870000Y-104920000D01*
X157950000Y-110120000D02*
X157950000Y-104920000D01*
%TO.C,TP3*%
X169700000Y-94000000D02*
G75*
G02*
X168300000Y-94000000I-700000J0D01*
G01*
X168300000Y-94000000D02*
G75*
G02*
X169700000Y-94000000I700000J0D01*
G01*
%TO.C,R5*%
X161765000Y-106727064D02*
X161765000Y-106272936D01*
X163235000Y-106727064D02*
X163235000Y-106272936D01*
%TO.C,R4*%
X148340000Y-93235436D02*
X148340000Y-94689564D01*
X150160000Y-93235436D02*
X150160000Y-94689564D01*
%TO.C,J11*%
X144645000Y-82080000D02*
X144645000Y-80750000D01*
X145975000Y-82080000D02*
X144645000Y-82080000D01*
X147245000Y-79420000D02*
X149845000Y-79420000D01*
X147245000Y-82080000D02*
X147245000Y-79420000D01*
X147245000Y-82080000D02*
X149845000Y-82080000D01*
X149845000Y-82080000D02*
X149845000Y-79420000D01*
%TO.C,R1*%
X119265000Y-104022936D02*
X119265000Y-104477064D01*
X120735000Y-104022936D02*
X120735000Y-104477064D01*
%TO.C,TP5*%
X157450000Y-103000000D02*
G75*
G02*
X156050000Y-103000000I-700000J0D01*
G01*
X156050000Y-103000000D02*
G75*
G02*
X157450000Y-103000000I700000J0D01*
G01*
%TO.C,Q1*%
X114440000Y-104000000D02*
X114440000Y-103350000D01*
X114440000Y-104000000D02*
X114440000Y-104650000D01*
X117560000Y-104000000D02*
X117560000Y-103350000D01*
X117560000Y-104000000D02*
X117560000Y-104650000D01*
X114490000Y-105162500D02*
X114160000Y-105402500D01*
X114160000Y-104922500D01*
X114490000Y-105162500D01*
G36*
X114490000Y-105162500D02*
G01*
X114160000Y-105402500D01*
X114160000Y-104922500D01*
X114490000Y-105162500D01*
G37*
%TO.C,TP4*%
X155200000Y-80750000D02*
G75*
G02*
X153800000Y-80750000I-700000J0D01*
G01*
X153800000Y-80750000D02*
G75*
G02*
X155200000Y-80750000I700000J0D01*
G01*
%TO.C,Q2*%
X165440000Y-105500000D02*
X165440000Y-104850000D01*
X165440000Y-105500000D02*
X165440000Y-106150000D01*
X168560000Y-105500000D02*
X168560000Y-104850000D01*
X168560000Y-105500000D02*
X168560000Y-106150000D01*
X165490000Y-106662500D02*
X165160000Y-106902500D01*
X165160000Y-106422500D01*
X165490000Y-106662500D01*
G36*
X165490000Y-106662500D02*
G01*
X165160000Y-106902500D01*
X165160000Y-106422500D01*
X165490000Y-106662500D01*
G37*
%TO.C,J13*%
X136645000Y-90330000D02*
X136645000Y-89000000D01*
X137975000Y-90330000D02*
X136645000Y-90330000D01*
X139245000Y-87670000D02*
X141845000Y-87670000D01*
X139245000Y-90330000D02*
X139245000Y-87670000D01*
X139245000Y-90330000D02*
X141845000Y-90330000D01*
X141845000Y-90330000D02*
X141845000Y-87670000D01*
%TO.C,Q3*%
X146940000Y-88937500D02*
X146940000Y-88287500D01*
X146940000Y-88937500D02*
X146940000Y-89587500D01*
X150060000Y-88937500D02*
X150060000Y-88287500D01*
X150060000Y-88937500D02*
X150060000Y-89587500D01*
X146990000Y-90100000D02*
X146660000Y-90340000D01*
X146660000Y-89860000D01*
X146990000Y-90100000D01*
G36*
X146990000Y-90100000D02*
G01*
X146660000Y-90340000D01*
X146660000Y-89860000D01*
X146990000Y-90100000D01*
G37*
%TO.C,J8*%
X163844096Y-84000000D02*
X164784548Y-83059548D01*
X164784548Y-84940452D02*
X163844096Y-84000000D01*
X165682574Y-85838478D02*
X167521051Y-87676955D01*
X165682574Y-85838478D02*
X167563478Y-83957574D01*
X167521051Y-87676955D02*
X169401955Y-85796051D01*
X167563478Y-83957574D02*
X169401955Y-85796051D01*
%TO.C,J10*%
X137155000Y-75420000D02*
X137155000Y-78080000D01*
X139755000Y-75420000D02*
X137155000Y-75420000D01*
X139755000Y-75420000D02*
X139755000Y-78080000D01*
X139755000Y-78080000D02*
X137155000Y-78080000D01*
X141025000Y-75420000D02*
X142355000Y-75420000D01*
X142355000Y-75420000D02*
X142355000Y-76750000D01*
%TO.C,J7*%
X110140000Y-98670000D02*
X110140000Y-101330000D01*
X112740000Y-98670000D02*
X110140000Y-98670000D01*
X112740000Y-98670000D02*
X112740000Y-101330000D01*
X112740000Y-101330000D02*
X110140000Y-101330000D01*
X114010000Y-98670000D02*
X115340000Y-98670000D01*
X115340000Y-98670000D02*
X115340000Y-100000000D01*
%TO.C,J14*%
X164670000Y-92170000D02*
X166000000Y-92170000D01*
X164670000Y-93500000D02*
X164670000Y-92170000D01*
X164670000Y-94770000D02*
X164670000Y-94830000D01*
X164670000Y-94770000D02*
X167330000Y-94770000D01*
X164670000Y-94830000D02*
X167330000Y-94830000D01*
X167330000Y-94770000D02*
X167330000Y-94830000D01*
%TO.C,R6*%
X147727064Y-84265000D02*
X147272936Y-84265000D01*
X147727064Y-85735000D02*
X147272936Y-85735000D01*
%TO.C,U1*%
X135867500Y-100557500D02*
X135867500Y-98607500D01*
X135867500Y-100557500D02*
X135867500Y-102507500D01*
X144737500Y-100557500D02*
X144737500Y-98607500D01*
X144737500Y-100557500D02*
X144737500Y-102507500D01*
X135932500Y-103257500D02*
X135602500Y-103497500D01*
X135602500Y-103017500D01*
X135932500Y-103257500D01*
G36*
X135932500Y-103257500D02*
G01*
X135602500Y-103497500D01*
X135602500Y-103017500D01*
X135932500Y-103257500D01*
G37*
%TO.C,D2*%
X115949946Y-91750089D02*
X116232789Y-91467246D01*
X116232789Y-91467246D02*
X117024749Y-92259206D01*
X116741906Y-92542049D02*
X115949946Y-91750089D01*
X117024749Y-92259206D02*
X114295316Y-89529774D01*
X117024749Y-92259206D02*
X116741906Y-92542049D01*
X117229810Y-92054145D02*
X117229810Y-92054145D01*
X117229810Y-92054145D02*
X117321733Y-92146069D01*
X117321733Y-92146069D02*
X117229810Y-92054145D01*
X117321733Y-92146069D02*
X117321733Y-92146069D01*
X119025861Y-90258094D02*
X119025861Y-90258094D01*
X119025861Y-90258094D02*
X119117785Y-90350018D01*
X119117785Y-90350018D02*
X119025861Y-90258094D01*
X119117785Y-90350018D02*
X119117785Y-90350018D01*
X119230922Y-90053033D02*
X116501490Y-87323601D01*
X119230922Y-90053033D02*
X117024749Y-92259206D01*
X114295317Y-89529773D02*
G75*
G02*
X116501489Y-87323602I1103085J1103086D01*
G01*
%TO.C,TP2*%
X130950000Y-94500000D02*
G75*
G02*
X129550000Y-94500000I-700000J0D01*
G01*
X129550000Y-94500000D02*
G75*
G02*
X130950000Y-94500000I700000J0D01*
G01*
%TO.C,J6*%
X116420000Y-100830000D02*
X116420000Y-99500000D01*
X117750000Y-100830000D02*
X116420000Y-100830000D01*
X119020000Y-98170000D02*
X119080000Y-98170000D01*
X119020000Y-100830000D02*
X119020000Y-98170000D01*
X119020000Y-100830000D02*
X119080000Y-100830000D01*
X119080000Y-100830000D02*
X119080000Y-98170000D01*
%TO.C,D3*%
X137520000Y-83495000D02*
X137920000Y-83495000D01*
X137520000Y-84615000D02*
X137520000Y-83495000D01*
X137920000Y-83495000D02*
X137920000Y-84615000D01*
X137920000Y-84615000D02*
X137520000Y-84615000D01*
X137920000Y-84615000D02*
X137920000Y-80755000D01*
X138210000Y-84615000D02*
X138210000Y-84615000D01*
X138210000Y-84615000D02*
X138210000Y-84745000D01*
X138210000Y-84745000D02*
X138210000Y-84615000D01*
X138210000Y-84745000D02*
X138210000Y-84745000D01*
X140750000Y-84615000D02*
X140750000Y-84615000D01*
X140750000Y-84615000D02*
X140750000Y-84745000D01*
X140750000Y-84745000D02*
X140750000Y-84615000D01*
X140750000Y-84745000D02*
X140750000Y-84745000D01*
X141040000Y-84615000D02*
X137920000Y-84615000D01*
X141040000Y-84615000D02*
X141040000Y-80755000D01*
X137920000Y-80755000D02*
G75*
G02*
X141040000Y-80755000I1560000J0D01*
G01*
%TO.C,U3*%
X151369007Y-96954038D02*
X153207485Y-98792516D01*
X151616494Y-96706551D02*
X151369007Y-96954038D01*
X153256982Y-95066063D02*
X153497398Y-94825647D01*
X153497398Y-94825647D02*
X157096572Y-98424820D01*
X153850952Y-95179200D02*
G75*
G02*
X156821968Y-98147762I1414213J-1555635D01*
G01*
%TO.C,J16*%
X162920000Y-99230000D02*
X162920000Y-96630000D01*
X165580000Y-96630000D02*
X162920000Y-96630000D01*
X165580000Y-99230000D02*
X162920000Y-99230000D01*
X165580000Y-99230000D02*
X165580000Y-96630000D01*
X165580000Y-100500000D02*
X165580000Y-101830000D01*
X165580000Y-101830000D02*
X164250000Y-101830000D01*
%TO.C,J17*%
X145155000Y-75670000D02*
X145155000Y-78330000D01*
X147755000Y-75670000D02*
X145155000Y-75670000D01*
X147755000Y-75670000D02*
X147755000Y-78330000D01*
X147755000Y-78330000D02*
X145155000Y-78330000D01*
X149025000Y-75670000D02*
X150355000Y-75670000D01*
X150355000Y-75670000D02*
X150355000Y-77000000D01*
%TO.C,R2*%
X125765000Y-89477064D02*
X125765000Y-89022936D01*
X127235000Y-89477064D02*
X127235000Y-89022936D01*
%TD*%
%LPC*%
D12*
%TO.C,J9*%
X168000000Y-100275000D03*
D13*
X168000000Y-97735000D03*
%TD*%
D14*
%TO.C,J5*%
X122051562Y-93398437D03*
D15*
X120255511Y-95194488D03*
%TD*%
D12*
%TO.C,J15*%
X144250000Y-89000000D03*
%TD*%
D14*
%TO.C,J1*%
X113401562Y-84992926D03*
D15*
X111605511Y-86788977D03*
%TD*%
D16*
%TO.C,U4*%
X142040000Y-94525000D03*
D17*
X139500000Y-94525000D03*
X136960000Y-94525000D03*
%TD*%
D18*
%TO.C,D1*%
X161296051Y-92320153D03*
D17*
X159500000Y-90524102D03*
%TD*%
D12*
%TO.C,J2*%
X111275000Y-107275000D03*
D13*
X111275000Y-104735000D03*
%TD*%
D19*
%TO.C,J12*%
X157598439Y-93098437D03*
D20*
X159394490Y-94894488D03*
%TD*%
D21*
%TO.C,U2*%
X126960836Y-96928734D03*
D17*
X125164785Y-98724785D03*
X123368734Y-100520836D03*
%TD*%
D22*
%TO.C,TP1*%
X116500000Y-107750000D03*
%TD*%
%TO.C,TP6*%
X146000000Y-94000000D03*
%TD*%
D23*
%TO.C,R3*%
X160000000Y-102375000D03*
X160000000Y-100550000D03*
%TD*%
D12*
%TO.C,J3*%
X123600000Y-106250000D03*
D13*
X123600000Y-108790000D03*
X126140000Y-106250000D03*
X126140000Y-108790000D03*
X128680000Y-106250000D03*
X128680000Y-108790000D03*
X131220000Y-106250000D03*
X131220000Y-108790000D03*
X133760000Y-106250000D03*
X133760000Y-108790000D03*
X136300000Y-106250000D03*
X136300000Y-108790000D03*
X138840000Y-106250000D03*
X138840000Y-108790000D03*
X141380000Y-106250000D03*
X141380000Y-108790000D03*
X143920000Y-106250000D03*
X143920000Y-108790000D03*
X146460000Y-106250000D03*
X146460000Y-108790000D03*
X149000000Y-106250000D03*
X149000000Y-108790000D03*
X151540000Y-106250000D03*
X151540000Y-108790000D03*
X154080000Y-106250000D03*
X154080000Y-108790000D03*
X156620000Y-106250000D03*
X156620000Y-108790000D03*
%TD*%
D22*
%TO.C,TP3*%
X169000000Y-94000000D03*
%TD*%
D23*
%TO.C,R5*%
X162500000Y-107412500D03*
X162500000Y-105587500D03*
%TD*%
D24*
%TO.C,R4*%
X149250000Y-92500000D03*
X149250000Y-95425000D03*
%TD*%
D12*
%TO.C,J11*%
X145975000Y-80750000D03*
D13*
X148515000Y-80750000D03*
%TD*%
D25*
%TO.C,R1*%
X120000000Y-103337500D03*
X120000000Y-105162500D03*
%TD*%
D22*
%TO.C,TP5*%
X156750000Y-103000000D03*
%TD*%
D26*
%TO.C,Q1*%
X115050000Y-104937500D03*
X116950000Y-104937500D03*
X116000000Y-103062500D03*
%TD*%
D22*
%TO.C,TP4*%
X154500000Y-80750000D03*
%TD*%
D26*
%TO.C,Q2*%
X166050000Y-106437500D03*
X167950000Y-106437500D03*
X167000000Y-104562500D03*
%TD*%
D12*
%TO.C,J13*%
X137975000Y-89000000D03*
D13*
X140515000Y-89000000D03*
%TD*%
D26*
%TO.C,Q3*%
X147550000Y-89875000D03*
X149450000Y-89875000D03*
X148500000Y-88000000D03*
%TD*%
D19*
%TO.C,J8*%
X165725000Y-84000000D03*
D20*
X167521051Y-85796051D03*
%TD*%
D12*
%TO.C,J10*%
X141025000Y-76750000D03*
D13*
X138485000Y-76750000D03*
%TD*%
D12*
%TO.C,J7*%
X114010000Y-100000000D03*
D13*
X111470000Y-100000000D03*
%TD*%
D12*
%TO.C,J14*%
X166000000Y-93500000D03*
%TD*%
D27*
%TO.C,R6*%
X148412500Y-85000000D03*
X146587500Y-85000000D03*
%TD*%
D28*
%TO.C,U1*%
X136492500Y-103032500D03*
X137762500Y-103032500D03*
X139032500Y-103032500D03*
X140302500Y-103032500D03*
X141572500Y-103032500D03*
X142842500Y-103032500D03*
X144112500Y-103032500D03*
X144112500Y-98082500D03*
X142842500Y-98082500D03*
X141572500Y-98082500D03*
X140302500Y-98082500D03*
X139032500Y-98082500D03*
X137762500Y-98082500D03*
X136492500Y-98082500D03*
%TD*%
D29*
%TO.C,D2*%
X119881460Y-91113693D03*
D17*
X118085409Y-92909744D03*
%TD*%
D22*
%TO.C,TP2*%
X130250000Y-94500000D03*
%TD*%
D12*
%TO.C,J6*%
X117750000Y-99500000D03*
%TD*%
D30*
%TO.C,D3*%
X140750000Y-85825000D03*
D17*
X138210000Y-85825000D03*
%TD*%
D31*
%TO.C,U3*%
X156071267Y-99520836D03*
D17*
X154275216Y-97724785D03*
X152479165Y-95928734D03*
%TD*%
D12*
%TO.C,J16*%
X164250000Y-100500000D03*
D13*
X164250000Y-97960000D03*
%TD*%
D12*
%TO.C,J17*%
X149025000Y-77000000D03*
D13*
X146485000Y-77000000D03*
%TD*%
D23*
%TO.C,R2*%
X126500000Y-90162500D03*
X126500000Y-88337500D03*
%TD*%
%LPD*%
M02*
