%TF.GenerationSoftware,KiCad,Pcbnew,8.0.0*%
%TF.CreationDate,2024-03-23T03:09:38+02:00*%
%TF.ProjectId,sensor,73656e73-6f72-42e6-9b69-6361645f7063,rev?*%
%TF.SameCoordinates,Original*%
%TF.FileFunction,Copper,L2,Bot*%
%TF.FilePolarity,Positive*%
%FSLAX46Y46*%
G04 Gerber Fmt 4.6, Leading zero omitted, Abs format (unit mm)*
G04 Created by KiCad (PCBNEW 8.0.0) date 2024-03-23 03:09:38*
%MOMM*%
%LPD*%
G01*
G04 APERTURE LIST*
G04 Aperture macros list*
%AMRoundRect*
0 Rectangle with rounded corners*
0 $1 Rounding radius*
0 $2 $3 $4 $5 $6 $7 $8 $9 X,Y pos of 4 corners*
0 Add a 4 corners polygon primitive as box body*
4,1,4,$2,$3,$4,$5,$6,$7,$8,$9,$2,$3,0*
0 Add four circle primitives for the rounded corners*
1,1,$1+$1,$2,$3*
1,1,$1+$1,$4,$5*
1,1,$1+$1,$6,$7*
1,1,$1+$1,$8,$9*
0 Add four rect primitives between the rounded corners*
20,1,$1+$1,$2,$3,$4,$5,0*
20,1,$1+$1,$4,$5,$6,$7,0*
20,1,$1+$1,$6,$7,$8,$9,0*
20,1,$1+$1,$8,$9,$2,$3,0*%
G04 Aperture macros list end*
%TA.AperFunction,ComponentPad*%
%ADD10R,1.700000X1.700000*%
%TD*%
%TA.AperFunction,ComponentPad*%
%ADD11O,1.700000X1.700000*%
%TD*%
%TA.AperFunction,ComponentPad*%
%ADD12R,1.800000X1.800000*%
%TD*%
%TA.AperFunction,ComponentPad*%
%ADD13C,1.800000*%
%TD*%
%TA.AperFunction,ComponentPad*%
%ADD14RoundRect,0.250200X-0.649800X0.649800X-0.649800X-0.649800X0.649800X-0.649800X0.649800X0.649800X0*%
%TD*%
%TA.AperFunction,ComponentPad*%
%ADD15RoundRect,0.250200X0.649800X-0.649800X0.649800X0.649800X-0.649800X0.649800X-0.649800X-0.649800X0*%
%TD*%
%TA.AperFunction,ComponentPad*%
%ADD16RoundRect,0.250200X0.649800X0.649800X-0.649800X0.649800X-0.649800X-0.649800X0.649800X-0.649800X0*%
%TD*%
%TA.AperFunction,ViaPad*%
%ADD17C,0.900000*%
%TD*%
%TA.AperFunction,Conductor*%
%ADD18C,0.500000*%
%TD*%
%TA.AperFunction,Conductor*%
%ADD19C,0.700000*%
%TD*%
%TA.AperFunction,Conductor*%
%ADD20C,0.300000*%
%TD*%
G04 APERTURE END LIST*
D10*
%TO.P,J16,1,Pin_1*%
%TO.N,Net-(J12-Pin_2)*%
X148035000Y-126650000D03*
D11*
%TO.P,J16,2,Pin_2*%
%TO.N,/3V3*%
X145495000Y-126650000D03*
%TD*%
D12*
%TO.P,D5,1,K*%
%TO.N,Net-(D5-K)*%
X108375000Y-103460000D03*
D13*
%TO.P,D5,2,A*%
%TO.N,/5V*%
X105835000Y-103460000D03*
%TD*%
D14*
%TO.P,U2,1,OUT*%
%TO.N,Net-(U1A-+)*%
X99025000Y-109770000D03*
D13*
%TO.P,U2,2,GND*%
%TO.N,GND*%
X99025000Y-112310000D03*
%TO.P,U2,3,Vs*%
%TO.N,/3V3*%
X99025000Y-114850000D03*
%TD*%
D10*
%TO.P,J14,1,Pin_1*%
%TO.N,Net-(J12-Pin_2)*%
X141000000Y-126000000D03*
%TD*%
%TO.P,J17,1,Pin_1*%
%TO.N,Net-(J13-Pin_2)*%
X132270000Y-100180000D03*
D11*
%TO.P,J17,2,Pin_2*%
%TO.N,/3V3*%
X132270000Y-97640000D03*
%TD*%
D15*
%TO.P,U3,1,OUT*%
%TO.N,Net-(U1B-+)*%
X135000000Y-114540000D03*
D13*
%TO.P,U3,2,GND*%
%TO.N,GND*%
X135000000Y-112000000D03*
%TO.P,U3,3,Vs*%
%TO.N,/3V3*%
X135000000Y-109460000D03*
%TD*%
D12*
%TO.P,D1,1,K*%
%TO.N,Net-(D1-K)*%
X90595000Y-116740000D03*
D13*
%TO.P,D1,2,A*%
%TO.N,/5V*%
X90595000Y-119280000D03*
%TD*%
D10*
%TO.P,J11,1,Pin_1*%
%TO.N,Net-(J10-Pin_2)*%
X98145000Y-98910000D03*
D11*
%TO.P,J11,2,Pin_2*%
%TO.N,Net-(J11-Pin_2)*%
X95605000Y-98910000D03*
%TD*%
D10*
%TO.P,J6,1,Pin_1*%
%TO.N,Net-(J5-Pin_2)*%
X93000000Y-127000000D03*
%TD*%
D12*
%TO.P,D3,1,K*%
%TO.N,Net-(D3-K)*%
X144175000Y-106250000D03*
D13*
%TO.P,D3,2,A*%
%TO.N,/5V*%
X144175000Y-103710000D03*
%TD*%
D12*
%TO.P,D2,1,K*%
%TO.N,Net-(D2-K)*%
X90595000Y-103750000D03*
D13*
%TO.P,D2,2,A*%
%TO.N,Net-(D1-K)*%
X90595000Y-106290000D03*
%TD*%
D10*
%TO.P,J10,1,Pin_1*%
%TO.N,/5V*%
X113600000Y-98595000D03*
D11*
%TO.P,J10,2,Pin_2*%
%TO.N,Net-(J10-Pin_2)*%
X116140000Y-98595000D03*
%TD*%
D10*
%TO.P,J13,1,Pin_1*%
%TO.N,GND*%
X113765000Y-103085000D03*
D11*
%TO.P,J13,2,Pin_2*%
%TO.N,Net-(J13-Pin_2)*%
X116305000Y-103085000D03*
%TD*%
D10*
%TO.P,J3,1,Pin_1*%
%TO.N,/3V3*%
X100310000Y-121820000D03*
D11*
%TO.P,J3,2,Pin_2*%
%TO.N,/BATT*%
X100310000Y-124360000D03*
%TO.P,J3,3,Pin_3*%
%TO.N,/RESV2*%
X102850000Y-121820000D03*
%TO.P,J3,4,Pin_4*%
%TO.N,/PE15*%
X102850000Y-124360000D03*
%TO.P,J3,5,Pin_5*%
%TO.N,/PE14*%
X105390000Y-121820000D03*
%TO.P,J3,6,Pin_6*%
%TO.N,/PA13*%
X105390000Y-124360000D03*
%TO.P,J3,7,Pin_7*%
%TO.N,/PE12*%
X107930000Y-121820000D03*
%TO.P,J3,8,Pin_8*%
%TO.N,/PE11*%
X107930000Y-124360000D03*
%TO.P,J3,9,Pin_9*%
%TO.N,/PA10*%
X110470000Y-121820000D03*
%TO.P,J3,10,Pin_10*%
%TO.N,/PE9*%
X110470000Y-124360000D03*
%TO.P,J3,11,Pin_11*%
%TO.N,/PE8*%
X113010000Y-121820000D03*
%TO.P,J3,12,Pin_12*%
%TO.N,/RESV1*%
X113010000Y-124360000D03*
%TO.P,J3,13,Pin_13*%
%TO.N,/BATT*%
X115550000Y-121820000D03*
%TO.P,J3,14,Pin_14*%
%TO.N,/3V3*%
X115550000Y-124360000D03*
%TO.P,J3,15,Pin_15*%
%TO.N,GND*%
X118090000Y-121820000D03*
%TO.P,J3,16,Pin_16*%
%TO.N,/AB0*%
X118090000Y-124360000D03*
%TO.P,J3,17,Pin_17*%
%TO.N,/PC5*%
X120630000Y-121820000D03*
%TO.P,J3,18,Pin_18*%
%TO.N,GND*%
X120630000Y-124360000D03*
%TO.P,J3,19,Pin_19*%
%TO.N,/PC4*%
X123170000Y-121820000D03*
%TO.P,J3,20,Pin_20*%
%TO.N,/PA7*%
X123170000Y-124360000D03*
%TO.P,J3,21,Pin_21*%
%TO.N,GND*%
X125710000Y-121820000D03*
%TO.P,J3,22,Pin_22*%
%TO.N,/PA6*%
X125710000Y-124360000D03*
%TO.P,J3,23,Pin_23*%
%TO.N,/PA5*%
X128250000Y-121820000D03*
%TO.P,J3,24,Pin_24*%
%TO.N,GND*%
X128250000Y-124360000D03*
%TO.P,J3,25,Pin_25*%
%TO.N,/PA4*%
X130790000Y-121820000D03*
%TO.P,J3,26,Pin_26*%
%TO.N,/PA3*%
X130790000Y-124360000D03*
%TO.P,J3,27,Pin_27*%
%TO.N,GND*%
X133330000Y-121820000D03*
%TO.P,J3,28,Pin_28*%
%TO.N,/RESV3*%
X133330000Y-124360000D03*
%TD*%
D10*
%TO.P,J12,1,Pin_1*%
%TO.N,GND*%
X144735000Y-112275000D03*
D11*
%TO.P,J12,2,Pin_2*%
%TO.N,Net-(J12-Pin_2)*%
X144735000Y-109735000D03*
%TD*%
D10*
%TO.P,J5,1,Pin_1*%
%TO.N,GND*%
X90735000Y-110725000D03*
D11*
%TO.P,J5,2,Pin_2*%
%TO.N,Net-(J5-Pin_2)*%
X90735000Y-113265000D03*
%TD*%
D12*
%TO.P,D6,1,K*%
%TO.N,Net-(D6-K)*%
X123375000Y-103460000D03*
D13*
%TO.P,D6,2,A*%
%TO.N,Net-(D5-K)*%
X120835000Y-103460000D03*
%TD*%
D10*
%TO.P,J2,1,Pin_1*%
%TO.N,Net-(J1-Pin_2)*%
X86460000Y-123000000D03*
D11*
%TO.P,J2,2,Pin_2*%
%TO.N,Net-(J2-Pin_2)*%
X89000000Y-123000000D03*
%TD*%
D16*
%TO.P,U4,1,OUT*%
%TO.N,Net-(U1C-+)*%
X117750000Y-109380000D03*
D13*
%TO.P,U4,2,GND*%
%TO.N,GND*%
X115210000Y-109380000D03*
%TO.P,U4,3,Vs*%
%TO.N,/3V3*%
X112670000Y-109380000D03*
%TD*%
D10*
%TO.P,J15,1,Pin_1*%
%TO.N,Net-(J13-Pin_2)*%
X127365000Y-97395000D03*
%TD*%
%TO.P,J8,1,Pin_1*%
%TO.N,/5V*%
X149275000Y-109725000D03*
D11*
%TO.P,J8,2,Pin_2*%
%TO.N,Net-(J8-Pin_2)*%
X149275000Y-112265000D03*
%TD*%
D10*
%TO.P,J7,1,Pin_1*%
%TO.N,Net-(J5-Pin_2)*%
X86460000Y-127000000D03*
D11*
%TO.P,J7,2,Pin_2*%
%TO.N,/3V3*%
X89000000Y-127000000D03*
%TD*%
D10*
%TO.P,J1,1,Pin_1*%
%TO.N,/5V*%
X86735000Y-113275000D03*
D11*
%TO.P,J1,2,Pin_2*%
%TO.N,Net-(J1-Pin_2)*%
X86735000Y-110735000D03*
%TD*%
D12*
%TO.P,D4,1,K*%
%TO.N,Net-(D4-K)*%
X144175000Y-119250000D03*
D13*
%TO.P,D4,2,A*%
%TO.N,Net-(D3-K)*%
X144175000Y-116710000D03*
%TD*%
D10*
%TO.P,J9,1,Pin_1*%
%TO.N,Net-(J8-Pin_2)*%
X148010000Y-123000000D03*
D11*
%TO.P,J9,2,Pin_2*%
%TO.N,Net-(J9-Pin_2)*%
X145470000Y-123000000D03*
%TD*%
D10*
%TO.P,J4,1,Pin_1*%
%TO.N,/5V*%
X117590000Y-128000000D03*
%TD*%
D17*
%TO.N,/3V3*%
X102210000Y-113590000D03*
%TO.N,Net-(Q1-B)*%
X97870000Y-119960000D03*
X101370000Y-118450000D03*
%TO.N,GND*%
X134000000Y-119000000D03*
X133000000Y-116000000D03*
X92560000Y-111000000D03*
X128000000Y-120000000D03*
%TO.N,Net-(Q2-B)*%
X132030000Y-113950000D03*
X132030000Y-109670000D03*
%TO.N,Net-(Q3-B)*%
X103880000Y-110900000D03*
X104290000Y-105670000D03*
%TO.N,/PA6*%
X127120000Y-117140000D03*
X127230000Y-114800000D03*
%TO.N,Net-(J2-Pin_2)*%
X101350000Y-116730000D03*
X98970000Y-117220000D03*
X104680000Y-113320000D03*
X111160000Y-111140000D03*
%TO.N,Net-(J11-Pin_2)*%
X110140000Y-114190000D03*
%TO.N,/PE15*%
X122491200Y-108491200D03*
X104000000Y-103000000D03*
X93550000Y-119170000D03*
%TO.N,Net-(J10-Pin_2)*%
X104260000Y-96710000D03*
%TO.N,Net-(U1A-+)*%
X116600000Y-117100000D03*
X112465393Y-113775393D03*
%TO.N,Net-(U1B-+)*%
X125450000Y-116890000D03*
%TO.N,Net-(U1C-+)*%
X121620000Y-110450000D03*
%TD*%
D18*
%TO.N,/3V3*%
X102210000Y-113590000D02*
X102690000Y-113590000D01*
X106900000Y-109380000D02*
X112670000Y-109380000D01*
X102690000Y-113590000D02*
X106900000Y-109380000D01*
D19*
%TO.N,Net-(D3-K)*%
X144175000Y-106250000D02*
X143980000Y-106250000D01*
X142030000Y-108200000D02*
X142030000Y-112640000D01*
X142030000Y-112640000D02*
X141970000Y-112700000D01*
X144175000Y-114905000D02*
X144175000Y-116710000D01*
X141970000Y-112700000D02*
X144175000Y-114905000D01*
X143980000Y-106250000D02*
X142030000Y-108200000D01*
D20*
%TO.N,Net-(Q1-B)*%
X101370000Y-118450000D02*
X100180000Y-119640000D01*
X98190000Y-119640000D02*
X97870000Y-119960000D01*
X100180000Y-119640000D02*
X98190000Y-119640000D01*
%TO.N,GND*%
X133000000Y-116000000D02*
X133000000Y-118000000D01*
X93870000Y-112310000D02*
X99025000Y-112310000D01*
X133000000Y-118000000D02*
X134000000Y-119000000D01*
X127530000Y-120000000D02*
X125710000Y-121820000D01*
X128000000Y-120000000D02*
X127530000Y-120000000D01*
X92560000Y-111000000D02*
X93870000Y-112310000D01*
%TO.N,Net-(Q2-B)*%
X132030000Y-113950000D02*
X132030000Y-109670000D01*
%TO.N,Net-(Q3-B)*%
X103880000Y-110900000D02*
X104290000Y-110490000D01*
X104290000Y-110490000D02*
X104290000Y-105670000D01*
%TO.N,/PA6*%
X127120000Y-117140000D02*
X127120000Y-114910000D01*
X127120000Y-114910000D02*
X127230000Y-114800000D01*
D19*
%TO.N,Net-(J2-Pin_2)*%
X98970000Y-117220000D02*
X100860000Y-117220000D01*
X111160000Y-111140000D02*
X106860000Y-111140000D01*
X106860000Y-111140000D02*
X104680000Y-113320000D01*
X100860000Y-117220000D02*
X101350000Y-116730000D01*
%TO.N,Net-(J11-Pin_2)*%
X101180000Y-114220000D02*
X101180000Y-104485000D01*
X101820000Y-114860000D02*
X101180000Y-114220000D01*
X109470000Y-114860000D02*
X101820000Y-114860000D01*
X101180000Y-104485000D02*
X95605000Y-98910000D01*
X110140000Y-114190000D02*
X109470000Y-114860000D01*
D20*
%TO.N,/PE15*%
X120100000Y-106100000D02*
X106100000Y-106100000D01*
X93550000Y-119170000D02*
X97540000Y-123160000D01*
X122491200Y-108491200D02*
X120100000Y-106100000D01*
X104000000Y-104000000D02*
X104000000Y-103000000D01*
X101650000Y-123160000D02*
X102850000Y-124360000D01*
X106100000Y-106100000D02*
X104000000Y-104000000D01*
X97540000Y-123160000D02*
X101650000Y-123160000D01*
D19*
%TO.N,Net-(J10-Pin_2)*%
X114255000Y-96710000D02*
X104260000Y-96710000D01*
X116140000Y-98595000D02*
X114255000Y-96710000D01*
%TO.N,Net-(D5-K)*%
X110315000Y-105400000D02*
X119830000Y-105400000D01*
X119830000Y-104465000D02*
X120835000Y-103460000D01*
X108375000Y-103460000D02*
X110315000Y-105400000D01*
X119830000Y-105400000D02*
X119830000Y-104465000D01*
%TO.N,/5V*%
X83870000Y-112920000D02*
X83870000Y-104010000D01*
X143920000Y-103710000D02*
X144175000Y-103710000D01*
X86735000Y-113275000D02*
X84225000Y-113275000D01*
X101330000Y-96440000D02*
X105480000Y-100590000D01*
X105480000Y-100590000D02*
X105835000Y-100945000D01*
X144175000Y-103710000D02*
X144535000Y-103710000D01*
X83870000Y-104010000D02*
X91440000Y-96440000D01*
X132525000Y-128000000D02*
X139730000Y-120795000D01*
X86735000Y-116692792D02*
X86735000Y-113275000D01*
X105835000Y-100945000D02*
X105835000Y-103460000D01*
X117590000Y-128000000D02*
X99315000Y-128000000D01*
X99315000Y-128000000D02*
X90595000Y-119280000D01*
X107525000Y-98595000D02*
X113600000Y-98595000D01*
X149275000Y-108450000D02*
X149275000Y-109725000D01*
X105530000Y-100590000D02*
X107525000Y-98595000D01*
X90595000Y-119280000D02*
X89322208Y-119280000D01*
X84225000Y-113275000D02*
X83870000Y-112920000D01*
X105480000Y-100590000D02*
X105530000Y-100590000D01*
X91440000Y-96440000D02*
X101330000Y-96440000D01*
X117590000Y-128000000D02*
X132525000Y-128000000D01*
X89322208Y-119280000D02*
X86735000Y-116692792D01*
X139730000Y-120795000D02*
X139730000Y-107900000D01*
X144535000Y-103710000D02*
X149275000Y-108450000D01*
X139730000Y-107900000D02*
X143920000Y-103710000D01*
D20*
%TO.N,Net-(U1A-+)*%
X115220000Y-116530000D02*
X115220000Y-116600000D01*
X115650000Y-117070000D02*
X116570000Y-117070000D01*
X112465393Y-113775393D02*
X115220000Y-116530000D01*
X115220000Y-116600000D02*
X115650000Y-117030000D01*
X116570000Y-117070000D02*
X116600000Y-117100000D01*
X115650000Y-117030000D02*
X115650000Y-117070000D01*
%TO.N,Net-(U1B-+)*%
X129350000Y-118290000D02*
X133100000Y-114540000D01*
X133100000Y-114540000D02*
X135000000Y-114540000D01*
X126850000Y-118290000D02*
X129350000Y-118290000D01*
X125450000Y-116890000D02*
X126850000Y-118290000D01*
D19*
%TO.N,Net-(U1C-+)*%
X117750000Y-109380000D02*
X120550000Y-109380000D01*
X120550000Y-109380000D02*
X121620000Y-110450000D01*
%TD*%
%TA.AperFunction,Conductor*%
%TO.N,GND*%
G36*
X151442417Y-95280372D02*
G01*
X151488234Y-95333122D01*
X151499500Y-95384766D01*
X151499500Y-128376000D01*
X151479815Y-128443039D01*
X151427011Y-128488794D01*
X151375500Y-128500000D01*
X133527151Y-128500000D01*
X133460112Y-128480315D01*
X133414357Y-128427511D01*
X133404413Y-128358353D01*
X133433438Y-128294797D01*
X133439470Y-128288319D01*
X134829919Y-126897870D01*
X139649500Y-126897870D01*
X139649501Y-126897876D01*
X139655908Y-126957483D01*
X139706202Y-127092328D01*
X139706206Y-127092335D01*
X139792452Y-127207544D01*
X139792455Y-127207547D01*
X139907664Y-127293793D01*
X139907671Y-127293797D01*
X140042517Y-127344091D01*
X140042516Y-127344091D01*
X140049444Y-127344835D01*
X140102127Y-127350500D01*
X141897872Y-127350499D01*
X141957483Y-127344091D01*
X142092331Y-127293796D01*
X142207546Y-127207546D01*
X142293796Y-127092331D01*
X142344091Y-126957483D01*
X142350500Y-126897873D01*
X142350500Y-126650000D01*
X144139341Y-126650000D01*
X144159936Y-126885403D01*
X144159938Y-126885413D01*
X144221094Y-127113655D01*
X144221096Y-127113659D01*
X144221097Y-127113663D01*
X144277868Y-127235408D01*
X144320965Y-127327830D01*
X144320967Y-127327834D01*
X144416071Y-127463655D01*
X144456505Y-127521401D01*
X144623599Y-127688495D01*
X144720384Y-127756265D01*
X144817165Y-127824032D01*
X144817167Y-127824033D01*
X144817170Y-127824035D01*
X145031337Y-127923903D01*
X145259592Y-127985063D01*
X145436034Y-128000500D01*
X145494999Y-128005659D01*
X145495000Y-128005659D01*
X145495001Y-128005659D01*
X145553966Y-128000500D01*
X145730408Y-127985063D01*
X145958663Y-127923903D01*
X146172830Y-127824035D01*
X146366401Y-127688495D01*
X146488329Y-127566566D01*
X146549648Y-127533084D01*
X146619340Y-127538068D01*
X146675274Y-127579939D01*
X146692189Y-127610917D01*
X146741202Y-127742328D01*
X146741206Y-127742335D01*
X146827452Y-127857544D01*
X146827455Y-127857547D01*
X146942664Y-127943793D01*
X146942671Y-127943797D01*
X147077517Y-127994091D01*
X147077516Y-127994091D01*
X147084444Y-127994835D01*
X147137127Y-128000500D01*
X148932872Y-128000499D01*
X148992483Y-127994091D01*
X149127331Y-127943796D01*
X149242546Y-127857546D01*
X149328796Y-127742331D01*
X149379091Y-127607483D01*
X149385500Y-127547873D01*
X149385499Y-125752128D01*
X149379365Y-125695063D01*
X149379091Y-125692516D01*
X149328797Y-125557671D01*
X149328793Y-125557664D01*
X149242547Y-125442455D01*
X149242544Y-125442452D01*
X149127335Y-125356206D01*
X149127328Y-125356202D01*
X148992482Y-125305908D01*
X148992483Y-125305908D01*
X148932883Y-125299501D01*
X148932881Y-125299500D01*
X148932873Y-125299500D01*
X148932864Y-125299500D01*
X147137129Y-125299500D01*
X147137123Y-125299501D01*
X147077516Y-125305908D01*
X146942671Y-125356202D01*
X146942664Y-125356206D01*
X146827455Y-125442452D01*
X146827452Y-125442455D01*
X146741206Y-125557664D01*
X146741203Y-125557669D01*
X146692189Y-125689083D01*
X146650317Y-125745016D01*
X146584853Y-125769433D01*
X146516580Y-125754581D01*
X146488326Y-125733430D01*
X146366402Y-125611506D01*
X146366395Y-125611501D01*
X146172834Y-125475967D01*
X146172830Y-125475965D01*
X146172828Y-125475964D01*
X145958663Y-125376097D01*
X145958659Y-125376096D01*
X145958655Y-125376094D01*
X145730413Y-125314938D01*
X145730403Y-125314936D01*
X145495001Y-125294341D01*
X145494999Y-125294341D01*
X145259596Y-125314936D01*
X145259586Y-125314938D01*
X145031344Y-125376094D01*
X145031335Y-125376098D01*
X144817171Y-125475964D01*
X144817169Y-125475965D01*
X144623597Y-125611505D01*
X144456505Y-125778597D01*
X144320965Y-125972169D01*
X144320964Y-125972171D01*
X144221098Y-126186335D01*
X144221094Y-126186344D01*
X144159938Y-126414586D01*
X144159936Y-126414596D01*
X144139341Y-126649999D01*
X144139341Y-126650000D01*
X142350500Y-126650000D01*
X142350499Y-125102128D01*
X142345299Y-125053757D01*
X142344091Y-125042516D01*
X142293797Y-124907671D01*
X142293793Y-124907664D01*
X142207547Y-124792455D01*
X142207544Y-124792452D01*
X142092335Y-124706206D01*
X142092328Y-124706202D01*
X141957482Y-124655908D01*
X141957483Y-124655908D01*
X141897883Y-124649501D01*
X141897881Y-124649500D01*
X141897873Y-124649500D01*
X141897864Y-124649500D01*
X140102129Y-124649500D01*
X140102123Y-124649501D01*
X140042516Y-124655908D01*
X139907671Y-124706202D01*
X139907664Y-124706206D01*
X139792455Y-124792452D01*
X139792452Y-124792455D01*
X139706206Y-124907664D01*
X139706202Y-124907671D01*
X139655908Y-125042517D01*
X139649501Y-125102116D01*
X139649501Y-125102123D01*
X139649500Y-125102135D01*
X139649500Y-126897870D01*
X134829919Y-126897870D01*
X138727789Y-123000000D01*
X144114341Y-123000000D01*
X144134936Y-123235403D01*
X144134938Y-123235413D01*
X144196094Y-123463655D01*
X144196096Y-123463659D01*
X144196097Y-123463663D01*
X144222930Y-123521206D01*
X144295965Y-123677830D01*
X144295967Y-123677834D01*
X144371356Y-123785500D01*
X144431505Y-123871401D01*
X144598599Y-124038495D01*
X144695384Y-124106265D01*
X144792165Y-124174032D01*
X144792167Y-124174033D01*
X144792170Y-124174035D01*
X145006337Y-124273903D01*
X145234592Y-124335063D01*
X145411034Y-124350500D01*
X145469999Y-124355659D01*
X145470000Y-124355659D01*
X145470001Y-124355659D01*
X145528966Y-124350500D01*
X145705408Y-124335063D01*
X145933663Y-124273903D01*
X146147830Y-124174035D01*
X146341401Y-124038495D01*
X146463329Y-123916566D01*
X146524648Y-123883084D01*
X146594340Y-123888068D01*
X146650274Y-123929939D01*
X146667189Y-123960917D01*
X146716202Y-124092328D01*
X146716206Y-124092335D01*
X146802452Y-124207544D01*
X146802455Y-124207547D01*
X146917664Y-124293793D01*
X146917671Y-124293797D01*
X147052517Y-124344091D01*
X147052516Y-124344091D01*
X147059444Y-124344835D01*
X147112127Y-124350500D01*
X148907872Y-124350499D01*
X148967483Y-124344091D01*
X149102331Y-124293796D01*
X149217546Y-124207546D01*
X149303796Y-124092331D01*
X149354091Y-123957483D01*
X149360500Y-123897873D01*
X149360499Y-122102128D01*
X149354091Y-122042517D01*
X149352810Y-122039083D01*
X149303797Y-121907671D01*
X149303793Y-121907664D01*
X149217547Y-121792455D01*
X149217544Y-121792452D01*
X149102335Y-121706206D01*
X149102328Y-121706202D01*
X148967482Y-121655908D01*
X148967483Y-121655908D01*
X148907883Y-121649501D01*
X148907881Y-121649500D01*
X148907873Y-121649500D01*
X148907864Y-121649500D01*
X147112129Y-121649500D01*
X147112123Y-121649501D01*
X147052516Y-121655908D01*
X146917671Y-121706202D01*
X146917664Y-121706206D01*
X146802455Y-121792452D01*
X146802452Y-121792455D01*
X146716206Y-121907664D01*
X146716203Y-121907669D01*
X146667189Y-122039083D01*
X146625317Y-122095016D01*
X146559853Y-122119433D01*
X146491580Y-122104581D01*
X146463326Y-122083430D01*
X146341402Y-121961506D01*
X146341395Y-121961501D01*
X146319257Y-121946000D01*
X146264518Y-121907671D01*
X146147834Y-121825967D01*
X146147830Y-121825965D01*
X146135038Y-121820000D01*
X145933663Y-121726097D01*
X145933659Y-121726096D01*
X145933655Y-121726094D01*
X145705413Y-121664938D01*
X145705403Y-121664936D01*
X145470001Y-121644341D01*
X145469999Y-121644341D01*
X145234596Y-121664936D01*
X145234586Y-121664938D01*
X145006344Y-121726094D01*
X145006335Y-121726098D01*
X144792171Y-121825964D01*
X144792169Y-121825965D01*
X144598597Y-121961505D01*
X144431505Y-122128597D01*
X144295965Y-122322169D01*
X144295964Y-122322171D01*
X144196098Y-122536335D01*
X144196094Y-122536344D01*
X144134938Y-122764586D01*
X144134936Y-122764596D01*
X144114341Y-122999999D01*
X144114341Y-123000000D01*
X138727789Y-123000000D01*
X140390624Y-121337165D01*
X140390627Y-121337162D01*
X140483704Y-121197863D01*
X140547816Y-121043081D01*
X140566610Y-120948599D01*
X140580500Y-120878767D01*
X140580500Y-108303650D01*
X140600185Y-108236611D01*
X140616814Y-108215974D01*
X141006407Y-107826381D01*
X141067729Y-107792897D01*
X141137421Y-107797881D01*
X141193354Y-107839753D01*
X141217771Y-107905217D01*
X141213212Y-107945911D01*
X141213372Y-107945943D01*
X141212999Y-107947815D01*
X141212749Y-107950052D01*
X141212184Y-107951913D01*
X141179500Y-108116228D01*
X141179500Y-112361307D01*
X141170062Y-112408755D01*
X141163541Y-112424500D01*
X141152183Y-112451922D01*
X141152181Y-112451926D01*
X141119500Y-112616228D01*
X141119500Y-112783771D01*
X141152181Y-112948073D01*
X141152184Y-112948082D01*
X141216296Y-113102863D01*
X141216297Y-113102866D01*
X141309372Y-113242161D01*
X141309375Y-113242165D01*
X143288181Y-115220970D01*
X143321666Y-115282293D01*
X143324500Y-115308651D01*
X143324500Y-115536634D01*
X143304815Y-115603673D01*
X143276663Y-115634487D01*
X143223218Y-115676085D01*
X143223216Y-115676086D01*
X143223216Y-115676087D01*
X143187466Y-115714922D01*
X143066016Y-115846852D01*
X142939075Y-116041151D01*
X142845842Y-116253699D01*
X142788866Y-116478691D01*
X142788864Y-116478702D01*
X142769700Y-116709993D01*
X142769700Y-116710006D01*
X142788864Y-116941297D01*
X142788866Y-116941308D01*
X142845842Y-117166300D01*
X142939075Y-117378848D01*
X143066016Y-117573147D01*
X143066019Y-117573151D01*
X143066021Y-117573153D01*
X143160803Y-117676114D01*
X143191724Y-117738767D01*
X143183864Y-117808193D01*
X143139716Y-117862348D01*
X143112906Y-117876277D01*
X143032669Y-117906203D01*
X143032664Y-117906206D01*
X142917455Y-117992452D01*
X142917452Y-117992455D01*
X142831206Y-118107664D01*
X142831202Y-118107671D01*
X142780908Y-118242517D01*
X142776061Y-118287604D01*
X142774501Y-118302123D01*
X142774500Y-118302135D01*
X142774500Y-120197870D01*
X142774501Y-120197876D01*
X142780908Y-120257483D01*
X142831202Y-120392328D01*
X142831206Y-120392335D01*
X142917452Y-120507544D01*
X142917455Y-120507547D01*
X143032664Y-120593793D01*
X143032671Y-120593797D01*
X143167517Y-120644091D01*
X143167516Y-120644091D01*
X143174444Y-120644835D01*
X143227127Y-120650500D01*
X145122872Y-120650499D01*
X145182483Y-120644091D01*
X145317331Y-120593796D01*
X145432546Y-120507546D01*
X145518796Y-120392331D01*
X145569091Y-120257483D01*
X145575500Y-120197873D01*
X145575499Y-118302128D01*
X145569091Y-118242517D01*
X145565635Y-118233252D01*
X145518797Y-118107671D01*
X145518793Y-118107664D01*
X145432547Y-117992455D01*
X145432544Y-117992452D01*
X145317335Y-117906206D01*
X145317328Y-117906202D01*
X145237094Y-117876277D01*
X145181160Y-117834406D01*
X145156743Y-117768941D01*
X145171595Y-117700668D01*
X145189190Y-117676121D01*
X145283979Y-117573153D01*
X145410924Y-117378849D01*
X145504157Y-117166300D01*
X145561134Y-116941305D01*
X145561135Y-116941297D01*
X145580300Y-116710006D01*
X145580300Y-116709993D01*
X145561135Y-116478702D01*
X145561133Y-116478691D01*
X145504157Y-116253699D01*
X145410924Y-116041151D01*
X145283983Y-115846852D01*
X145283980Y-115846849D01*
X145283979Y-115846847D01*
X145126784Y-115676087D01*
X145073337Y-115634487D01*
X145032524Y-115577776D01*
X145025500Y-115536634D01*
X145025500Y-114821232D01*
X145025499Y-114821228D01*
X144992816Y-114656918D01*
X144956618Y-114569529D01*
X144956314Y-114568796D01*
X144942411Y-114535229D01*
X144928704Y-114502137D01*
X144928702Y-114502135D01*
X144928702Y-114502133D01*
X144835627Y-114362838D01*
X144835624Y-114362834D01*
X144309470Y-113836681D01*
X144275985Y-113775358D01*
X144280969Y-113705667D01*
X144322840Y-113649733D01*
X144388305Y-113625316D01*
X144397151Y-113625000D01*
X144485000Y-113625000D01*
X144485000Y-112708012D01*
X144542007Y-112740925D01*
X144669174Y-112775000D01*
X144800826Y-112775000D01*
X144927993Y-112740925D01*
X144985000Y-112708012D01*
X144985000Y-113625000D01*
X145632828Y-113625000D01*
X145632844Y-113624999D01*
X145692372Y-113618598D01*
X145692379Y-113618596D01*
X145827086Y-113568354D01*
X145827093Y-113568350D01*
X145942187Y-113482190D01*
X145942190Y-113482187D01*
X146028350Y-113367093D01*
X146028354Y-113367086D01*
X146078596Y-113232379D01*
X146078598Y-113232372D01*
X146084999Y-113172844D01*
X146085000Y-113172827D01*
X146085000Y-112525000D01*
X145168012Y-112525000D01*
X145200925Y-112467993D01*
X145235000Y-112340826D01*
X145235000Y-112209174D01*
X145200925Y-112082007D01*
X145168012Y-112025000D01*
X146085000Y-112025000D01*
X146085000Y-111377172D01*
X146084999Y-111377155D01*
X146078598Y-111317627D01*
X146078596Y-111317620D01*
X146028354Y-111182913D01*
X146028350Y-111182906D01*
X145942190Y-111067812D01*
X145942187Y-111067809D01*
X145827093Y-110981649D01*
X145827088Y-110981646D01*
X145695528Y-110932577D01*
X145639595Y-110890705D01*
X145615178Y-110825241D01*
X145630030Y-110756968D01*
X145651175Y-110728720D01*
X145773495Y-110606401D01*
X145909035Y-110412830D01*
X146008903Y-110198663D01*
X146070063Y-109970408D01*
X146090659Y-109735000D01*
X146070063Y-109499592D01*
X146008903Y-109271337D01*
X145909035Y-109057171D01*
X145887522Y-109026446D01*
X145773494Y-108863597D01*
X145606402Y-108696506D01*
X145606395Y-108696501D01*
X145412834Y-108560967D01*
X145412830Y-108560965D01*
X145373380Y-108542569D01*
X145198663Y-108461097D01*
X145198659Y-108461096D01*
X145198655Y-108461094D01*
X144970413Y-108399938D01*
X144970403Y-108399936D01*
X144735001Y-108379341D01*
X144734999Y-108379341D01*
X144499596Y-108399936D01*
X144499586Y-108399938D01*
X144271344Y-108461094D01*
X144271335Y-108461098D01*
X144057171Y-108560964D01*
X144057169Y-108560965D01*
X143863597Y-108696505D01*
X143696505Y-108863597D01*
X143560965Y-109057169D01*
X143560964Y-109057171D01*
X143461098Y-109271335D01*
X143461094Y-109271344D01*
X143399938Y-109499586D01*
X143399936Y-109499596D01*
X143379341Y-109734999D01*
X143379341Y-109735000D01*
X143399936Y-109970403D01*
X143399938Y-109970413D01*
X143461094Y-110198655D01*
X143461096Y-110198659D01*
X143461097Y-110198663D01*
X143529502Y-110345357D01*
X143560965Y-110412830D01*
X143560967Y-110412834D01*
X143661543Y-110556470D01*
X143696501Y-110606396D01*
X143696506Y-110606402D01*
X143818818Y-110728714D01*
X143852303Y-110790037D01*
X143847319Y-110859729D01*
X143805447Y-110915662D01*
X143774471Y-110932577D01*
X143642912Y-110981646D01*
X143642906Y-110981649D01*
X143527812Y-111067809D01*
X143527809Y-111067812D01*
X143441649Y-111182906D01*
X143441645Y-111182913D01*
X143391403Y-111317620D01*
X143391401Y-111317627D01*
X143385000Y-111377155D01*
X143385000Y-112025000D01*
X144301988Y-112025000D01*
X144269075Y-112082007D01*
X144235000Y-112209174D01*
X144235000Y-112340826D01*
X144269075Y-112467993D01*
X144301988Y-112525000D01*
X143385000Y-112525000D01*
X143385000Y-112612849D01*
X143365315Y-112679888D01*
X143312511Y-112725643D01*
X143243353Y-112735587D01*
X143179797Y-112706562D01*
X143173319Y-112700530D01*
X142916819Y-112444030D01*
X142883334Y-112382707D01*
X142880500Y-112356349D01*
X142880500Y-108603649D01*
X142900185Y-108536610D01*
X142916815Y-108515972D01*
X143745969Y-107686817D01*
X143807292Y-107653333D01*
X143833650Y-107650499D01*
X145122871Y-107650499D01*
X145122872Y-107650499D01*
X145182483Y-107644091D01*
X145317331Y-107593796D01*
X145432546Y-107507546D01*
X145518796Y-107392331D01*
X145569091Y-107257483D01*
X145575500Y-107197873D01*
X145575499Y-106252648D01*
X145595183Y-106185610D01*
X145647987Y-106139855D01*
X145717146Y-106129911D01*
X145780702Y-106158936D01*
X145787178Y-106164966D01*
X146946124Y-107323913D01*
X148022391Y-108400180D01*
X148055876Y-108461503D01*
X148050892Y-108531195D01*
X148033977Y-108562171D01*
X147981206Y-108632664D01*
X147981202Y-108632671D01*
X147930908Y-108767517D01*
X147927332Y-108800782D01*
X147924501Y-108827123D01*
X147924500Y-108827135D01*
X147924500Y-110622870D01*
X147924501Y-110622876D01*
X147930908Y-110682483D01*
X147981202Y-110817328D01*
X147981206Y-110817335D01*
X148067452Y-110932544D01*
X148067455Y-110932547D01*
X148182664Y-111018793D01*
X148182671Y-111018797D01*
X148314081Y-111067810D01*
X148370015Y-111109681D01*
X148394432Y-111175145D01*
X148379580Y-111243418D01*
X148358430Y-111271673D01*
X148236503Y-111393600D01*
X148100965Y-111587169D01*
X148100964Y-111587171D01*
X148001098Y-111801335D01*
X148001094Y-111801344D01*
X147939938Y-112029586D01*
X147939936Y-112029596D01*
X147919341Y-112264999D01*
X147919341Y-112265000D01*
X147939936Y-112500403D01*
X147939938Y-112500413D01*
X148001094Y-112728655D01*
X148001096Y-112728659D01*
X148001097Y-112728663D01*
X148100965Y-112942830D01*
X148100967Y-112942834D01*
X148161712Y-113029586D01*
X148236505Y-113136401D01*
X148403599Y-113303495D01*
X148494416Y-113367086D01*
X148597165Y-113439032D01*
X148597167Y-113439033D01*
X148597170Y-113439035D01*
X148811337Y-113538903D01*
X149039592Y-113600063D01*
X149227918Y-113616539D01*
X149274999Y-113620659D01*
X149275000Y-113620659D01*
X149275001Y-113620659D01*
X149314234Y-113617226D01*
X149510408Y-113600063D01*
X149738663Y-113538903D01*
X149952830Y-113439035D01*
X150146401Y-113303495D01*
X150313495Y-113136401D01*
X150449035Y-112942830D01*
X150548903Y-112728663D01*
X150610063Y-112500408D01*
X150630659Y-112265000D01*
X150610063Y-112029592D01*
X150548903Y-111801337D01*
X150449035Y-111587171D01*
X150418711Y-111543864D01*
X150313496Y-111393600D01*
X150297051Y-111377155D01*
X150191567Y-111271671D01*
X150158084Y-111210351D01*
X150163068Y-111140659D01*
X150204939Y-111084725D01*
X150235915Y-111067810D01*
X150367331Y-111018796D01*
X150482546Y-110932546D01*
X150568796Y-110817331D01*
X150619091Y-110682483D01*
X150625500Y-110622873D01*
X150625499Y-108827128D01*
X150619091Y-108767517D01*
X150606311Y-108733253D01*
X150568797Y-108632671D01*
X150568793Y-108632664D01*
X150482547Y-108517455D01*
X150482544Y-108517452D01*
X150367335Y-108431206D01*
X150367328Y-108431202D01*
X150232482Y-108380908D01*
X150232484Y-108380908D01*
X150216731Y-108379215D01*
X150152180Y-108352476D01*
X150112333Y-108295083D01*
X150108371Y-108280117D01*
X150093220Y-108203949D01*
X150092816Y-108201918D01*
X150047727Y-108093064D01*
X150028704Y-108047137D01*
X149935626Y-107907838D01*
X149935622Y-107907834D01*
X149935620Y-107907831D01*
X145598213Y-103570424D01*
X145564728Y-103509101D01*
X145562318Y-103492990D01*
X145561134Y-103478695D01*
X145504157Y-103253700D01*
X145410924Y-103041151D01*
X145386456Y-103003700D01*
X145283983Y-102846852D01*
X145283980Y-102846849D01*
X145283979Y-102846847D01*
X145126784Y-102676087D01*
X145126779Y-102676083D01*
X145126777Y-102676081D01*
X144943634Y-102533535D01*
X144943628Y-102533531D01*
X144739504Y-102423064D01*
X144739495Y-102423061D01*
X144519984Y-102347702D01*
X144339973Y-102317664D01*
X144291049Y-102309500D01*
X144058951Y-102309500D01*
X144013164Y-102317140D01*
X143830015Y-102347702D01*
X143610504Y-102423061D01*
X143610495Y-102423064D01*
X143406371Y-102533531D01*
X143406365Y-102533535D01*
X143223222Y-102676081D01*
X143223219Y-102676084D01*
X143223216Y-102676086D01*
X143223216Y-102676087D01*
X143164267Y-102740122D01*
X143066016Y-102846852D01*
X142939075Y-103041151D01*
X142845842Y-103253699D01*
X142788866Y-103478691D01*
X142788864Y-103478703D01*
X142778195Y-103607468D01*
X142753042Y-103672653D01*
X142742300Y-103684909D01*
X139069375Y-107357834D01*
X139069372Y-107357838D01*
X138976297Y-107497133D01*
X138976296Y-107497136D01*
X138943243Y-107576935D01*
X138943243Y-107576936D01*
X138912184Y-107651917D01*
X138912182Y-107651925D01*
X138879500Y-107816228D01*
X138879500Y-120391348D01*
X138859815Y-120458387D01*
X138843181Y-120479029D01*
X134895940Y-124426269D01*
X134834617Y-124459754D01*
X134764925Y-124454770D01*
X134708992Y-124412898D01*
X134684731Y-124349396D01*
X134679867Y-124293797D01*
X134665063Y-124124592D01*
X134603903Y-123896337D01*
X134504035Y-123682171D01*
X134500999Y-123677834D01*
X134368494Y-123488597D01*
X134201402Y-123321506D01*
X134201401Y-123321505D01*
X134033844Y-123204180D01*
X134015405Y-123191269D01*
X133971781Y-123136692D01*
X133964588Y-123067193D01*
X133996110Y-123004839D01*
X134015405Y-122988119D01*
X134201082Y-122858105D01*
X134368105Y-122691082D01*
X134503600Y-122497578D01*
X134603429Y-122283492D01*
X134603432Y-122283486D01*
X134660636Y-122070000D01*
X133763012Y-122070000D01*
X133795925Y-122012993D01*
X133830000Y-121885826D01*
X133830000Y-121754174D01*
X133795925Y-121627007D01*
X133763012Y-121570000D01*
X134660636Y-121570000D01*
X134660635Y-121569999D01*
X134603432Y-121356513D01*
X134603429Y-121356507D01*
X134503600Y-121142422D01*
X134503599Y-121142420D01*
X134368113Y-120948926D01*
X134368108Y-120948920D01*
X134201082Y-120781894D01*
X134007578Y-120646399D01*
X133793492Y-120546570D01*
X133793486Y-120546567D01*
X133580000Y-120489364D01*
X133580000Y-121386988D01*
X133522993Y-121354075D01*
X133395826Y-121320000D01*
X133264174Y-121320000D01*
X133137007Y-121354075D01*
X133080000Y-121386988D01*
X133080000Y-120489364D01*
X133079999Y-120489364D01*
X132866513Y-120546567D01*
X132866507Y-120546570D01*
X132652422Y-120646399D01*
X132652420Y-120646400D01*
X132458926Y-120781886D01*
X132458920Y-120781891D01*
X132291891Y-120948920D01*
X132291890Y-120948922D01*
X132161880Y-121134595D01*
X132107303Y-121178219D01*
X132037804Y-121185412D01*
X131975450Y-121153890D01*
X131958730Y-121134594D01*
X131828494Y-120948597D01*
X131661402Y-120781506D01*
X131661395Y-120781501D01*
X131467834Y-120645967D01*
X131467830Y-120645965D01*
X131445081Y-120635357D01*
X131253663Y-120546097D01*
X131253659Y-120546096D01*
X131253655Y-120546094D01*
X131025413Y-120484938D01*
X131025403Y-120484936D01*
X130790001Y-120464341D01*
X130789999Y-120464341D01*
X130554596Y-120484936D01*
X130554586Y-120484938D01*
X130326344Y-120546094D01*
X130326335Y-120546098D01*
X130112171Y-120645964D01*
X130112169Y-120645965D01*
X129918597Y-120781505D01*
X129751505Y-120948597D01*
X129621575Y-121134158D01*
X129566998Y-121177783D01*
X129497500Y-121184977D01*
X129435145Y-121153454D01*
X129418425Y-121134158D01*
X129288494Y-120948597D01*
X129121402Y-120781506D01*
X129121395Y-120781501D01*
X128927834Y-120645967D01*
X128927830Y-120645965D01*
X128905081Y-120635357D01*
X128713663Y-120546097D01*
X128713659Y-120546096D01*
X128713655Y-120546094D01*
X128485413Y-120484938D01*
X128485403Y-120484936D01*
X128250001Y-120464341D01*
X128249999Y-120464341D01*
X128014596Y-120484936D01*
X128014586Y-120484938D01*
X127786344Y-120546094D01*
X127786335Y-120546098D01*
X127572171Y-120645964D01*
X127572169Y-120645965D01*
X127378597Y-120781505D01*
X127211508Y-120948594D01*
X127081269Y-121134595D01*
X127026692Y-121178219D01*
X126957193Y-121185412D01*
X126894839Y-121153890D01*
X126878119Y-121134594D01*
X126748113Y-120948926D01*
X126748108Y-120948920D01*
X126581083Y-120781894D01*
X126581074Y-120781886D01*
X126560000Y-120767129D01*
X126560000Y-122546000D01*
X126540315Y-122613039D01*
X126487511Y-122658794D01*
X126436000Y-122670000D01*
X124984000Y-122670000D01*
X124916961Y-122650315D01*
X124871206Y-122597511D01*
X124860000Y-122546000D01*
X124860000Y-121885826D01*
X125210000Y-121885826D01*
X125244075Y-122012993D01*
X125309901Y-122127007D01*
X125402993Y-122220099D01*
X125517007Y-122285925D01*
X125644174Y-122320000D01*
X125775826Y-122320000D01*
X125902993Y-122285925D01*
X126017007Y-122220099D01*
X126110099Y-122127007D01*
X126175925Y-122012993D01*
X126210000Y-121885826D01*
X126210000Y-121754174D01*
X126175925Y-121627007D01*
X126110099Y-121512993D01*
X126017007Y-121419901D01*
X125902993Y-121354075D01*
X125775826Y-121320000D01*
X125644174Y-121320000D01*
X125517007Y-121354075D01*
X125402993Y-121419901D01*
X125309901Y-121512993D01*
X125244075Y-121627007D01*
X125210000Y-121754174D01*
X125210000Y-121885826D01*
X124860000Y-121885826D01*
X124860000Y-120767131D01*
X124838921Y-120781890D01*
X124671891Y-120948920D01*
X124671890Y-120948922D01*
X124541880Y-121134595D01*
X124487303Y-121178219D01*
X124417804Y-121185412D01*
X124355450Y-121153890D01*
X124338730Y-121134594D01*
X124208494Y-120948597D01*
X124041402Y-120781506D01*
X124041395Y-120781501D01*
X123847834Y-120645967D01*
X123847830Y-120645965D01*
X123825081Y-120635357D01*
X123633663Y-120546097D01*
X123633659Y-120546096D01*
X123633655Y-120546094D01*
X123405413Y-120484938D01*
X123405403Y-120484936D01*
X123170001Y-120464341D01*
X123169999Y-120464341D01*
X122934596Y-120484936D01*
X122934586Y-120484938D01*
X122706344Y-120546094D01*
X122706335Y-120546098D01*
X122492171Y-120645964D01*
X122492169Y-120645965D01*
X122298597Y-120781505D01*
X122131505Y-120948597D01*
X122001575Y-121134158D01*
X121946998Y-121177783D01*
X121877500Y-121184977D01*
X121815145Y-121153454D01*
X121798425Y-121134158D01*
X121668494Y-120948597D01*
X121501402Y-120781506D01*
X121501395Y-120781501D01*
X121307834Y-120645967D01*
X121307830Y-120645965D01*
X121285081Y-120635357D01*
X121093663Y-120546097D01*
X121093659Y-120546096D01*
X121093655Y-120546094D01*
X120865413Y-120484938D01*
X120865403Y-120484936D01*
X120630001Y-120464341D01*
X120629999Y-120464341D01*
X120394596Y-120484936D01*
X120394586Y-120484938D01*
X120166344Y-120546094D01*
X120166335Y-120546098D01*
X119952171Y-120645964D01*
X119952169Y-120645965D01*
X119758597Y-120781505D01*
X119591508Y-120948594D01*
X119461269Y-121134595D01*
X119406692Y-121178219D01*
X119337193Y-121185412D01*
X119274839Y-121153890D01*
X119258119Y-121134594D01*
X119128113Y-120948926D01*
X119128108Y-120948920D01*
X118961083Y-120781894D01*
X118961074Y-120781886D01*
X118940000Y-120767129D01*
X118940000Y-122546000D01*
X118920315Y-122613039D01*
X118867511Y-122658794D01*
X118816000Y-122670000D01*
X117364000Y-122670000D01*
X117296961Y-122650315D01*
X117251206Y-122597511D01*
X117240000Y-122546000D01*
X117240000Y-121885826D01*
X117590000Y-121885826D01*
X117624075Y-122012993D01*
X117689901Y-122127007D01*
X117782993Y-122220099D01*
X117897007Y-122285925D01*
X118024174Y-122320000D01*
X118155826Y-122320000D01*
X118282993Y-122285925D01*
X118397007Y-122220099D01*
X118490099Y-122127007D01*
X118555925Y-122012993D01*
X118590000Y-121885826D01*
X118590000Y-121754174D01*
X118555925Y-121627007D01*
X118490099Y-121512993D01*
X118397007Y-121419901D01*
X118282993Y-121354075D01*
X118155826Y-121320000D01*
X118024174Y-121320000D01*
X117897007Y-121354075D01*
X117782993Y-121419901D01*
X117689901Y-121512993D01*
X117624075Y-121627007D01*
X117590000Y-121754174D01*
X117590000Y-121885826D01*
X117240000Y-121885826D01*
X117240000Y-120767131D01*
X117218921Y-120781890D01*
X117051891Y-120948920D01*
X117051890Y-120948922D01*
X116921880Y-121134595D01*
X116867303Y-121178219D01*
X116797804Y-121185412D01*
X116735450Y-121153890D01*
X116718730Y-121134594D01*
X116588494Y-120948597D01*
X116421402Y-120781506D01*
X116421395Y-120781501D01*
X116227834Y-120645967D01*
X116227830Y-120645965D01*
X116205081Y-120635357D01*
X116013663Y-120546097D01*
X116013659Y-120546096D01*
X116013655Y-120546094D01*
X115785413Y-120484938D01*
X115785403Y-120484936D01*
X115550001Y-120464341D01*
X115549999Y-120464341D01*
X115314596Y-120484936D01*
X115314586Y-120484938D01*
X115086344Y-120546094D01*
X115086335Y-120546098D01*
X114872171Y-120645964D01*
X114872169Y-120645965D01*
X114678597Y-120781505D01*
X114511505Y-120948597D01*
X114381575Y-121134158D01*
X114326998Y-121177783D01*
X114257500Y-121184977D01*
X114195145Y-121153454D01*
X114178425Y-121134158D01*
X114048494Y-120948597D01*
X113881402Y-120781506D01*
X113881395Y-120781501D01*
X113687834Y-120645967D01*
X113687830Y-120645965D01*
X113665081Y-120635357D01*
X113473663Y-120546097D01*
X113473659Y-120546096D01*
X113473655Y-120546094D01*
X113245413Y-120484938D01*
X113245403Y-120484936D01*
X113010001Y-120464341D01*
X113009999Y-120464341D01*
X112774596Y-120484936D01*
X112774586Y-120484938D01*
X112546344Y-120546094D01*
X112546335Y-120546098D01*
X112332171Y-120645964D01*
X112332169Y-120645965D01*
X112138597Y-120781505D01*
X111971505Y-120948597D01*
X111841575Y-121134158D01*
X111786998Y-121177783D01*
X111717500Y-121184977D01*
X111655145Y-121153454D01*
X111638425Y-121134158D01*
X111508494Y-120948597D01*
X111341402Y-120781506D01*
X111341395Y-120781501D01*
X111147834Y-120645967D01*
X111147830Y-120645965D01*
X111125081Y-120635357D01*
X110933663Y-120546097D01*
X110933659Y-120546096D01*
X110933655Y-120546094D01*
X110705413Y-120484938D01*
X110705403Y-120484936D01*
X110470001Y-120464341D01*
X110469999Y-120464341D01*
X110234596Y-120484936D01*
X110234586Y-120484938D01*
X110006344Y-120546094D01*
X110006335Y-120546098D01*
X109792171Y-120645964D01*
X109792169Y-120645965D01*
X109598597Y-120781505D01*
X109431505Y-120948597D01*
X109301575Y-121134158D01*
X109246998Y-121177783D01*
X109177500Y-121184977D01*
X109115145Y-121153454D01*
X109098425Y-121134158D01*
X108968494Y-120948597D01*
X108801402Y-120781506D01*
X108801395Y-120781501D01*
X108607834Y-120645967D01*
X108607830Y-120645965D01*
X108585081Y-120635357D01*
X108393663Y-120546097D01*
X108393659Y-120546096D01*
X108393655Y-120546094D01*
X108165413Y-120484938D01*
X108165403Y-120484936D01*
X107930001Y-120464341D01*
X107929999Y-120464341D01*
X107694596Y-120484936D01*
X107694586Y-120484938D01*
X107466344Y-120546094D01*
X107466335Y-120546098D01*
X107252171Y-120645964D01*
X107252169Y-120645965D01*
X107058597Y-120781505D01*
X106891505Y-120948597D01*
X106761575Y-121134158D01*
X106706998Y-121177783D01*
X106637500Y-121184977D01*
X106575145Y-121153454D01*
X106558425Y-121134158D01*
X106428494Y-120948597D01*
X106261402Y-120781506D01*
X106261395Y-120781501D01*
X106067834Y-120645967D01*
X106067830Y-120645965D01*
X106045081Y-120635357D01*
X105853663Y-120546097D01*
X105853659Y-120546096D01*
X105853655Y-120546094D01*
X105625413Y-120484938D01*
X105625403Y-120484936D01*
X105390001Y-120464341D01*
X105389999Y-120464341D01*
X105154596Y-120484936D01*
X105154586Y-120484938D01*
X104926344Y-120546094D01*
X104926335Y-120546098D01*
X104712171Y-120645964D01*
X104712169Y-120645965D01*
X104518597Y-120781505D01*
X104351505Y-120948597D01*
X104221575Y-121134158D01*
X104166998Y-121177783D01*
X104097500Y-121184977D01*
X104035145Y-121153454D01*
X104018425Y-121134158D01*
X103888494Y-120948597D01*
X103721402Y-120781506D01*
X103721395Y-120781501D01*
X103527834Y-120645967D01*
X103527830Y-120645965D01*
X103505081Y-120635357D01*
X103313663Y-120546097D01*
X103313659Y-120546096D01*
X103313655Y-120546094D01*
X103085413Y-120484938D01*
X103085403Y-120484936D01*
X102850001Y-120464341D01*
X102849999Y-120464341D01*
X102614596Y-120484936D01*
X102614586Y-120484938D01*
X102386344Y-120546094D01*
X102386335Y-120546098D01*
X102172171Y-120645964D01*
X102172169Y-120645965D01*
X101978600Y-120781503D01*
X101856673Y-120903430D01*
X101795350Y-120936914D01*
X101725658Y-120931930D01*
X101669725Y-120890058D01*
X101652810Y-120859081D01*
X101603797Y-120727671D01*
X101603793Y-120727664D01*
X101517547Y-120612455D01*
X101517544Y-120612452D01*
X101402335Y-120526206D01*
X101402328Y-120526202D01*
X101267482Y-120475908D01*
X101267483Y-120475908D01*
X101207883Y-120469501D01*
X101207881Y-120469500D01*
X101207873Y-120469500D01*
X101207865Y-120469500D01*
X100500636Y-120469500D01*
X100433597Y-120449815D01*
X100387842Y-120397011D01*
X100377898Y-120327853D01*
X100406923Y-120264297D01*
X100453181Y-120230940D01*
X100488127Y-120216465D01*
X100594669Y-120145277D01*
X101299634Y-119440310D01*
X101360955Y-119406827D01*
X101375146Y-119404592D01*
X101556331Y-119386747D01*
X101735501Y-119332396D01*
X101900625Y-119244136D01*
X102045357Y-119125357D01*
X102164136Y-118980625D01*
X102252396Y-118815501D01*
X102306747Y-118636331D01*
X102325099Y-118450000D01*
X102306747Y-118263669D01*
X102252396Y-118084499D01*
X102252019Y-118083793D01*
X102164137Y-117919376D01*
X102164135Y-117919373D01*
X102045357Y-117774642D01*
X101927167Y-117677646D01*
X101887833Y-117619900D01*
X101885962Y-117550056D01*
X101922150Y-117490287D01*
X101927167Y-117485940D01*
X102025357Y-117405357D01*
X102123038Y-117286333D01*
X102144136Y-117260625D01*
X102232396Y-117095501D01*
X102286747Y-116916331D01*
X102305099Y-116730000D01*
X102286747Y-116543669D01*
X102232396Y-116364499D01*
X102229656Y-116359373D01*
X102144137Y-116199376D01*
X102144135Y-116199373D01*
X102025357Y-116054642D01*
X101875916Y-115931999D01*
X101877219Y-115930410D01*
X101838427Y-115884002D01*
X101829711Y-115814678D01*
X101859859Y-115751648D01*
X101919298Y-115714922D01*
X101952117Y-115710500D01*
X109553768Y-115710500D01*
X109553769Y-115710499D01*
X109718082Y-115677816D01*
X109764519Y-115658581D01*
X109872863Y-115613704D01*
X110012162Y-115520627D01*
X110418787Y-115113999D01*
X110470474Y-115083021D01*
X110479709Y-115080219D01*
X110505501Y-115072396D01*
X110670625Y-114984136D01*
X110815357Y-114865357D01*
X110934136Y-114720625D01*
X111022396Y-114555501D01*
X111076747Y-114376331D01*
X111095099Y-114190000D01*
X111076747Y-114003669D01*
X111022396Y-113824499D01*
X110997598Y-113778104D01*
X110996149Y-113775393D01*
X111510294Y-113775393D01*
X111528645Y-113961724D01*
X111528646Y-113961726D01*
X111582997Y-114140895D01*
X111671255Y-114306016D01*
X111671257Y-114306019D01*
X111790035Y-114450750D01*
X111934766Y-114569528D01*
X111934769Y-114569530D01*
X112099890Y-114657788D01*
X112099892Y-114657789D01*
X112279059Y-114712139D01*
X112279061Y-114712140D01*
X112301809Y-114714380D01*
X112460234Y-114729983D01*
X112525019Y-114756144D01*
X112535759Y-114765705D01*
X114601594Y-116831540D01*
X114628474Y-116871767D01*
X114643534Y-116908126D01*
X114714726Y-117014673D01*
X114714727Y-117014674D01*
X115055541Y-117355487D01*
X115070962Y-117374277D01*
X115144723Y-117484668D01*
X115144726Y-117484672D01*
X115235327Y-117575273D01*
X115235331Y-117575276D01*
X115341866Y-117646461D01*
X115341875Y-117646466D01*
X115364564Y-117655864D01*
X115460256Y-117695501D01*
X115460260Y-117695501D01*
X115460261Y-117695502D01*
X115585928Y-117720500D01*
X115585931Y-117720500D01*
X115714069Y-117720500D01*
X115820975Y-117720500D01*
X115888014Y-117740185D01*
X115916829Y-117765836D01*
X115924643Y-117775357D01*
X116069373Y-117894135D01*
X116069376Y-117894137D01*
X116234497Y-117982395D01*
X116234499Y-117982396D01*
X116413666Y-118036746D01*
X116413668Y-118036747D01*
X116430374Y-118038392D01*
X116600000Y-118055099D01*
X116786331Y-118036747D01*
X116965501Y-117982396D01*
X117130625Y-117894136D01*
X117275357Y-117775357D01*
X117394136Y-117630625D01*
X117482396Y-117465501D01*
X117536747Y-117286331D01*
X117555099Y-117100000D01*
X117536747Y-116913669D01*
X117529567Y-116890000D01*
X124494901Y-116890000D01*
X124513252Y-117076331D01*
X124513253Y-117076333D01*
X124567604Y-117255502D01*
X124655862Y-117420623D01*
X124655864Y-117420626D01*
X124774642Y-117565357D01*
X124919373Y-117684135D01*
X124919376Y-117684137D01*
X125072226Y-117765836D01*
X125084499Y-117772396D01*
X125263666Y-117826746D01*
X125263668Y-117826747D01*
X125286416Y-117828987D01*
X125444841Y-117844590D01*
X125509626Y-117870751D01*
X125520366Y-117880312D01*
X126435325Y-118795272D01*
X126435332Y-118795278D01*
X126539175Y-118864663D01*
X126539176Y-118864663D01*
X126539185Y-118864669D01*
X126541873Y-118866465D01*
X126660256Y-118915501D01*
X126660260Y-118915501D01*
X126660261Y-118915502D01*
X126785928Y-118940500D01*
X126785931Y-118940500D01*
X129414071Y-118940500D01*
X129498615Y-118923682D01*
X129539744Y-118915501D01*
X129658127Y-118866465D01*
X129660815Y-118864669D01*
X129764669Y-118795277D01*
X133333127Y-115226819D01*
X133394450Y-115193334D01*
X133420808Y-115190500D01*
X133482483Y-115190500D01*
X133549522Y-115210185D01*
X133595277Y-115262989D01*
X133605841Y-115301896D01*
X133610004Y-115342639D01*
X133665202Y-115509217D01*
X133665204Y-115509222D01*
X133742469Y-115634487D01*
X133757330Y-115658581D01*
X133881419Y-115782670D01*
X134030780Y-115874797D01*
X134141834Y-115911596D01*
X134197361Y-115929996D01*
X134216967Y-115931999D01*
X134300174Y-115940500D01*
X134300178Y-115940500D01*
X135699822Y-115940500D01*
X135699826Y-115940500D01*
X135802638Y-115929996D01*
X135969220Y-115874797D01*
X136118581Y-115782670D01*
X136242670Y-115658581D01*
X136334797Y-115509220D01*
X136389996Y-115342638D01*
X136400500Y-115239826D01*
X136400500Y-113840174D01*
X136389996Y-113737362D01*
X136389995Y-113737360D01*
X136351380Y-113620826D01*
X136334797Y-113570780D01*
X136242670Y-113421419D01*
X136118581Y-113297330D01*
X135969220Y-113205203D01*
X135821278Y-113156180D01*
X135772602Y-113126156D01*
X135088585Y-112442137D01*
X135173694Y-112419333D01*
X135276306Y-112360090D01*
X135360090Y-112276306D01*
X135419333Y-112173694D01*
X135442138Y-112088585D01*
X136151186Y-112797633D01*
X136235482Y-112668611D01*
X136328682Y-112456135D01*
X136385638Y-112231218D01*
X136404798Y-112000005D01*
X136404798Y-111999994D01*
X136385638Y-111768781D01*
X136328682Y-111543864D01*
X136235484Y-111331393D01*
X136151186Y-111202365D01*
X135442137Y-111911414D01*
X135419333Y-111826306D01*
X135360090Y-111723694D01*
X135276306Y-111639910D01*
X135173694Y-111580667D01*
X135088584Y-111557861D01*
X135798797Y-110847647D01*
X135798797Y-110847646D01*
X135773773Y-110828169D01*
X135732961Y-110771459D01*
X135729286Y-110701686D01*
X135763918Y-110641003D01*
X135773760Y-110632473D01*
X135951784Y-110493913D01*
X136108979Y-110323153D01*
X136235924Y-110128849D01*
X136329157Y-109916300D01*
X136386134Y-109691305D01*
X136386135Y-109691297D01*
X136405300Y-109460006D01*
X136405300Y-109459993D01*
X136386135Y-109228702D01*
X136386133Y-109228691D01*
X136329157Y-109003699D01*
X136235924Y-108791151D01*
X136108983Y-108596852D01*
X136108980Y-108596849D01*
X136108979Y-108596847D01*
X135951784Y-108426087D01*
X135951779Y-108426083D01*
X135951777Y-108426081D01*
X135768634Y-108283535D01*
X135768628Y-108283531D01*
X135564504Y-108173064D01*
X135564495Y-108173061D01*
X135344984Y-108097702D01*
X135173282Y-108069050D01*
X135116049Y-108059500D01*
X134883951Y-108059500D01*
X134838164Y-108067140D01*
X134655015Y-108097702D01*
X134435504Y-108173061D01*
X134435495Y-108173064D01*
X134231371Y-108283531D01*
X134231365Y-108283535D01*
X134048222Y-108426081D01*
X134048219Y-108426084D01*
X134048216Y-108426086D01*
X134048216Y-108426087D01*
X133996601Y-108482156D01*
X133891016Y-108596852D01*
X133764075Y-108791151D01*
X133670842Y-109003699D01*
X133613866Y-109228691D01*
X133613864Y-109228702D01*
X133594700Y-109459993D01*
X133594700Y-109460006D01*
X133613864Y-109691297D01*
X133613866Y-109691308D01*
X133670842Y-109916300D01*
X133764075Y-110128848D01*
X133891016Y-110323147D01*
X133891019Y-110323151D01*
X133891021Y-110323153D01*
X134048216Y-110493913D01*
X134226225Y-110632462D01*
X134267038Y-110689173D01*
X134270713Y-110758946D01*
X134236082Y-110819629D01*
X134226225Y-110828170D01*
X134201201Y-110847646D01*
X134201200Y-110847647D01*
X134911415Y-111557861D01*
X134826306Y-111580667D01*
X134723694Y-111639910D01*
X134639910Y-111723694D01*
X134580667Y-111826306D01*
X134557861Y-111911415D01*
X133848811Y-111202365D01*
X133764516Y-111331390D01*
X133671317Y-111543864D01*
X133614361Y-111768781D01*
X133595202Y-111999994D01*
X133595202Y-112000005D01*
X133614361Y-112231218D01*
X133671317Y-112456135D01*
X133764515Y-112668606D01*
X133848812Y-112797633D01*
X134557861Y-112088584D01*
X134580667Y-112173694D01*
X134639910Y-112276306D01*
X134723694Y-112360090D01*
X134826306Y-112419333D01*
X134911414Y-112442138D01*
X134227396Y-113126156D01*
X134178719Y-113156181D01*
X134030782Y-113205202D01*
X134030777Y-113205204D01*
X133881417Y-113297331D01*
X133757331Y-113421417D01*
X133665204Y-113570777D01*
X133665202Y-113570782D01*
X133610004Y-113737360D01*
X133605841Y-113778104D01*
X133579444Y-113842796D01*
X133522262Y-113882946D01*
X133482483Y-113889500D01*
X133091527Y-113889500D01*
X133024488Y-113869815D01*
X132978733Y-113817011D01*
X132968124Y-113777651D01*
X132966747Y-113763667D01*
X132924682Y-113625000D01*
X132912396Y-113584499D01*
X132905063Y-113570780D01*
X132824137Y-113419376D01*
X132824135Y-113419373D01*
X132708647Y-113278651D01*
X132681334Y-113214341D01*
X132680500Y-113199986D01*
X132680500Y-110420012D01*
X132700185Y-110352973D01*
X132708633Y-110341364D01*
X132824136Y-110200625D01*
X132912396Y-110035501D01*
X132966747Y-109856331D01*
X132985099Y-109670000D01*
X132966747Y-109483669D01*
X132912396Y-109304499D01*
X132902153Y-109285335D01*
X132824137Y-109139376D01*
X132824135Y-109139373D01*
X132705357Y-108994642D01*
X132560626Y-108875864D01*
X132560623Y-108875862D01*
X132395502Y-108787604D01*
X132216333Y-108733253D01*
X132216331Y-108733252D01*
X132030000Y-108714901D01*
X131843668Y-108733252D01*
X131843666Y-108733253D01*
X131664497Y-108787604D01*
X131499376Y-108875862D01*
X131499373Y-108875864D01*
X131354642Y-108994642D01*
X131235864Y-109139373D01*
X131235862Y-109139376D01*
X131147604Y-109304497D01*
X131093253Y-109483666D01*
X131093252Y-109483668D01*
X131074901Y-109670000D01*
X131093252Y-109856331D01*
X131093253Y-109856333D01*
X131147604Y-110035502D01*
X131235862Y-110200622D01*
X131235864Y-110200625D01*
X131351354Y-110341350D01*
X131378666Y-110405656D01*
X131379500Y-110420012D01*
X131379500Y-113199986D01*
X131359815Y-113267025D01*
X131351353Y-113278651D01*
X131235864Y-113419373D01*
X131235862Y-113419376D01*
X131147604Y-113584497D01*
X131093253Y-113763666D01*
X131093252Y-113763668D01*
X131074901Y-113950000D01*
X131093252Y-114136331D01*
X131093253Y-114136333D01*
X131147604Y-114315502D01*
X131235862Y-114480623D01*
X131235864Y-114480626D01*
X131354642Y-114625357D01*
X131499373Y-114744135D01*
X131499376Y-114744137D01*
X131662472Y-114831313D01*
X131712316Y-114880275D01*
X131727777Y-114948413D01*
X131703946Y-115014092D01*
X131691700Y-115028352D01*
X129116873Y-117603181D01*
X129055550Y-117636666D01*
X129029192Y-117639500D01*
X128128942Y-117639500D01*
X128061903Y-117619815D01*
X128016148Y-117567011D01*
X128006204Y-117497853D01*
X128010282Y-117479504D01*
X128056747Y-117326331D01*
X128075099Y-117140000D01*
X128056747Y-116953669D01*
X128002396Y-116774499D01*
X127964537Y-116703669D01*
X127914137Y-116609376D01*
X127914135Y-116609373D01*
X127798647Y-116468651D01*
X127771334Y-116404341D01*
X127770500Y-116389986D01*
X127770500Y-115644678D01*
X127790185Y-115577639D01*
X127815833Y-115548826D01*
X127905357Y-115475357D01*
X128024136Y-115330625D01*
X128112396Y-115165501D01*
X128166747Y-114986331D01*
X128185099Y-114800000D01*
X128167457Y-114620874D01*
X128166747Y-114613668D01*
X128166746Y-114613666D01*
X128132914Y-114502137D01*
X128112396Y-114434499D01*
X128081305Y-114376331D01*
X128024137Y-114269376D01*
X128024135Y-114269373D01*
X127905357Y-114124642D01*
X127760626Y-114005864D01*
X127760623Y-114005862D01*
X127595502Y-113917604D01*
X127416333Y-113863253D01*
X127416331Y-113863252D01*
X127230000Y-113844901D01*
X127043668Y-113863252D01*
X127043666Y-113863253D01*
X126864497Y-113917604D01*
X126699376Y-114005862D01*
X126699373Y-114005864D01*
X126554642Y-114124642D01*
X126435864Y-114269373D01*
X126435862Y-114269376D01*
X126347604Y-114434497D01*
X126293253Y-114613666D01*
X126293252Y-114613668D01*
X126274901Y-114800000D01*
X126293252Y-114986331D01*
X126293253Y-114986333D01*
X126347604Y-115165502D01*
X126435860Y-115330619D01*
X126435866Y-115330628D01*
X126441350Y-115337310D01*
X126468666Y-115401619D01*
X126469500Y-115415978D01*
X126469500Y-116287882D01*
X126449815Y-116354921D01*
X126397011Y-116400676D01*
X126327853Y-116410620D01*
X126264297Y-116381595D01*
X126248491Y-116363681D01*
X126248001Y-116364084D01*
X126125357Y-116214642D01*
X125980626Y-116095864D01*
X125980623Y-116095862D01*
X125815502Y-116007604D01*
X125636333Y-115953253D01*
X125636331Y-115953252D01*
X125450000Y-115934901D01*
X125263668Y-115953252D01*
X125263666Y-115953253D01*
X125084497Y-116007604D01*
X124919376Y-116095862D01*
X124919373Y-116095864D01*
X124774642Y-116214642D01*
X124655864Y-116359373D01*
X124655862Y-116359376D01*
X124567604Y-116524497D01*
X124513253Y-116703666D01*
X124513252Y-116703668D01*
X124494901Y-116890000D01*
X117529567Y-116890000D01*
X117482396Y-116734499D01*
X117465916Y-116703666D01*
X117394137Y-116569376D01*
X117394135Y-116569373D01*
X117275357Y-116424642D01*
X117130626Y-116305864D01*
X117130623Y-116305862D01*
X116965502Y-116217604D01*
X116786333Y-116163253D01*
X116786331Y-116163252D01*
X116600000Y-116144901D01*
X116413668Y-116163252D01*
X116413666Y-116163253D01*
X116234497Y-116217604D01*
X116069376Y-116305862D01*
X116069373Y-116305864D01*
X116033459Y-116335339D01*
X115969149Y-116362652D01*
X115900281Y-116350861D01*
X115867113Y-116327167D01*
X115838405Y-116298459D01*
X115811525Y-116258230D01*
X115796469Y-116221881D01*
X115796468Y-116221880D01*
X115796466Y-116221874D01*
X115791634Y-116214643D01*
X115725278Y-116115332D01*
X115725272Y-116115325D01*
X113455705Y-113845759D01*
X113422220Y-113784436D01*
X113419984Y-113770243D01*
X113402140Y-113589062D01*
X113347789Y-113409892D01*
X113324909Y-113367086D01*
X113259530Y-113244769D01*
X113259528Y-113244766D01*
X113140750Y-113100035D01*
X112996019Y-112981257D01*
X112996016Y-112981255D01*
X112830895Y-112892997D01*
X112651726Y-112838646D01*
X112651724Y-112838645D01*
X112465393Y-112820294D01*
X112279061Y-112838645D01*
X112279059Y-112838646D01*
X112099890Y-112892997D01*
X111934769Y-112981255D01*
X111934766Y-112981257D01*
X111790035Y-113100035D01*
X111671257Y-113244766D01*
X111671255Y-113244769D01*
X111582997Y-113409890D01*
X111528646Y-113589059D01*
X111528645Y-113589061D01*
X111510294Y-113775393D01*
X110996149Y-113775393D01*
X110934137Y-113659376D01*
X110934135Y-113659373D01*
X110815357Y-113514642D01*
X110670626Y-113395864D01*
X110670623Y-113395862D01*
X110505502Y-113307604D01*
X110326333Y-113253253D01*
X110326331Y-113253252D01*
X110140000Y-113234901D01*
X109953668Y-113253252D01*
X109953666Y-113253253D01*
X109774497Y-113307604D01*
X109609376Y-113395862D01*
X109609373Y-113395864D01*
X109464642Y-113514642D01*
X109345864Y-113659373D01*
X109345862Y-113659376D01*
X109257604Y-113824496D01*
X109246978Y-113859527D01*
X109216000Y-113911211D01*
X109154028Y-113973182D01*
X109092708Y-114006666D01*
X109066349Y-114009500D01*
X105596097Y-114009500D01*
X105529058Y-113989815D01*
X105483303Y-113937011D01*
X105473359Y-113867853D01*
X105486739Y-113827047D01*
X105507750Y-113787736D01*
X105562396Y-113685501D01*
X105573021Y-113650472D01*
X105603999Y-113598788D01*
X107175970Y-112026819D01*
X107237293Y-111993334D01*
X107263651Y-111990500D01*
X110703764Y-111990500D01*
X110762215Y-112005141D01*
X110794494Y-112022394D01*
X110794502Y-112022397D01*
X110973666Y-112076746D01*
X110973668Y-112076747D01*
X110990374Y-112078392D01*
X111160000Y-112095099D01*
X111346331Y-112076747D01*
X111525501Y-112022396D01*
X111690625Y-111934136D01*
X111835357Y-111815357D01*
X111954136Y-111670625D01*
X112042396Y-111505501D01*
X112096747Y-111326331D01*
X112115099Y-111140000D01*
X112096747Y-110953669D01*
X112069013Y-110862246D01*
X112068390Y-110792380D01*
X112105637Y-110733267D01*
X112168931Y-110703676D01*
X112227937Y-110708970D01*
X112325015Y-110742297D01*
X112325017Y-110742297D01*
X112325019Y-110742298D01*
X112553951Y-110780500D01*
X112553952Y-110780500D01*
X112786048Y-110780500D01*
X112786049Y-110780500D01*
X113014981Y-110742298D01*
X113234503Y-110666936D01*
X113438626Y-110556470D01*
X113439170Y-110556047D01*
X113513002Y-110498581D01*
X113621784Y-110413913D01*
X113778979Y-110243153D01*
X113836490Y-110155124D01*
X113889635Y-110109769D01*
X113958866Y-110100345D01*
X114022202Y-110129846D01*
X114044107Y-110155125D01*
X114058812Y-110177633D01*
X114767861Y-109468584D01*
X114790667Y-109553694D01*
X114849910Y-109656306D01*
X114933694Y-109740090D01*
X115036306Y-109799333D01*
X115121414Y-109822138D01*
X114411201Y-110532351D01*
X114441649Y-110556050D01*
X114645697Y-110666476D01*
X114645706Y-110666479D01*
X114865139Y-110741811D01*
X115093993Y-110780000D01*
X115326007Y-110780000D01*
X115554860Y-110741811D01*
X115774293Y-110666479D01*
X115774301Y-110666476D01*
X115978355Y-110556047D01*
X116008797Y-110532351D01*
X116008798Y-110532350D01*
X115298585Y-109822137D01*
X115383694Y-109799333D01*
X115486306Y-109740090D01*
X115570090Y-109656306D01*
X115629333Y-109553694D01*
X115652138Y-109468584D01*
X116336156Y-110152602D01*
X116366181Y-110201279D01*
X116415202Y-110349217D01*
X116415204Y-110349222D01*
X116427635Y-110369375D01*
X116507330Y-110498581D01*
X116631419Y-110622670D01*
X116780780Y-110714797D01*
X116863771Y-110742297D01*
X116947361Y-110769996D01*
X116981610Y-110773495D01*
X117050174Y-110780500D01*
X117050178Y-110780500D01*
X118449822Y-110780500D01*
X118449826Y-110780500D01*
X118552638Y-110769996D01*
X118719220Y-110714797D01*
X118868581Y-110622670D01*
X118992670Y-110498581D01*
X119084797Y-110349220D01*
X119087406Y-110341346D01*
X119095972Y-110315498D01*
X119135743Y-110258052D01*
X119200259Y-110231228D01*
X119213678Y-110230500D01*
X120146349Y-110230500D01*
X120213388Y-110250185D01*
X120234030Y-110266819D01*
X120695999Y-110728788D01*
X120726978Y-110780473D01*
X120737604Y-110815502D01*
X120825862Y-110980623D01*
X120825864Y-110980626D01*
X120944642Y-111125357D01*
X121089373Y-111244135D01*
X121089376Y-111244137D01*
X121254497Y-111332395D01*
X121254499Y-111332396D01*
X121402049Y-111377155D01*
X121433666Y-111386746D01*
X121433668Y-111386747D01*
X121450374Y-111388392D01*
X121620000Y-111405099D01*
X121806331Y-111386747D01*
X121985501Y-111332396D01*
X122150625Y-111244136D01*
X122295357Y-111125357D01*
X122414136Y-110980625D01*
X122502396Y-110815501D01*
X122556747Y-110636331D01*
X122575099Y-110450000D01*
X122556747Y-110263669D01*
X122502396Y-110084499D01*
X122460641Y-110006380D01*
X122414137Y-109919376D01*
X122414135Y-109919373D01*
X122295357Y-109774642D01*
X122150626Y-109655864D01*
X122150623Y-109655862D01*
X122072596Y-109614156D01*
X122022751Y-109565194D01*
X122007291Y-109497056D01*
X122031123Y-109431376D01*
X122086681Y-109389008D01*
X122156325Y-109383401D01*
X122167039Y-109386136D01*
X122304866Y-109427946D01*
X122304868Y-109427947D01*
X122321574Y-109429592D01*
X122491200Y-109446299D01*
X122677531Y-109427947D01*
X122856701Y-109373596D01*
X123021825Y-109285336D01*
X123166557Y-109166557D01*
X123285336Y-109021825D01*
X123373596Y-108856701D01*
X123427947Y-108677531D01*
X123446299Y-108491200D01*
X123427947Y-108304869D01*
X123373596Y-108125699D01*
X123368534Y-108116228D01*
X123285337Y-107960576D01*
X123285335Y-107960573D01*
X123166557Y-107815842D01*
X123021826Y-107697064D01*
X123021823Y-107697062D01*
X122856702Y-107608804D01*
X122677533Y-107554453D01*
X122677531Y-107554452D01*
X122496360Y-107536609D01*
X122431573Y-107510448D01*
X122420833Y-107500887D01*
X120681445Y-105761499D01*
X120647960Y-105700176D01*
X120647509Y-105649627D01*
X120680499Y-105483771D01*
X120680500Y-105483768D01*
X120680500Y-104984500D01*
X120700185Y-104917461D01*
X120752989Y-104871706D01*
X120804500Y-104860500D01*
X120951048Y-104860500D01*
X120951049Y-104860500D01*
X121179981Y-104822298D01*
X121399503Y-104746936D01*
X121603626Y-104636470D01*
X121786784Y-104493913D01*
X121795130Y-104484846D01*
X121855010Y-104448854D01*
X121924849Y-104450949D01*
X121982468Y-104490469D01*
X122002544Y-104525491D01*
X122031203Y-104602330D01*
X122031206Y-104602335D01*
X122117452Y-104717544D01*
X122117455Y-104717547D01*
X122232664Y-104803793D01*
X122232671Y-104803797D01*
X122367517Y-104854091D01*
X122367516Y-104854091D01*
X122374444Y-104854835D01*
X122427127Y-104860500D01*
X124322872Y-104860499D01*
X124382483Y-104854091D01*
X124517331Y-104803796D01*
X124632546Y-104717546D01*
X124718796Y-104602331D01*
X124769091Y-104467483D01*
X124775500Y-104407873D01*
X124775499Y-102512128D01*
X124769091Y-102452517D01*
X124763188Y-102436691D01*
X124718797Y-102317671D01*
X124718793Y-102317664D01*
X124632547Y-102202455D01*
X124632544Y-102202452D01*
X124517335Y-102116206D01*
X124517328Y-102116202D01*
X124382482Y-102065908D01*
X124382483Y-102065908D01*
X124322883Y-102059501D01*
X124322881Y-102059500D01*
X124322873Y-102059500D01*
X124322864Y-102059500D01*
X122427129Y-102059500D01*
X122427123Y-102059501D01*
X122367516Y-102065908D01*
X122232671Y-102116202D01*
X122232664Y-102116206D01*
X122117455Y-102202452D01*
X122117452Y-102202455D01*
X122031206Y-102317664D01*
X122031203Y-102317670D01*
X122002544Y-102394508D01*
X121960672Y-102450441D01*
X121895208Y-102474858D01*
X121826935Y-102460006D01*
X121795135Y-102435158D01*
X121786784Y-102426087D01*
X121786778Y-102426082D01*
X121786777Y-102426081D01*
X121603634Y-102283535D01*
X121603628Y-102283531D01*
X121399504Y-102173064D01*
X121399495Y-102173061D01*
X121179984Y-102097702D01*
X120973533Y-102063252D01*
X120951049Y-102059500D01*
X120718951Y-102059500D01*
X120696467Y-102063252D01*
X120490015Y-102097702D01*
X120270504Y-102173061D01*
X120270495Y-102173064D01*
X120066371Y-102283531D01*
X120066365Y-102283535D01*
X119883222Y-102426081D01*
X119883219Y-102426084D01*
X119883216Y-102426086D01*
X119883216Y-102426087D01*
X119843369Y-102469373D01*
X119726016Y-102596852D01*
X119599075Y-102791151D01*
X119505842Y-103003699D01*
X119448866Y-103228691D01*
X119441266Y-103320413D01*
X119429700Y-103460000D01*
X119436186Y-103538282D01*
X119440450Y-103589735D01*
X119426368Y-103658171D01*
X119404554Y-103687655D01*
X119169375Y-103922834D01*
X119169372Y-103922838D01*
X119076297Y-104062133D01*
X119035665Y-104160230D01*
X119012184Y-104216917D01*
X119012182Y-104216925D01*
X118979500Y-104381228D01*
X118979500Y-104425500D01*
X118959815Y-104492539D01*
X118907011Y-104538294D01*
X118855500Y-104549500D01*
X116919253Y-104549500D01*
X116852214Y-104529815D01*
X116806459Y-104477011D01*
X116796515Y-104407853D01*
X116825540Y-104344297D01*
X116866846Y-104313119D01*
X116982830Y-104259035D01*
X117176401Y-104123495D01*
X117343495Y-103956401D01*
X117479035Y-103762830D01*
X117578903Y-103548663D01*
X117640063Y-103320408D01*
X117660659Y-103085000D01*
X117640063Y-102849592D01*
X117578903Y-102621337D01*
X117479035Y-102407171D01*
X117478360Y-102406206D01*
X117343494Y-102213597D01*
X117176402Y-102046506D01*
X117176395Y-102046501D01*
X116982834Y-101910967D01*
X116982830Y-101910965D01*
X116911727Y-101877809D01*
X116768663Y-101811097D01*
X116768659Y-101811096D01*
X116768655Y-101811094D01*
X116540413Y-101749938D01*
X116540403Y-101749936D01*
X116305001Y-101729341D01*
X116304999Y-101729341D01*
X116069596Y-101749936D01*
X116069586Y-101749938D01*
X115841344Y-101811094D01*
X115841335Y-101811098D01*
X115627171Y-101910964D01*
X115627169Y-101910965D01*
X115433600Y-102046503D01*
X115311284Y-102168819D01*
X115249961Y-102202303D01*
X115180269Y-102197319D01*
X115124336Y-102155447D01*
X115107421Y-102124470D01*
X115058354Y-101992913D01*
X115058350Y-101992906D01*
X114972190Y-101877812D01*
X114972187Y-101877809D01*
X114857093Y-101791649D01*
X114857086Y-101791645D01*
X114722379Y-101741403D01*
X114722372Y-101741401D01*
X114662844Y-101735000D01*
X114615000Y-101735000D01*
X114615000Y-103811000D01*
X114595315Y-103878039D01*
X114542511Y-103923794D01*
X114491000Y-103935000D01*
X112415000Y-103935000D01*
X112415000Y-103982844D01*
X112421401Y-104042372D01*
X112421403Y-104042379D01*
X112471645Y-104177086D01*
X112471649Y-104177093D01*
X112557809Y-104292187D01*
X112603289Y-104326234D01*
X112645159Y-104382168D01*
X112650143Y-104451860D01*
X112616657Y-104513182D01*
X112555333Y-104546667D01*
X112528977Y-104549500D01*
X110718650Y-104549500D01*
X110651611Y-104529815D01*
X110630969Y-104513181D01*
X109811818Y-103694030D01*
X109778333Y-103632707D01*
X109775499Y-103606349D01*
X109775499Y-103150826D01*
X113265000Y-103150826D01*
X113299075Y-103277993D01*
X113364901Y-103392007D01*
X113457993Y-103485099D01*
X113572007Y-103550925D01*
X113699174Y-103585000D01*
X113830826Y-103585000D01*
X113957993Y-103550925D01*
X114072007Y-103485099D01*
X114165099Y-103392007D01*
X114230925Y-103277993D01*
X114265000Y-103150826D01*
X114265000Y-103019174D01*
X114230925Y-102892007D01*
X114165099Y-102777993D01*
X114072007Y-102684901D01*
X113957993Y-102619075D01*
X113830826Y-102585000D01*
X113699174Y-102585000D01*
X113572007Y-102619075D01*
X113457993Y-102684901D01*
X113364901Y-102777993D01*
X113299075Y-102892007D01*
X113265000Y-103019174D01*
X113265000Y-103150826D01*
X109775499Y-103150826D01*
X109775499Y-102512129D01*
X109775498Y-102512123D01*
X109771492Y-102474858D01*
X109769091Y-102452517D01*
X109763188Y-102436691D01*
X109718797Y-102317671D01*
X109718793Y-102317664D01*
X109656910Y-102235000D01*
X112415000Y-102235000D01*
X112915000Y-102235000D01*
X112915000Y-101735000D01*
X112867155Y-101735000D01*
X112807627Y-101741401D01*
X112807620Y-101741403D01*
X112672913Y-101791645D01*
X112672906Y-101791649D01*
X112557812Y-101877809D01*
X112557809Y-101877812D01*
X112471649Y-101992906D01*
X112471645Y-101992913D01*
X112421403Y-102127620D01*
X112421401Y-102127627D01*
X112415000Y-102187155D01*
X112415000Y-102235000D01*
X109656910Y-102235000D01*
X109632547Y-102202455D01*
X109632544Y-102202452D01*
X109517335Y-102116206D01*
X109517328Y-102116202D01*
X109382482Y-102065908D01*
X109382483Y-102065908D01*
X109322883Y-102059501D01*
X109322881Y-102059500D01*
X109322873Y-102059500D01*
X109322864Y-102059500D01*
X107427129Y-102059500D01*
X107427123Y-102059501D01*
X107367516Y-102065908D01*
X107232671Y-102116202D01*
X107232664Y-102116206D01*
X107117455Y-102202452D01*
X107117452Y-102202455D01*
X107031206Y-102317664D01*
X107031203Y-102317670D01*
X107002544Y-102394508D01*
X106960672Y-102450441D01*
X106895208Y-102474858D01*
X106826935Y-102460006D01*
X106795135Y-102435158D01*
X106786784Y-102426087D01*
X106782896Y-102423061D01*
X106733337Y-102384487D01*
X106692524Y-102327776D01*
X106685500Y-102286634D01*
X106685500Y-100861232D01*
X106685499Y-100861228D01*
X106661276Y-100739446D01*
X106667503Y-100669854D01*
X106695210Y-100627577D01*
X107840969Y-99481819D01*
X107902292Y-99448334D01*
X107928650Y-99445500D01*
X112133023Y-99445500D01*
X112200062Y-99465185D01*
X112245817Y-99517989D01*
X112253266Y-99545134D01*
X112254124Y-99544932D01*
X112255907Y-99552479D01*
X112306202Y-99687328D01*
X112306206Y-99687335D01*
X112392452Y-99802544D01*
X112392455Y-99802547D01*
X112507664Y-99888793D01*
X112507671Y-99888797D01*
X112642517Y-99939091D01*
X112642516Y-99939091D01*
X112649444Y-99939835D01*
X112702127Y-99945500D01*
X114497872Y-99945499D01*
X114557483Y-99939091D01*
X114692331Y-99888796D01*
X114807546Y-99802546D01*
X114893796Y-99687331D01*
X114942810Y-99555916D01*
X114984681Y-99499984D01*
X115050145Y-99475566D01*
X115118418Y-99490417D01*
X115146673Y-99511569D01*
X115268599Y-99633495D01*
X115365384Y-99701265D01*
X115462165Y-99769032D01*
X115462167Y-99769033D01*
X115462170Y-99769035D01*
X115676337Y-99868903D01*
X115904592Y-99930063D01*
X116081034Y-99945500D01*
X116139999Y-99950659D01*
X116140000Y-99950659D01*
X116140001Y-99950659D01*
X116198966Y-99945500D01*
X116375408Y-99930063D01*
X116603663Y-99868903D01*
X116817830Y-99769035D01*
X117011401Y-99633495D01*
X117178495Y-99466401D01*
X117314035Y-99272830D01*
X117413903Y-99058663D01*
X117475063Y-98830408D01*
X117495659Y-98595000D01*
X117475063Y-98359592D01*
X117457185Y-98292870D01*
X126014500Y-98292870D01*
X126014501Y-98292876D01*
X126020908Y-98352483D01*
X126071202Y-98487328D01*
X126071206Y-98487335D01*
X126157452Y-98602544D01*
X126157455Y-98602547D01*
X126272664Y-98688793D01*
X126272671Y-98688797D01*
X126407517Y-98739091D01*
X126407516Y-98739091D01*
X126414444Y-98739835D01*
X126467127Y-98745500D01*
X128262872Y-98745499D01*
X128322483Y-98739091D01*
X128457331Y-98688796D01*
X128572546Y-98602546D01*
X128658796Y-98487331D01*
X128709091Y-98352483D01*
X128715500Y-98292873D01*
X128715500Y-97640000D01*
X130914341Y-97640000D01*
X130934936Y-97875403D01*
X130934938Y-97875413D01*
X130996094Y-98103655D01*
X130996096Y-98103659D01*
X130996097Y-98103663D01*
X131071486Y-98265335D01*
X131095965Y-98317830D01*
X131095967Y-98317834D01*
X131204281Y-98472521D01*
X131231501Y-98511396D01*
X131231506Y-98511402D01*
X131353430Y-98633326D01*
X131386915Y-98694649D01*
X131381931Y-98764341D01*
X131340059Y-98820274D01*
X131309083Y-98837189D01*
X131177669Y-98886203D01*
X131177664Y-98886206D01*
X131062455Y-98972452D01*
X131062452Y-98972455D01*
X130976206Y-99087664D01*
X130976202Y-99087671D01*
X130925908Y-99222517D01*
X130920499Y-99272834D01*
X130919501Y-99282123D01*
X130919500Y-99282135D01*
X130919500Y-101077870D01*
X130919501Y-101077876D01*
X130925908Y-101137483D01*
X130976202Y-101272328D01*
X130976206Y-101272335D01*
X131062452Y-101387544D01*
X131062455Y-101387547D01*
X131177664Y-101473793D01*
X131177671Y-101473797D01*
X131312517Y-101524091D01*
X131312516Y-101524091D01*
X131319444Y-101524835D01*
X131372127Y-101530500D01*
X133167872Y-101530499D01*
X133227483Y-101524091D01*
X133362331Y-101473796D01*
X133477546Y-101387546D01*
X133563796Y-101272331D01*
X133614091Y-101137483D01*
X133620500Y-101077873D01*
X133620499Y-99282128D01*
X133614091Y-99222517D01*
X133585331Y-99145408D01*
X133563797Y-99087671D01*
X133563793Y-99087664D01*
X133477547Y-98972455D01*
X133477544Y-98972452D01*
X133362335Y-98886206D01*
X133362328Y-98886202D01*
X133230917Y-98837189D01*
X133174983Y-98795318D01*
X133150566Y-98729853D01*
X133165418Y-98661580D01*
X133186563Y-98633332D01*
X133308495Y-98511401D01*
X133444035Y-98317830D01*
X133543903Y-98103663D01*
X133605063Y-97875408D01*
X133625659Y-97640000D01*
X133605063Y-97404592D01*
X133543903Y-97176337D01*
X133444035Y-96962171D01*
X133308495Y-96768599D01*
X133308494Y-96768597D01*
X133141402Y-96601506D01*
X133141395Y-96601501D01*
X132947834Y-96465967D01*
X132947830Y-96465965D01*
X132886821Y-96437516D01*
X132733663Y-96366097D01*
X132733659Y-96366096D01*
X132733655Y-96366094D01*
X132505413Y-96304938D01*
X132505403Y-96304936D01*
X132270001Y-96284341D01*
X132269999Y-96284341D01*
X132034596Y-96304936D01*
X132034586Y-96304938D01*
X131806344Y-96366094D01*
X131806335Y-96366098D01*
X131592171Y-96465964D01*
X131592169Y-96465965D01*
X131398597Y-96601505D01*
X131231505Y-96768597D01*
X131095965Y-96962169D01*
X131095964Y-96962171D01*
X130996098Y-97176335D01*
X130996094Y-97176344D01*
X130934938Y-97404586D01*
X130934936Y-97404596D01*
X130914341Y-97639999D01*
X130914341Y-97640000D01*
X128715500Y-97640000D01*
X128715499Y-96497128D01*
X128709091Y-96437517D01*
X128682453Y-96366098D01*
X128658797Y-96302671D01*
X128658793Y-96302664D01*
X128572547Y-96187455D01*
X128572544Y-96187452D01*
X128457335Y-96101206D01*
X128457328Y-96101202D01*
X128322482Y-96050908D01*
X128322483Y-96050908D01*
X128262883Y-96044501D01*
X128262881Y-96044500D01*
X128262873Y-96044500D01*
X128262864Y-96044500D01*
X126467129Y-96044500D01*
X126467123Y-96044501D01*
X126407516Y-96050908D01*
X126272671Y-96101202D01*
X126272664Y-96101206D01*
X126157455Y-96187452D01*
X126157452Y-96187455D01*
X126071206Y-96302664D01*
X126071202Y-96302671D01*
X126020908Y-96437517D01*
X126017850Y-96465965D01*
X126014501Y-96497123D01*
X126014500Y-96497135D01*
X126014500Y-98292870D01*
X117457185Y-98292870D01*
X117413903Y-98131337D01*
X117314035Y-97917171D01*
X117284793Y-97875408D01*
X117178494Y-97723597D01*
X117011402Y-97556506D01*
X117011395Y-97556501D01*
X116817834Y-97420967D01*
X116817830Y-97420965D01*
X116603663Y-97321097D01*
X116603659Y-97321096D01*
X116603655Y-97321094D01*
X116375413Y-97259938D01*
X116375403Y-97259936D01*
X116140001Y-97239341D01*
X116139996Y-97239341D01*
X116057028Y-97246599D01*
X115988528Y-97232832D01*
X115958541Y-97210752D01*
X114797165Y-96049375D01*
X114797161Y-96049372D01*
X114657866Y-95956297D01*
X114657863Y-95956296D01*
X114532658Y-95904435D01*
X114503082Y-95892184D01*
X114503074Y-95892182D01*
X114338771Y-95859500D01*
X114338767Y-95859500D01*
X104716236Y-95859500D01*
X104657785Y-95844859D01*
X104625505Y-95827605D01*
X104625497Y-95827602D01*
X104446333Y-95773253D01*
X104446331Y-95773252D01*
X104260000Y-95754901D01*
X104073668Y-95773252D01*
X104073666Y-95773253D01*
X103894497Y-95827604D01*
X103729376Y-95915862D01*
X103729373Y-95915864D01*
X103584642Y-96034642D01*
X103465864Y-96179373D01*
X103465862Y-96179376D01*
X103377604Y-96344497D01*
X103323253Y-96523666D01*
X103323252Y-96523668D01*
X103304901Y-96710000D01*
X103323252Y-96896330D01*
X103325044Y-96902235D01*
X103325669Y-96972101D01*
X103288422Y-97031215D01*
X103225128Y-97060807D01*
X103155883Y-97051483D01*
X103118703Y-97025913D01*
X101872165Y-95779375D01*
X101872161Y-95779372D01*
X101732866Y-95686297D01*
X101732863Y-95686296D01*
X101623416Y-95640962D01*
X101623414Y-95640961D01*
X101578086Y-95622185D01*
X101578074Y-95622182D01*
X101413771Y-95589500D01*
X101413767Y-95589500D01*
X91356233Y-95589500D01*
X91356228Y-95589500D01*
X91191925Y-95622182D01*
X91191913Y-95622185D01*
X91146583Y-95640962D01*
X91037143Y-95686292D01*
X91037130Y-95686299D01*
X90897838Y-95779372D01*
X90897834Y-95779375D01*
X83992959Y-102684250D01*
X83931636Y-102717735D01*
X83861944Y-102712751D01*
X83806011Y-102670879D01*
X83781594Y-102605415D01*
X83781282Y-102597636D01*
X83721054Y-95464897D01*
X83740172Y-95397697D01*
X83792588Y-95351498D01*
X83844901Y-95339853D01*
X151375356Y-95260766D01*
X151442417Y-95280372D01*
G37*
%TD.AperFunction*%
%TA.AperFunction,Conductor*%
G36*
X100993388Y-97310185D02*
G01*
X101014030Y-97326819D01*
X104815032Y-101127820D01*
X104815042Y-101127831D01*
X104819372Y-101132161D01*
X104819373Y-101132162D01*
X104948182Y-101260971D01*
X104981666Y-101322292D01*
X104984500Y-101348651D01*
X104984500Y-102286634D01*
X104964815Y-102353673D01*
X104936662Y-102384488D01*
X104902536Y-102411049D01*
X104837542Y-102436691D01*
X104769002Y-102423124D01*
X104730521Y-102391860D01*
X104675357Y-102324642D01*
X104530626Y-102205864D01*
X104530623Y-102205862D01*
X104365502Y-102117604D01*
X104186333Y-102063253D01*
X104186331Y-102063252D01*
X104000000Y-102044901D01*
X103813668Y-102063252D01*
X103813666Y-102063253D01*
X103634497Y-102117604D01*
X103469376Y-102205862D01*
X103469373Y-102205864D01*
X103324642Y-102324642D01*
X103205864Y-102469373D01*
X103205862Y-102469376D01*
X103117604Y-102634497D01*
X103063253Y-102813666D01*
X103063252Y-102813668D01*
X103044901Y-103000000D01*
X103063252Y-103186331D01*
X103063253Y-103186333D01*
X103117604Y-103365502D01*
X103178105Y-103478692D01*
X103205864Y-103530625D01*
X103321354Y-103671350D01*
X103348666Y-103735656D01*
X103349500Y-103750012D01*
X103349500Y-104064071D01*
X103369835Y-104166297D01*
X103369835Y-104166298D01*
X103374497Y-104189737D01*
X103374500Y-104189747D01*
X103423532Y-104308123D01*
X103459129Y-104361398D01*
X103490181Y-104407872D01*
X103494726Y-104414673D01*
X103770583Y-104690530D01*
X103804068Y-104751853D01*
X103799084Y-104821545D01*
X103761567Y-104874064D01*
X103614642Y-104994642D01*
X103495864Y-105139373D01*
X103495862Y-105139376D01*
X103407604Y-105304497D01*
X103353253Y-105483666D01*
X103353252Y-105483668D01*
X103334901Y-105670000D01*
X103353252Y-105856331D01*
X103353253Y-105856333D01*
X103407604Y-106035502D01*
X103495862Y-106200622D01*
X103495864Y-106200625D01*
X103611354Y-106341350D01*
X103638666Y-106405656D01*
X103639500Y-106420012D01*
X103639500Y-109887720D01*
X103619815Y-109954759D01*
X103567011Y-110000514D01*
X103551498Y-110006380D01*
X103514495Y-110017605D01*
X103349376Y-110105862D01*
X103349373Y-110105864D01*
X103204642Y-110224642D01*
X103085864Y-110369373D01*
X103085862Y-110369376D01*
X102997604Y-110534497D01*
X102943253Y-110713666D01*
X102943252Y-110713668D01*
X102924901Y-110900000D01*
X102943252Y-111086331D01*
X102943253Y-111086333D01*
X102997604Y-111265502D01*
X103085862Y-111430623D01*
X103085864Y-111430626D01*
X103204642Y-111575357D01*
X103339801Y-111686279D01*
X103379135Y-111744025D01*
X103381006Y-111813869D01*
X103348817Y-111869813D01*
X102578587Y-112640043D01*
X102517264Y-112673528D01*
X102454911Y-112671023D01*
X102426784Y-112662490D01*
X102396331Y-112653253D01*
X102396329Y-112653252D01*
X102396331Y-112653252D01*
X102210000Y-112634901D01*
X102209999Y-112634901D01*
X102166653Y-112639170D01*
X102098007Y-112626151D01*
X102047297Y-112578086D01*
X102030500Y-112515767D01*
X102030500Y-104401232D01*
X102030499Y-104401228D01*
X102011979Y-104308123D01*
X101997816Y-104236918D01*
X101953052Y-104128849D01*
X101933704Y-104082138D01*
X101907133Y-104042372D01*
X101840630Y-103942842D01*
X101840624Y-103942834D01*
X98369969Y-100472180D01*
X98336484Y-100410857D01*
X98341468Y-100341165D01*
X98383340Y-100285232D01*
X98448804Y-100260815D01*
X98457650Y-100260499D01*
X99042871Y-100260499D01*
X99042872Y-100260499D01*
X99102483Y-100254091D01*
X99237331Y-100203796D01*
X99352546Y-100117546D01*
X99438796Y-100002331D01*
X99489091Y-99867483D01*
X99495500Y-99807873D01*
X99495499Y-98012128D01*
X99489091Y-97952517D01*
X99487810Y-97949083D01*
X99438797Y-97817671D01*
X99438793Y-97817664D01*
X99352547Y-97702455D01*
X99352544Y-97702452D01*
X99237335Y-97616206D01*
X99237328Y-97616202D01*
X99102482Y-97565908D01*
X99102483Y-97565908D01*
X99042883Y-97559501D01*
X99042881Y-97559500D01*
X99042873Y-97559500D01*
X99042864Y-97559500D01*
X97247129Y-97559500D01*
X97247123Y-97559501D01*
X97187516Y-97565908D01*
X97052671Y-97616202D01*
X97052664Y-97616206D01*
X96937455Y-97702452D01*
X96937452Y-97702455D01*
X96851206Y-97817664D01*
X96851203Y-97817669D01*
X96802189Y-97949083D01*
X96760317Y-98005016D01*
X96694853Y-98029433D01*
X96626580Y-98014581D01*
X96598326Y-97993430D01*
X96476402Y-97871506D01*
X96476395Y-97871501D01*
X96282834Y-97735967D01*
X96282830Y-97735965D01*
X96256307Y-97723597D01*
X96068663Y-97636097D01*
X96068659Y-97636096D01*
X96068655Y-97636094D01*
X95840413Y-97574938D01*
X95840403Y-97574936D01*
X95605001Y-97554341D01*
X95604999Y-97554341D01*
X95369596Y-97574936D01*
X95369586Y-97574938D01*
X95141344Y-97636094D01*
X95141335Y-97636098D01*
X94927171Y-97735964D01*
X94927169Y-97735965D01*
X94733597Y-97871505D01*
X94566505Y-98038597D01*
X94430965Y-98232169D01*
X94430964Y-98232171D01*
X94331098Y-98446335D01*
X94331094Y-98446344D01*
X94269938Y-98674586D01*
X94269936Y-98674596D01*
X94249341Y-98909999D01*
X94249341Y-98910000D01*
X94269936Y-99145403D01*
X94269938Y-99145413D01*
X94331094Y-99373655D01*
X94331096Y-99373659D01*
X94331097Y-99373663D01*
X94414481Y-99552479D01*
X94430965Y-99587830D01*
X94430967Y-99587834D01*
X94462942Y-99633498D01*
X94566505Y-99781401D01*
X94733599Y-99948495D01*
X94830384Y-100016265D01*
X94927165Y-100084032D01*
X94927167Y-100084033D01*
X94927170Y-100084035D01*
X95141337Y-100183903D01*
X95369592Y-100245063D01*
X95605000Y-100265659D01*
X95687970Y-100258399D01*
X95756467Y-100272165D01*
X95786457Y-100294246D01*
X100293181Y-104800970D01*
X100326666Y-104862293D01*
X100329500Y-104888651D01*
X100329500Y-108419831D01*
X100309815Y-108486870D01*
X100257011Y-108532625D01*
X100187853Y-108542569D01*
X100140403Y-108525370D01*
X100127569Y-108517454D01*
X99994220Y-108435203D01*
X99982146Y-108431202D01*
X99827638Y-108380003D01*
X99724833Y-108369500D01*
X99724826Y-108369500D01*
X98325174Y-108369500D01*
X98325166Y-108369500D01*
X98222361Y-108380003D01*
X98055782Y-108435202D01*
X98055777Y-108435204D01*
X97906417Y-108527331D01*
X97782331Y-108651417D01*
X97690204Y-108800777D01*
X97690202Y-108800782D01*
X97635003Y-108967361D01*
X97624500Y-109070166D01*
X97624500Y-110469833D01*
X97635003Y-110572638D01*
X97690202Y-110739217D01*
X97690204Y-110739222D01*
X97694962Y-110746936D01*
X97782330Y-110888581D01*
X97906419Y-111012670D01*
X98055780Y-111104797D01*
X98203721Y-111153819D01*
X98252398Y-111183844D01*
X98936415Y-111867861D01*
X98851306Y-111890667D01*
X98748694Y-111949910D01*
X98664910Y-112033694D01*
X98605667Y-112136306D01*
X98582861Y-112221415D01*
X97873811Y-111512365D01*
X97789516Y-111641390D01*
X97696317Y-111853864D01*
X97639361Y-112078781D01*
X97620202Y-112309994D01*
X97620202Y-112310005D01*
X97639361Y-112541218D01*
X97696317Y-112766135D01*
X97789515Y-112978606D01*
X97873812Y-113107633D01*
X98582861Y-112398584D01*
X98605667Y-112483694D01*
X98664910Y-112586306D01*
X98748694Y-112670090D01*
X98851306Y-112729333D01*
X98936414Y-112752138D01*
X98226201Y-113462351D01*
X98251226Y-113481829D01*
X98292038Y-113538539D01*
X98295713Y-113608312D01*
X98261081Y-113668995D01*
X98251226Y-113677535D01*
X98073218Y-113816085D01*
X98073216Y-113816086D01*
X98073216Y-113816087D01*
X98051040Y-113840177D01*
X97916016Y-113986852D01*
X97789075Y-114181151D01*
X97695842Y-114393699D01*
X97638868Y-114618685D01*
X97638864Y-114618702D01*
X97619700Y-114849993D01*
X97619700Y-114850006D01*
X97638864Y-115081297D01*
X97638866Y-115081308D01*
X97695842Y-115306300D01*
X97789075Y-115518848D01*
X97916016Y-115713147D01*
X97916019Y-115713151D01*
X97916021Y-115713153D01*
X98073216Y-115883913D01*
X98073219Y-115883915D01*
X98073222Y-115883918D01*
X98256365Y-116026464D01*
X98256371Y-116026468D01*
X98256374Y-116026470D01*
X98460497Y-116136936D01*
X98507517Y-116153078D01*
X98564532Y-116193462D01*
X98590663Y-116258261D01*
X98577613Y-116326901D01*
X98529525Y-116377590D01*
X98525709Y-116379717D01*
X98439373Y-116425865D01*
X98294642Y-116544642D01*
X98175864Y-116689373D01*
X98175862Y-116689376D01*
X98087604Y-116854497D01*
X98033253Y-117033666D01*
X98033252Y-117033668D01*
X98014901Y-117220000D01*
X98033252Y-117406331D01*
X98033253Y-117406333D01*
X98087604Y-117585502D01*
X98175862Y-117750623D01*
X98175864Y-117750626D01*
X98294642Y-117895357D01*
X98439373Y-118014135D01*
X98439376Y-118014137D01*
X98604495Y-118102394D01*
X98604499Y-118102396D01*
X98783666Y-118156746D01*
X98783668Y-118156747D01*
X98800374Y-118158392D01*
X98970000Y-118175099D01*
X99156331Y-118156747D01*
X99335501Y-118102396D01*
X99335505Y-118102394D01*
X99367785Y-118085141D01*
X99426236Y-118070500D01*
X100324656Y-118070500D01*
X100391695Y-118090185D01*
X100437450Y-118142989D01*
X100447394Y-118212147D01*
X100443316Y-118230497D01*
X100433252Y-118263669D01*
X100415409Y-118444838D01*
X100389248Y-118509625D01*
X100379687Y-118520365D01*
X99946873Y-118953181D01*
X99885550Y-118986666D01*
X99859192Y-118989500D01*
X98125929Y-118989500D01*
X98007435Y-119013071D01*
X97971089Y-119014857D01*
X97870000Y-119004901D01*
X97683668Y-119023252D01*
X97683666Y-119023253D01*
X97504497Y-119077604D01*
X97339376Y-119165862D01*
X97339373Y-119165864D01*
X97194642Y-119284642D01*
X97075864Y-119429373D01*
X97075862Y-119429376D01*
X96987604Y-119594497D01*
X96933253Y-119773666D01*
X96933252Y-119773668D01*
X96914901Y-119960000D01*
X96933252Y-120146331D01*
X96933253Y-120146333D01*
X96987604Y-120325502D01*
X97075862Y-120490623D01*
X97075864Y-120490626D01*
X97194642Y-120635357D01*
X97339373Y-120754135D01*
X97339376Y-120754137D01*
X97504497Y-120842395D01*
X97504499Y-120842396D01*
X97683666Y-120896746D01*
X97683668Y-120896747D01*
X97700374Y-120898392D01*
X97870000Y-120915099D01*
X98056331Y-120896747D01*
X98235501Y-120842396D01*
X98400625Y-120754136D01*
X98545357Y-120635357D01*
X98664136Y-120490625D01*
X98675427Y-120469501D01*
X98736070Y-120356047D01*
X98785032Y-120306202D01*
X98845428Y-120290500D01*
X99163501Y-120290500D01*
X99230540Y-120310185D01*
X99276295Y-120362989D01*
X99286239Y-120432147D01*
X99257214Y-120495703D01*
X99222928Y-120523332D01*
X99217666Y-120526205D01*
X99102455Y-120612452D01*
X99102452Y-120612455D01*
X99016206Y-120727664D01*
X99016202Y-120727671D01*
X98965908Y-120862517D01*
X98959501Y-120922116D01*
X98959500Y-120922127D01*
X98959500Y-121706206D01*
X98959501Y-122385500D01*
X98939816Y-122452539D01*
X98887013Y-122498294D01*
X98835501Y-122509500D01*
X97860808Y-122509500D01*
X97793769Y-122489815D01*
X97773127Y-122473181D01*
X94540312Y-119240366D01*
X94506827Y-119179043D01*
X94504591Y-119164850D01*
X94486747Y-118983669D01*
X94432396Y-118804499D01*
X94344136Y-118639375D01*
X94344135Y-118639373D01*
X94225357Y-118494642D01*
X94080626Y-118375864D01*
X94080623Y-118375862D01*
X93915502Y-118287604D01*
X93736333Y-118233253D01*
X93736331Y-118233252D01*
X93550000Y-118214901D01*
X93363668Y-118233252D01*
X93363666Y-118233253D01*
X93184497Y-118287604D01*
X93019376Y-118375862D01*
X93019373Y-118375864D01*
X92874642Y-118494642D01*
X92755864Y-118639373D01*
X92755862Y-118639376D01*
X92667604Y-118804497D01*
X92613253Y-118983666D01*
X92613252Y-118983668D01*
X92594901Y-119170000D01*
X92613252Y-119356331D01*
X92613253Y-119356333D01*
X92667604Y-119535502D01*
X92755862Y-119700623D01*
X92755864Y-119700626D01*
X92874642Y-119845357D01*
X93019373Y-119964135D01*
X93019376Y-119964137D01*
X93149521Y-120033700D01*
X93184499Y-120052396D01*
X93334228Y-120097816D01*
X93363666Y-120106746D01*
X93363668Y-120106747D01*
X93386416Y-120108987D01*
X93544841Y-120124590D01*
X93609626Y-120150751D01*
X93620366Y-120160312D01*
X97125325Y-123665272D01*
X97125326Y-123665273D01*
X97125329Y-123665275D01*
X97125331Y-123665277D01*
X97210551Y-123722218D01*
X97210550Y-123722218D01*
X97224797Y-123731736D01*
X97231873Y-123736465D01*
X97350256Y-123785501D01*
X97350260Y-123785501D01*
X97350261Y-123785502D01*
X97475928Y-123810500D01*
X97475931Y-123810500D01*
X98897497Y-123810500D01*
X98964536Y-123830185D01*
X99010291Y-123882989D01*
X99020235Y-123952147D01*
X99017272Y-123966593D01*
X98974938Y-124124586D01*
X98974936Y-124124596D01*
X98954341Y-124359999D01*
X98954341Y-124360000D01*
X98974936Y-124595403D01*
X98974938Y-124595413D01*
X99036094Y-124823655D01*
X99036096Y-124823659D01*
X99036097Y-124823663D01*
X99115801Y-124994588D01*
X99135965Y-125037830D01*
X99135967Y-125037834D01*
X99244281Y-125192521D01*
X99271505Y-125231401D01*
X99438599Y-125398495D01*
X99535384Y-125466265D01*
X99632165Y-125534032D01*
X99632167Y-125534033D01*
X99632170Y-125534035D01*
X99846337Y-125633903D01*
X99846343Y-125633904D01*
X99846344Y-125633905D01*
X99901285Y-125648626D01*
X100074592Y-125695063D01*
X100262918Y-125711539D01*
X100309999Y-125715659D01*
X100310000Y-125715659D01*
X100310001Y-125715659D01*
X100349234Y-125712226D01*
X100545408Y-125695063D01*
X100773663Y-125633903D01*
X100987830Y-125534035D01*
X101181401Y-125398495D01*
X101348495Y-125231401D01*
X101478425Y-125045842D01*
X101533002Y-125002217D01*
X101602500Y-124995023D01*
X101664855Y-125026546D01*
X101681575Y-125045842D01*
X101811500Y-125231395D01*
X101811505Y-125231401D01*
X101978599Y-125398495D01*
X102075384Y-125466265D01*
X102172165Y-125534032D01*
X102172167Y-125534033D01*
X102172170Y-125534035D01*
X102386337Y-125633903D01*
X102386343Y-125633904D01*
X102386344Y-125633905D01*
X102441285Y-125648626D01*
X102614592Y-125695063D01*
X102802918Y-125711539D01*
X102849999Y-125715659D01*
X102850000Y-125715659D01*
X102850001Y-125715659D01*
X102889234Y-125712226D01*
X103085408Y-125695063D01*
X103313663Y-125633903D01*
X103527830Y-125534035D01*
X103721401Y-125398495D01*
X103888495Y-125231401D01*
X104018425Y-125045842D01*
X104073002Y-125002217D01*
X104142500Y-124995023D01*
X104204855Y-125026546D01*
X104221575Y-125045842D01*
X104351500Y-125231395D01*
X104351505Y-125231401D01*
X104518599Y-125398495D01*
X104615384Y-125466265D01*
X104712165Y-125534032D01*
X104712167Y-125534033D01*
X104712170Y-125534035D01*
X104926337Y-125633903D01*
X104926343Y-125633904D01*
X104926344Y-125633905D01*
X104981285Y-125648626D01*
X105154592Y-125695063D01*
X105342918Y-125711539D01*
X105389999Y-125715659D01*
X105390000Y-125715659D01*
X105390001Y-125715659D01*
X105429234Y-125712226D01*
X105625408Y-125695063D01*
X105853663Y-125633903D01*
X106067830Y-125534035D01*
X106261401Y-125398495D01*
X106428495Y-125231401D01*
X106558425Y-125045842D01*
X106613002Y-125002217D01*
X106682500Y-124995023D01*
X106744855Y-125026546D01*
X106761575Y-125045842D01*
X106891500Y-125231395D01*
X106891505Y-125231401D01*
X107058599Y-125398495D01*
X107155384Y-125466265D01*
X107252165Y-125534032D01*
X107252167Y-125534033D01*
X107252170Y-125534035D01*
X107466337Y-125633903D01*
X107466343Y-125633904D01*
X107466344Y-125633905D01*
X107521285Y-125648626D01*
X107694592Y-125695063D01*
X107882918Y-125711539D01*
X107929999Y-125715659D01*
X107930000Y-125715659D01*
X107930001Y-125715659D01*
X107969234Y-125712226D01*
X108165408Y-125695063D01*
X108393663Y-125633903D01*
X108607830Y-125534035D01*
X108801401Y-125398495D01*
X108968495Y-125231401D01*
X109098425Y-125045842D01*
X109153002Y-125002217D01*
X109222500Y-124995023D01*
X109284855Y-125026546D01*
X109301575Y-125045842D01*
X109431500Y-125231395D01*
X109431505Y-125231401D01*
X109598599Y-125398495D01*
X109695384Y-125466265D01*
X109792165Y-125534032D01*
X109792167Y-125534033D01*
X109792170Y-125534035D01*
X110006337Y-125633903D01*
X110006343Y-125633904D01*
X110006344Y-125633905D01*
X110061285Y-125648626D01*
X110234592Y-125695063D01*
X110422918Y-125711539D01*
X110469999Y-125715659D01*
X110470000Y-125715659D01*
X110470001Y-125715659D01*
X110509234Y-125712226D01*
X110705408Y-125695063D01*
X110933663Y-125633903D01*
X111147830Y-125534035D01*
X111341401Y-125398495D01*
X111508495Y-125231401D01*
X111638425Y-125045842D01*
X111693002Y-125002217D01*
X111762500Y-124995023D01*
X111824855Y-125026546D01*
X111841575Y-125045842D01*
X111971500Y-125231395D01*
X111971505Y-125231401D01*
X112138599Y-125398495D01*
X112235384Y-125466265D01*
X112332165Y-125534032D01*
X112332167Y-125534033D01*
X112332170Y-125534035D01*
X112546337Y-125633903D01*
X112546343Y-125633904D01*
X112546344Y-125633905D01*
X112601285Y-125648626D01*
X112774592Y-125695063D01*
X112962918Y-125711539D01*
X113009999Y-125715659D01*
X113010000Y-125715659D01*
X113010001Y-125715659D01*
X113049234Y-125712226D01*
X113245408Y-125695063D01*
X113473663Y-125633903D01*
X113687830Y-125534035D01*
X113881401Y-125398495D01*
X114048495Y-125231401D01*
X114178425Y-125045842D01*
X114233002Y-125002217D01*
X114302500Y-124995023D01*
X114364855Y-125026546D01*
X114381575Y-125045842D01*
X114511500Y-125231395D01*
X114511505Y-125231401D01*
X114678599Y-125398495D01*
X114775384Y-125466265D01*
X114872165Y-125534032D01*
X114872167Y-125534033D01*
X114872170Y-125534035D01*
X115086337Y-125633903D01*
X115086343Y-125633904D01*
X115086344Y-125633905D01*
X115141285Y-125648626D01*
X115314592Y-125695063D01*
X115502918Y-125711539D01*
X115549999Y-125715659D01*
X115550000Y-125715659D01*
X115550001Y-125715659D01*
X115589234Y-125712226D01*
X115785408Y-125695063D01*
X116013663Y-125633903D01*
X116227830Y-125534035D01*
X116421401Y-125398495D01*
X116588495Y-125231401D01*
X116718425Y-125045842D01*
X116773002Y-125002217D01*
X116842500Y-124995023D01*
X116904855Y-125026546D01*
X116921575Y-125045842D01*
X117051500Y-125231395D01*
X117051505Y-125231401D01*
X117218599Y-125398495D01*
X117315384Y-125466265D01*
X117412165Y-125534032D01*
X117412167Y-125534033D01*
X117412170Y-125534035D01*
X117626337Y-125633903D01*
X117626343Y-125633904D01*
X117626344Y-125633905D01*
X117681285Y-125648626D01*
X117854592Y-125695063D01*
X118042918Y-125711539D01*
X118089999Y-125715659D01*
X118090000Y-125715659D01*
X118090001Y-125715659D01*
X118129234Y-125712226D01*
X118325408Y-125695063D01*
X118553663Y-125633903D01*
X118767830Y-125534035D01*
X118961401Y-125398495D01*
X119128495Y-125231401D01*
X119258730Y-125045405D01*
X119313307Y-125001781D01*
X119382805Y-124994587D01*
X119445160Y-125026110D01*
X119461879Y-125045405D01*
X119591890Y-125231078D01*
X119758921Y-125398109D01*
X119780000Y-125412868D01*
X119780000Y-124425826D01*
X120130000Y-124425826D01*
X120164075Y-124552993D01*
X120229901Y-124667007D01*
X120322993Y-124760099D01*
X120437007Y-124825925D01*
X120564174Y-124860000D01*
X120695826Y-124860000D01*
X120822993Y-124825925D01*
X120937007Y-124760099D01*
X121030099Y-124667007D01*
X121095925Y-124552993D01*
X121130000Y-124425826D01*
X121130000Y-124294174D01*
X121095925Y-124167007D01*
X121030099Y-124052993D01*
X120937007Y-123959901D01*
X120822993Y-123894075D01*
X120695826Y-123860000D01*
X120564174Y-123860000D01*
X120437007Y-123894075D01*
X120322993Y-123959901D01*
X120229901Y-124052993D01*
X120164075Y-124167007D01*
X120130000Y-124294174D01*
X120130000Y-124425826D01*
X119780000Y-124425826D01*
X119780000Y-123634000D01*
X119799685Y-123566961D01*
X119852489Y-123521206D01*
X119904000Y-123510000D01*
X121356000Y-123510000D01*
X121423039Y-123529685D01*
X121468794Y-123582489D01*
X121480000Y-123634000D01*
X121480000Y-125412868D01*
X121501078Y-125398109D01*
X121668105Y-125231082D01*
X121798119Y-125045405D01*
X121852696Y-125001781D01*
X121922195Y-124994588D01*
X121984549Y-125026110D01*
X122001269Y-125045405D01*
X122131505Y-125231401D01*
X122298599Y-125398495D01*
X122395384Y-125466265D01*
X122492165Y-125534032D01*
X122492167Y-125534033D01*
X122492170Y-125534035D01*
X122706337Y-125633903D01*
X122706343Y-125633904D01*
X122706344Y-125633905D01*
X122761285Y-125648626D01*
X122934592Y-125695063D01*
X123122918Y-125711539D01*
X123169999Y-125715659D01*
X123170000Y-125715659D01*
X123170001Y-125715659D01*
X123209234Y-125712226D01*
X123405408Y-125695063D01*
X123633663Y-125633903D01*
X123847830Y-125534035D01*
X124041401Y-125398495D01*
X124208495Y-125231401D01*
X124338425Y-125045842D01*
X124393002Y-125002217D01*
X124462500Y-124995023D01*
X124524855Y-125026546D01*
X124541575Y-125045842D01*
X124671500Y-125231395D01*
X124671505Y-125231401D01*
X124838599Y-125398495D01*
X124935384Y-125466265D01*
X125032165Y-125534032D01*
X125032167Y-125534033D01*
X125032170Y-125534035D01*
X125246337Y-125633903D01*
X125246343Y-125633904D01*
X125246344Y-125633905D01*
X125301285Y-125648626D01*
X125474592Y-125695063D01*
X125662918Y-125711539D01*
X125709999Y-125715659D01*
X125710000Y-125715659D01*
X125710001Y-125715659D01*
X125749234Y-125712226D01*
X125945408Y-125695063D01*
X126173663Y-125633903D01*
X126387830Y-125534035D01*
X126581401Y-125398495D01*
X126748495Y-125231401D01*
X126878730Y-125045405D01*
X126933307Y-125001781D01*
X127002805Y-124994587D01*
X127065160Y-125026110D01*
X127081879Y-125045405D01*
X127211890Y-125231078D01*
X127378921Y-125398109D01*
X127400000Y-125412868D01*
X127400000Y-124425826D01*
X127750000Y-124425826D01*
X127784075Y-124552993D01*
X127849901Y-124667007D01*
X127942993Y-124760099D01*
X128057007Y-124825925D01*
X128184174Y-124860000D01*
X128315826Y-124860000D01*
X128442993Y-124825925D01*
X128557007Y-124760099D01*
X128650099Y-124667007D01*
X128715925Y-124552993D01*
X128750000Y-124425826D01*
X128750000Y-124294174D01*
X128715925Y-124167007D01*
X128650099Y-124052993D01*
X128557007Y-123959901D01*
X128442993Y-123894075D01*
X128315826Y-123860000D01*
X128184174Y-123860000D01*
X128057007Y-123894075D01*
X127942993Y-123959901D01*
X127849901Y-124052993D01*
X127784075Y-124167007D01*
X127750000Y-124294174D01*
X127750000Y-124425826D01*
X127400000Y-124425826D01*
X127400000Y-123634000D01*
X127419685Y-123566961D01*
X127472489Y-123521206D01*
X127524000Y-123510000D01*
X128976000Y-123510000D01*
X129043039Y-123529685D01*
X129088794Y-123582489D01*
X129100000Y-123634000D01*
X129100000Y-125412868D01*
X129121078Y-125398109D01*
X129288105Y-125231082D01*
X129418119Y-125045405D01*
X129472696Y-125001781D01*
X129542195Y-124994588D01*
X129604549Y-125026110D01*
X129621269Y-125045405D01*
X129751505Y-125231401D01*
X129918599Y-125398495D01*
X130015384Y-125466265D01*
X130112165Y-125534032D01*
X130112167Y-125534033D01*
X130112170Y-125534035D01*
X130326337Y-125633903D01*
X130326343Y-125633904D01*
X130326344Y-125633905D01*
X130381285Y-125648626D01*
X130554592Y-125695063D01*
X130742918Y-125711539D01*
X130789999Y-125715659D01*
X130790000Y-125715659D01*
X130790001Y-125715659D01*
X130829234Y-125712226D01*
X131025408Y-125695063D01*
X131253663Y-125633903D01*
X131467830Y-125534035D01*
X131661401Y-125398495D01*
X131828495Y-125231401D01*
X131958425Y-125045842D01*
X132013002Y-125002217D01*
X132082500Y-124995023D01*
X132144855Y-125026546D01*
X132161575Y-125045842D01*
X132291500Y-125231395D01*
X132291505Y-125231401D01*
X132458599Y-125398495D01*
X132555384Y-125466265D01*
X132652165Y-125534032D01*
X132652167Y-125534033D01*
X132652170Y-125534035D01*
X132866337Y-125633903D01*
X132866343Y-125633904D01*
X132866344Y-125633905D01*
X132921285Y-125648626D01*
X133094592Y-125695063D01*
X133319396Y-125714731D01*
X133384464Y-125740184D01*
X133425443Y-125796774D01*
X133429321Y-125866536D01*
X133396269Y-125925940D01*
X132209030Y-127113181D01*
X132147707Y-127146666D01*
X132121349Y-127149500D01*
X119056977Y-127149500D01*
X118989938Y-127129815D01*
X118944183Y-127077011D01*
X118936733Y-127049865D01*
X118935876Y-127050068D01*
X118934092Y-127042520D01*
X118883797Y-126907671D01*
X118883793Y-126907664D01*
X118797547Y-126792455D01*
X118797544Y-126792452D01*
X118682335Y-126706206D01*
X118682328Y-126706202D01*
X118547482Y-126655908D01*
X118547483Y-126655908D01*
X118487883Y-126649501D01*
X118487881Y-126649500D01*
X118487873Y-126649500D01*
X118487864Y-126649500D01*
X116692129Y-126649500D01*
X116692123Y-126649501D01*
X116632516Y-126655908D01*
X116497671Y-126706202D01*
X116497664Y-126706206D01*
X116382455Y-126792452D01*
X116382452Y-126792455D01*
X116296206Y-126907664D01*
X116296202Y-126907671D01*
X116245908Y-127042517D01*
X116244126Y-127050062D01*
X116241853Y-127049525D01*
X116219571Y-127103312D01*
X116162177Y-127143157D01*
X116123024Y-127149500D01*
X99718650Y-127149500D01*
X99651611Y-127129815D01*
X99630969Y-127113181D01*
X92025444Y-119507655D01*
X91991959Y-119446332D01*
X91989549Y-119409737D01*
X92000300Y-119280000D01*
X91981134Y-119048695D01*
X91964666Y-118983666D01*
X91924157Y-118823699D01*
X91830924Y-118611151D01*
X91703983Y-118416852D01*
X91703980Y-118416849D01*
X91703979Y-118416847D01*
X91609195Y-118313884D01*
X91578275Y-118251232D01*
X91586135Y-118181806D01*
X91630283Y-118127651D01*
X91657095Y-118113722D01*
X91673338Y-118107664D01*
X91733725Y-118085141D01*
X91737326Y-118083798D01*
X91737326Y-118083797D01*
X91737331Y-118083796D01*
X91852546Y-117997546D01*
X91938796Y-117882331D01*
X91989091Y-117747483D01*
X91995500Y-117687873D01*
X91995499Y-115792128D01*
X91989091Y-115732517D01*
X91982528Y-115714922D01*
X91938797Y-115597671D01*
X91938793Y-115597664D01*
X91852547Y-115482455D01*
X91852544Y-115482452D01*
X91737335Y-115396206D01*
X91737328Y-115396202D01*
X91602482Y-115345908D01*
X91602483Y-115345908D01*
X91542883Y-115339501D01*
X91542881Y-115339500D01*
X91542873Y-115339500D01*
X91542864Y-115339500D01*
X89647129Y-115339500D01*
X89647123Y-115339501D01*
X89587516Y-115345908D01*
X89452671Y-115396202D01*
X89452664Y-115396206D01*
X89337455Y-115482452D01*
X89337452Y-115482455D01*
X89251206Y-115597664D01*
X89251202Y-115597671D01*
X89200908Y-115732517D01*
X89194501Y-115792116D01*
X89194501Y-115792123D01*
X89194500Y-115792135D01*
X89194500Y-117650141D01*
X89174815Y-117717180D01*
X89122011Y-117762935D01*
X89052853Y-117772879D01*
X88989297Y-117743854D01*
X88982819Y-117737822D01*
X87621819Y-116376822D01*
X87588334Y-116315499D01*
X87585500Y-116289141D01*
X87585500Y-114741976D01*
X87605185Y-114674937D01*
X87657989Y-114629182D01*
X87685135Y-114621736D01*
X87684932Y-114620876D01*
X87692479Y-114619092D01*
X87692481Y-114619091D01*
X87692483Y-114619091D01*
X87827331Y-114568796D01*
X87942546Y-114482546D01*
X88028796Y-114367331D01*
X88079091Y-114232483D01*
X88085500Y-114172873D01*
X88085499Y-113265000D01*
X89379341Y-113265000D01*
X89399936Y-113500403D01*
X89399938Y-113500413D01*
X89461094Y-113728655D01*
X89461096Y-113728659D01*
X89461097Y-113728663D01*
X89532345Y-113881455D01*
X89560965Y-113942830D01*
X89560967Y-113942834D01*
X89652604Y-114073704D01*
X89696505Y-114136401D01*
X89863599Y-114303495D01*
X89880747Y-114315502D01*
X90057165Y-114439032D01*
X90057167Y-114439033D01*
X90057170Y-114439035D01*
X90271337Y-114538903D01*
X90499592Y-114600063D01*
X90655106Y-114613669D01*
X90734999Y-114620659D01*
X90735000Y-114620659D01*
X90735001Y-114620659D01*
X90774234Y-114617226D01*
X90970408Y-114600063D01*
X91198663Y-114538903D01*
X91412830Y-114439035D01*
X91606401Y-114303495D01*
X91773495Y-114136401D01*
X91909035Y-113942830D01*
X92008903Y-113728663D01*
X92070063Y-113500408D01*
X92090659Y-113265000D01*
X92070063Y-113029592D01*
X92018900Y-112838645D01*
X92008905Y-112801344D01*
X92008904Y-112801343D01*
X92008903Y-112801337D01*
X91909035Y-112587171D01*
X91908429Y-112586306D01*
X91773496Y-112393600D01*
X91720722Y-112340826D01*
X91651179Y-112271283D01*
X91617696Y-112209963D01*
X91622680Y-112140271D01*
X91664551Y-112084337D01*
X91695529Y-112067422D01*
X91827086Y-112018354D01*
X91827093Y-112018350D01*
X91942189Y-111932189D01*
X91942190Y-111932187D01*
X92028350Y-111817093D01*
X92028354Y-111817086D01*
X92078596Y-111682379D01*
X92078598Y-111682372D01*
X92084999Y-111622844D01*
X92085000Y-111622827D01*
X92085000Y-110975000D01*
X91168012Y-110975000D01*
X91200925Y-110917993D01*
X91235000Y-110790826D01*
X91235000Y-110659174D01*
X91200925Y-110532007D01*
X91168012Y-110475000D01*
X92085000Y-110475000D01*
X92085000Y-109827172D01*
X92084999Y-109827155D01*
X92078598Y-109767627D01*
X92078596Y-109767620D01*
X92028354Y-109632913D01*
X92028350Y-109632906D01*
X91942190Y-109517812D01*
X91942187Y-109517809D01*
X91827093Y-109431649D01*
X91827086Y-109431645D01*
X91692379Y-109381403D01*
X91692372Y-109381401D01*
X91632844Y-109375000D01*
X90985000Y-109375000D01*
X90985000Y-110291988D01*
X90927993Y-110259075D01*
X90800826Y-110225000D01*
X90669174Y-110225000D01*
X90542007Y-110259075D01*
X90485000Y-110291988D01*
X90485000Y-109375000D01*
X89837155Y-109375000D01*
X89777627Y-109381401D01*
X89777620Y-109381403D01*
X89642913Y-109431645D01*
X89642906Y-109431649D01*
X89527812Y-109517809D01*
X89527809Y-109517812D01*
X89441649Y-109632906D01*
X89441645Y-109632913D01*
X89391403Y-109767620D01*
X89391401Y-109767627D01*
X89385000Y-109827155D01*
X89385000Y-110475000D01*
X90301988Y-110475000D01*
X90269075Y-110532007D01*
X90235000Y-110659174D01*
X90235000Y-110790826D01*
X90269075Y-110917993D01*
X90301988Y-110975000D01*
X89385000Y-110975000D01*
X89385000Y-111622844D01*
X89391401Y-111682372D01*
X89391403Y-111682379D01*
X89441645Y-111817086D01*
X89441649Y-111817093D01*
X89527809Y-111932187D01*
X89527811Y-111932189D01*
X89642906Y-112018350D01*
X89642913Y-112018354D01*
X89774470Y-112067421D01*
X89830403Y-112109292D01*
X89854821Y-112174756D01*
X89839970Y-112243029D01*
X89818819Y-112271284D01*
X89696503Y-112393600D01*
X89560965Y-112587169D01*
X89560964Y-112587171D01*
X89461098Y-112801335D01*
X89461094Y-112801344D01*
X89399938Y-113029586D01*
X89399936Y-113029596D01*
X89379341Y-113264999D01*
X89379341Y-113265000D01*
X88085499Y-113265000D01*
X88085499Y-112377128D01*
X88079091Y-112317517D01*
X88076289Y-112310005D01*
X88028797Y-112182671D01*
X88028793Y-112182664D01*
X87942547Y-112067455D01*
X87942544Y-112067452D01*
X87827335Y-111981206D01*
X87827328Y-111981202D01*
X87695917Y-111932189D01*
X87639983Y-111890318D01*
X87615566Y-111824853D01*
X87630418Y-111756580D01*
X87651563Y-111728332D01*
X87773495Y-111606401D01*
X87909035Y-111412830D01*
X88008903Y-111198663D01*
X88070063Y-110970408D01*
X88090659Y-110735000D01*
X88088792Y-110713666D01*
X88082435Y-110641003D01*
X88070063Y-110499592D01*
X88008903Y-110271337D01*
X87909035Y-110057171D01*
X87906171Y-110053080D01*
X87773494Y-109863597D01*
X87606402Y-109696506D01*
X87606395Y-109696501D01*
X87598974Y-109691305D01*
X87548357Y-109655862D01*
X87412834Y-109560967D01*
X87412830Y-109560965D01*
X87320288Y-109517812D01*
X87198663Y-109461097D01*
X87198659Y-109461096D01*
X87198655Y-109461094D01*
X86970413Y-109399938D01*
X86970403Y-109399936D01*
X86735001Y-109379341D01*
X86734999Y-109379341D01*
X86499596Y-109399936D01*
X86499586Y-109399938D01*
X86271344Y-109461094D01*
X86271335Y-109461098D01*
X86057171Y-109560964D01*
X86057169Y-109560965D01*
X85863597Y-109696505D01*
X85696505Y-109863597D01*
X85560965Y-110057169D01*
X85560964Y-110057171D01*
X85461098Y-110271335D01*
X85461094Y-110271344D01*
X85399938Y-110499586D01*
X85399936Y-110499596D01*
X85379341Y-110734999D01*
X85379341Y-110735000D01*
X85399936Y-110970403D01*
X85399938Y-110970413D01*
X85461094Y-111198655D01*
X85461096Y-111198659D01*
X85461097Y-111198663D01*
X85557360Y-111405099D01*
X85560965Y-111412830D01*
X85560967Y-111412834D01*
X85669281Y-111567521D01*
X85696501Y-111606396D01*
X85696506Y-111606402D01*
X85818430Y-111728326D01*
X85851915Y-111789649D01*
X85846931Y-111859341D01*
X85805059Y-111915274D01*
X85774083Y-111932189D01*
X85642669Y-111981203D01*
X85642664Y-111981206D01*
X85527455Y-112067452D01*
X85527452Y-112067455D01*
X85441206Y-112182664D01*
X85441202Y-112182671D01*
X85390908Y-112317517D01*
X85389126Y-112325062D01*
X85386853Y-112324525D01*
X85364571Y-112378312D01*
X85307177Y-112418157D01*
X85268024Y-112424500D01*
X84844500Y-112424500D01*
X84777461Y-112404815D01*
X84731706Y-112352011D01*
X84720500Y-112300500D01*
X84720500Y-106290006D01*
X89189700Y-106290006D01*
X89208864Y-106521297D01*
X89208866Y-106521308D01*
X89265842Y-106746300D01*
X89359075Y-106958848D01*
X89486016Y-107153147D01*
X89486019Y-107153151D01*
X89486021Y-107153153D01*
X89643216Y-107323913D01*
X89643219Y-107323915D01*
X89643222Y-107323918D01*
X89826365Y-107466464D01*
X89826371Y-107466468D01*
X89826374Y-107466470D01*
X90030497Y-107576936D01*
X90144487Y-107616068D01*
X90250015Y-107652297D01*
X90250017Y-107652297D01*
X90250019Y-107652298D01*
X90478951Y-107690500D01*
X90478952Y-107690500D01*
X90711048Y-107690500D01*
X90711049Y-107690500D01*
X90939981Y-107652298D01*
X91159503Y-107576936D01*
X91363626Y-107466470D01*
X91546784Y-107323913D01*
X91703979Y-107153153D01*
X91830924Y-106958849D01*
X91924157Y-106746300D01*
X91981134Y-106521305D01*
X91981135Y-106521297D01*
X92000300Y-106290006D01*
X92000300Y-106289993D01*
X91981135Y-106058702D01*
X91981133Y-106058691D01*
X91924157Y-105833699D01*
X91830924Y-105621151D01*
X91703983Y-105426852D01*
X91703980Y-105426849D01*
X91703979Y-105426847D01*
X91609195Y-105323884D01*
X91578275Y-105261232D01*
X91586135Y-105191806D01*
X91630283Y-105137651D01*
X91657095Y-105123722D01*
X91737326Y-105093798D01*
X91737326Y-105093797D01*
X91737331Y-105093796D01*
X91852546Y-105007546D01*
X91938796Y-104892331D01*
X91989091Y-104757483D01*
X91995500Y-104697873D01*
X91995499Y-102802128D01*
X91989091Y-102742517D01*
X91964314Y-102676087D01*
X91938797Y-102607671D01*
X91938793Y-102607664D01*
X91852547Y-102492455D01*
X91852544Y-102492452D01*
X91737335Y-102406206D01*
X91737328Y-102406202D01*
X91602482Y-102355908D01*
X91602483Y-102355908D01*
X91542883Y-102349501D01*
X91542881Y-102349500D01*
X91542873Y-102349500D01*
X91542864Y-102349500D01*
X89647129Y-102349500D01*
X89647123Y-102349501D01*
X89587516Y-102355908D01*
X89452671Y-102406202D01*
X89452664Y-102406206D01*
X89337455Y-102492452D01*
X89337452Y-102492455D01*
X89251206Y-102607664D01*
X89251202Y-102607671D01*
X89200908Y-102742517D01*
X89195680Y-102791151D01*
X89194501Y-102802123D01*
X89194500Y-102802135D01*
X89194500Y-104697870D01*
X89194501Y-104697876D01*
X89200908Y-104757483D01*
X89251202Y-104892328D01*
X89251206Y-104892335D01*
X89337452Y-105007544D01*
X89337455Y-105007547D01*
X89452664Y-105093793D01*
X89452673Y-105093798D01*
X89532904Y-105123722D01*
X89588838Y-105165593D01*
X89613256Y-105231057D01*
X89598405Y-105299330D01*
X89580802Y-105323886D01*
X89486019Y-105426849D01*
X89359075Y-105621151D01*
X89265842Y-105833699D01*
X89208866Y-106058691D01*
X89208864Y-106058702D01*
X89189700Y-106289993D01*
X89189700Y-106290006D01*
X84720500Y-106290006D01*
X84720500Y-104413651D01*
X84740185Y-104346612D01*
X84756819Y-104325970D01*
X91755970Y-97326819D01*
X91817293Y-97293334D01*
X91843651Y-97290500D01*
X100926349Y-97290500D01*
X100993388Y-97310185D01*
G37*
%TD.AperFunction*%
%TA.AperFunction,Conductor*%
G36*
X100176185Y-113107632D02*
G01*
X100192707Y-113105919D01*
X100261419Y-113118582D01*
X100312378Y-113166383D01*
X100329500Y-113229257D01*
X100329500Y-113881455D01*
X100309815Y-113948494D01*
X100257011Y-113994249D01*
X100187853Y-114004193D01*
X100124297Y-113975168D01*
X100114276Y-113965444D01*
X99976784Y-113816087D01*
X99798773Y-113677536D01*
X99757961Y-113620826D01*
X99754286Y-113551053D01*
X99788917Y-113490370D01*
X99798772Y-113481831D01*
X99823797Y-113462352D01*
X99823798Y-113462350D01*
X99113585Y-112752137D01*
X99198694Y-112729333D01*
X99301306Y-112670090D01*
X99385090Y-112586306D01*
X99444333Y-112483694D01*
X99467138Y-112398585D01*
X100176185Y-113107632D01*
G37*
%TD.AperFunction*%
%TA.AperFunction,Conductor*%
G36*
X100274459Y-111017111D02*
G01*
X100319228Y-111070753D01*
X100329500Y-111120168D01*
X100329500Y-111390740D01*
X100309815Y-111457779D01*
X100257011Y-111503534D01*
X100192710Y-111514079D01*
X100176186Y-111512365D01*
X99467137Y-112221414D01*
X99444333Y-112136306D01*
X99385090Y-112033694D01*
X99301306Y-111949910D01*
X99198694Y-111890667D01*
X99113584Y-111867861D01*
X99797600Y-111183844D01*
X99846276Y-111153819D01*
X99994220Y-111104797D01*
X100140403Y-111014629D01*
X100207795Y-110996189D01*
X100274459Y-111017111D01*
G37*
%TD.AperFunction*%
%TA.AperFunction,Conductor*%
G36*
X105269470Y-106189416D02*
G01*
X105685332Y-106605278D01*
X105705108Y-106618491D01*
X105714998Y-106625099D01*
X105791873Y-106676465D01*
X105910256Y-106725501D01*
X105910260Y-106725501D01*
X105910261Y-106725502D01*
X106035928Y-106750500D01*
X106035931Y-106750500D01*
X119779192Y-106750500D01*
X119846231Y-106770185D01*
X119866873Y-106786819D01*
X121500887Y-108420833D01*
X121534372Y-108482156D01*
X121536609Y-108496360D01*
X121554452Y-108677531D01*
X121554453Y-108677533D01*
X121608803Y-108856700D01*
X121650302Y-108934340D01*
X121664543Y-109002742D01*
X121639542Y-109067986D01*
X121583237Y-109109356D01*
X121513504Y-109113718D01*
X121453262Y-109080473D01*
X121092165Y-108719375D01*
X121092161Y-108719372D01*
X120952866Y-108626297D01*
X120952863Y-108626296D01*
X120843416Y-108580962D01*
X120843414Y-108580961D01*
X120798086Y-108562185D01*
X120798074Y-108562182D01*
X120633771Y-108529500D01*
X120633767Y-108529500D01*
X119213678Y-108529500D01*
X119146639Y-108509815D01*
X119100884Y-108457011D01*
X119095972Y-108444502D01*
X119084799Y-108410785D01*
X119084798Y-108410783D01*
X119084797Y-108410780D01*
X118992670Y-108261419D01*
X118868581Y-108137330D01*
X118722364Y-108047142D01*
X118719222Y-108045204D01*
X118719217Y-108045202D01*
X118552638Y-107990003D01*
X118449833Y-107979500D01*
X118449826Y-107979500D01*
X117050174Y-107979500D01*
X117050166Y-107979500D01*
X116947361Y-107990003D01*
X116780782Y-108045202D01*
X116780777Y-108045204D01*
X116631417Y-108137331D01*
X116507331Y-108261417D01*
X116415204Y-108410777D01*
X116415202Y-108410782D01*
X116366181Y-108558719D01*
X116336156Y-108607396D01*
X115652137Y-109291414D01*
X115629333Y-109206306D01*
X115570090Y-109103694D01*
X115486306Y-109019910D01*
X115383694Y-108960667D01*
X115298584Y-108937861D01*
X116008797Y-108227647D01*
X116008797Y-108227645D01*
X115978360Y-108203955D01*
X115978354Y-108203951D01*
X115774302Y-108093523D01*
X115774293Y-108093520D01*
X115554860Y-108018188D01*
X115326007Y-107980000D01*
X115093993Y-107980000D01*
X114865139Y-108018188D01*
X114645706Y-108093520D01*
X114645697Y-108093523D01*
X114441650Y-108203949D01*
X114411200Y-108227647D01*
X115121415Y-108937861D01*
X115036306Y-108960667D01*
X114933694Y-109019910D01*
X114849910Y-109103694D01*
X114790667Y-109206306D01*
X114767861Y-109291415D01*
X114058811Y-108582365D01*
X114044106Y-108604873D01*
X113990959Y-108650230D01*
X113921728Y-108659653D01*
X113858392Y-108630150D01*
X113836489Y-108604873D01*
X113835689Y-108603649D01*
X113778979Y-108516847D01*
X113621784Y-108346087D01*
X113621779Y-108346083D01*
X113621777Y-108346081D01*
X113438634Y-108203535D01*
X113438628Y-108203531D01*
X113234504Y-108093064D01*
X113234495Y-108093061D01*
X113014984Y-108017702D01*
X112843282Y-107989050D01*
X112786049Y-107979500D01*
X112553951Y-107979500D01*
X112508164Y-107987140D01*
X112325015Y-108017702D01*
X112105504Y-108093061D01*
X112105495Y-108093064D01*
X111901371Y-108203531D01*
X111901365Y-108203535D01*
X111718222Y-108346081D01*
X111718219Y-108346084D01*
X111718216Y-108346086D01*
X111718216Y-108346087D01*
X111561831Y-108515968D01*
X111561015Y-108516854D01*
X111524123Y-108573322D01*
X111470977Y-108618678D01*
X111420315Y-108629500D01*
X106826080Y-108629500D01*
X106681092Y-108658340D01*
X106681082Y-108658343D01*
X106544511Y-108714912D01*
X106544498Y-108714919D01*
X106430411Y-108791151D01*
X106430409Y-108791152D01*
X106421585Y-108797047D01*
X106421580Y-108797051D01*
X105152181Y-110066451D01*
X105090858Y-110099936D01*
X105021166Y-110094952D01*
X104965233Y-110053080D01*
X104940816Y-109987616D01*
X104940500Y-109978770D01*
X104940500Y-106420012D01*
X104960185Y-106352973D01*
X104968639Y-106341357D01*
X105084136Y-106200625D01*
X105084135Y-106200625D01*
X105085936Y-106198432D01*
X105143682Y-106159098D01*
X105213527Y-106157227D01*
X105269470Y-106189416D01*
G37*
%TD.AperFunction*%
%TD*%
M02*
