%TF.GenerationSoftware,KiCad,Pcbnew,8.0.0*%
%TF.CreationDate,2024-03-24T14:56:25+02:00*%
%TF.ProjectId,sensor,73656e73-6f72-42e6-9b69-6361645f7063,rev?*%
%TF.SameCoordinates,Original*%
%TF.FileFunction,Soldermask,Top*%
%TF.FilePolarity,Negative*%
%FSLAX46Y46*%
G04 Gerber Fmt 4.6, Leading zero omitted, Abs format (unit mm)*
G04 Created by KiCad (PCBNEW 8.0.0) date 2024-03-24 14:56:25*
%MOMM*%
%LPD*%
G01*
G04 APERTURE LIST*
G04 Aperture macros list*
%AMRoundRect*
0 Rectangle with rounded corners*
0 $1 Rounding radius*
0 $2 $3 $4 $5 $6 $7 $8 $9 X,Y pos of 4 corners*
0 Add a 4 corners polygon primitive as box body*
4,1,4,$2,$3,$4,$5,$6,$7,$8,$9,$2,$3,0*
0 Add four circle primitives for the rounded corners*
1,1,$1+$1,$2,$3*
1,1,$1+$1,$4,$5*
1,1,$1+$1,$6,$7*
1,1,$1+$1,$8,$9*
0 Add four rect primitives between the rounded corners*
20,1,$1+$1,$2,$3,$4,$5,0*
20,1,$1+$1,$4,$5,$6,$7,0*
20,1,$1+$1,$6,$7,$8,$9,0*
20,1,$1+$1,$8,$9,$2,$3,0*%
%AMHorizOval*
0 Thick line with rounded ends*
0 $1 width*
0 $2 $3 position (X,Y) of the first rounded end (center of the circle)*
0 $4 $5 position (X,Y) of the second rounded end (center of the circle)*
0 Add line between two ends*
20,1,$1,$2,$3,$4,$5,0*
0 Add two circle primitives to create the rounded ends*
1,1,$1,$2,$3*
1,1,$1,$4,$5*%
%AMRotRect*
0 Rectangle, with rotation*
0 The origin of the aperture is its center*
0 $1 length*
0 $2 width*
0 $3 Rotation angle, in degrees counterclockwise*
0 Add horizontal line*
21,1,$1,$2,0,0,$3*%
G04 Aperture macros list end*
%ADD10RoundRect,0.250000X-0.450000X0.262500X-0.450000X-0.262500X0.450000X-0.262500X0.450000X0.262500X0*%
%ADD11R,1.700000X1.700000*%
%ADD12O,1.700000X1.700000*%
%ADD13RotRect,1.700000X1.700000X315.000000*%
%ADD14HorizOval,1.700000X0.000000X0.000000X0.000000X0.000000X0*%
%ADD15RoundRect,0.250200X0.649800X0.649800X-0.649800X0.649800X-0.649800X-0.649800X0.649800X-0.649800X0*%
%ADD16C,1.800000*%
%ADD17RotRect,1.800000X1.800000X135.000000*%
%ADD18RotRect,1.700000X1.700000X45.000000*%
%ADD19HorizOval,1.700000X0.000000X0.000000X0.000000X0.000000X0*%
%ADD20RoundRect,0.250200X0.000000X0.918956X-0.918956X0.000000X0.000000X-0.918956X0.918956X0.000000X0*%
%ADD21C,1.000000*%
%ADD22RoundRect,0.250000X0.450000X-0.262500X0.450000X0.262500X-0.450000X0.262500X-0.450000X-0.262500X0*%
%ADD23RoundRect,0.150000X0.150000X-0.587500X0.150000X0.587500X-0.150000X0.587500X-0.150000X-0.587500X0*%
%ADD24RoundRect,0.250000X0.262500X0.450000X-0.262500X0.450000X-0.262500X-0.450000X0.262500X-0.450000X0*%
%ADD25RoundRect,0.150000X0.150000X-0.825000X0.150000X0.825000X-0.150000X0.825000X-0.150000X-0.825000X0*%
%ADD26RotRect,1.800000X1.800000X225.000000*%
%ADD27R,1.800000X1.800000*%
%ADD28RoundRect,0.250200X0.918956X0.000000X0.000000X0.918956X-0.918956X0.000000X0.000000X-0.918956X0*%
G04 APERTURE END LIST*
D10*
%TO.C,R4*%
X149250000Y-93050000D03*
X149250000Y-94875000D03*
%TD*%
D11*
%TO.C,J9*%
X168000000Y-100275000D03*
D12*
X168000000Y-97735000D03*
%TD*%
D13*
%TO.C,J5*%
X122051562Y-93398437D03*
D14*
X120255511Y-95194488D03*
%TD*%
D11*
%TO.C,J15*%
X144250000Y-89000000D03*
%TD*%
D13*
%TO.C,J1*%
X113401562Y-84992926D03*
D14*
X111605511Y-86788977D03*
%TD*%
D15*
%TO.C,U4*%
X142040000Y-94525000D03*
D16*
X139500000Y-94525000D03*
X136960000Y-94525000D03*
%TD*%
D17*
%TO.C,D1*%
X161296051Y-92320153D03*
D16*
X159500000Y-90524102D03*
%TD*%
D11*
%TO.C,J2*%
X111275000Y-107275000D03*
D12*
X111275000Y-104735000D03*
%TD*%
D18*
%TO.C,J12*%
X157598439Y-93098437D03*
D19*
X159394490Y-94894488D03*
%TD*%
D20*
%TO.C,U2*%
X126960836Y-96928734D03*
D16*
X125164785Y-98724785D03*
X123368734Y-100520836D03*
%TD*%
D21*
%TO.C,TP1*%
X116500000Y-107750000D03*
%TD*%
%TO.C,TP6*%
X146000000Y-94000000D03*
%TD*%
D22*
%TO.C,R3*%
X160000000Y-102375000D03*
X160000000Y-100550000D03*
%TD*%
D11*
%TO.C,J3*%
X123600000Y-106250000D03*
D12*
X123600000Y-108790000D03*
X126140000Y-106250000D03*
X126140000Y-108790000D03*
X128680000Y-106250000D03*
X128680000Y-108790000D03*
X131220000Y-106250000D03*
X131220000Y-108790000D03*
X133760000Y-106250000D03*
X133760000Y-108790000D03*
X136300000Y-106250000D03*
X136300000Y-108790000D03*
X138840000Y-106250000D03*
X138840000Y-108790000D03*
X141380000Y-106250000D03*
X141380000Y-108790000D03*
X143920000Y-106250000D03*
X143920000Y-108790000D03*
X146460000Y-106250000D03*
X146460000Y-108790000D03*
X149000000Y-106250000D03*
X149000000Y-108790000D03*
X151540000Y-106250000D03*
X151540000Y-108790000D03*
X154080000Y-106250000D03*
X154080000Y-108790000D03*
X156620000Y-106250000D03*
X156620000Y-108790000D03*
%TD*%
D21*
%TO.C,TP3*%
X169000000Y-94000000D03*
%TD*%
D22*
%TO.C,R5*%
X162500000Y-107412500D03*
X162500000Y-105587500D03*
%TD*%
D11*
%TO.C,J11*%
X145975000Y-80750000D03*
D12*
X148515000Y-80750000D03*
%TD*%
D10*
%TO.C,R1*%
X120000000Y-103337500D03*
X120000000Y-105162500D03*
%TD*%
D21*
%TO.C,TP5*%
X156750000Y-103000000D03*
%TD*%
D23*
%TO.C,Q1*%
X115050000Y-104937500D03*
X116950000Y-104937500D03*
X116000000Y-103062500D03*
%TD*%
D21*
%TO.C,TP4*%
X154500000Y-80750000D03*
%TD*%
D23*
%TO.C,Q2*%
X166050000Y-106437500D03*
X167950000Y-106437500D03*
X167000000Y-104562500D03*
%TD*%
D11*
%TO.C,J13*%
X137975000Y-89000000D03*
D12*
X140515000Y-89000000D03*
%TD*%
D23*
%TO.C,Q3*%
X147550000Y-89875000D03*
X149450000Y-89875000D03*
X148500000Y-88000000D03*
%TD*%
D18*
%TO.C,J8*%
X165725000Y-84000000D03*
D19*
X167521051Y-85796051D03*
%TD*%
D11*
%TO.C,J10*%
X141025000Y-76750000D03*
D12*
X138485000Y-76750000D03*
%TD*%
D11*
%TO.C,J7*%
X114010000Y-100000000D03*
D12*
X111470000Y-100000000D03*
%TD*%
D11*
%TO.C,J14*%
X166000000Y-93500000D03*
%TD*%
D24*
%TO.C,R6*%
X148412500Y-85000000D03*
X146587500Y-85000000D03*
%TD*%
D25*
%TO.C,U1*%
X136492500Y-103032500D03*
X137762500Y-103032500D03*
X139032500Y-103032500D03*
X140302500Y-103032500D03*
X141572500Y-103032500D03*
X142842500Y-103032500D03*
X144112500Y-103032500D03*
X144112500Y-98082500D03*
X142842500Y-98082500D03*
X141572500Y-98082500D03*
X140302500Y-98082500D03*
X139032500Y-98082500D03*
X137762500Y-98082500D03*
X136492500Y-98082500D03*
%TD*%
D26*
%TO.C,D2*%
X119881460Y-91113693D03*
D16*
X118085409Y-92909744D03*
%TD*%
D21*
%TO.C,TP2*%
X130250000Y-94500000D03*
%TD*%
D11*
%TO.C,J6*%
X117750000Y-99500000D03*
%TD*%
D27*
%TO.C,D3*%
X140750000Y-85825000D03*
D16*
X138210000Y-85825000D03*
%TD*%
D28*
%TO.C,U3*%
X156071267Y-99520836D03*
D16*
X154275216Y-97724785D03*
X152479165Y-95928734D03*
%TD*%
D11*
%TO.C,J16*%
X164250000Y-100500000D03*
D12*
X164250000Y-97960000D03*
%TD*%
D11*
%TO.C,J17*%
X149025000Y-77000000D03*
D12*
X146485000Y-77000000D03*
%TD*%
D22*
%TO.C,R2*%
X126500000Y-90162500D03*
X126500000Y-88337500D03*
%TD*%
M02*
