%TF.GenerationSoftware,KiCad,Pcbnew,8.0.0*%
%TF.CreationDate,2024-03-24T14:49:44+02:00*%
%TF.ProjectId,sensor,73656e73-6f72-42e6-9b69-6361645f7063,rev?*%
%TF.SameCoordinates,Original*%
%TF.FileFunction,Copper,L1,Top*%
%TF.FilePolarity,Positive*%
%FSLAX46Y46*%
G04 Gerber Fmt 4.6, Leading zero omitted, Abs format (unit mm)*
G04 Created by KiCad (PCBNEW 8.0.0) date 2024-03-24 14:49:44*
%MOMM*%
%LPD*%
G01*
G04 APERTURE LIST*
G04 Aperture macros list*
%AMRoundRect*
0 Rectangle with rounded corners*
0 $1 Rounding radius*
0 $2 $3 $4 $5 $6 $7 $8 $9 X,Y pos of 4 corners*
0 Add a 4 corners polygon primitive as box body*
4,1,4,$2,$3,$4,$5,$6,$7,$8,$9,$2,$3,0*
0 Add four circle primitives for the rounded corners*
1,1,$1+$1,$2,$3*
1,1,$1+$1,$4,$5*
1,1,$1+$1,$6,$7*
1,1,$1+$1,$8,$9*
0 Add four rect primitives between the rounded corners*
20,1,$1+$1,$2,$3,$4,$5,0*
20,1,$1+$1,$4,$5,$6,$7,0*
20,1,$1+$1,$6,$7,$8,$9,0*
20,1,$1+$1,$8,$9,$2,$3,0*%
%AMHorizOval*
0 Thick line with rounded ends*
0 $1 width*
0 $2 $3 position (X,Y) of the first rounded end (center of the circle)*
0 $4 $5 position (X,Y) of the second rounded end (center of the circle)*
0 Add line between two ends*
20,1,$1,$2,$3,$4,$5,0*
0 Add two circle primitives to create the rounded ends*
1,1,$1,$2,$3*
1,1,$1,$4,$5*%
%AMRotRect*
0 Rectangle, with rotation*
0 The origin of the aperture is its center*
0 $1 length*
0 $2 width*
0 $3 Rotation angle, in degrees counterclockwise*
0 Add horizontal line*
21,1,$1,$2,0,0,$3*%
G04 Aperture macros list end*
%TA.AperFunction,ComponentPad*%
%ADD10R,1.700000X1.700000*%
%TD*%
%TA.AperFunction,ComponentPad*%
%ADD11O,1.700000X1.700000*%
%TD*%
%TA.AperFunction,ComponentPad*%
%ADD12RotRect,1.700000X1.700000X315.000000*%
%TD*%
%TA.AperFunction,ComponentPad*%
%ADD13HorizOval,1.700000X0.000000X0.000000X0.000000X0.000000X0*%
%TD*%
%TA.AperFunction,ComponentPad*%
%ADD14RoundRect,0.250200X0.649800X0.649800X-0.649800X0.649800X-0.649800X-0.649800X0.649800X-0.649800X0*%
%TD*%
%TA.AperFunction,ComponentPad*%
%ADD15C,1.800000*%
%TD*%
%TA.AperFunction,ComponentPad*%
%ADD16RotRect,1.800000X1.800000X135.000000*%
%TD*%
%TA.AperFunction,ComponentPad*%
%ADD17RotRect,1.700000X1.700000X45.000000*%
%TD*%
%TA.AperFunction,ComponentPad*%
%ADD18HorizOval,1.700000X0.000000X0.000000X0.000000X0.000000X0*%
%TD*%
%TA.AperFunction,ComponentPad*%
%ADD19RoundRect,0.250200X0.000000X0.918956X-0.918956X0.000000X0.000000X-0.918956X0.918956X0.000000X0*%
%TD*%
%TA.AperFunction,SMDPad,CuDef*%
%ADD20C,1.000000*%
%TD*%
%TA.AperFunction,SMDPad,CuDef*%
%ADD21RoundRect,0.250000X0.450000X-0.262500X0.450000X0.262500X-0.450000X0.262500X-0.450000X-0.262500X0*%
%TD*%
%TA.AperFunction,SMDPad,CuDef*%
%ADD22RoundRect,0.250000X-0.625000X0.312500X-0.625000X-0.312500X0.625000X-0.312500X0.625000X0.312500X0*%
%TD*%
%TA.AperFunction,SMDPad,CuDef*%
%ADD23RoundRect,0.250000X-0.450000X0.262500X-0.450000X-0.262500X0.450000X-0.262500X0.450000X0.262500X0*%
%TD*%
%TA.AperFunction,SMDPad,CuDef*%
%ADD24RoundRect,0.150000X0.150000X-0.587500X0.150000X0.587500X-0.150000X0.587500X-0.150000X-0.587500X0*%
%TD*%
%TA.AperFunction,SMDPad,CuDef*%
%ADD25RoundRect,0.250000X0.262500X0.450000X-0.262500X0.450000X-0.262500X-0.450000X0.262500X-0.450000X0*%
%TD*%
%TA.AperFunction,SMDPad,CuDef*%
%ADD26RoundRect,0.150000X0.150000X-0.825000X0.150000X0.825000X-0.150000X0.825000X-0.150000X-0.825000X0*%
%TD*%
%TA.AperFunction,ComponentPad*%
%ADD27RotRect,1.800000X1.800000X225.000000*%
%TD*%
%TA.AperFunction,ComponentPad*%
%ADD28R,1.800000X1.800000*%
%TD*%
%TA.AperFunction,ComponentPad*%
%ADD29RoundRect,0.250200X0.918956X0.000000X0.000000X0.918956X-0.918956X0.000000X0.000000X-0.918956X0*%
%TD*%
%TA.AperFunction,ViaPad*%
%ADD30C,0.900000*%
%TD*%
%TA.AperFunction,Conductor*%
%ADD31C,0.300000*%
%TD*%
%TA.AperFunction,Conductor*%
%ADD32C,0.500000*%
%TD*%
%TA.AperFunction,Conductor*%
%ADD33C,0.700000*%
%TD*%
G04 APERTURE END LIST*
D10*
%TO.P,J9,1,Pin_1*%
%TO.N,Net-(J8-Pin_2)*%
X168000000Y-100275000D03*
D11*
%TO.P,J9,2,Pin_2*%
%TO.N,Net-(J9-Pin_2)*%
X168000000Y-97735000D03*
%TD*%
D12*
%TO.P,J5,1,Pin_1*%
%TO.N,GND*%
X122051562Y-93398437D03*
D13*
%TO.P,J5,2,Pin_2*%
%TO.N,Net-(J5-Pin_2)*%
X120255511Y-95194488D03*
%TD*%
D10*
%TO.P,J15,1,Pin_1*%
%TO.N,Net-(J13-Pin_2)*%
X144250000Y-89000000D03*
%TD*%
D12*
%TO.P,J1,1,Pin_1*%
%TO.N,/3V3*%
X113401562Y-84992926D03*
D13*
%TO.P,J1,2,Pin_2*%
%TO.N,Net-(J1-Pin_2)*%
X111605511Y-86788977D03*
%TD*%
D14*
%TO.P,U4,1,OUT*%
%TO.N,Net-(U1C-+)*%
X142040000Y-94525000D03*
D15*
%TO.P,U4,2,GND*%
%TO.N,GND*%
X139500000Y-94525000D03*
%TO.P,U4,3,Vs*%
%TO.N,/3V3*%
X136960000Y-94525000D03*
%TD*%
D16*
%TO.P,D1,1,K*%
%TO.N,Net-(D1-K)*%
X161296051Y-92320153D03*
D15*
%TO.P,D1,2,A*%
%TO.N,/3V3*%
X159500000Y-90524102D03*
%TD*%
D10*
%TO.P,J2,1,Pin_1*%
%TO.N,Net-(J1-Pin_2)*%
X111275000Y-107275000D03*
D11*
%TO.P,J2,2,Pin_2*%
%TO.N,Net-(J2-Pin_2)*%
X111275000Y-104735000D03*
%TD*%
D17*
%TO.P,J12,1,Pin_1*%
%TO.N,GND*%
X157598439Y-93098437D03*
D18*
%TO.P,J12,2,Pin_2*%
%TO.N,Net-(J12-Pin_2)*%
X159394490Y-94894488D03*
%TD*%
D19*
%TO.P,U2,1,OUT*%
%TO.N,Net-(U1A-+)*%
X126960836Y-96928734D03*
D15*
%TO.P,U2,2,GND*%
%TO.N,GND*%
X125164785Y-98724785D03*
%TO.P,U2,3,Vs*%
%TO.N,/3V3*%
X123368734Y-100520836D03*
%TD*%
D20*
%TO.P,TP1,1,1*%
%TO.N,Net-(J2-Pin_2)*%
X116500000Y-107750000D03*
%TD*%
%TO.P,TP6,1,1*%
%TO.N,Net-(U1C-+)*%
X146000000Y-94000000D03*
%TD*%
D21*
%TO.P,R3,1*%
%TO.N,Net-(Q2-B)*%
X160000000Y-102375000D03*
%TO.P,R3,2*%
%TO.N,/PE15*%
X160000000Y-100550000D03*
%TD*%
D10*
%TO.P,J3,1,Pin_1*%
%TO.N,/3V3*%
X123600000Y-106250000D03*
D11*
%TO.P,J3,2,Pin_2*%
%TO.N,/BATT*%
X123600000Y-108790000D03*
%TO.P,J3,3,Pin_3*%
%TO.N,/RESV2*%
X126140000Y-106250000D03*
%TO.P,J3,4,Pin_4*%
%TO.N,/PE15*%
X126140000Y-108790000D03*
%TO.P,J3,5,Pin_5*%
%TO.N,/PE14*%
X128680000Y-106250000D03*
%TO.P,J3,6,Pin_6*%
%TO.N,/PA13*%
X128680000Y-108790000D03*
%TO.P,J3,7,Pin_7*%
%TO.N,/PE12*%
X131220000Y-106250000D03*
%TO.P,J3,8,Pin_8*%
%TO.N,/PE11*%
X131220000Y-108790000D03*
%TO.P,J3,9,Pin_9*%
%TO.N,/PA10*%
X133760000Y-106250000D03*
%TO.P,J3,10,Pin_10*%
%TO.N,/PE9*%
X133760000Y-108790000D03*
%TO.P,J3,11,Pin_11*%
%TO.N,/PE8*%
X136300000Y-106250000D03*
%TO.P,J3,12,Pin_12*%
%TO.N,/RESV1*%
X136300000Y-108790000D03*
%TO.P,J3,13,Pin_13*%
%TO.N,/BATT*%
X138840000Y-106250000D03*
%TO.P,J3,14,Pin_14*%
%TO.N,/3V3*%
X138840000Y-108790000D03*
%TO.P,J3,15,Pin_15*%
%TO.N,GND*%
X141380000Y-106250000D03*
%TO.P,J3,16,Pin_16*%
%TO.N,/AB0*%
X141380000Y-108790000D03*
%TO.P,J3,17,Pin_17*%
%TO.N,/PC5*%
X143920000Y-106250000D03*
%TO.P,J3,18,Pin_18*%
%TO.N,GND*%
X143920000Y-108790000D03*
%TO.P,J3,19,Pin_19*%
%TO.N,/PC4*%
X146460000Y-106250000D03*
%TO.P,J3,20,Pin_20*%
%TO.N,/PA7*%
X146460000Y-108790000D03*
%TO.P,J3,21,Pin_21*%
%TO.N,GND*%
X149000000Y-106250000D03*
%TO.P,J3,22,Pin_22*%
%TO.N,/PA6*%
X149000000Y-108790000D03*
%TO.P,J3,23,Pin_23*%
%TO.N,/PA5*%
X151540000Y-106250000D03*
%TO.P,J3,24,Pin_24*%
%TO.N,GND*%
X151540000Y-108790000D03*
%TO.P,J3,25,Pin_25*%
%TO.N,/PA4*%
X154080000Y-106250000D03*
%TO.P,J3,26,Pin_26*%
%TO.N,/PA3*%
X154080000Y-108790000D03*
%TO.P,J3,27,Pin_27*%
%TO.N,GND*%
X156620000Y-106250000D03*
%TO.P,J3,28,Pin_28*%
%TO.N,/RESV3*%
X156620000Y-108790000D03*
%TD*%
D20*
%TO.P,TP3,1,1*%
%TO.N,Net-(J9-Pin_2)*%
X169000000Y-94000000D03*
%TD*%
D21*
%TO.P,R5,1*%
%TO.N,Net-(J9-Pin_2)*%
X162500000Y-107412500D03*
%TO.P,R5,2*%
%TO.N,Net-(D1-K)*%
X162500000Y-105587500D03*
%TD*%
D22*
%TO.P,R4,1*%
%TO.N,Net-(Q3-B)*%
X149250000Y-92500000D03*
%TO.P,R4,2*%
%TO.N,/PE15*%
X149250000Y-95425000D03*
%TD*%
D10*
%TO.P,J11,1,Pin_1*%
%TO.N,Net-(J10-Pin_2)*%
X145975000Y-80750000D03*
D11*
%TO.P,J11,2,Pin_2*%
%TO.N,Net-(J11-Pin_2)*%
X148515000Y-80750000D03*
%TD*%
D23*
%TO.P,R1,1*%
%TO.N,Net-(Q1-B)*%
X120000000Y-103337500D03*
%TO.P,R1,2*%
%TO.N,/PE15*%
X120000000Y-105162500D03*
%TD*%
D20*
%TO.P,TP5,1,1*%
%TO.N,Net-(U1B-+)*%
X156750000Y-103000000D03*
%TD*%
D24*
%TO.P,Q1,1,B*%
%TO.N,Net-(Q1-B)*%
X115050000Y-104937500D03*
%TO.P,Q1,2,E*%
%TO.N,GND*%
X116950000Y-104937500D03*
%TO.P,Q1,3,C*%
%TO.N,Net-(J2-Pin_2)*%
X116000000Y-103062500D03*
%TD*%
D20*
%TO.P,TP4,1,1*%
%TO.N,Net-(J11-Pin_2)*%
X154500000Y-80750000D03*
%TD*%
D24*
%TO.P,Q2,1,B*%
%TO.N,Net-(Q2-B)*%
X166050000Y-106437500D03*
%TO.P,Q2,2,E*%
%TO.N,GND*%
X167950000Y-106437500D03*
%TO.P,Q2,3,C*%
%TO.N,Net-(J9-Pin_2)*%
X167000000Y-104562500D03*
%TD*%
D10*
%TO.P,J13,1,Pin_1*%
%TO.N,GND*%
X137975000Y-89000000D03*
D11*
%TO.P,J13,2,Pin_2*%
%TO.N,Net-(J13-Pin_2)*%
X140515000Y-89000000D03*
%TD*%
D24*
%TO.P,Q3,1,B*%
%TO.N,Net-(Q3-B)*%
X147550000Y-89875000D03*
%TO.P,Q3,2,E*%
%TO.N,GND*%
X149450000Y-89875000D03*
%TO.P,Q3,3,C*%
%TO.N,Net-(J11-Pin_2)*%
X148500000Y-88000000D03*
%TD*%
D17*
%TO.P,J8,1,Pin_1*%
%TO.N,/3V3*%
X165725000Y-84000000D03*
D18*
%TO.P,J8,2,Pin_2*%
%TO.N,Net-(J8-Pin_2)*%
X167521051Y-85796051D03*
%TD*%
D10*
%TO.P,J10,1,Pin_1*%
%TO.N,/3V3*%
X141025000Y-76750000D03*
D11*
%TO.P,J10,2,Pin_2*%
%TO.N,Net-(J10-Pin_2)*%
X138485000Y-76750000D03*
%TD*%
D10*
%TO.P,J7,1,Pin_1*%
%TO.N,Net-(J5-Pin_2)*%
X114010000Y-100000000D03*
D11*
%TO.P,J7,2,Pin_2*%
%TO.N,/3V3*%
X111470000Y-100000000D03*
%TD*%
D10*
%TO.P,J14,1,Pin_1*%
%TO.N,Net-(J12-Pin_2)*%
X166000000Y-93500000D03*
%TD*%
D25*
%TO.P,R6,1*%
%TO.N,Net-(J11-Pin_2)*%
X148412500Y-85000000D03*
%TO.P,R6,2*%
%TO.N,Net-(D3-K)*%
X146587500Y-85000000D03*
%TD*%
D26*
%TO.P,U1,1*%
%TO.N,/PC4*%
X136492500Y-103032500D03*
%TO.P,U1,2,-*%
X137762500Y-103032500D03*
%TO.P,U1,3,+*%
%TO.N,Net-(U1A-+)*%
X139032500Y-103032500D03*
%TO.P,U1,4,V+*%
%TO.N,/3V3*%
X140302500Y-103032500D03*
%TO.P,U1,5,+*%
%TO.N,Net-(U1B-+)*%
X141572500Y-103032500D03*
%TO.P,U1,6,-*%
%TO.N,/PA7*%
X142842500Y-103032500D03*
%TO.P,U1,7*%
X144112500Y-103032500D03*
%TO.P,U1,8*%
%TO.N,/PA6*%
X144112500Y-98082500D03*
%TO.P,U1,9,-*%
X142842500Y-98082500D03*
%TO.P,U1,10,+*%
%TO.N,Net-(U1C-+)*%
X141572500Y-98082500D03*
%TO.P,U1,11,V-*%
%TO.N,GND*%
X140302500Y-98082500D03*
%TO.P,U1,12,+*%
%TO.N,unconnected-(U1D-+-Pad12)*%
X139032500Y-98082500D03*
%TO.P,U1,13,-*%
%TO.N,unconnected-(U1D---Pad13)*%
X137762500Y-98082500D03*
%TO.P,U1,14*%
%TO.N,unconnected-(U1-Pad14)*%
X136492500Y-98082500D03*
%TD*%
D27*
%TO.P,D2,1,K*%
%TO.N,Net-(D2-K)*%
X119881460Y-91113693D03*
D15*
%TO.P,D2,2,A*%
%TO.N,/3V3*%
X118085409Y-92909744D03*
%TD*%
D20*
%TO.P,TP2,1,1*%
%TO.N,Net-(U1A-+)*%
X130250000Y-94500000D03*
%TD*%
D10*
%TO.P,J6,1,Pin_1*%
%TO.N,Net-(J5-Pin_2)*%
X117750000Y-99500000D03*
%TD*%
D28*
%TO.P,D3,1,K*%
%TO.N,Net-(D3-K)*%
X140750000Y-85825000D03*
D15*
%TO.P,D3,2,A*%
%TO.N,/3V3*%
X138210000Y-85825000D03*
%TD*%
D29*
%TO.P,U3,1,OUT*%
%TO.N,Net-(U1B-+)*%
X156071267Y-99520836D03*
D15*
%TO.P,U3,2,GND*%
%TO.N,GND*%
X154275216Y-97724785D03*
%TO.P,U3,3,Vs*%
%TO.N,/3V3*%
X152479165Y-95928734D03*
%TD*%
D10*
%TO.P,J16,1,Pin_1*%
%TO.N,Net-(J12-Pin_2)*%
X164250000Y-100500000D03*
D11*
%TO.P,J16,2,Pin_2*%
%TO.N,/3V3*%
X164250000Y-97960000D03*
%TD*%
D10*
%TO.P,J17,1,Pin_1*%
%TO.N,Net-(J13-Pin_2)*%
X149025000Y-77000000D03*
D11*
%TO.P,J17,2,Pin_2*%
%TO.N,/3V3*%
X146485000Y-77000000D03*
%TD*%
D21*
%TO.P,R2,1*%
%TO.N,Net-(J2-Pin_2)*%
X126500000Y-90162500D03*
%TO.P,R2,2*%
%TO.N,Net-(D2-K)*%
X126500000Y-88337500D03*
%TD*%
D30*
%TO.N,Net-(D1-K)*%
X162490564Y-104009436D03*
X161750000Y-96250000D03*
%TO.N,/3V3*%
X160000000Y-107750000D03*
X159994314Y-110755686D03*
%TO.N,GND*%
X123515686Y-97015686D03*
X152750000Y-88250000D03*
X118000000Y-102750000D03*
%TO.N,Net-(J9-Pin_2)*%
X164500000Y-106250000D03*
X165000000Y-104250000D03*
%TO.N,/PC4*%
X133250000Y-104250000D03*
%TO.N,/PA6*%
X145500000Y-99250000D03*
%TO.N,Net-(J11-Pin_2)*%
X153750000Y-84500000D03*
X154500000Y-82398959D03*
%TO.N,/PE15*%
X148500000Y-97500000D03*
X139250000Y-111550000D03*
X162000000Y-101500000D03*
%TO.N,Net-(J13-Pin_2)*%
X144250000Y-85750000D03*
X143000000Y-81750000D03*
%TO.N,Net-(U1A-+)*%
X131981103Y-98231103D03*
X133000000Y-101250000D03*
%TO.N,Net-(U1B-+)*%
X150082107Y-102167893D03*
X148000000Y-103000000D03*
%TD*%
D31*
%TO.N,Net-(D1-K)*%
X161750000Y-96250000D02*
X161386307Y-95886307D01*
X162500000Y-105037500D02*
X162500000Y-104018872D01*
X161386307Y-95886307D02*
X161386307Y-92381460D01*
X162500000Y-104018872D02*
X162490564Y-104009436D01*
D32*
%TO.N,/3V3*%
X157485000Y-97735000D02*
X164000000Y-97735000D01*
X111470000Y-98530000D02*
X111470000Y-100000000D01*
X141550000Y-111500000D02*
X158750000Y-111500000D01*
X140302500Y-101697500D02*
X140302500Y-103032500D01*
X155678734Y-95928734D02*
X157485000Y-97735000D01*
X132742926Y-84992926D02*
X134500000Y-86750000D01*
X134500000Y-92065000D02*
X134500000Y-86750000D01*
X135425000Y-85825000D02*
X138210000Y-85825000D01*
X148000000Y-100750000D02*
X147250000Y-100750000D01*
X138311041Y-83398959D02*
X138210000Y-83500000D01*
X153164591Y-90585409D02*
X159590256Y-90585409D01*
X130964164Y-100520836D02*
X136960000Y-94525000D01*
X123600000Y-106250000D02*
X123600000Y-100752102D01*
X114000000Y-97000000D02*
X112500000Y-98500000D01*
X138840000Y-108790000D02*
X141550000Y-111500000D01*
X159590256Y-90134744D02*
X159590256Y-90585409D01*
X141275000Y-77000000D02*
X141025000Y-76750000D01*
X138210000Y-85825000D02*
X138210000Y-83500000D01*
X165123959Y-83398959D02*
X138311041Y-83398959D01*
X148000000Y-101358579D02*
X148000000Y-100750000D01*
X138210000Y-83500000D02*
X138210000Y-79565000D01*
X165725000Y-84000000D02*
X165123959Y-83398959D01*
X146485000Y-77000000D02*
X141275000Y-77000000D01*
X152479165Y-96270835D02*
X148000000Y-100750000D01*
X152479165Y-91270835D02*
X153164591Y-90585409D01*
X111500000Y-98500000D02*
X111470000Y-98530000D01*
X155735786Y-103485786D02*
X150127207Y-103485786D01*
X158750000Y-111500000D02*
X159250000Y-111500000D01*
X134500000Y-86750000D02*
X135425000Y-85825000D01*
X114000000Y-96945153D02*
X114000000Y-97000000D01*
X118035409Y-92909744D02*
X114000000Y-96945153D01*
X123600000Y-100752102D02*
X123368734Y-100520836D01*
X141250000Y-100750000D02*
X140302500Y-101697500D01*
X147250000Y-100750000D02*
X141250000Y-100750000D01*
X112500000Y-98500000D02*
X111500000Y-98500000D01*
X159994314Y-111005686D02*
X159994314Y-110755686D01*
X165725000Y-84000000D02*
X159590256Y-90134744D01*
X136960000Y-94525000D02*
X134500000Y-92065000D01*
X152479165Y-95928734D02*
X152479165Y-91270835D01*
X113401562Y-84992926D02*
X113401562Y-88275897D01*
X159250000Y-111500000D02*
X159500000Y-111500000D01*
X152479165Y-95928734D02*
X155678734Y-95928734D01*
X113401562Y-88275897D02*
X118035409Y-92909744D01*
X113401562Y-84992926D02*
X132742926Y-84992926D01*
X152479165Y-95928734D02*
X152479165Y-96270835D01*
X150127207Y-103485786D02*
X148000000Y-101358579D01*
X159500000Y-111500000D02*
X159994314Y-111005686D01*
X138210000Y-79565000D02*
X141025000Y-76750000D01*
X160000000Y-107750000D02*
X155735786Y-103485786D01*
X123368734Y-100520836D02*
X130964164Y-100520836D01*
D31*
%TO.N,Net-(D3-K)*%
X145475000Y-84437500D02*
X146037500Y-85000000D01*
X140750000Y-85825000D02*
X142137500Y-84437500D01*
X142137500Y-84437500D02*
X145475000Y-84437500D01*
%TO.N,Net-(Q1-B)*%
X117750000Y-106500000D02*
X117750000Y-105037500D01*
X115050000Y-104937500D02*
X116612500Y-106500000D01*
X117750000Y-105037500D02*
X120000000Y-102787500D01*
X116612500Y-106500000D02*
X117750000Y-106500000D01*
%TO.N,GND*%
X116950000Y-103800000D02*
X118000000Y-102750000D01*
X149450000Y-89875000D02*
X151075000Y-88250000D01*
X167950000Y-106437500D02*
X167950000Y-109300000D01*
X116950000Y-104937500D02*
X116950000Y-103800000D01*
X125164785Y-98664785D02*
X123515686Y-97015686D01*
X166250000Y-111000000D02*
X161370000Y-111000000D01*
X167950000Y-109300000D02*
X166250000Y-111000000D01*
X141380000Y-106250000D02*
X143920000Y-108790000D01*
X125164785Y-98724785D02*
X125164785Y-98664785D01*
X161370000Y-111000000D02*
X156620000Y-106250000D01*
X151075000Y-88250000D02*
X152750000Y-88250000D01*
%TO.N,Net-(Q2-B)*%
X160562500Y-102362500D02*
X161975000Y-102362500D01*
X161975000Y-102362500D02*
X166050000Y-106437500D01*
X160000000Y-102925000D02*
X160562500Y-102362500D01*
%TO.N,Net-(J9-Pin_2)*%
X167000000Y-103250000D02*
X167000000Y-104562500D01*
X166000000Y-102250000D02*
X167000000Y-103250000D01*
X162787500Y-107962500D02*
X164500000Y-106250000D01*
X165000000Y-104250000D02*
X166687500Y-104250000D01*
X162500000Y-107962500D02*
X162787500Y-107962500D01*
X168000000Y-97735000D02*
X168000000Y-95000000D01*
X166687500Y-104250000D02*
X167000000Y-104562500D01*
X168000000Y-95000000D02*
X169000000Y-94000000D01*
X168000000Y-97735000D02*
X166000000Y-99735000D01*
X166000000Y-99735000D02*
X166000000Y-102250000D01*
%TO.N,Net-(Q3-B)*%
X149250000Y-91575000D02*
X147550000Y-89875000D01*
X149250000Y-92500000D02*
X149250000Y-91575000D01*
%TO.N,/PA7*%
X144112500Y-103032500D02*
X145260000Y-104180000D01*
X142842500Y-103032500D02*
X144112500Y-103032500D01*
X145260000Y-107590000D02*
X146460000Y-108790000D01*
X145260000Y-104180000D02*
X145260000Y-107590000D01*
%TO.N,/PC4*%
X136492500Y-103032500D02*
X133782500Y-103032500D01*
X137762500Y-103032500D02*
X136492500Y-103032500D01*
X133250000Y-103500000D02*
X133250000Y-104250000D01*
X133782500Y-103032500D02*
X133750000Y-103000000D01*
X133750000Y-103000000D02*
X133250000Y-103500000D01*
%TO.N,/PA6*%
X142842500Y-98082500D02*
X144112500Y-98082500D01*
X145500000Y-99250000D02*
X145280000Y-99250000D01*
X145280000Y-99250000D02*
X144112500Y-98082500D01*
%TO.N,Net-(J1-Pin_2)*%
X109650000Y-88744488D02*
X111605511Y-86788977D01*
X109675000Y-107275000D02*
X109650000Y-107250000D01*
X111275000Y-107275000D02*
X109675000Y-107275000D01*
X109650000Y-107250000D02*
X109650000Y-88744488D01*
%TO.N,Net-(J2-Pin_2)*%
X116337500Y-103062500D02*
X116000000Y-103062500D01*
X120250000Y-99150000D02*
X126500000Y-92900000D01*
X112947500Y-103062500D02*
X111275000Y-104735000D01*
X126500000Y-90712500D02*
X126500000Y-92900000D01*
X117900000Y-101500000D02*
X120250000Y-101500000D01*
X120250000Y-101500000D02*
X120250000Y-99150000D01*
X116337500Y-103062500D02*
X117900000Y-101500000D01*
X116500000Y-107750000D02*
X114290000Y-107750000D01*
X114290000Y-107750000D02*
X111275000Y-104735000D01*
X116000000Y-103062500D02*
X112947500Y-103062500D01*
%TO.N,Net-(J11-Pin_2)*%
X148500000Y-88000000D02*
X148500000Y-85462500D01*
X154500000Y-80750000D02*
X154500000Y-82398959D01*
X148500000Y-85462500D02*
X148962500Y-85000000D01*
X148515000Y-80750000D02*
X154500000Y-80750000D01*
X153250000Y-85000000D02*
X148962500Y-85000000D01*
X153750000Y-84500000D02*
X153250000Y-85000000D01*
%TO.N,/BATT*%
X123600000Y-108790000D02*
X124800000Y-107590000D01*
X137500000Y-107590000D02*
X138840000Y-106250000D01*
X124800000Y-107590000D02*
X137500000Y-107590000D01*
%TO.N,/PE15*%
X161500000Y-101500000D02*
X160000000Y-100000000D01*
X121250000Y-110750000D02*
X124180000Y-110750000D01*
X126140000Y-108790000D02*
X128900000Y-111550000D01*
X149250000Y-95425000D02*
X148500000Y-96175000D01*
X162000000Y-101500000D02*
X161500000Y-101500000D01*
X120000000Y-105712500D02*
X120000000Y-109500000D01*
X128900000Y-111550000D02*
X139250000Y-111550000D01*
X124180000Y-110750000D02*
X126140000Y-108790000D01*
X120000000Y-109500000D02*
X121250000Y-110750000D01*
X148500000Y-96175000D02*
X148500000Y-97500000D01*
D32*
%TO.N,Net-(J5-Pin_2)*%
X114010000Y-100000000D02*
X117000000Y-100000000D01*
X118000000Y-99000000D02*
X118000000Y-97449999D01*
X118000000Y-97449999D02*
X120255511Y-95194488D01*
X117000000Y-100000000D02*
X118000000Y-99000000D01*
D33*
%TO.N,Net-(J10-Pin_2)*%
X138210000Y-77015000D02*
X138475000Y-76750000D01*
D31*
%TO.N,Net-(J13-Pin_2)*%
X148750000Y-79000000D02*
X149025000Y-78725000D01*
X144250000Y-89000000D02*
X140515000Y-89000000D01*
X149025000Y-78725000D02*
X149025000Y-77000000D01*
X145325000Y-79000000D02*
X148750000Y-79000000D01*
X143000000Y-81750000D02*
X143000000Y-81325000D01*
X143000000Y-81325000D02*
X145325000Y-79000000D01*
X144250000Y-89000000D02*
X144250000Y-85648959D01*
%TO.N,Net-(U1A-+)*%
X130250000Y-94500000D02*
X130250000Y-96500000D01*
X139032500Y-102616238D02*
X139032500Y-103032500D01*
X129389570Y-94500000D02*
X130250000Y-94500000D01*
X137666262Y-101250000D02*
X139032500Y-102616238D01*
X133000000Y-101250000D02*
X137666262Y-101250000D01*
X130250000Y-96500000D02*
X131981103Y-98231103D01*
X126960836Y-96928734D02*
X129389570Y-94500000D01*
%TO.N,Net-(U1B-+)*%
X156071267Y-99520836D02*
X152729164Y-99520836D01*
X156071267Y-99520836D02*
X156071267Y-102321267D01*
X141572500Y-102127500D02*
X141572500Y-103032500D01*
X156071267Y-102321267D02*
X156750000Y-103000000D01*
X152729164Y-99520836D02*
X150082107Y-102167893D01*
X142250000Y-101450000D02*
X141572500Y-102127500D01*
X148000000Y-103000000D02*
X146450000Y-101450000D01*
X146450000Y-101450000D02*
X142250000Y-101450000D01*
%TO.N,Net-(U1C-+)*%
X142040000Y-94525000D02*
X145475000Y-94525000D01*
X142040000Y-97615000D02*
X141572500Y-98082500D01*
X145475000Y-94525000D02*
X146000000Y-94000000D01*
X142040000Y-94525000D02*
X142040000Y-97615000D01*
%TO.N,Net-(D2-K)*%
X119831460Y-91113693D02*
X123173807Y-91113693D01*
X123173807Y-91113693D02*
X126500000Y-87787500D01*
%TD*%
%TA.AperFunction,Conductor*%
%TO.N,GND*%
G36*
X169690653Y-94834797D02*
G01*
X169737350Y-94886770D01*
X169749500Y-94940301D01*
X169749500Y-111875500D01*
X169729815Y-111942539D01*
X169677011Y-111988294D01*
X169625500Y-111999500D01*
X160361229Y-111999500D01*
X160294190Y-111979815D01*
X160248435Y-111927011D01*
X160238491Y-111857853D01*
X160267516Y-111794297D01*
X160273533Y-111787833D01*
X160483162Y-111578203D01*
X160512385Y-111556531D01*
X160524939Y-111549822D01*
X160669671Y-111431043D01*
X160788450Y-111286311D01*
X160876710Y-111121187D01*
X160931061Y-110942017D01*
X160949413Y-110755686D01*
X160931061Y-110569355D01*
X160876710Y-110390185D01*
X160876709Y-110390183D01*
X160788451Y-110225062D01*
X160788449Y-110225059D01*
X160669671Y-110080328D01*
X160524940Y-109961550D01*
X160524937Y-109961548D01*
X160359816Y-109873290D01*
X160180647Y-109818939D01*
X160180645Y-109818938D01*
X159994314Y-109800587D01*
X159807982Y-109818938D01*
X159807980Y-109818939D01*
X159628811Y-109873290D01*
X159463690Y-109961548D01*
X159463687Y-109961550D01*
X159318956Y-110080328D01*
X159200178Y-110225059D01*
X159200176Y-110225062D01*
X159111918Y-110390183D01*
X159057567Y-110569352D01*
X159057566Y-110569354D01*
X159050840Y-110637654D01*
X159024679Y-110702441D01*
X158967645Y-110742800D01*
X158927437Y-110749500D01*
X141912230Y-110749500D01*
X141845191Y-110729815D01*
X141824549Y-110713181D01*
X141454952Y-110343584D01*
X141421467Y-110282261D01*
X141426451Y-110212569D01*
X141468323Y-110156636D01*
X141531823Y-110132375D01*
X141615408Y-110125063D01*
X141843663Y-110063903D01*
X142057830Y-109964035D01*
X142251401Y-109828495D01*
X142418495Y-109661401D01*
X142548730Y-109475405D01*
X142603307Y-109431781D01*
X142672805Y-109424587D01*
X142735160Y-109456110D01*
X142751879Y-109475405D01*
X142881890Y-109661078D01*
X143048921Y-109828109D01*
X143070000Y-109842868D01*
X143070000Y-108855826D01*
X143420000Y-108855826D01*
X143454075Y-108982993D01*
X143519901Y-109097007D01*
X143612993Y-109190099D01*
X143727007Y-109255925D01*
X143854174Y-109290000D01*
X143985826Y-109290000D01*
X144112993Y-109255925D01*
X144227007Y-109190099D01*
X144320099Y-109097007D01*
X144385925Y-108982993D01*
X144420000Y-108855826D01*
X144420000Y-108724174D01*
X144385925Y-108597007D01*
X144320099Y-108482993D01*
X144227007Y-108389901D01*
X144112993Y-108324075D01*
X143985826Y-108290000D01*
X143854174Y-108290000D01*
X143727007Y-108324075D01*
X143612993Y-108389901D01*
X143519901Y-108482993D01*
X143454075Y-108597007D01*
X143420000Y-108724174D01*
X143420000Y-108855826D01*
X143070000Y-108855826D01*
X143070000Y-108064000D01*
X143089685Y-107996961D01*
X143142489Y-107951206D01*
X143194000Y-107940000D01*
X144645234Y-107940000D01*
X144712273Y-107959685D01*
X144748350Y-107995131D01*
X144749119Y-107996282D01*
X144769981Y-108062964D01*
X144770000Y-108065147D01*
X144770000Y-109842868D01*
X144791078Y-109828109D01*
X144958105Y-109661082D01*
X145088119Y-109475405D01*
X145142696Y-109431781D01*
X145212195Y-109424588D01*
X145274549Y-109456110D01*
X145291269Y-109475405D01*
X145421505Y-109661401D01*
X145588599Y-109828495D01*
X145609126Y-109842868D01*
X145782165Y-109964032D01*
X145782167Y-109964033D01*
X145782170Y-109964035D01*
X145996337Y-110063903D01*
X146224592Y-110125063D01*
X146412918Y-110141539D01*
X146459999Y-110145659D01*
X146460000Y-110145659D01*
X146460001Y-110145659D01*
X146499234Y-110142226D01*
X146695408Y-110125063D01*
X146923663Y-110063903D01*
X147137830Y-109964035D01*
X147331401Y-109828495D01*
X147498495Y-109661401D01*
X147628425Y-109475842D01*
X147683002Y-109432217D01*
X147752500Y-109425023D01*
X147814855Y-109456546D01*
X147831575Y-109475842D01*
X147961500Y-109661395D01*
X147961505Y-109661401D01*
X148128599Y-109828495D01*
X148149126Y-109842868D01*
X148322165Y-109964032D01*
X148322167Y-109964033D01*
X148322170Y-109964035D01*
X148536337Y-110063903D01*
X148764592Y-110125063D01*
X148952918Y-110141539D01*
X148999999Y-110145659D01*
X149000000Y-110145659D01*
X149000001Y-110145659D01*
X149039234Y-110142226D01*
X149235408Y-110125063D01*
X149463663Y-110063903D01*
X149677830Y-109964035D01*
X149871401Y-109828495D01*
X150038495Y-109661401D01*
X150168730Y-109475405D01*
X150223307Y-109431781D01*
X150292805Y-109424587D01*
X150355160Y-109456110D01*
X150371879Y-109475405D01*
X150501890Y-109661078D01*
X150668921Y-109828109D01*
X150690000Y-109842868D01*
X150690000Y-108855826D01*
X151040000Y-108855826D01*
X151074075Y-108982993D01*
X151139901Y-109097007D01*
X151232993Y-109190099D01*
X151347007Y-109255925D01*
X151474174Y-109290000D01*
X151605826Y-109290000D01*
X151732993Y-109255925D01*
X151847007Y-109190099D01*
X151940099Y-109097007D01*
X152005925Y-108982993D01*
X152040000Y-108855826D01*
X152040000Y-108724174D01*
X152005925Y-108597007D01*
X151940099Y-108482993D01*
X151847007Y-108389901D01*
X151732993Y-108324075D01*
X151605826Y-108290000D01*
X151474174Y-108290000D01*
X151347007Y-108324075D01*
X151232993Y-108389901D01*
X151139901Y-108482993D01*
X151074075Y-108597007D01*
X151040000Y-108724174D01*
X151040000Y-108855826D01*
X150690000Y-108855826D01*
X150690000Y-108064000D01*
X150709685Y-107996961D01*
X150762489Y-107951206D01*
X150814000Y-107940000D01*
X152266000Y-107940000D01*
X152333039Y-107959685D01*
X152378794Y-108012489D01*
X152390000Y-108064000D01*
X152390000Y-109842868D01*
X152411078Y-109828109D01*
X152578105Y-109661082D01*
X152708119Y-109475405D01*
X152762696Y-109431781D01*
X152832195Y-109424588D01*
X152894549Y-109456110D01*
X152911269Y-109475405D01*
X153041505Y-109661401D01*
X153208599Y-109828495D01*
X153229126Y-109842868D01*
X153402165Y-109964032D01*
X153402167Y-109964033D01*
X153402170Y-109964035D01*
X153616337Y-110063903D01*
X153844592Y-110125063D01*
X154032918Y-110141539D01*
X154079999Y-110145659D01*
X154080000Y-110145659D01*
X154080001Y-110145659D01*
X154119234Y-110142226D01*
X154315408Y-110125063D01*
X154543663Y-110063903D01*
X154757830Y-109964035D01*
X154951401Y-109828495D01*
X155118495Y-109661401D01*
X155248425Y-109475842D01*
X155303002Y-109432217D01*
X155372500Y-109425023D01*
X155434855Y-109456546D01*
X155451575Y-109475842D01*
X155581500Y-109661395D01*
X155581505Y-109661401D01*
X155748599Y-109828495D01*
X155769126Y-109842868D01*
X155942165Y-109964032D01*
X155942167Y-109964033D01*
X155942170Y-109964035D01*
X156156337Y-110063903D01*
X156384592Y-110125063D01*
X156572918Y-110141539D01*
X156619999Y-110145659D01*
X156620000Y-110145659D01*
X156620001Y-110145659D01*
X156659234Y-110142226D01*
X156855408Y-110125063D01*
X157083663Y-110063903D01*
X157297830Y-109964035D01*
X157491401Y-109828495D01*
X157658495Y-109661401D01*
X157794035Y-109467830D01*
X157893903Y-109253663D01*
X157955063Y-109025408D01*
X157975659Y-108790000D01*
X157955063Y-108554592D01*
X157902873Y-108359814D01*
X157893905Y-108326344D01*
X157893904Y-108326343D01*
X157893903Y-108326337D01*
X157794035Y-108112171D01*
X157788731Y-108104595D01*
X157658494Y-107918597D01*
X157491402Y-107751506D01*
X157491401Y-107751505D01*
X157312563Y-107626281D01*
X157305405Y-107621269D01*
X157261781Y-107566692D01*
X157254588Y-107497193D01*
X157286110Y-107434839D01*
X157305405Y-107418119D01*
X157491082Y-107288105D01*
X157658105Y-107121082D01*
X157793599Y-106927578D01*
X157821352Y-106868062D01*
X157867524Y-106815622D01*
X157934717Y-106796469D01*
X158001599Y-106816684D01*
X158021416Y-106832784D01*
X159025137Y-107836505D01*
X159058622Y-107897828D01*
X159060859Y-107912030D01*
X159063252Y-107936328D01*
X159063254Y-107936336D01*
X159117604Y-108115502D01*
X159205862Y-108280623D01*
X159205864Y-108280626D01*
X159324642Y-108425357D01*
X159469373Y-108544135D01*
X159469376Y-108544137D01*
X159621597Y-108625500D01*
X159634499Y-108632396D01*
X159787508Y-108678811D01*
X159813666Y-108686746D01*
X159813668Y-108686747D01*
X159830374Y-108688392D01*
X160000000Y-108705099D01*
X160186331Y-108686747D01*
X160365501Y-108632396D01*
X160530625Y-108544136D01*
X160675357Y-108425357D01*
X160794136Y-108280625D01*
X160882396Y-108115501D01*
X160936747Y-107936331D01*
X160955099Y-107750000D01*
X160936747Y-107563669D01*
X160882396Y-107384499D01*
X160872120Y-107365273D01*
X160794137Y-107219376D01*
X160794135Y-107219373D01*
X160675357Y-107074642D01*
X160530626Y-106955864D01*
X160530623Y-106955862D01*
X160365502Y-106867604D01*
X160186336Y-106813254D01*
X160186328Y-106813252D01*
X160162030Y-106810859D01*
X160097243Y-106784697D01*
X160086505Y-106775137D01*
X157316708Y-104005340D01*
X157283223Y-103944017D01*
X157288207Y-103874325D01*
X157325724Y-103821806D01*
X157460883Y-103710883D01*
X157507241Y-103654396D01*
X157585910Y-103558538D01*
X157647898Y-103442567D01*
X157678811Y-103384733D01*
X157678811Y-103384732D01*
X157678814Y-103384727D01*
X157736024Y-103196132D01*
X157755341Y-103000000D01*
X157736024Y-102803868D01*
X157678814Y-102615273D01*
X157678811Y-102615269D01*
X157678811Y-102615266D01*
X157585913Y-102441467D01*
X157585909Y-102441460D01*
X157460883Y-102289116D01*
X157308539Y-102164090D01*
X157308532Y-102164086D01*
X157134733Y-102071188D01*
X157134727Y-102071186D01*
X157001016Y-102030625D01*
X156946129Y-102013975D01*
X156833613Y-102002894D01*
X156768826Y-101976733D01*
X156728467Y-101919699D01*
X156721767Y-101879491D01*
X156721767Y-100902304D01*
X156741452Y-100835265D01*
X156758086Y-100814623D01*
X157556417Y-100016292D01*
X157556422Y-100016287D01*
X157621693Y-99936161D01*
X157700453Y-99779338D01*
X157739283Y-99615504D01*
X157740924Y-99608581D01*
X157740924Y-99433090D01*
X157700453Y-99262335D01*
X157700453Y-99262334D01*
X157621693Y-99105511D01*
X157556422Y-99025385D01*
X157556421Y-99025384D01*
X157556417Y-99025379D01*
X157207617Y-98676579D01*
X157174132Y-98615256D01*
X157179116Y-98545564D01*
X157220988Y-98489631D01*
X157286452Y-98465214D01*
X157319490Y-98467281D01*
X157411079Y-98485500D01*
X157411082Y-98485500D01*
X157411083Y-98485500D01*
X157558917Y-98485500D01*
X162925935Y-98485500D01*
X162992974Y-98505185D01*
X163038317Y-98557095D01*
X163075964Y-98637829D01*
X163075965Y-98637831D01*
X163159115Y-98756580D01*
X163211501Y-98831396D01*
X163211506Y-98831402D01*
X163333430Y-98953326D01*
X163366915Y-99014649D01*
X163361931Y-99084341D01*
X163320059Y-99140274D01*
X163289083Y-99157189D01*
X163157669Y-99206203D01*
X163157664Y-99206206D01*
X163042455Y-99292452D01*
X163042452Y-99292455D01*
X162956206Y-99407664D01*
X162956202Y-99407671D01*
X162905908Y-99542517D01*
X162899501Y-99602116D01*
X162899500Y-99602135D01*
X162899500Y-100751204D01*
X162879815Y-100818243D01*
X162827011Y-100863998D01*
X162757853Y-100873942D01*
X162694297Y-100844917D01*
X162679649Y-100829872D01*
X162675356Y-100824642D01*
X162530626Y-100705864D01*
X162530623Y-100705862D01*
X162365502Y-100617604D01*
X162186333Y-100563253D01*
X162186331Y-100563252D01*
X162000000Y-100544901D01*
X161813672Y-100563252D01*
X161813669Y-100563253D01*
X161634499Y-100617604D01*
X161634496Y-100617605D01*
X161631237Y-100618594D01*
X161561370Y-100619217D01*
X161507560Y-100587614D01*
X161236542Y-100316596D01*
X161203057Y-100255273D01*
X161201100Y-100240603D01*
X161200820Y-100240632D01*
X161189999Y-100134703D01*
X161189998Y-100134700D01*
X161166748Y-100064536D01*
X161134814Y-99968166D01*
X161042712Y-99818844D01*
X160918656Y-99694788D01*
X160825888Y-99637569D01*
X160769336Y-99602687D01*
X160769331Y-99602685D01*
X160715261Y-99584768D01*
X160602797Y-99547501D01*
X160602795Y-99547500D01*
X160496868Y-99536679D01*
X160497008Y-99535301D01*
X160436232Y-99513978D01*
X160420903Y-99500956D01*
X160414673Y-99494726D01*
X160402995Y-99486923D01*
X160308127Y-99423535D01*
X160306519Y-99422869D01*
X160189744Y-99374499D01*
X160189736Y-99374497D01*
X160064073Y-99349501D01*
X160064069Y-99349501D01*
X159935931Y-99349501D01*
X159935926Y-99349501D01*
X159810263Y-99374497D01*
X159810255Y-99374499D01*
X159691874Y-99423534D01*
X159585326Y-99494726D01*
X159585322Y-99494729D01*
X159579091Y-99500961D01*
X159517766Y-99534443D01*
X159503103Y-99536405D01*
X159503132Y-99536680D01*
X159397202Y-99547501D01*
X159397200Y-99547501D01*
X159230668Y-99602685D01*
X159230663Y-99602687D01*
X159081342Y-99694789D01*
X158957289Y-99818842D01*
X158865187Y-99968163D01*
X158865185Y-99968168D01*
X158845246Y-100028340D01*
X158810001Y-100134703D01*
X158810001Y-100134704D01*
X158810000Y-100134704D01*
X158799500Y-100237483D01*
X158799500Y-100862501D01*
X158799501Y-100862519D01*
X158810000Y-100965296D01*
X158810001Y-100965299D01*
X158834256Y-101038495D01*
X158865186Y-101131834D01*
X158952814Y-101273903D01*
X158957289Y-101281157D01*
X159050951Y-101374819D01*
X159084436Y-101436142D01*
X159079452Y-101505834D01*
X159050951Y-101550181D01*
X158957289Y-101643842D01*
X158865187Y-101793163D01*
X158865185Y-101793168D01*
X158841215Y-101865505D01*
X158810001Y-101959703D01*
X158810001Y-101959704D01*
X158810000Y-101959704D01*
X158799500Y-102062483D01*
X158799500Y-102687501D01*
X158799501Y-102687519D01*
X158810000Y-102790296D01*
X158810001Y-102790299D01*
X158842393Y-102888049D01*
X158865186Y-102956834D01*
X158957288Y-103106156D01*
X159081344Y-103230212D01*
X159230666Y-103322314D01*
X159397203Y-103377499D01*
X159499991Y-103388000D01*
X159503133Y-103388321D01*
X159502989Y-103389729D01*
X159563665Y-103410948D01*
X159579096Y-103424043D01*
X159585326Y-103430273D01*
X159585329Y-103430275D01*
X159585331Y-103430277D01*
X159691873Y-103501465D01*
X159810256Y-103550501D01*
X159931628Y-103574643D01*
X159935926Y-103575498D01*
X159935930Y-103575499D01*
X159935931Y-103575499D01*
X160064070Y-103575499D01*
X160064071Y-103575498D01*
X160189744Y-103550501D01*
X160308127Y-103501465D01*
X160414669Y-103430277D01*
X160420900Y-103424044D01*
X160482220Y-103390558D01*
X160496896Y-103388601D01*
X160496868Y-103388320D01*
X160571700Y-103380675D01*
X160602797Y-103377499D01*
X160769334Y-103322314D01*
X160918656Y-103230212D01*
X161042712Y-103106156D01*
X161063839Y-103071902D01*
X161115787Y-103025179D01*
X161169378Y-103013000D01*
X161654192Y-103013000D01*
X161721231Y-103032685D01*
X161741873Y-103049319D01*
X161834590Y-103142036D01*
X161868075Y-103203359D01*
X161863091Y-103273051D01*
X161825579Y-103325566D01*
X161815205Y-103334080D01*
X161696428Y-103478809D01*
X161696426Y-103478812D01*
X161608168Y-103643933D01*
X161553817Y-103823102D01*
X161553816Y-103823104D01*
X161535465Y-104009436D01*
X161553816Y-104195767D01*
X161553817Y-104195769D01*
X161607577Y-104372989D01*
X161608168Y-104374937D01*
X161664517Y-104480359D01*
X161690218Y-104528443D01*
X161704459Y-104596846D01*
X161679459Y-104662090D01*
X161645956Y-104692434D01*
X161581347Y-104732285D01*
X161581343Y-104732288D01*
X161457289Y-104856342D01*
X161365187Y-105005663D01*
X161365185Y-105005668D01*
X161341747Y-105076401D01*
X161310001Y-105172203D01*
X161310001Y-105172204D01*
X161310000Y-105172204D01*
X161299500Y-105274983D01*
X161299500Y-105900001D01*
X161299501Y-105900019D01*
X161310000Y-106002796D01*
X161310001Y-106002799D01*
X161365185Y-106169331D01*
X161365187Y-106169336D01*
X161376391Y-106187500D01*
X161455542Y-106315826D01*
X161457289Y-106318657D01*
X161550951Y-106412319D01*
X161584436Y-106473642D01*
X161579452Y-106543334D01*
X161550951Y-106587681D01*
X161457289Y-106681342D01*
X161365187Y-106830663D01*
X161365185Y-106830668D01*
X161356608Y-106856552D01*
X161310001Y-106997203D01*
X161310001Y-106997204D01*
X161310000Y-106997204D01*
X161299500Y-107099983D01*
X161299500Y-107725001D01*
X161299501Y-107725019D01*
X161310000Y-107827796D01*
X161310001Y-107827799D01*
X161365185Y-107994331D01*
X161365187Y-107994336D01*
X161376384Y-108012489D01*
X161457288Y-108143656D01*
X161581344Y-108267712D01*
X161730666Y-108359814D01*
X161897203Y-108414999D01*
X161999991Y-108425500D01*
X162003133Y-108425821D01*
X162002988Y-108427231D01*
X162063661Y-108448443D01*
X162079097Y-108461543D01*
X162085327Y-108467773D01*
X162085331Y-108467776D01*
X162191866Y-108538961D01*
X162191872Y-108538964D01*
X162191873Y-108538965D01*
X162310256Y-108588001D01*
X162310260Y-108588001D01*
X162310261Y-108588002D01*
X162435928Y-108613000D01*
X162435931Y-108613000D01*
X162851571Y-108613000D01*
X162936115Y-108596182D01*
X162977244Y-108588001D01*
X163009179Y-108574772D01*
X163095622Y-108538968D01*
X163095625Y-108538965D01*
X163095627Y-108538965D01*
X163101010Y-108535368D01*
X163202169Y-108467777D01*
X163365553Y-108304391D01*
X163388132Y-108286538D01*
X163418656Y-108267712D01*
X163542712Y-108143656D01*
X163561538Y-108113132D01*
X163579391Y-108090553D01*
X164429634Y-107240310D01*
X164490955Y-107206827D01*
X164505146Y-107204592D01*
X164686331Y-107186747D01*
X164865501Y-107132396D01*
X165030625Y-107044136D01*
X165049134Y-107028946D01*
X165113443Y-107001632D01*
X165182311Y-107013422D01*
X165233872Y-107060573D01*
X165251418Y-107115068D01*
X165252401Y-107127568D01*
X165252402Y-107127573D01*
X165298253Y-107285390D01*
X165298255Y-107285396D01*
X165298256Y-107285398D01*
X165326380Y-107332954D01*
X165381917Y-107426862D01*
X165381923Y-107426870D01*
X165498129Y-107543076D01*
X165498133Y-107543079D01*
X165498135Y-107543081D01*
X165639602Y-107626744D01*
X165666921Y-107634681D01*
X165797426Y-107672597D01*
X165797429Y-107672597D01*
X165797431Y-107672598D01*
X165834306Y-107675500D01*
X165834314Y-107675500D01*
X166265686Y-107675500D01*
X166265694Y-107675500D01*
X166302569Y-107672598D01*
X166302571Y-107672597D01*
X166302573Y-107672597D01*
X166344191Y-107660505D01*
X166460398Y-107626744D01*
X166601865Y-107543081D01*
X166718081Y-107426865D01*
X166801744Y-107285398D01*
X166801745Y-107285393D01*
X166801747Y-107285390D01*
X166847597Y-107127573D01*
X166847598Y-107127567D01*
X166847604Y-107127489D01*
X166850500Y-107090694D01*
X166850500Y-106687500D01*
X167150000Y-106687500D01*
X167150000Y-107090649D01*
X167152899Y-107127489D01*
X167152900Y-107127495D01*
X167198716Y-107285193D01*
X167198717Y-107285196D01*
X167282314Y-107426552D01*
X167282321Y-107426561D01*
X167398438Y-107542678D01*
X167398447Y-107542685D01*
X167539801Y-107626281D01*
X167697514Y-107672100D01*
X167697511Y-107672100D01*
X167699998Y-107672295D01*
X167700000Y-107672295D01*
X167700000Y-106687500D01*
X168200000Y-106687500D01*
X168200000Y-107672295D01*
X168200001Y-107672295D01*
X168202486Y-107672100D01*
X168360198Y-107626281D01*
X168501552Y-107542685D01*
X168501561Y-107542678D01*
X168617678Y-107426561D01*
X168617685Y-107426552D01*
X168701282Y-107285196D01*
X168701283Y-107285193D01*
X168747099Y-107127495D01*
X168747100Y-107127489D01*
X168749999Y-107090649D01*
X168750000Y-107090634D01*
X168750000Y-106687500D01*
X168200000Y-106687500D01*
X167700000Y-106687500D01*
X167150000Y-106687500D01*
X166850500Y-106687500D01*
X166850500Y-105924500D01*
X166870185Y-105857461D01*
X166922989Y-105811706D01*
X166974500Y-105800500D01*
X167026000Y-105800500D01*
X167093039Y-105820185D01*
X167138794Y-105872989D01*
X167150000Y-105924500D01*
X167150000Y-106187500D01*
X167700000Y-106187500D01*
X167700000Y-105531814D01*
X167717267Y-105468694D01*
X167751744Y-105410398D01*
X167789744Y-105279604D01*
X167797597Y-105252573D01*
X167797598Y-105252567D01*
X167800499Y-105215701D01*
X167800500Y-105215694D01*
X167800500Y-105202703D01*
X168200000Y-105202703D01*
X168200000Y-106187500D01*
X168750000Y-106187500D01*
X168750000Y-105784365D01*
X168749999Y-105784350D01*
X168747100Y-105747510D01*
X168747099Y-105747504D01*
X168701283Y-105589806D01*
X168701282Y-105589803D01*
X168617685Y-105448447D01*
X168617678Y-105448438D01*
X168501561Y-105332321D01*
X168501552Y-105332314D01*
X168360196Y-105248717D01*
X168360193Y-105248716D01*
X168202494Y-105202900D01*
X168202497Y-105202900D01*
X168200000Y-105202703D01*
X167800500Y-105202703D01*
X167800500Y-103909306D01*
X167797598Y-103872431D01*
X167797436Y-103871874D01*
X167751745Y-103714606D01*
X167751744Y-103714603D01*
X167751744Y-103714602D01*
X167683673Y-103599500D01*
X167667768Y-103572605D01*
X167650500Y-103509484D01*
X167650500Y-103185928D01*
X167625502Y-103060261D01*
X167625501Y-103060260D01*
X167625501Y-103060256D01*
X167584814Y-102962029D01*
X167582663Y-102956836D01*
X167576468Y-102941878D01*
X167576462Y-102941868D01*
X167505278Y-102835332D01*
X167505272Y-102835325D01*
X166686819Y-102016872D01*
X166653334Y-101955549D01*
X166650500Y-101929191D01*
X166650500Y-101624001D01*
X166670185Y-101556962D01*
X166722989Y-101511207D01*
X166792147Y-101501263D01*
X166848810Y-101524734D01*
X166903938Y-101566003D01*
X166907668Y-101568795D01*
X166907671Y-101568797D01*
X167042517Y-101619091D01*
X167042516Y-101619091D01*
X167049444Y-101619835D01*
X167102127Y-101625500D01*
X168897872Y-101625499D01*
X168957483Y-101619091D01*
X169092331Y-101568796D01*
X169207546Y-101482546D01*
X169293796Y-101367331D01*
X169344091Y-101232483D01*
X169350500Y-101172873D01*
X169350499Y-99377128D01*
X169344591Y-99322171D01*
X169344091Y-99317516D01*
X169293797Y-99182671D01*
X169293793Y-99182664D01*
X169207547Y-99067455D01*
X169207544Y-99067452D01*
X169092335Y-98981206D01*
X169092328Y-98981202D01*
X168960917Y-98932189D01*
X168904983Y-98890318D01*
X168880566Y-98824853D01*
X168895418Y-98756580D01*
X168916563Y-98728332D01*
X169038495Y-98606401D01*
X169174035Y-98412830D01*
X169273903Y-98198663D01*
X169335063Y-97970408D01*
X169355659Y-97735000D01*
X169335063Y-97499592D01*
X169273903Y-97271337D01*
X169174035Y-97057171D01*
X169158769Y-97035368D01*
X169038494Y-96863597D01*
X168871402Y-96696506D01*
X168871401Y-96696505D01*
X168755717Y-96615502D01*
X168703376Y-96578852D01*
X168659751Y-96524275D01*
X168650500Y-96477277D01*
X168650500Y-95320807D01*
X168670185Y-95253768D01*
X168686815Y-95233130D01*
X168880792Y-95039152D01*
X168942113Y-95005669D01*
X168980622Y-95003432D01*
X169000000Y-95005341D01*
X169196132Y-94986024D01*
X169384727Y-94928814D01*
X169384733Y-94928811D01*
X169563911Y-94833039D01*
X169564770Y-94834647D01*
X169623271Y-94816321D01*
X169690653Y-94834797D01*
G37*
%TD.AperFunction*%
%TA.AperFunction,Conductor*%
G36*
X132447735Y-85763111D02*
G01*
X132468377Y-85779745D01*
X133713181Y-87024549D01*
X133746666Y-87085872D01*
X133749500Y-87112229D01*
X133749500Y-92138918D01*
X133749500Y-92138920D01*
X133749499Y-92138920D01*
X133778340Y-92283907D01*
X133778343Y-92283917D01*
X133834913Y-92420490D01*
X133834914Y-92420491D01*
X133834916Y-92420495D01*
X133856932Y-92453444D01*
X133916447Y-92542517D01*
X133917051Y-92543420D01*
X133917052Y-92543421D01*
X135542930Y-94169297D01*
X135576415Y-94230620D01*
X135575456Y-94287412D01*
X135573866Y-94293691D01*
X135573865Y-94293695D01*
X135554700Y-94524993D01*
X135554700Y-94525006D01*
X135573865Y-94756303D01*
X135575455Y-94762581D01*
X135572829Y-94832401D01*
X135542930Y-94880701D01*
X132848502Y-97575128D01*
X132787179Y-97608613D01*
X132717487Y-97603629D01*
X132664969Y-97566113D01*
X132656461Y-97555746D01*
X132511729Y-97436967D01*
X132511726Y-97436965D01*
X132346605Y-97348707D01*
X132167436Y-97294356D01*
X132167434Y-97294355D01*
X131986263Y-97276512D01*
X131921476Y-97250351D01*
X131910736Y-97240790D01*
X130936819Y-96266873D01*
X130903334Y-96205550D01*
X130900500Y-96179192D01*
X130900500Y-95319085D01*
X130920185Y-95252046D01*
X130945839Y-95223229D01*
X130960883Y-95210883D01*
X130974339Y-95194487D01*
X131085910Y-95058538D01*
X131178814Y-94884727D01*
X131236024Y-94696132D01*
X131255341Y-94500000D01*
X131236024Y-94303868D01*
X131178814Y-94115273D01*
X131178811Y-94115269D01*
X131178811Y-94115266D01*
X131085913Y-93941467D01*
X131085909Y-93941460D01*
X130960883Y-93789116D01*
X130808539Y-93664090D01*
X130808532Y-93664086D01*
X130634733Y-93571188D01*
X130634727Y-93571186D01*
X130446132Y-93513976D01*
X130446129Y-93513975D01*
X130250000Y-93494659D01*
X130053870Y-93513975D01*
X129865266Y-93571188D01*
X129691467Y-93664086D01*
X129691460Y-93664090D01*
X129539117Y-93789116D01*
X129526768Y-93804164D01*
X129469022Y-93843499D01*
X129430914Y-93849500D01*
X129325499Y-93849500D01*
X129199831Y-93874497D01*
X129199825Y-93874499D01*
X129152776Y-93893988D01*
X129152775Y-93893988D01*
X129081451Y-93923530D01*
X129081433Y-93923540D01*
X128974902Y-93994721D01*
X128974895Y-93994727D01*
X127573909Y-95395714D01*
X127512586Y-95429199D01*
X127442894Y-95424215D01*
X127407913Y-95404173D01*
X127376161Y-95378308D01*
X127219336Y-95299547D01*
X127048581Y-95259077D01*
X127048580Y-95259077D01*
X126873092Y-95259077D01*
X126873091Y-95259077D01*
X126702335Y-95299547D01*
X126545510Y-95378308D01*
X126465379Y-95443583D01*
X125475685Y-96433277D01*
X125410410Y-96513408D01*
X125331649Y-96670233D01*
X125291179Y-96840988D01*
X125291179Y-97016479D01*
X125331649Y-97187234D01*
X125410410Y-97344059D01*
X125475685Y-97424190D01*
X126465379Y-98413884D01*
X126465384Y-98413888D01*
X126465385Y-98413889D01*
X126545511Y-98479160D01*
X126702334Y-98557920D01*
X126772889Y-98574642D01*
X126873091Y-98598391D01*
X126873092Y-98598391D01*
X127048581Y-98598391D01*
X127105499Y-98584900D01*
X127219338Y-98557920D01*
X127376161Y-98479160D01*
X127456287Y-98413889D01*
X128445991Y-97424185D01*
X128511262Y-97344059D01*
X128590022Y-97187236D01*
X128619417Y-97063211D01*
X128630493Y-97016479D01*
X128630493Y-96840988D01*
X128593781Y-96686094D01*
X128590022Y-96670232D01*
X128511262Y-96513409D01*
X128511260Y-96513405D01*
X128485397Y-96481656D01*
X128458318Y-96417247D01*
X128470360Y-96348423D01*
X128493852Y-96315663D01*
X129387819Y-95421695D01*
X129449142Y-95388211D01*
X129518834Y-95393195D01*
X129574767Y-95435067D01*
X129599184Y-95500531D01*
X129599500Y-95509377D01*
X129599500Y-96564071D01*
X129611608Y-96624937D01*
X129619982Y-96667036D01*
X129623773Y-96686094D01*
X129624499Y-96689744D01*
X129664242Y-96785693D01*
X129673535Y-96808127D01*
X129710600Y-96863599D01*
X129744726Y-96914673D01*
X129744727Y-96914674D01*
X130990790Y-98160736D01*
X131024275Y-98222059D01*
X131026512Y-98236263D01*
X131044355Y-98417434D01*
X131044356Y-98417436D01*
X131098707Y-98596605D01*
X131186965Y-98761726D01*
X131186967Y-98761729D01*
X131305746Y-98906461D01*
X131316113Y-98914969D01*
X131355447Y-98972715D01*
X131357316Y-99042559D01*
X131325128Y-99098502D01*
X130689615Y-99734017D01*
X130628292Y-99767502D01*
X130601934Y-99770336D01*
X126384022Y-99770336D01*
X126316983Y-99750651D01*
X126271228Y-99697847D01*
X126270466Y-99696147D01*
X126239164Y-99624785D01*
X124501820Y-99624785D01*
X124434781Y-99605100D01*
X124410590Y-99584768D01*
X124320518Y-99486923D01*
X124320513Y-99486919D01*
X124320511Y-99486917D01*
X124137368Y-99344371D01*
X124137362Y-99344367D01*
X123933238Y-99233900D01*
X123933229Y-99233897D01*
X123713718Y-99158538D01*
X123515729Y-99125500D01*
X123484783Y-99120336D01*
X123252685Y-99120336D01*
X123221739Y-99125500D01*
X123023749Y-99158538D01*
X122804238Y-99233897D01*
X122804229Y-99233900D01*
X122600105Y-99344367D01*
X122600099Y-99344371D01*
X122416956Y-99486917D01*
X122416953Y-99486920D01*
X122416950Y-99486922D01*
X122416950Y-99486923D01*
X122396402Y-99509244D01*
X122259750Y-99657688D01*
X122132809Y-99851987D01*
X122039576Y-100064535D01*
X121982600Y-100289527D01*
X121982598Y-100289538D01*
X121963434Y-100520829D01*
X121963434Y-100520842D01*
X121982598Y-100752133D01*
X121982600Y-100752144D01*
X122039576Y-100977136D01*
X122132809Y-101189684D01*
X122259750Y-101383983D01*
X122259753Y-101383986D01*
X122259755Y-101383989D01*
X122416950Y-101554749D01*
X122416953Y-101554751D01*
X122416956Y-101554754D01*
X122600099Y-101697300D01*
X122600106Y-101697304D01*
X122600108Y-101697306D01*
X122784517Y-101797103D01*
X122834108Y-101846322D01*
X122849500Y-101906158D01*
X122849500Y-104775500D01*
X122829815Y-104842539D01*
X122777011Y-104888294D01*
X122725505Y-104899500D01*
X122702132Y-104899500D01*
X122702123Y-104899501D01*
X122642516Y-104905908D01*
X122507671Y-104956202D01*
X122507664Y-104956206D01*
X122392455Y-105042452D01*
X122392452Y-105042455D01*
X122306206Y-105157664D01*
X122306202Y-105157671D01*
X122255908Y-105292517D01*
X122249501Y-105352116D01*
X122249500Y-105352135D01*
X122249500Y-107147870D01*
X122249501Y-107147876D01*
X122255908Y-107207483D01*
X122306202Y-107342328D01*
X122306206Y-107342335D01*
X122392452Y-107457544D01*
X122392455Y-107457547D01*
X122507664Y-107543793D01*
X122507671Y-107543797D01*
X122639081Y-107592810D01*
X122695015Y-107634681D01*
X122719432Y-107700145D01*
X122704580Y-107768418D01*
X122683430Y-107796673D01*
X122561503Y-107918600D01*
X122425965Y-108112169D01*
X122425964Y-108112171D01*
X122326098Y-108326335D01*
X122326094Y-108326344D01*
X122264938Y-108554586D01*
X122264936Y-108554596D01*
X122244341Y-108789999D01*
X122244341Y-108790000D01*
X122264936Y-109025403D01*
X122264938Y-109025413D01*
X122326094Y-109253655D01*
X122326096Y-109253659D01*
X122326097Y-109253663D01*
X122405801Y-109424588D01*
X122425965Y-109467830D01*
X122425967Y-109467834D01*
X122534281Y-109622521D01*
X122561505Y-109661401D01*
X122728599Y-109828495D01*
X122792573Y-109873290D01*
X122793480Y-109873925D01*
X122837104Y-109928502D01*
X122844297Y-109998001D01*
X122812775Y-110060355D01*
X122752545Y-110095769D01*
X122722356Y-110099500D01*
X121570808Y-110099500D01*
X121503769Y-110079815D01*
X121483127Y-110063181D01*
X120686819Y-109266873D01*
X120653334Y-109205550D01*
X120650500Y-109179192D01*
X120650500Y-106238732D01*
X120670185Y-106171693D01*
X120722989Y-106125938D01*
X120735495Y-106121026D01*
X120769334Y-106109814D01*
X120918656Y-106017712D01*
X121042712Y-105893656D01*
X121134814Y-105744334D01*
X121189999Y-105577797D01*
X121200500Y-105475009D01*
X121200499Y-104849992D01*
X121200270Y-104847755D01*
X121189999Y-104747203D01*
X121189998Y-104747200D01*
X121154537Y-104640186D01*
X121134814Y-104580666D01*
X121042712Y-104431344D01*
X120949049Y-104337681D01*
X120915564Y-104276358D01*
X120920548Y-104206666D01*
X120949049Y-104162319D01*
X120995440Y-104115928D01*
X121042712Y-104068656D01*
X121134814Y-103919334D01*
X121189999Y-103752797D01*
X121200500Y-103650009D01*
X121200499Y-103024992D01*
X121189999Y-102922203D01*
X121134814Y-102755666D01*
X121042712Y-102606344D01*
X120918656Y-102482288D01*
X120769334Y-102390186D01*
X120602797Y-102335001D01*
X120602794Y-102335000D01*
X120554993Y-102330117D01*
X120490301Y-102303720D01*
X120450150Y-102246539D01*
X120447287Y-102176728D01*
X120482622Y-102116452D01*
X120520141Y-102092198D01*
X120558127Y-102076465D01*
X120664669Y-102005276D01*
X120755276Y-101914669D01*
X120826465Y-101808127D01*
X120875501Y-101689744D01*
X120888280Y-101625500D01*
X120900500Y-101564071D01*
X120900500Y-99470808D01*
X120920185Y-99403769D01*
X120936819Y-99383127D01*
X121535917Y-98784029D01*
X124714785Y-98784029D01*
X124745452Y-98898479D01*
X124804695Y-99001091D01*
X124888479Y-99084875D01*
X124991091Y-99144118D01*
X125105541Y-99174785D01*
X125224029Y-99174785D01*
X125338479Y-99144118D01*
X125441091Y-99084875D01*
X125524875Y-99001091D01*
X125584118Y-98898479D01*
X125614785Y-98784029D01*
X125614785Y-98665541D01*
X125584118Y-98551091D01*
X125524875Y-98448479D01*
X125441091Y-98364695D01*
X125338479Y-98305452D01*
X125224029Y-98274785D01*
X125105541Y-98274785D01*
X124991091Y-98305452D01*
X124888479Y-98364695D01*
X124804695Y-98448479D01*
X124745452Y-98551091D01*
X124714785Y-98665541D01*
X124714785Y-98784029D01*
X121535917Y-98784029D01*
X122495163Y-97824783D01*
X124090405Y-97824783D01*
X124090406Y-97824785D01*
X124264785Y-97824785D01*
X124264785Y-97651201D01*
X124264784Y-97651201D01*
X124213342Y-97691240D01*
X124213337Y-97691245D01*
X124090405Y-97824783D01*
X122495163Y-97824783D01*
X127005273Y-93314673D01*
X127005277Y-93314669D01*
X127076465Y-93208127D01*
X127100335Y-93150500D01*
X127125501Y-93089744D01*
X127140573Y-93013975D01*
X127150500Y-92964071D01*
X127150500Y-91238732D01*
X127170185Y-91171693D01*
X127222989Y-91125938D01*
X127235495Y-91121026D01*
X127269334Y-91109814D01*
X127418656Y-91017712D01*
X127542712Y-90893656D01*
X127634814Y-90744334D01*
X127689999Y-90577797D01*
X127700500Y-90475009D01*
X127700499Y-89849992D01*
X127689999Y-89747203D01*
X127634814Y-89580666D01*
X127542712Y-89431344D01*
X127449049Y-89337681D01*
X127415564Y-89276358D01*
X127420548Y-89206666D01*
X127449049Y-89162319D01*
X127490600Y-89120768D01*
X127542712Y-89068656D01*
X127634814Y-88919334D01*
X127689999Y-88752797D01*
X127700500Y-88650009D01*
X127700499Y-88024992D01*
X127695294Y-87974042D01*
X127689999Y-87922203D01*
X127689998Y-87922200D01*
X127685261Y-87907906D01*
X127634814Y-87755666D01*
X127542712Y-87606344D01*
X127418656Y-87482288D01*
X127269334Y-87390186D01*
X127102797Y-87335001D01*
X127102795Y-87335000D01*
X126996868Y-87324179D01*
X126997008Y-87322799D01*
X126936237Y-87301483D01*
X126920902Y-87288456D01*
X126914672Y-87282226D01*
X126914668Y-87282223D01*
X126808133Y-87211038D01*
X126808120Y-87211031D01*
X126689747Y-87162000D01*
X126689735Y-87161997D01*
X126564073Y-87137001D01*
X126564069Y-87137001D01*
X126435931Y-87137001D01*
X126435926Y-87137001D01*
X126310263Y-87161997D01*
X126310255Y-87161999D01*
X126191870Y-87211035D01*
X126085332Y-87282222D01*
X126085321Y-87282230D01*
X126079091Y-87288461D01*
X126017766Y-87321943D01*
X126003103Y-87323905D01*
X126003132Y-87324180D01*
X125897202Y-87335001D01*
X125897200Y-87335001D01*
X125730668Y-87390185D01*
X125730663Y-87390187D01*
X125581342Y-87482289D01*
X125457289Y-87606342D01*
X125365187Y-87755663D01*
X125365185Y-87755668D01*
X125341392Y-87827472D01*
X125310001Y-87922203D01*
X125310001Y-87922204D01*
X125310000Y-87922204D01*
X125299179Y-88028132D01*
X125297801Y-88027991D01*
X125276474Y-88088773D01*
X125263456Y-88104096D01*
X122940680Y-90426874D01*
X122879357Y-90460359D01*
X122852999Y-90463193D01*
X121262928Y-90463193D01*
X121195889Y-90443508D01*
X121175247Y-90426874D01*
X120201523Y-89453151D01*
X120201516Y-89453144D01*
X120154833Y-89415524D01*
X120121057Y-89400099D01*
X120023915Y-89355735D01*
X120023917Y-89355735D01*
X119881460Y-89335254D01*
X119739003Y-89355735D01*
X119608089Y-89415522D01*
X119561394Y-89453151D01*
X118220918Y-90793629D01*
X118220912Y-90793636D01*
X118183290Y-90840321D01*
X118183289Y-90840323D01*
X118123502Y-90971236D01*
X118103021Y-91113693D01*
X118123502Y-91256149D01*
X118158934Y-91333732D01*
X118168878Y-91402891D01*
X118139853Y-91466446D01*
X118081075Y-91504221D01*
X118046140Y-91509244D01*
X117969360Y-91509244D01*
X117798285Y-91537791D01*
X117728920Y-91529409D01*
X117690195Y-91503163D01*
X115942724Y-89755692D01*
X114188381Y-88001348D01*
X114154896Y-87940025D01*
X114152062Y-87913667D01*
X114152062Y-86203683D01*
X114171747Y-86136644D01*
X114188381Y-86116002D01*
X114524638Y-85779745D01*
X114585961Y-85746260D01*
X114612319Y-85743426D01*
X132380696Y-85743426D01*
X132447735Y-85763111D01*
G37*
%TD.AperFunction*%
%TA.AperFunction,Conductor*%
G36*
X142734549Y-106916110D02*
G01*
X142751269Y-106935405D01*
X142881505Y-107121401D01*
X142881506Y-107121402D01*
X143048597Y-107288493D01*
X143048603Y-107288498D01*
X143234594Y-107418730D01*
X143278219Y-107473307D01*
X143285413Y-107542805D01*
X143253890Y-107605160D01*
X143234595Y-107621880D01*
X143048922Y-107751890D01*
X143048920Y-107751891D01*
X142881891Y-107918920D01*
X142881890Y-107918922D01*
X142751880Y-108104595D01*
X142697303Y-108148219D01*
X142627804Y-108155412D01*
X142565450Y-108123890D01*
X142548730Y-108104594D01*
X142418494Y-107918597D01*
X142251402Y-107751506D01*
X142251401Y-107751505D01*
X142072563Y-107626281D01*
X142065405Y-107621269D01*
X142021781Y-107566692D01*
X142014588Y-107497193D01*
X142046110Y-107434839D01*
X142065405Y-107418119D01*
X142251082Y-107288105D01*
X142418105Y-107121082D01*
X142548119Y-106935405D01*
X142602696Y-106891781D01*
X142672195Y-106884588D01*
X142734549Y-106916110D01*
G37*
%TD.AperFunction*%
%TA.AperFunction,Conductor*%
G36*
X135635039Y-103702685D02*
G01*
X135680794Y-103755489D01*
X135692000Y-103807000D01*
X135692000Y-103923201D01*
X135694901Y-103960067D01*
X135694902Y-103960073D01*
X135740754Y-104117893D01*
X135740755Y-104117896D01*
X135824417Y-104259362D01*
X135824423Y-104259370D01*
X135940629Y-104375576D01*
X135940633Y-104375579D01*
X135940635Y-104375581D01*
X136082102Y-104459244D01*
X136123724Y-104471336D01*
X136239926Y-104505097D01*
X136239929Y-104505097D01*
X136239931Y-104505098D01*
X136276806Y-104508000D01*
X136276814Y-104508000D01*
X136708186Y-104508000D01*
X136708194Y-104508000D01*
X136745069Y-104505098D01*
X136745071Y-104505097D01*
X136745073Y-104505097D01*
X136830905Y-104480160D01*
X136902898Y-104459244D01*
X137044365Y-104375581D01*
X137044370Y-104375575D01*
X137050531Y-104370798D01*
X137052433Y-104373250D01*
X137101079Y-104346655D01*
X137170774Y-104351604D01*
X137203195Y-104372440D01*
X137204469Y-104370798D01*
X137210632Y-104375578D01*
X137210635Y-104375581D01*
X137352102Y-104459244D01*
X137393724Y-104471336D01*
X137509926Y-104505097D01*
X137509929Y-104505097D01*
X137509931Y-104505098D01*
X137546806Y-104508000D01*
X137546814Y-104508000D01*
X137978186Y-104508000D01*
X137978194Y-104508000D01*
X138015069Y-104505098D01*
X138015071Y-104505097D01*
X138015073Y-104505097D01*
X138100905Y-104480160D01*
X138172898Y-104459244D01*
X138314365Y-104375581D01*
X138314370Y-104375575D01*
X138320531Y-104370798D01*
X138322433Y-104373250D01*
X138371079Y-104346655D01*
X138440774Y-104351604D01*
X138473195Y-104372440D01*
X138474469Y-104370798D01*
X138480632Y-104375578D01*
X138480635Y-104375581D01*
X138622102Y-104459244D01*
X138663724Y-104471336D01*
X138779926Y-104505097D01*
X138779929Y-104505097D01*
X138779931Y-104505098D01*
X138816806Y-104508000D01*
X138816814Y-104508000D01*
X139248186Y-104508000D01*
X139248194Y-104508000D01*
X139285069Y-104505098D01*
X139285071Y-104505097D01*
X139285073Y-104505097D01*
X139370905Y-104480160D01*
X139442898Y-104459244D01*
X139584365Y-104375581D01*
X139584370Y-104375575D01*
X139590531Y-104370798D01*
X139592433Y-104373250D01*
X139641079Y-104346655D01*
X139710774Y-104351604D01*
X139743195Y-104372440D01*
X139744469Y-104370798D01*
X139750632Y-104375578D01*
X139750635Y-104375581D01*
X139892102Y-104459244D01*
X139933724Y-104471336D01*
X140049926Y-104505097D01*
X140049929Y-104505097D01*
X140049931Y-104505098D01*
X140086806Y-104508000D01*
X140086814Y-104508000D01*
X140518186Y-104508000D01*
X140518194Y-104508000D01*
X140555069Y-104505098D01*
X140555071Y-104505097D01*
X140555073Y-104505097D01*
X140640905Y-104480160D01*
X140712898Y-104459244D01*
X140854365Y-104375581D01*
X140854370Y-104375575D01*
X140860531Y-104370798D01*
X140862433Y-104373250D01*
X140911079Y-104346655D01*
X140980774Y-104351604D01*
X141013195Y-104372440D01*
X141014469Y-104370798D01*
X141020632Y-104375578D01*
X141020635Y-104375581D01*
X141162102Y-104459244D01*
X141203724Y-104471336D01*
X141319926Y-104505097D01*
X141319929Y-104505097D01*
X141319931Y-104505098D01*
X141356806Y-104508000D01*
X141356814Y-104508000D01*
X141788186Y-104508000D01*
X141788194Y-104508000D01*
X141825069Y-104505098D01*
X141825071Y-104505097D01*
X141825073Y-104505097D01*
X141910905Y-104480160D01*
X141982898Y-104459244D01*
X142124365Y-104375581D01*
X142124370Y-104375575D01*
X142130531Y-104370798D01*
X142132433Y-104373250D01*
X142181079Y-104346655D01*
X142250774Y-104351604D01*
X142283195Y-104372440D01*
X142284469Y-104370798D01*
X142290632Y-104375578D01*
X142290635Y-104375581D01*
X142432102Y-104459244D01*
X142473724Y-104471336D01*
X142589926Y-104505097D01*
X142589929Y-104505097D01*
X142589931Y-104505098D01*
X142626806Y-104508000D01*
X142626814Y-104508000D01*
X143058186Y-104508000D01*
X143058194Y-104508000D01*
X143095069Y-104505098D01*
X143095071Y-104505097D01*
X143095073Y-104505097D01*
X143180905Y-104480160D01*
X143252898Y-104459244D01*
X143394365Y-104375581D01*
X143394370Y-104375575D01*
X143400531Y-104370798D01*
X143402433Y-104373250D01*
X143451079Y-104346655D01*
X143520774Y-104351604D01*
X143553195Y-104372440D01*
X143554469Y-104370798D01*
X143560632Y-104375578D01*
X143560635Y-104375581D01*
X143702102Y-104459244D01*
X143743724Y-104471336D01*
X143859926Y-104505097D01*
X143859929Y-104505097D01*
X143859931Y-104505098D01*
X143896806Y-104508000D01*
X143896814Y-104508000D01*
X144328186Y-104508000D01*
X144328194Y-104508000D01*
X144365069Y-104505098D01*
X144450905Y-104480160D01*
X144520774Y-104480359D01*
X144579444Y-104518301D01*
X144608288Y-104581939D01*
X144609500Y-104599236D01*
X144609500Y-104886765D01*
X144589815Y-104953804D01*
X144537011Y-104999559D01*
X144467853Y-105009503D01*
X144433097Y-104999148D01*
X144408720Y-104987781D01*
X144383663Y-104976097D01*
X144383659Y-104976096D01*
X144383655Y-104976094D01*
X144155413Y-104914938D01*
X144155403Y-104914936D01*
X143920001Y-104894341D01*
X143919999Y-104894341D01*
X143684596Y-104914936D01*
X143684586Y-104914938D01*
X143456344Y-104976094D01*
X143456335Y-104976098D01*
X143242171Y-105075964D01*
X143242169Y-105075965D01*
X143048597Y-105211505D01*
X142881508Y-105378594D01*
X142751269Y-105564595D01*
X142696692Y-105608219D01*
X142627193Y-105615412D01*
X142564839Y-105583890D01*
X142548119Y-105564594D01*
X142418113Y-105378926D01*
X142418108Y-105378920D01*
X142251083Y-105211894D01*
X142251074Y-105211886D01*
X142230000Y-105197129D01*
X142230000Y-106976000D01*
X142210315Y-107043039D01*
X142157511Y-107088794D01*
X142106000Y-107100000D01*
X140654000Y-107100000D01*
X140586961Y-107080315D01*
X140541206Y-107027511D01*
X140530000Y-106976000D01*
X140530000Y-106315826D01*
X140880000Y-106315826D01*
X140914075Y-106442993D01*
X140979901Y-106557007D01*
X141072993Y-106650099D01*
X141187007Y-106715925D01*
X141314174Y-106750000D01*
X141445826Y-106750000D01*
X141572993Y-106715925D01*
X141687007Y-106650099D01*
X141780099Y-106557007D01*
X141845925Y-106442993D01*
X141880000Y-106315826D01*
X141880000Y-106184174D01*
X141845925Y-106057007D01*
X141780099Y-105942993D01*
X141687007Y-105849901D01*
X141572993Y-105784075D01*
X141445826Y-105750000D01*
X141314174Y-105750000D01*
X141187007Y-105784075D01*
X141072993Y-105849901D01*
X140979901Y-105942993D01*
X140914075Y-106057007D01*
X140880000Y-106184174D01*
X140880000Y-106315826D01*
X140530000Y-106315826D01*
X140530000Y-105197131D01*
X140508921Y-105211890D01*
X140341891Y-105378920D01*
X140341890Y-105378922D01*
X140211880Y-105564595D01*
X140157303Y-105608219D01*
X140087804Y-105615412D01*
X140025450Y-105583890D01*
X140008730Y-105564594D01*
X139878494Y-105378597D01*
X139711402Y-105211506D01*
X139711395Y-105211501D01*
X139705405Y-105207307D01*
X139661115Y-105176294D01*
X139517834Y-105075967D01*
X139517830Y-105075965D01*
X139459244Y-105048646D01*
X139303663Y-104976097D01*
X139303659Y-104976096D01*
X139303655Y-104976094D01*
X139075413Y-104914938D01*
X139075403Y-104914936D01*
X138840001Y-104894341D01*
X138839999Y-104894341D01*
X138604596Y-104914936D01*
X138604586Y-104914938D01*
X138376344Y-104976094D01*
X138376335Y-104976098D01*
X138162171Y-105075964D01*
X138162169Y-105075965D01*
X137968597Y-105211505D01*
X137801505Y-105378597D01*
X137671575Y-105564158D01*
X137616998Y-105607783D01*
X137547500Y-105614977D01*
X137485145Y-105583454D01*
X137468425Y-105564158D01*
X137338494Y-105378597D01*
X137171402Y-105211506D01*
X137171395Y-105211501D01*
X137165405Y-105207307D01*
X137121115Y-105176294D01*
X136977834Y-105075967D01*
X136977830Y-105075965D01*
X136919244Y-105048646D01*
X136763663Y-104976097D01*
X136763659Y-104976096D01*
X136763655Y-104976094D01*
X136535413Y-104914938D01*
X136535403Y-104914936D01*
X136300001Y-104894341D01*
X136299999Y-104894341D01*
X136064596Y-104914936D01*
X136064586Y-104914938D01*
X135836344Y-104976094D01*
X135836335Y-104976098D01*
X135622171Y-105075964D01*
X135622169Y-105075965D01*
X135428597Y-105211505D01*
X135261505Y-105378597D01*
X135131575Y-105564158D01*
X135076998Y-105607783D01*
X135007500Y-105614977D01*
X134945145Y-105583454D01*
X134928425Y-105564158D01*
X134798494Y-105378597D01*
X134631402Y-105211506D01*
X134631395Y-105211501D01*
X134625405Y-105207307D01*
X134581115Y-105176294D01*
X134437834Y-105075967D01*
X134437830Y-105075965D01*
X134379244Y-105048646D01*
X134223663Y-104976097D01*
X134223660Y-104976096D01*
X134223658Y-104976095D01*
X134126149Y-104949968D01*
X134066489Y-104913603D01*
X134035960Y-104850756D01*
X134044255Y-104781380D01*
X134048885Y-104771740D01*
X134069974Y-104732285D01*
X134132396Y-104615501D01*
X134186747Y-104436331D01*
X134205099Y-104250000D01*
X134188392Y-104080374D01*
X134186747Y-104063668D01*
X134186746Y-104063666D01*
X134151700Y-103948137D01*
X134132396Y-103884499D01*
X134122215Y-103865453D01*
X134107974Y-103797052D01*
X134132973Y-103731808D01*
X134189278Y-103690437D01*
X134231574Y-103683000D01*
X135568000Y-103683000D01*
X135635039Y-103702685D01*
G37*
%TD.AperFunction*%
%TA.AperFunction,Conductor*%
G36*
X146196231Y-102120185D02*
G01*
X146216873Y-102136819D01*
X147009687Y-102929633D01*
X147043172Y-102990956D01*
X147045409Y-103005160D01*
X147063252Y-103186331D01*
X147063253Y-103186333D01*
X147117604Y-103365502D01*
X147205862Y-103530623D01*
X147205864Y-103530626D01*
X147324642Y-103675357D01*
X147469373Y-103794135D01*
X147469376Y-103794137D01*
X147619399Y-103874325D01*
X147634499Y-103882396D01*
X147813666Y-103936746D01*
X147813668Y-103936747D01*
X147830374Y-103938392D01*
X148000000Y-103955099D01*
X148186331Y-103936747D01*
X148365501Y-103882396D01*
X148530625Y-103794136D01*
X148675357Y-103675357D01*
X148794136Y-103530625D01*
X148825581Y-103471794D01*
X148874542Y-103421951D01*
X148942680Y-103406490D01*
X149008360Y-103430321D01*
X149022620Y-103442567D01*
X149648793Y-104068740D01*
X149673193Y-104085042D01*
X149709796Y-104109499D01*
X149771712Y-104150870D01*
X149771714Y-104150871D01*
X149771718Y-104150873D01*
X149880103Y-104195767D01*
X149908294Y-104207444D01*
X149908298Y-104207444D01*
X149908299Y-104207445D01*
X150053286Y-104236286D01*
X150053289Y-104236286D01*
X150053290Y-104236286D01*
X150201124Y-104236286D01*
X155373556Y-104236286D01*
X155440595Y-104255971D01*
X155461237Y-104272605D01*
X156037215Y-104848583D01*
X156070700Y-104909906D01*
X156065716Y-104979598D01*
X156023844Y-105035531D01*
X156001940Y-105048646D01*
X155942419Y-105076401D01*
X155748926Y-105211886D01*
X155748920Y-105211891D01*
X155581891Y-105378920D01*
X155581890Y-105378922D01*
X155451880Y-105564595D01*
X155397303Y-105608219D01*
X155327804Y-105615412D01*
X155265450Y-105583890D01*
X155248730Y-105564594D01*
X155118494Y-105378597D01*
X154951402Y-105211506D01*
X154951395Y-105211501D01*
X154945405Y-105207307D01*
X154901115Y-105176294D01*
X154757834Y-105075967D01*
X154757830Y-105075965D01*
X154699244Y-105048646D01*
X154543663Y-104976097D01*
X154543659Y-104976096D01*
X154543655Y-104976094D01*
X154315413Y-104914938D01*
X154315403Y-104914936D01*
X154080001Y-104894341D01*
X154079999Y-104894341D01*
X153844596Y-104914936D01*
X153844586Y-104914938D01*
X153616344Y-104976094D01*
X153616335Y-104976098D01*
X153402171Y-105075964D01*
X153402169Y-105075965D01*
X153208597Y-105211505D01*
X153041505Y-105378597D01*
X152911575Y-105564158D01*
X152856998Y-105607783D01*
X152787500Y-105614977D01*
X152725145Y-105583454D01*
X152708425Y-105564158D01*
X152578494Y-105378597D01*
X152411402Y-105211506D01*
X152411395Y-105211501D01*
X152405405Y-105207307D01*
X152361115Y-105176294D01*
X152217834Y-105075967D01*
X152217830Y-105075965D01*
X152159244Y-105048646D01*
X152003663Y-104976097D01*
X152003659Y-104976096D01*
X152003655Y-104976094D01*
X151775413Y-104914938D01*
X151775403Y-104914936D01*
X151540001Y-104894341D01*
X151539999Y-104894341D01*
X151304596Y-104914936D01*
X151304586Y-104914938D01*
X151076344Y-104976094D01*
X151076335Y-104976098D01*
X150862171Y-105075964D01*
X150862169Y-105075965D01*
X150668597Y-105211505D01*
X150501508Y-105378594D01*
X150371269Y-105564595D01*
X150316692Y-105608219D01*
X150247193Y-105615412D01*
X150184839Y-105583890D01*
X150168119Y-105564594D01*
X150038113Y-105378926D01*
X150038108Y-105378920D01*
X149871083Y-105211894D01*
X149871074Y-105211886D01*
X149850000Y-105197129D01*
X149850000Y-106976000D01*
X149830315Y-107043039D01*
X149777511Y-107088794D01*
X149726000Y-107100000D01*
X148274000Y-107100000D01*
X148206961Y-107080315D01*
X148161206Y-107027511D01*
X148150000Y-106976000D01*
X148150000Y-106315826D01*
X148500000Y-106315826D01*
X148534075Y-106442993D01*
X148599901Y-106557007D01*
X148692993Y-106650099D01*
X148807007Y-106715925D01*
X148934174Y-106750000D01*
X149065826Y-106750000D01*
X149192993Y-106715925D01*
X149307007Y-106650099D01*
X149400099Y-106557007D01*
X149465925Y-106442993D01*
X149500000Y-106315826D01*
X149500000Y-106184174D01*
X149465925Y-106057007D01*
X149400099Y-105942993D01*
X149307007Y-105849901D01*
X149192993Y-105784075D01*
X149065826Y-105750000D01*
X148934174Y-105750000D01*
X148807007Y-105784075D01*
X148692993Y-105849901D01*
X148599901Y-105942993D01*
X148534075Y-106057007D01*
X148500000Y-106184174D01*
X148500000Y-106315826D01*
X148150000Y-106315826D01*
X148150000Y-105197131D01*
X148128921Y-105211890D01*
X147961891Y-105378920D01*
X147961890Y-105378922D01*
X147831880Y-105564595D01*
X147777303Y-105608219D01*
X147707804Y-105615412D01*
X147645450Y-105583890D01*
X147628730Y-105564594D01*
X147498494Y-105378597D01*
X147331402Y-105211506D01*
X147331395Y-105211501D01*
X147325405Y-105207307D01*
X147281115Y-105176294D01*
X147137834Y-105075967D01*
X147137830Y-105075965D01*
X147079244Y-105048646D01*
X146923663Y-104976097D01*
X146923659Y-104976096D01*
X146923655Y-104976094D01*
X146695413Y-104914938D01*
X146695403Y-104914936D01*
X146460001Y-104894341D01*
X146459999Y-104894341D01*
X146224596Y-104914936D01*
X146224583Y-104914939D01*
X146066592Y-104957271D01*
X145996742Y-104955608D01*
X145938880Y-104916445D01*
X145911377Y-104852216D01*
X145910500Y-104837496D01*
X145910500Y-104115928D01*
X145885502Y-103990261D01*
X145885501Y-103990260D01*
X145885501Y-103990256D01*
X145836465Y-103871873D01*
X145765277Y-103765331D01*
X145765275Y-103765329D01*
X145765273Y-103765326D01*
X144949319Y-102949372D01*
X144915834Y-102888049D01*
X144913000Y-102861691D01*
X144913000Y-102224500D01*
X144932685Y-102157461D01*
X144985489Y-102111706D01*
X145037000Y-102100500D01*
X146129192Y-102100500D01*
X146196231Y-102120185D01*
G37*
%TD.AperFunction*%
%TA.AperFunction,Conductor*%
G36*
X140626156Y-95297602D02*
G01*
X140656180Y-95346278D01*
X140688424Y-95443583D01*
X140705202Y-95494217D01*
X140705204Y-95494222D01*
X140712462Y-95505989D01*
X140797330Y-95643581D01*
X140921419Y-95767670D01*
X141070780Y-95859797D01*
X141172783Y-95893597D01*
X141237361Y-95914996D01*
X141248081Y-95916091D01*
X141278102Y-95919158D01*
X141342794Y-95945554D01*
X141382945Y-96002734D01*
X141389500Y-96042516D01*
X141389500Y-96496588D01*
X141369815Y-96563627D01*
X141317011Y-96609382D01*
X141300095Y-96615664D01*
X141162106Y-96655753D01*
X141162103Y-96655755D01*
X141020640Y-96739415D01*
X141014474Y-96744199D01*
X141012674Y-96741879D01*
X140963413Y-96768730D01*
X140893725Y-96763693D01*
X140861492Y-96742961D01*
X140860222Y-96744600D01*
X140854052Y-96739814D01*
X140712696Y-96656217D01*
X140712693Y-96656216D01*
X140554994Y-96610400D01*
X140554997Y-96610400D01*
X140552500Y-96610203D01*
X140552500Y-99554795D01*
X140552501Y-99554795D01*
X140554986Y-99554600D01*
X140712698Y-99508781D01*
X140854050Y-99425186D01*
X140860217Y-99420403D01*
X140862130Y-99422869D01*
X140910722Y-99396302D01*
X140980417Y-99401249D01*
X141013262Y-99422353D01*
X141014469Y-99420798D01*
X141020632Y-99425578D01*
X141020635Y-99425581D01*
X141162102Y-99509244D01*
X141203724Y-99521336D01*
X141319926Y-99555097D01*
X141319929Y-99555097D01*
X141319931Y-99555098D01*
X141356806Y-99558000D01*
X141356814Y-99558000D01*
X141788186Y-99558000D01*
X141788194Y-99558000D01*
X141825069Y-99555098D01*
X141825071Y-99555097D01*
X141825073Y-99555097D01*
X141868373Y-99542517D01*
X141982898Y-99509244D01*
X142124365Y-99425581D01*
X142124370Y-99425575D01*
X142130531Y-99420798D01*
X142132433Y-99423250D01*
X142181079Y-99396655D01*
X142250774Y-99401604D01*
X142283195Y-99422440D01*
X142284469Y-99420798D01*
X142290632Y-99425578D01*
X142290635Y-99425581D01*
X142432102Y-99509244D01*
X142473724Y-99521336D01*
X142589926Y-99555097D01*
X142589929Y-99555097D01*
X142589931Y-99555098D01*
X142626806Y-99558000D01*
X142626814Y-99558000D01*
X143058186Y-99558000D01*
X143058194Y-99558000D01*
X143095069Y-99555098D01*
X143095071Y-99555097D01*
X143095073Y-99555097D01*
X143138373Y-99542517D01*
X143252898Y-99509244D01*
X143394365Y-99425581D01*
X143394370Y-99425575D01*
X143400531Y-99420798D01*
X143402433Y-99423250D01*
X143451079Y-99396655D01*
X143520774Y-99401604D01*
X143553195Y-99422440D01*
X143554469Y-99420798D01*
X143560632Y-99425578D01*
X143560635Y-99425581D01*
X143702102Y-99509244D01*
X143743724Y-99521336D01*
X143859926Y-99555097D01*
X143859929Y-99555097D01*
X143859931Y-99555098D01*
X143896806Y-99558000D01*
X143896814Y-99558000D01*
X144328186Y-99558000D01*
X144328194Y-99558000D01*
X144365069Y-99555098D01*
X144462628Y-99526754D01*
X144532498Y-99526953D01*
X144591168Y-99564895D01*
X144615883Y-99609828D01*
X144617605Y-99615504D01*
X144705862Y-99780623D01*
X144705864Y-99780626D01*
X144719167Y-99796835D01*
X144746480Y-99861144D01*
X144734689Y-99930012D01*
X144687537Y-99981572D01*
X144623314Y-99999500D01*
X141176080Y-99999500D01*
X141031092Y-100028340D01*
X141031082Y-100028343D01*
X140894511Y-100084912D01*
X140894498Y-100084919D01*
X140771584Y-100167048D01*
X140771580Y-100167051D01*
X139719552Y-101219078D01*
X139719549Y-101219081D01*
X139684634Y-101271335D01*
X139684635Y-101271336D01*
X139637414Y-101342008D01*
X139580843Y-101478582D01*
X139580841Y-101478590D01*
X139575768Y-101504092D01*
X139543381Y-101566003D01*
X139482665Y-101600575D01*
X139419556Y-101598974D01*
X139285073Y-101559902D01*
X139285067Y-101559901D01*
X139248201Y-101557000D01*
X139248194Y-101557000D01*
X138944570Y-101557000D01*
X138877531Y-101537315D01*
X138856889Y-101520681D01*
X138080936Y-100744727D01*
X138080935Y-100744726D01*
X138052161Y-100725500D01*
X137974389Y-100673535D01*
X137920885Y-100651373D01*
X137856006Y-100624499D01*
X137856000Y-100624497D01*
X137730333Y-100599500D01*
X137730331Y-100599500D01*
X133750014Y-100599500D01*
X133682975Y-100579815D01*
X133671349Y-100571353D01*
X133530626Y-100455864D01*
X133530623Y-100455862D01*
X133365502Y-100367604D01*
X133186333Y-100313253D01*
X133186331Y-100313252D01*
X133000000Y-100294901D01*
X132813668Y-100313252D01*
X132813666Y-100313253D01*
X132634497Y-100367604D01*
X132469376Y-100455862D01*
X132469373Y-100455864D01*
X132324642Y-100574642D01*
X132205864Y-100719373D01*
X132205862Y-100719376D01*
X132117604Y-100884497D01*
X132063253Y-101063666D01*
X132063252Y-101063668D01*
X132044901Y-101250000D01*
X132063252Y-101436331D01*
X132063253Y-101436333D01*
X132117604Y-101615502D01*
X132205862Y-101780623D01*
X132205864Y-101780626D01*
X132324642Y-101925357D01*
X132469373Y-102044135D01*
X132469376Y-102044137D01*
X132621599Y-102125501D01*
X132634499Y-102132396D01*
X132780641Y-102176728D01*
X132813666Y-102186746D01*
X132813668Y-102186747D01*
X132830374Y-102188392D01*
X133000000Y-102205099D01*
X133186331Y-102186747D01*
X133365501Y-102132396D01*
X133530625Y-102044136D01*
X133577976Y-102005276D01*
X133671349Y-101928647D01*
X133735659Y-101901334D01*
X133750014Y-101900500D01*
X135589142Y-101900500D01*
X135656181Y-101920185D01*
X135701936Y-101972989D01*
X135711880Y-102042147D01*
X135708219Y-102059091D01*
X135703172Y-102076465D01*
X135694901Y-102104934D01*
X135692000Y-102141798D01*
X135692000Y-102258000D01*
X135672315Y-102325039D01*
X135619511Y-102370794D01*
X135568000Y-102382000D01*
X133982518Y-102382000D01*
X133946032Y-102374744D01*
X133945571Y-102376267D01*
X133939738Y-102374497D01*
X133814071Y-102349500D01*
X133814069Y-102349500D01*
X133685931Y-102349500D01*
X133685929Y-102349500D01*
X133581949Y-102370184D01*
X133570653Y-102372431D01*
X133560255Y-102374499D01*
X133476225Y-102409306D01*
X133452440Y-102419158D01*
X133446249Y-102421722D01*
X133441872Y-102423535D01*
X133335326Y-102494726D01*
X132744727Y-103085325D01*
X132744721Y-103085332D01*
X132681965Y-103179253D01*
X132681966Y-103179254D01*
X132673535Y-103191871D01*
X132624499Y-103310255D01*
X132624497Y-103310261D01*
X132599500Y-103435928D01*
X132599500Y-103499986D01*
X132579815Y-103567025D01*
X132571353Y-103578651D01*
X132455864Y-103719373D01*
X132455862Y-103719376D01*
X132367604Y-103884497D01*
X132313253Y-104063666D01*
X132313252Y-104063668D01*
X132294901Y-104250000D01*
X132313252Y-104436331D01*
X132313253Y-104436333D01*
X132367604Y-104615502D01*
X132455862Y-104780623D01*
X132455864Y-104780626D01*
X132574642Y-104925357D01*
X132717977Y-105042989D01*
X132719375Y-105044136D01*
X132791273Y-105082566D01*
X132841115Y-105131527D01*
X132856576Y-105199664D01*
X132832745Y-105265344D01*
X132820499Y-105279604D01*
X132721505Y-105378597D01*
X132591575Y-105564158D01*
X132536998Y-105607783D01*
X132467500Y-105614977D01*
X132405145Y-105583454D01*
X132388425Y-105564158D01*
X132258494Y-105378597D01*
X132091402Y-105211506D01*
X132091395Y-105211501D01*
X132085405Y-105207307D01*
X132041115Y-105176294D01*
X131897834Y-105075967D01*
X131897830Y-105075965D01*
X131839244Y-105048646D01*
X131683663Y-104976097D01*
X131683659Y-104976096D01*
X131683655Y-104976094D01*
X131455413Y-104914938D01*
X131455403Y-104914936D01*
X131220001Y-104894341D01*
X131219999Y-104894341D01*
X130984596Y-104914936D01*
X130984586Y-104914938D01*
X130756344Y-104976094D01*
X130756335Y-104976098D01*
X130542171Y-105075964D01*
X130542169Y-105075965D01*
X130348597Y-105211505D01*
X130181505Y-105378597D01*
X130051575Y-105564158D01*
X129996998Y-105607783D01*
X129927500Y-105614977D01*
X129865145Y-105583454D01*
X129848425Y-105564158D01*
X129718494Y-105378597D01*
X129551402Y-105211506D01*
X129551395Y-105211501D01*
X129545405Y-105207307D01*
X129501115Y-105176294D01*
X129357834Y-105075967D01*
X129357830Y-105075965D01*
X129299244Y-105048646D01*
X129143663Y-104976097D01*
X129143659Y-104976096D01*
X129143655Y-104976094D01*
X128915413Y-104914938D01*
X128915403Y-104914936D01*
X128680001Y-104894341D01*
X128679999Y-104894341D01*
X128444596Y-104914936D01*
X128444586Y-104914938D01*
X128216344Y-104976094D01*
X128216335Y-104976098D01*
X128002171Y-105075964D01*
X128002169Y-105075965D01*
X127808597Y-105211505D01*
X127641505Y-105378597D01*
X127511575Y-105564158D01*
X127456998Y-105607783D01*
X127387500Y-105614977D01*
X127325145Y-105583454D01*
X127308425Y-105564158D01*
X127178494Y-105378597D01*
X127011402Y-105211506D01*
X127011395Y-105211501D01*
X127005405Y-105207307D01*
X126961115Y-105176294D01*
X126817834Y-105075967D01*
X126817830Y-105075965D01*
X126759244Y-105048646D01*
X126603663Y-104976097D01*
X126603659Y-104976096D01*
X126603655Y-104976094D01*
X126375413Y-104914938D01*
X126375403Y-104914936D01*
X126140001Y-104894341D01*
X126139999Y-104894341D01*
X125904596Y-104914936D01*
X125904586Y-104914938D01*
X125676344Y-104976094D01*
X125676335Y-104976098D01*
X125462171Y-105075964D01*
X125462169Y-105075965D01*
X125268600Y-105211503D01*
X125146673Y-105333430D01*
X125085350Y-105366914D01*
X125015658Y-105361930D01*
X124959725Y-105320058D01*
X124942810Y-105289081D01*
X124893797Y-105157671D01*
X124893793Y-105157664D01*
X124807547Y-105042455D01*
X124807544Y-105042452D01*
X124692335Y-104956206D01*
X124692328Y-104956202D01*
X124557482Y-104905908D01*
X124557483Y-104905908D01*
X124497883Y-104899501D01*
X124497881Y-104899500D01*
X124497873Y-104899500D01*
X124497865Y-104899500D01*
X124474500Y-104899500D01*
X124407461Y-104879815D01*
X124361706Y-104827011D01*
X124350500Y-104775500D01*
X124350500Y-101570564D01*
X124370185Y-101503525D01*
X124383270Y-101486581D01*
X124386984Y-101482547D01*
X124477713Y-101383989D01*
X124514610Y-101327513D01*
X124567756Y-101282158D01*
X124618418Y-101271336D01*
X131038084Y-101271336D01*
X131145343Y-101250000D01*
X131183077Y-101242494D01*
X131319659Y-101185920D01*
X131391703Y-101137782D01*
X131442580Y-101103788D01*
X135483155Y-97063210D01*
X135544478Y-97029726D01*
X135614170Y-97034710D01*
X135670103Y-97076582D01*
X135694520Y-97142046D01*
X135694454Y-97160619D01*
X135692000Y-97191795D01*
X135692000Y-98973201D01*
X135694901Y-99010067D01*
X135694902Y-99010073D01*
X135740754Y-99167893D01*
X135740755Y-99167896D01*
X135740756Y-99167898D01*
X135749489Y-99182664D01*
X135824417Y-99309362D01*
X135824423Y-99309370D01*
X135940629Y-99425576D01*
X135940633Y-99425579D01*
X135940635Y-99425581D01*
X136082102Y-99509244D01*
X136123724Y-99521336D01*
X136239926Y-99555097D01*
X136239929Y-99555097D01*
X136239931Y-99555098D01*
X136276806Y-99558000D01*
X136276814Y-99558000D01*
X136708186Y-99558000D01*
X136708194Y-99558000D01*
X136745069Y-99555098D01*
X136745071Y-99555097D01*
X136745073Y-99555097D01*
X136788373Y-99542517D01*
X136902898Y-99509244D01*
X137044365Y-99425581D01*
X137044370Y-99425575D01*
X137050531Y-99420798D01*
X137052433Y-99423250D01*
X137101079Y-99396655D01*
X137170774Y-99401604D01*
X137203195Y-99422440D01*
X137204469Y-99420798D01*
X137210632Y-99425578D01*
X137210635Y-99425581D01*
X137352102Y-99509244D01*
X137393724Y-99521336D01*
X137509926Y-99555097D01*
X137509929Y-99555097D01*
X137509931Y-99555098D01*
X137546806Y-99558000D01*
X137546814Y-99558000D01*
X137978186Y-99558000D01*
X137978194Y-99558000D01*
X138015069Y-99555098D01*
X138015071Y-99555097D01*
X138015073Y-99555097D01*
X138058373Y-99542517D01*
X138172898Y-99509244D01*
X138314365Y-99425581D01*
X138314370Y-99425575D01*
X138320531Y-99420798D01*
X138322433Y-99423250D01*
X138371079Y-99396655D01*
X138440774Y-99401604D01*
X138473195Y-99422440D01*
X138474469Y-99420798D01*
X138480632Y-99425578D01*
X138480635Y-99425581D01*
X138622102Y-99509244D01*
X138663724Y-99521336D01*
X138779926Y-99555097D01*
X138779929Y-99555097D01*
X138779931Y-99555098D01*
X138816806Y-99558000D01*
X138816814Y-99558000D01*
X139248186Y-99558000D01*
X139248194Y-99558000D01*
X139285069Y-99555098D01*
X139285071Y-99555097D01*
X139285073Y-99555097D01*
X139328373Y-99542517D01*
X139442898Y-99509244D01*
X139584365Y-99425581D01*
X139584370Y-99425576D01*
X139590526Y-99420801D01*
X139592339Y-99423138D01*
X139641449Y-99396298D01*
X139711143Y-99401256D01*
X139743496Y-99422051D01*
X139744778Y-99420400D01*
X139750947Y-99425185D01*
X139892301Y-99508781D01*
X140050014Y-99554600D01*
X140050011Y-99554600D01*
X140052498Y-99554795D01*
X140052500Y-99554795D01*
X140052500Y-96610203D01*
X140050003Y-96610400D01*
X139892306Y-96656216D01*
X139892303Y-96656217D01*
X139750949Y-96739813D01*
X139744783Y-96744597D01*
X139742889Y-96742155D01*
X139694080Y-96768739D01*
X139624394Y-96763679D01*
X139591727Y-96742659D01*
X139590531Y-96744202D01*
X139584362Y-96739417D01*
X139467377Y-96670233D01*
X139442898Y-96655756D01*
X139442897Y-96655755D01*
X139442896Y-96655755D01*
X139442893Y-96655754D01*
X139285073Y-96609902D01*
X139285067Y-96609901D01*
X139248201Y-96607000D01*
X139248194Y-96607000D01*
X138816806Y-96607000D01*
X138816798Y-96607000D01*
X138779932Y-96609901D01*
X138779926Y-96609902D01*
X138622106Y-96655754D01*
X138622103Y-96655755D01*
X138480637Y-96739417D01*
X138474469Y-96744202D01*
X138472572Y-96741756D01*
X138423858Y-96768357D01*
X138354166Y-96763373D01*
X138321796Y-96742569D01*
X138320531Y-96744202D01*
X138314362Y-96739417D01*
X138197377Y-96670233D01*
X138172898Y-96655756D01*
X138172897Y-96655755D01*
X138172896Y-96655755D01*
X138172893Y-96655754D01*
X138015073Y-96609902D01*
X138015067Y-96609901D01*
X137978201Y-96607000D01*
X137978194Y-96607000D01*
X137546806Y-96607000D01*
X137546798Y-96607000D01*
X137509932Y-96609901D01*
X137509926Y-96609902D01*
X137352106Y-96655754D01*
X137352103Y-96655755D01*
X137210637Y-96739417D01*
X137204469Y-96744202D01*
X137202572Y-96741756D01*
X137153858Y-96768357D01*
X137084166Y-96763373D01*
X137051796Y-96742569D01*
X137050531Y-96744202D01*
X137044362Y-96739417D01*
X136927377Y-96670233D01*
X136902898Y-96655756D01*
X136902897Y-96655755D01*
X136902896Y-96655755D01*
X136902893Y-96655754D01*
X136745073Y-96609902D01*
X136745067Y-96609901D01*
X136708201Y-96607000D01*
X136708194Y-96607000D01*
X136276806Y-96607000D01*
X136276795Y-96607000D01*
X136245619Y-96609454D01*
X136177242Y-96595089D01*
X136127486Y-96546037D01*
X136112148Y-96477872D01*
X136136098Y-96412235D01*
X136148211Y-96398155D01*
X136370400Y-96175966D01*
X136607637Y-95938728D01*
X136668958Y-95905245D01*
X136715721Y-95904102D01*
X136843951Y-95925500D01*
X136843952Y-95925500D01*
X137076048Y-95925500D01*
X137076049Y-95925500D01*
X137304981Y-95887298D01*
X137524503Y-95811936D01*
X137728626Y-95701470D01*
X137729170Y-95701047D01*
X137894561Y-95572318D01*
X137911784Y-95558913D01*
X138068979Y-95388153D01*
X138126490Y-95300124D01*
X138179635Y-95254769D01*
X138248866Y-95245345D01*
X138312202Y-95274846D01*
X138334107Y-95300125D01*
X138348812Y-95322633D01*
X139057861Y-94613584D01*
X139080667Y-94698694D01*
X139139910Y-94801306D01*
X139223694Y-94885090D01*
X139326306Y-94944333D01*
X139411414Y-94967138D01*
X138701201Y-95677351D01*
X138731649Y-95701050D01*
X138935697Y-95811476D01*
X138935706Y-95811479D01*
X139155139Y-95886811D01*
X139383993Y-95925000D01*
X139616007Y-95925000D01*
X139844860Y-95886811D01*
X140064293Y-95811479D01*
X140064301Y-95811476D01*
X140268355Y-95701047D01*
X140298797Y-95677351D01*
X140298798Y-95677350D01*
X139588585Y-94967137D01*
X139673694Y-94944333D01*
X139776306Y-94885090D01*
X139860090Y-94801306D01*
X139919333Y-94698694D01*
X139942138Y-94613584D01*
X140626156Y-95297602D01*
G37*
%TD.AperFunction*%
%TA.AperFunction,Conductor*%
G36*
X119252606Y-102170185D02*
G01*
X119298361Y-102222989D01*
X119308305Y-102292147D01*
X119279280Y-102355703D01*
X119236015Y-102384576D01*
X119237209Y-102387136D01*
X119230663Y-102390187D01*
X119081342Y-102482289D01*
X118957289Y-102606342D01*
X118865187Y-102755663D01*
X118865186Y-102755666D01*
X118810001Y-102922203D01*
X118810001Y-102922204D01*
X118810000Y-102922204D01*
X118799179Y-103028132D01*
X118797801Y-103027991D01*
X118776474Y-103088773D01*
X118763456Y-103104096D01*
X117842737Y-104024815D01*
X117781414Y-104058300D01*
X117711722Y-104053316D01*
X117655789Y-104011444D01*
X117648324Y-104000255D01*
X117617685Y-103948447D01*
X117617678Y-103948438D01*
X117501561Y-103832321D01*
X117501552Y-103832314D01*
X117360196Y-103748717D01*
X117360193Y-103748716D01*
X117202494Y-103702900D01*
X117202497Y-103702900D01*
X117200000Y-103702703D01*
X117200000Y-104652150D01*
X117180315Y-104719189D01*
X117179106Y-104721036D01*
X117173533Y-104729375D01*
X117124499Y-104847755D01*
X117124497Y-104847761D01*
X117099500Y-104973428D01*
X117099500Y-105063500D01*
X117079815Y-105130539D01*
X117027011Y-105176294D01*
X116975500Y-105187500D01*
X116824000Y-105187500D01*
X116756961Y-105167815D01*
X116711206Y-105115011D01*
X116700000Y-105063500D01*
X116700000Y-104031814D01*
X116717267Y-103968694D01*
X116751744Y-103910398D01*
X116797532Y-103752797D01*
X116797597Y-103752573D01*
X116797598Y-103752567D01*
X116800499Y-103715701D01*
X116800500Y-103715694D01*
X116800500Y-103570808D01*
X116820185Y-103503769D01*
X116836819Y-103483127D01*
X118133127Y-102186819D01*
X118194450Y-102153334D01*
X118220808Y-102150500D01*
X119185567Y-102150500D01*
X119252606Y-102170185D01*
G37*
%TD.AperFunction*%
%TA.AperFunction,Conductor*%
G36*
X152828172Y-97310317D02*
G01*
X152881995Y-97354870D01*
X152903185Y-97421448D01*
X152899423Y-97454683D01*
X152894333Y-97474785D01*
X153899938Y-97474785D01*
X153855883Y-97551091D01*
X153825216Y-97665541D01*
X153825216Y-97784029D01*
X153855883Y-97898479D01*
X153899938Y-97974785D01*
X152894333Y-97974785D01*
X152946533Y-98180920D01*
X153039732Y-98393394D01*
X153166630Y-98587627D01*
X153235421Y-98662353D01*
X153266343Y-98725007D01*
X153258483Y-98794433D01*
X153214336Y-98848589D01*
X153147919Y-98870280D01*
X153144191Y-98870336D01*
X152665093Y-98870336D01*
X152539425Y-98895333D01*
X152539419Y-98895335D01*
X152421038Y-98944370D01*
X152314490Y-99015562D01*
X150152472Y-101177580D01*
X150091149Y-101211065D01*
X150076945Y-101213302D01*
X149895775Y-101231145D01*
X149895773Y-101231146D01*
X149716604Y-101285497D01*
X149551483Y-101373755D01*
X149551480Y-101373757D01*
X149406748Y-101492536D01*
X149398237Y-101502907D01*
X149340490Y-101542238D01*
X149270645Y-101544105D01*
X149214707Y-101511918D01*
X148844759Y-101141970D01*
X148811274Y-101080647D01*
X148816258Y-101010955D01*
X148844759Y-100966608D01*
X150628697Y-99182671D01*
X152445815Y-97365553D01*
X152507138Y-97332068D01*
X152533496Y-97329234D01*
X152595213Y-97329234D01*
X152595214Y-97329234D01*
X152758807Y-97301935D01*
X152828172Y-97310317D01*
G37*
%TD.AperFunction*%
%TA.AperFunction,Conductor*%
G36*
X125218833Y-90091124D02*
G01*
X125274767Y-90132995D01*
X125299184Y-90198460D01*
X125299500Y-90207306D01*
X125299500Y-90475000D01*
X125299501Y-90475019D01*
X125310000Y-90577796D01*
X125310001Y-90577799D01*
X125358015Y-90722693D01*
X125365186Y-90744334D01*
X125457288Y-90893656D01*
X125581344Y-91017712D01*
X125730666Y-91109814D01*
X125764500Y-91121025D01*
X125821947Y-91160796D01*
X125848772Y-91225311D01*
X125849500Y-91238732D01*
X125849500Y-92579192D01*
X125829815Y-92646231D01*
X125813181Y-92666873D01*
X119744722Y-98735331D01*
X119744718Y-98735336D01*
X119696458Y-98807566D01*
X119696457Y-98807567D01*
X119673536Y-98841870D01*
X119673534Y-98841874D01*
X119624499Y-98960255D01*
X119624497Y-98960261D01*
X119599500Y-99085928D01*
X119599500Y-100725500D01*
X119579815Y-100792539D01*
X119527011Y-100838294D01*
X119475500Y-100849500D01*
X119099001Y-100849500D01*
X119031962Y-100829815D01*
X118986207Y-100777011D01*
X118976263Y-100707853D01*
X118999734Y-100651189D01*
X119043796Y-100592331D01*
X119094091Y-100457483D01*
X119100500Y-100397873D01*
X119100499Y-98602128D01*
X119094091Y-98542517D01*
X119081162Y-98507853D01*
X119043797Y-98407671D01*
X119043793Y-98407664D01*
X118957547Y-98292455D01*
X118957544Y-98292452D01*
X118842335Y-98206206D01*
X118842332Y-98206205D01*
X118842331Y-98206204D01*
X118831161Y-98202038D01*
X118775231Y-98160166D01*
X118750816Y-98094701D01*
X118750500Y-98085858D01*
X118750500Y-97812227D01*
X118770185Y-97745188D01*
X118786814Y-97724550D01*
X119944009Y-96567355D01*
X120005330Y-96533872D01*
X120042494Y-96531510D01*
X120185372Y-96544010D01*
X120255510Y-96550147D01*
X120255511Y-96550147D01*
X120255512Y-96550147D01*
X120314797Y-96544960D01*
X120490919Y-96529551D01*
X120719174Y-96468391D01*
X120933341Y-96368523D01*
X121126912Y-96232983D01*
X121294006Y-96065889D01*
X121429546Y-95872318D01*
X121529414Y-95658151D01*
X121590574Y-95429896D01*
X121611170Y-95194488D01*
X121607353Y-95150866D01*
X121621119Y-95082369D01*
X121669733Y-95032185D01*
X121737761Y-95016251D01*
X121782393Y-95027266D01*
X121909244Y-95085198D01*
X121909248Y-95085199D01*
X122051562Y-95105659D01*
X122193875Y-95085199D01*
X122193880Y-95085198D01*
X122324659Y-95025472D01*
X122371294Y-94987892D01*
X122371298Y-94987888D01*
X122405115Y-94954072D01*
X120915306Y-93464263D01*
X121551562Y-93464263D01*
X121585637Y-93591430D01*
X121651463Y-93705444D01*
X121744555Y-93798536D01*
X121858569Y-93864362D01*
X121985736Y-93898437D01*
X122117388Y-93898437D01*
X122244555Y-93864362D01*
X122358569Y-93798536D01*
X122451661Y-93705444D01*
X122517487Y-93591430D01*
X122551562Y-93464263D01*
X122551562Y-93398437D01*
X123253644Y-93398437D01*
X123607197Y-93751990D01*
X123641013Y-93718173D01*
X123641017Y-93718169D01*
X123678597Y-93671534D01*
X123738323Y-93540755D01*
X123738324Y-93540750D01*
X123758784Y-93398437D01*
X123738324Y-93256123D01*
X123738323Y-93256118D01*
X123678597Y-93125339D01*
X123641017Y-93078704D01*
X123607197Y-93044884D01*
X123253644Y-93398437D01*
X122551562Y-93398437D01*
X122551562Y-93332611D01*
X122517487Y-93205444D01*
X122451661Y-93091430D01*
X122358569Y-92998338D01*
X122244555Y-92932512D01*
X122117388Y-92898437D01*
X121985736Y-92898437D01*
X121858569Y-92932512D01*
X121744555Y-92998338D01*
X121651463Y-93091430D01*
X121585637Y-93205444D01*
X121551562Y-93332611D01*
X121551562Y-93464263D01*
X120915306Y-93464263D01*
X120495927Y-93044884D01*
X120462110Y-93078700D01*
X120462106Y-93078704D01*
X120424526Y-93125339D01*
X120364800Y-93256118D01*
X120364799Y-93256123D01*
X120344339Y-93398437D01*
X120364799Y-93540750D01*
X120364800Y-93540754D01*
X120422732Y-93667605D01*
X120432676Y-93736764D01*
X120403651Y-93800319D01*
X120344873Y-93838094D01*
X120299131Y-93842645D01*
X120255513Y-93838829D01*
X120255510Y-93838829D01*
X120020107Y-93859424D01*
X120020097Y-93859426D01*
X119791855Y-93920582D01*
X119791848Y-93920584D01*
X119791848Y-93920585D01*
X119785524Y-93923534D01*
X119577682Y-94020452D01*
X119577680Y-94020453D01*
X119384108Y-94155993D01*
X119217016Y-94323085D01*
X119081476Y-94516657D01*
X119081475Y-94516659D01*
X118981609Y-94730823D01*
X118981605Y-94730832D01*
X118920449Y-94959074D01*
X118920447Y-94959084D01*
X118899852Y-95194487D01*
X118899852Y-95194489D01*
X118918488Y-95407501D01*
X118904721Y-95476001D01*
X118882641Y-95505989D01*
X117417052Y-96971577D01*
X117417049Y-96971580D01*
X117374428Y-97035367D01*
X117374429Y-97035368D01*
X117334914Y-97094507D01*
X117278343Y-97231081D01*
X117278340Y-97231091D01*
X117249500Y-97376078D01*
X117249500Y-98025500D01*
X117229815Y-98092539D01*
X117177011Y-98138294D01*
X117125500Y-98149500D01*
X116852130Y-98149500D01*
X116852123Y-98149501D01*
X116792516Y-98155908D01*
X116657671Y-98206202D01*
X116657664Y-98206206D01*
X116542455Y-98292452D01*
X116542452Y-98292455D01*
X116456206Y-98407664D01*
X116456202Y-98407671D01*
X116405908Y-98542517D01*
X116399501Y-98602116D01*
X116399501Y-98602123D01*
X116399500Y-98602135D01*
X116399500Y-99125500D01*
X116379815Y-99192539D01*
X116327011Y-99238294D01*
X116275500Y-99249500D01*
X115484499Y-99249500D01*
X115417460Y-99229815D01*
X115371705Y-99177011D01*
X115360499Y-99125500D01*
X115360499Y-99102129D01*
X115360498Y-99102123D01*
X115358757Y-99085928D01*
X115354091Y-99042517D01*
X115347701Y-99025385D01*
X115303797Y-98907671D01*
X115303793Y-98907664D01*
X115217547Y-98792455D01*
X115217544Y-98792452D01*
X115102335Y-98706206D01*
X115102328Y-98706202D01*
X114967482Y-98655908D01*
X114967483Y-98655908D01*
X114907883Y-98649501D01*
X114907881Y-98649500D01*
X114907873Y-98649500D01*
X114907865Y-98649500D01*
X113711228Y-98649500D01*
X113644189Y-98629815D01*
X113598434Y-98577011D01*
X113588490Y-98507853D01*
X113617515Y-98444297D01*
X113623547Y-98437819D01*
X114009783Y-98051584D01*
X114582951Y-97478416D01*
X114665084Y-97355495D01*
X114665579Y-97354297D01*
X114666300Y-97353219D01*
X114667957Y-97350120D01*
X114668261Y-97350283D01*
X114692463Y-97314055D01*
X117690196Y-94316322D01*
X117751517Y-94282839D01*
X117798281Y-94281696D01*
X117969360Y-94310244D01*
X117969361Y-94310244D01*
X118201457Y-94310244D01*
X118201458Y-94310244D01*
X118430390Y-94272042D01*
X118649912Y-94196680D01*
X118854035Y-94086214D01*
X118884781Y-94062284D01*
X118971583Y-93994723D01*
X119037193Y-93943657D01*
X119194388Y-93772897D01*
X119321333Y-93578593D01*
X119414566Y-93366044D01*
X119471543Y-93141049D01*
X119488231Y-92939638D01*
X119513385Y-92874456D01*
X119569787Y-92833217D01*
X119639530Y-92829019D01*
X119663317Y-92837084D01*
X119739003Y-92871650D01*
X119739002Y-92871650D01*
X119756909Y-92874224D01*
X119881460Y-92892132D01*
X120023917Y-92871650D01*
X120154833Y-92811862D01*
X120201516Y-92774243D01*
X121175246Y-91800511D01*
X121236569Y-91767027D01*
X121262927Y-91764193D01*
X121574009Y-91764193D01*
X121641048Y-91783878D01*
X121661124Y-91807048D01*
X121661690Y-91806483D01*
X122051562Y-92196355D01*
X122423983Y-91823933D01*
X122424800Y-91821154D01*
X122439504Y-91808412D01*
X122441434Y-91806483D01*
X122441571Y-91806620D01*
X122477604Y-91775399D01*
X122529115Y-91764193D01*
X123237878Y-91764193D01*
X123322422Y-91747375D01*
X123363551Y-91739194D01*
X123481934Y-91690158D01*
X123588476Y-91618970D01*
X125087821Y-90119623D01*
X125149142Y-90086140D01*
X125218833Y-90091124D01*
G37*
%TD.AperFunction*%
%TA.AperFunction,Conductor*%
G36*
X164028300Y-84169144D02*
G01*
X164074055Y-84221947D01*
X164096580Y-84271269D01*
X164097541Y-84273373D01*
X164135160Y-84320056D01*
X164135163Y-84320059D01*
X164135168Y-84320065D01*
X164151686Y-84336583D01*
X164185171Y-84397906D01*
X164180187Y-84467598D01*
X164151686Y-84511945D01*
X159576349Y-89087283D01*
X159515026Y-89120768D01*
X159488668Y-89123602D01*
X159383951Y-89123602D01*
X159338164Y-89131242D01*
X159155015Y-89161804D01*
X158935504Y-89237163D01*
X158935495Y-89237166D01*
X158731371Y-89347633D01*
X158731365Y-89347637D01*
X158548222Y-89490183D01*
X158548219Y-89490186D01*
X158548216Y-89490188D01*
X158548216Y-89490189D01*
X158469618Y-89575569D01*
X158391018Y-89660952D01*
X158314069Y-89778731D01*
X158260922Y-89824088D01*
X158210261Y-89834909D01*
X153090667Y-89834909D01*
X153061833Y-89840643D01*
X153061834Y-89840644D01*
X152945684Y-89863748D01*
X152945676Y-89863750D01*
X152890436Y-89886631D01*
X152890437Y-89886632D01*
X152809099Y-89920323D01*
X152781044Y-89939069D01*
X152686170Y-90002460D01*
X152686169Y-90002461D01*
X151896212Y-90792419D01*
X151896208Y-90792424D01*
X151853463Y-90856400D01*
X151853462Y-90856402D01*
X151814079Y-90915342D01*
X151757508Y-91051917D01*
X151757505Y-91051927D01*
X151728665Y-91196914D01*
X151728665Y-94677535D01*
X151708980Y-94744574D01*
X151680828Y-94775388D01*
X151527383Y-94894819D01*
X151370181Y-95065586D01*
X151243240Y-95259885D01*
X151150007Y-95472433D01*
X151093031Y-95697425D01*
X151093029Y-95697436D01*
X151073865Y-95928727D01*
X151073865Y-95928740D01*
X151093029Y-96160031D01*
X151093031Y-96160042D01*
X151150007Y-96385031D01*
X151162806Y-96414211D01*
X151171707Y-96483511D01*
X151141730Y-96546623D01*
X151136930Y-96551700D01*
X149413642Y-98274988D01*
X149352319Y-98308473D01*
X149304855Y-98305078D01*
X149311264Y-98329280D01*
X149289792Y-98395769D01*
X149274989Y-98413642D01*
X147725451Y-99963181D01*
X147664128Y-99996666D01*
X147637770Y-99999500D01*
X146376686Y-99999500D01*
X146309647Y-99979815D01*
X146263892Y-99927011D01*
X146253948Y-99857853D01*
X146280833Y-99796835D01*
X146294135Y-99780626D01*
X146294137Y-99780623D01*
X146294825Y-99779336D01*
X146382396Y-99615501D01*
X146436747Y-99436331D01*
X146455099Y-99250000D01*
X146436747Y-99063669D01*
X146382396Y-98884499D01*
X146359612Y-98841873D01*
X146294137Y-98719376D01*
X146294135Y-98719373D01*
X146175357Y-98574642D01*
X146030626Y-98455864D01*
X146030623Y-98455862D01*
X145865502Y-98367604D01*
X145686333Y-98313253D01*
X145686331Y-98313252D01*
X145500000Y-98294901D01*
X145326088Y-98312029D01*
X145257442Y-98299010D01*
X145226253Y-98276307D01*
X144949319Y-97999373D01*
X144915834Y-97938050D01*
X144913000Y-97911692D01*
X144913000Y-97500000D01*
X147544901Y-97500000D01*
X147563252Y-97686331D01*
X147563253Y-97686333D01*
X147617604Y-97865502D01*
X147705862Y-98030623D01*
X147705864Y-98030626D01*
X147824642Y-98175357D01*
X147969373Y-98294135D01*
X147969376Y-98294137D01*
X148106825Y-98367604D01*
X148134499Y-98382396D01*
X148313666Y-98436746D01*
X148313668Y-98436747D01*
X148324553Y-98437819D01*
X148500000Y-98455099D01*
X148686331Y-98436747D01*
X148865501Y-98382396D01*
X149030625Y-98294136D01*
X149108643Y-98230107D01*
X149172953Y-98202795D01*
X149206923Y-98208611D01*
X149202277Y-98196153D01*
X149217129Y-98127880D01*
X149230106Y-98108645D01*
X149294136Y-98030625D01*
X149382396Y-97865501D01*
X149436747Y-97686331D01*
X149455099Y-97500000D01*
X149436747Y-97313669D01*
X149382396Y-97134499D01*
X149366738Y-97105204D01*
X149294137Y-96969376D01*
X149294135Y-96969373D01*
X149178647Y-96828651D01*
X149151334Y-96764341D01*
X149150500Y-96749986D01*
X149150500Y-96611999D01*
X149170185Y-96544960D01*
X149222989Y-96499205D01*
X149274500Y-96487999D01*
X149925002Y-96487999D01*
X149925008Y-96487999D01*
X150027797Y-96477499D01*
X150194334Y-96422314D01*
X150343656Y-96330212D01*
X150467712Y-96206156D01*
X150559814Y-96056834D01*
X150614999Y-95890297D01*
X150625500Y-95787509D01*
X150625499Y-95062492D01*
X150625094Y-95058532D01*
X150614999Y-94959703D01*
X150614998Y-94959700D01*
X150593499Y-94894821D01*
X150559814Y-94793166D01*
X150467712Y-94643844D01*
X150343656Y-94519788D01*
X150217750Y-94442129D01*
X150194336Y-94427687D01*
X150194331Y-94427685D01*
X150192862Y-94427198D01*
X150027797Y-94372501D01*
X150027795Y-94372500D01*
X149925010Y-94362000D01*
X148574998Y-94362000D01*
X148574981Y-94362001D01*
X148472203Y-94372500D01*
X148472200Y-94372501D01*
X148305668Y-94427685D01*
X148305663Y-94427687D01*
X148156342Y-94519789D01*
X148032289Y-94643842D01*
X147940187Y-94793163D01*
X147940185Y-94793168D01*
X147926391Y-94834797D01*
X147885001Y-94959703D01*
X147885001Y-94959704D01*
X147885000Y-94959704D01*
X147874500Y-95062483D01*
X147874500Y-95787501D01*
X147874501Y-95787519D01*
X147885001Y-95890300D01*
X147886418Y-95896919D01*
X147883722Y-95897495D01*
X147885695Y-95954993D01*
X147880153Y-95971605D01*
X147874498Y-95985258D01*
X147849500Y-96110928D01*
X147849500Y-96749986D01*
X147829815Y-96817025D01*
X147821353Y-96828651D01*
X147705864Y-96969373D01*
X147705862Y-96969376D01*
X147617604Y-97134497D01*
X147563253Y-97313666D01*
X147563252Y-97313668D01*
X147544901Y-97500000D01*
X144913000Y-97500000D01*
X144913000Y-97191813D01*
X144912999Y-97191798D01*
X144910098Y-97154932D01*
X144910097Y-97154926D01*
X144864245Y-96997106D01*
X144864244Y-96997103D01*
X144864244Y-96997102D01*
X144780581Y-96855635D01*
X144780579Y-96855633D01*
X144780576Y-96855629D01*
X144664370Y-96739423D01*
X144664362Y-96739417D01*
X144547377Y-96670233D01*
X144522898Y-96655756D01*
X144522897Y-96655755D01*
X144522896Y-96655755D01*
X144522893Y-96655754D01*
X144365073Y-96609902D01*
X144365067Y-96609901D01*
X144328201Y-96607000D01*
X144328194Y-96607000D01*
X143896806Y-96607000D01*
X143896798Y-96607000D01*
X143859932Y-96609901D01*
X143859926Y-96609902D01*
X143702106Y-96655754D01*
X143702103Y-96655755D01*
X143560637Y-96739417D01*
X143554469Y-96744202D01*
X143552572Y-96741756D01*
X143503858Y-96768357D01*
X143434166Y-96763373D01*
X143401796Y-96742569D01*
X143400531Y-96744202D01*
X143394362Y-96739417D01*
X143277377Y-96670233D01*
X143252898Y-96655756D01*
X143252897Y-96655755D01*
X143252896Y-96655755D01*
X143252893Y-96655754D01*
X143095073Y-96609902D01*
X143095067Y-96609901D01*
X143058201Y-96607000D01*
X143058194Y-96607000D01*
X142814500Y-96607000D01*
X142747461Y-96587315D01*
X142701706Y-96534511D01*
X142690500Y-96483000D01*
X142690500Y-96042516D01*
X142710185Y-95975477D01*
X142762989Y-95929722D01*
X142801896Y-95919158D01*
X142842638Y-95914996D01*
X143009220Y-95859797D01*
X143158581Y-95767670D01*
X143282670Y-95643581D01*
X143374797Y-95494220D01*
X143429996Y-95327638D01*
X143433065Y-95297602D01*
X143434159Y-95286896D01*
X143460556Y-95222204D01*
X143517738Y-95182054D01*
X143557517Y-95175500D01*
X145539071Y-95175500D01*
X145624285Y-95158549D01*
X145664744Y-95150501D01*
X145783127Y-95101465D01*
X145791380Y-95095950D01*
X145791386Y-95095948D01*
X145791385Y-95095947D01*
X145894735Y-95026892D01*
X145895534Y-95028088D01*
X145953200Y-95003584D01*
X145979735Y-95003345D01*
X145993978Y-95004747D01*
X145999998Y-95005341D01*
X145999999Y-95005341D01*
X145999999Y-95005340D01*
X146000000Y-95005341D01*
X146196132Y-94986024D01*
X146384727Y-94928814D01*
X146558538Y-94835910D01*
X146710883Y-94710883D01*
X146835910Y-94558538D01*
X146905852Y-94427686D01*
X146928811Y-94384733D01*
X146928811Y-94384732D01*
X146928814Y-94384727D01*
X146986024Y-94196132D01*
X147005341Y-94000000D01*
X146986024Y-93803868D01*
X146928814Y-93615273D01*
X146928811Y-93615269D01*
X146928811Y-93615266D01*
X146835913Y-93441467D01*
X146835909Y-93441460D01*
X146710883Y-93289116D01*
X146558539Y-93164090D01*
X146558532Y-93164086D01*
X146384733Y-93071188D01*
X146384727Y-93071186D01*
X146196132Y-93013976D01*
X146196129Y-93013975D01*
X146000000Y-92994659D01*
X145803870Y-93013975D01*
X145615266Y-93071188D01*
X145441467Y-93164086D01*
X145441460Y-93164090D01*
X145289116Y-93289116D01*
X145164090Y-93441460D01*
X145164086Y-93441467D01*
X145071186Y-93615271D01*
X145019245Y-93786496D01*
X144980948Y-93844934D01*
X144917135Y-93873391D01*
X144900585Y-93874500D01*
X143557517Y-93874500D01*
X143490478Y-93854815D01*
X143444723Y-93802011D01*
X143434159Y-93763104D01*
X143432533Y-93747197D01*
X143429996Y-93722362D01*
X143374797Y-93555780D01*
X143282670Y-93406419D01*
X143158581Y-93282330D01*
X143038276Y-93208125D01*
X143009222Y-93190204D01*
X143009217Y-93190202D01*
X142842638Y-93135003D01*
X142739833Y-93124500D01*
X142739826Y-93124500D01*
X141340174Y-93124500D01*
X141340166Y-93124500D01*
X141237361Y-93135003D01*
X141070782Y-93190202D01*
X141070777Y-93190204D01*
X140921417Y-93282331D01*
X140797331Y-93406417D01*
X140705204Y-93555777D01*
X140705202Y-93555782D01*
X140656181Y-93703719D01*
X140626156Y-93752396D01*
X139942137Y-94436414D01*
X139919333Y-94351306D01*
X139860090Y-94248694D01*
X139776306Y-94164910D01*
X139673694Y-94105667D01*
X139588584Y-94082861D01*
X140298797Y-93372647D01*
X140298797Y-93372645D01*
X140268360Y-93348955D01*
X140268354Y-93348951D01*
X140064302Y-93238523D01*
X140064293Y-93238520D01*
X139844860Y-93163188D01*
X139616007Y-93125000D01*
X139383993Y-93125000D01*
X139155139Y-93163188D01*
X138935706Y-93238520D01*
X138935697Y-93238523D01*
X138731650Y-93348949D01*
X138701200Y-93372647D01*
X139411415Y-94082861D01*
X139326306Y-94105667D01*
X139223694Y-94164910D01*
X139139910Y-94248694D01*
X139080667Y-94351306D01*
X139057861Y-94436415D01*
X138348811Y-93727365D01*
X138334106Y-93749873D01*
X138280959Y-93795230D01*
X138211728Y-93804653D01*
X138148392Y-93775150D01*
X138126489Y-93749873D01*
X138120374Y-93740514D01*
X138068979Y-93661847D01*
X137911784Y-93491087D01*
X137911779Y-93491083D01*
X137911777Y-93491081D01*
X137728634Y-93348535D01*
X137728628Y-93348531D01*
X137524504Y-93238064D01*
X137524495Y-93238061D01*
X137304984Y-93162702D01*
X137119981Y-93131831D01*
X137076049Y-93124500D01*
X136843951Y-93124500D01*
X136715725Y-93145896D01*
X136646360Y-93137514D01*
X136607635Y-93111268D01*
X135949811Y-92453444D01*
X135286819Y-91790451D01*
X135253334Y-91729128D01*
X135250500Y-91702770D01*
X135250500Y-87112229D01*
X135270185Y-87045190D01*
X135286819Y-87024548D01*
X135699548Y-86611819D01*
X135760871Y-86578334D01*
X135787229Y-86575500D01*
X136960315Y-86575500D01*
X137027354Y-86595185D01*
X137064123Y-86631678D01*
X137101015Y-86688145D01*
X137101017Y-86688147D01*
X137101021Y-86688153D01*
X137258216Y-86858913D01*
X137258219Y-86858915D01*
X137258222Y-86858918D01*
X137441365Y-87001464D01*
X137441371Y-87001468D01*
X137441374Y-87001470D01*
X137645497Y-87111936D01*
X137701355Y-87131112D01*
X137865015Y-87187297D01*
X137865017Y-87187297D01*
X137865019Y-87187298D01*
X138093951Y-87225500D01*
X138093952Y-87225500D01*
X138326048Y-87225500D01*
X138326049Y-87225500D01*
X138554981Y-87187298D01*
X138774503Y-87111936D01*
X138978626Y-87001470D01*
X139161784Y-86858913D01*
X139170130Y-86849846D01*
X139230010Y-86813854D01*
X139299849Y-86815949D01*
X139357468Y-86855469D01*
X139377544Y-86890491D01*
X139406203Y-86967330D01*
X139406206Y-86967335D01*
X139492452Y-87082544D01*
X139492455Y-87082547D01*
X139607664Y-87168793D01*
X139607671Y-87168797D01*
X139742517Y-87219091D01*
X139742516Y-87219091D01*
X139749444Y-87219835D01*
X139802127Y-87225500D01*
X141697872Y-87225499D01*
X141757483Y-87219091D01*
X141892331Y-87168796D01*
X142007546Y-87082546D01*
X142093796Y-86967331D01*
X142144091Y-86832483D01*
X142150500Y-86772873D01*
X142150499Y-85395807D01*
X142170184Y-85328769D01*
X142186818Y-85308127D01*
X142370627Y-85124319D01*
X142431950Y-85090834D01*
X142458308Y-85088000D01*
X143319204Y-85088000D01*
X143386243Y-85107685D01*
X143431998Y-85160489D01*
X143441942Y-85229647D01*
X143428562Y-85270453D01*
X143367604Y-85384497D01*
X143313253Y-85563666D01*
X143313252Y-85563668D01*
X143294901Y-85750000D01*
X143313252Y-85936331D01*
X143313253Y-85936333D01*
X143367604Y-86115502D01*
X143444687Y-86259714D01*
X143455864Y-86280625D01*
X143571354Y-86421350D01*
X143598666Y-86485656D01*
X143599500Y-86500012D01*
X143599500Y-87525500D01*
X143579815Y-87592539D01*
X143527011Y-87638294D01*
X143475501Y-87649500D01*
X143352130Y-87649500D01*
X143352123Y-87649501D01*
X143292516Y-87655908D01*
X143157671Y-87706202D01*
X143157664Y-87706206D01*
X143042455Y-87792452D01*
X143042452Y-87792455D01*
X142956206Y-87907664D01*
X142956202Y-87907671D01*
X142905908Y-88042517D01*
X142899501Y-88102116D01*
X142899501Y-88102123D01*
X142899500Y-88102135D01*
X142899500Y-88225500D01*
X142879815Y-88292539D01*
X142827011Y-88338294D01*
X142775500Y-88349500D01*
X141772721Y-88349500D01*
X141705682Y-88329815D01*
X141671146Y-88296623D01*
X141668286Y-88292539D01*
X141621346Y-88225500D01*
X141553494Y-88128597D01*
X141386402Y-87961506D01*
X141386395Y-87961501D01*
X141361018Y-87943732D01*
X141347521Y-87934281D01*
X141192834Y-87825967D01*
X141192830Y-87825965D01*
X141179673Y-87819830D01*
X140978663Y-87726097D01*
X140978659Y-87726096D01*
X140978655Y-87726094D01*
X140750413Y-87664938D01*
X140750403Y-87664936D01*
X140515001Y-87644341D01*
X140514999Y-87644341D01*
X140279596Y-87664936D01*
X140279586Y-87664938D01*
X140051344Y-87726094D01*
X140051335Y-87726098D01*
X139837171Y-87825964D01*
X139837169Y-87825965D01*
X139643600Y-87961503D01*
X139521284Y-88083819D01*
X139459961Y-88117303D01*
X139390269Y-88112319D01*
X139334336Y-88070447D01*
X139317421Y-88039470D01*
X139268354Y-87907913D01*
X139268350Y-87907906D01*
X139182190Y-87792812D01*
X139182187Y-87792809D01*
X139067093Y-87706649D01*
X139067086Y-87706645D01*
X138932379Y-87656403D01*
X138932372Y-87656401D01*
X138872844Y-87650000D01*
X138225000Y-87650000D01*
X138225000Y-88566988D01*
X138167993Y-88534075D01*
X138040826Y-88500000D01*
X137909174Y-88500000D01*
X137782007Y-88534075D01*
X137725000Y-88566988D01*
X137725000Y-87650000D01*
X137077155Y-87650000D01*
X137017627Y-87656401D01*
X137017620Y-87656403D01*
X136882913Y-87706645D01*
X136882906Y-87706649D01*
X136767812Y-87792809D01*
X136767809Y-87792812D01*
X136681649Y-87907906D01*
X136681645Y-87907913D01*
X136631403Y-88042620D01*
X136631401Y-88042627D01*
X136625000Y-88102155D01*
X136625000Y-88750000D01*
X137541988Y-88750000D01*
X137509075Y-88807007D01*
X137475000Y-88934174D01*
X137475000Y-89065826D01*
X137509075Y-89192993D01*
X137541988Y-89250000D01*
X136625000Y-89250000D01*
X136625000Y-89897844D01*
X136631401Y-89957372D01*
X136631403Y-89957379D01*
X136681645Y-90092086D01*
X136681649Y-90092093D01*
X136767809Y-90207187D01*
X136767812Y-90207190D01*
X136882906Y-90293350D01*
X136882913Y-90293354D01*
X137017620Y-90343596D01*
X137017627Y-90343598D01*
X137077155Y-90349999D01*
X137077172Y-90350000D01*
X137725000Y-90350000D01*
X137725000Y-89433012D01*
X137782007Y-89465925D01*
X137909174Y-89500000D01*
X138040826Y-89500000D01*
X138167993Y-89465925D01*
X138225000Y-89433012D01*
X138225000Y-90350000D01*
X138872828Y-90350000D01*
X138872844Y-90349999D01*
X138932372Y-90343598D01*
X138932379Y-90343596D01*
X139067086Y-90293354D01*
X139067093Y-90293350D01*
X139182187Y-90207190D01*
X139182190Y-90207187D01*
X139268350Y-90092093D01*
X139268354Y-90092086D01*
X139317422Y-89960529D01*
X139359293Y-89904595D01*
X139424757Y-89880178D01*
X139493030Y-89895030D01*
X139521285Y-89916181D01*
X139643599Y-90038495D01*
X139739028Y-90105315D01*
X139837165Y-90174032D01*
X139837167Y-90174033D01*
X139837170Y-90174035D01*
X140051337Y-90273903D01*
X140279592Y-90335063D01*
X140456034Y-90350500D01*
X140514999Y-90355659D01*
X140515000Y-90355659D01*
X140515001Y-90355659D01*
X140573966Y-90350500D01*
X140750408Y-90335063D01*
X140978663Y-90273903D01*
X141192830Y-90174035D01*
X141386401Y-90038495D01*
X141553495Y-89871401D01*
X141671147Y-89703377D01*
X141725724Y-89659752D01*
X141772722Y-89650500D01*
X142775501Y-89650500D01*
X142842540Y-89670185D01*
X142888295Y-89722989D01*
X142899501Y-89774500D01*
X142899501Y-89897876D01*
X142905908Y-89957483D01*
X142956202Y-90092328D01*
X142956206Y-90092335D01*
X143042452Y-90207544D01*
X143042455Y-90207547D01*
X143157664Y-90293793D01*
X143157671Y-90293797D01*
X143292517Y-90344091D01*
X143292516Y-90344091D01*
X143299444Y-90344835D01*
X143352127Y-90350500D01*
X145147872Y-90350499D01*
X145207483Y-90344091D01*
X145342331Y-90293796D01*
X145457546Y-90207546D01*
X145543796Y-90092331D01*
X145594091Y-89957483D01*
X145600500Y-89897873D01*
X145600499Y-88102128D01*
X145594091Y-88042517D01*
X145588673Y-88027991D01*
X145543797Y-87907671D01*
X145543793Y-87907664D01*
X145457547Y-87792455D01*
X145457544Y-87792452D01*
X145342335Y-87706206D01*
X145342328Y-87706202D01*
X145207482Y-87655908D01*
X145207483Y-87655908D01*
X145147883Y-87649501D01*
X145147881Y-87649500D01*
X145147873Y-87649500D01*
X145147865Y-87649500D01*
X145024500Y-87649500D01*
X144957461Y-87629815D01*
X144911706Y-87577011D01*
X144900500Y-87525500D01*
X144900500Y-86500012D01*
X144920185Y-86432973D01*
X144928633Y-86421364D01*
X145044136Y-86280625D01*
X145132396Y-86115501D01*
X145186747Y-85936331D01*
X145205099Y-85750000D01*
X145186747Y-85563669D01*
X145132396Y-85384499D01*
X145131271Y-85382395D01*
X145101986Y-85327605D01*
X145087744Y-85259203D01*
X145112744Y-85193959D01*
X145169049Y-85152588D01*
X145238782Y-85148226D01*
X145299025Y-85181471D01*
X145538457Y-85420903D01*
X145571942Y-85482226D01*
X145573905Y-85496896D01*
X145574180Y-85496868D01*
X145585001Y-85602797D01*
X145585001Y-85602799D01*
X145640185Y-85769331D01*
X145640187Y-85769336D01*
X145656663Y-85796048D01*
X145732288Y-85918656D01*
X145856344Y-86042712D01*
X146005666Y-86134814D01*
X146172203Y-86189999D01*
X146274991Y-86200500D01*
X146900008Y-86200499D01*
X146900016Y-86200498D01*
X146900019Y-86200498D01*
X146956302Y-86194748D01*
X147002797Y-86189999D01*
X147169334Y-86134814D01*
X147318656Y-86042712D01*
X147412319Y-85949049D01*
X147473642Y-85915564D01*
X147543334Y-85920548D01*
X147587681Y-85949049D01*
X147681344Y-86042712D01*
X147790597Y-86110099D01*
X147837321Y-86162047D01*
X147849500Y-86215638D01*
X147849500Y-86946984D01*
X147832232Y-87010105D01*
X147748255Y-87152103D01*
X147748254Y-87152106D01*
X147702402Y-87309926D01*
X147702401Y-87309932D01*
X147699500Y-87346798D01*
X147699500Y-88513000D01*
X147679815Y-88580039D01*
X147627011Y-88625794D01*
X147575500Y-88637000D01*
X147334298Y-88637000D01*
X147297432Y-88639901D01*
X147297426Y-88639902D01*
X147139606Y-88685754D01*
X147139603Y-88685755D01*
X146998137Y-88769417D01*
X146998129Y-88769423D01*
X146881923Y-88885629D01*
X146881917Y-88885637D01*
X146798255Y-89027103D01*
X146798254Y-89027106D01*
X146752402Y-89184926D01*
X146752401Y-89184932D01*
X146749500Y-89221798D01*
X146749500Y-90528201D01*
X146752401Y-90565067D01*
X146752402Y-90565073D01*
X146798254Y-90722893D01*
X146798255Y-90722896D01*
X146798256Y-90722898D01*
X146835681Y-90786181D01*
X146881917Y-90864362D01*
X146881923Y-90864370D01*
X146998129Y-90980576D01*
X146998133Y-90980579D01*
X146998135Y-90980581D01*
X147139602Y-91064244D01*
X147151680Y-91067753D01*
X147297426Y-91110097D01*
X147297429Y-91110097D01*
X147297431Y-91110098D01*
X147334306Y-91113000D01*
X147334314Y-91113000D01*
X147765686Y-91113000D01*
X147765694Y-91113000D01*
X147800803Y-91110237D01*
X147803599Y-91110017D01*
X147871976Y-91124382D01*
X147901008Y-91145954D01*
X148165874Y-91410820D01*
X148199359Y-91472143D01*
X148194375Y-91541835D01*
X148160347Y-91588577D01*
X148161451Y-91589681D01*
X148032289Y-91718842D01*
X147940187Y-91868163D01*
X147940186Y-91868166D01*
X147885001Y-92034703D01*
X147885001Y-92034704D01*
X147885000Y-92034704D01*
X147874500Y-92137483D01*
X147874500Y-92862501D01*
X147874501Y-92862519D01*
X147885000Y-92965296D01*
X147885001Y-92965299D01*
X147940185Y-93131831D01*
X147940187Y-93131836D01*
X147960188Y-93164263D01*
X148032288Y-93281156D01*
X148156344Y-93405212D01*
X148305666Y-93497314D01*
X148472203Y-93552499D01*
X148574991Y-93563000D01*
X149925008Y-93562999D01*
X150027797Y-93552499D01*
X150194334Y-93497314D01*
X150343656Y-93405212D01*
X150467712Y-93281156D01*
X150559814Y-93131834D01*
X150614999Y-92965297D01*
X150625500Y-92862509D01*
X150625499Y-92137492D01*
X150618221Y-92066249D01*
X150614999Y-92034703D01*
X150614998Y-92034700D01*
X150603528Y-92000087D01*
X150559814Y-91868166D01*
X150467712Y-91718844D01*
X150343656Y-91594788D01*
X150223976Y-91520969D01*
X150194336Y-91502687D01*
X150194331Y-91502685D01*
X150192862Y-91502198D01*
X150027797Y-91447501D01*
X150027794Y-91447500D01*
X149969326Y-91441527D01*
X149904634Y-91415130D01*
X149867368Y-91365621D01*
X149826466Y-91266875D01*
X149819299Y-91256149D01*
X149811377Y-91244293D01*
X149790500Y-91177617D01*
X149808984Y-91110237D01*
X149854453Y-91069393D01*
X149853483Y-91067753D01*
X150001552Y-90980185D01*
X150001561Y-90980178D01*
X150117678Y-90864061D01*
X150117685Y-90864052D01*
X150201282Y-90722696D01*
X150201283Y-90722693D01*
X150247099Y-90564995D01*
X150247100Y-90564989D01*
X150249999Y-90528149D01*
X150250000Y-90528134D01*
X150250000Y-90125000D01*
X149324000Y-90125000D01*
X149256961Y-90105315D01*
X149211206Y-90052511D01*
X149200000Y-90001000D01*
X149200000Y-88969314D01*
X149217267Y-88906194D01*
X149251744Y-88847898D01*
X149285505Y-88731691D01*
X149297597Y-88690073D01*
X149297598Y-88690067D01*
X149297937Y-88685756D01*
X149300500Y-88653194D01*
X149300500Y-88640203D01*
X149700000Y-88640203D01*
X149700000Y-89625000D01*
X150250000Y-89625000D01*
X150250000Y-89221865D01*
X150249999Y-89221850D01*
X150247100Y-89185010D01*
X150247099Y-89185004D01*
X150201283Y-89027306D01*
X150201282Y-89027303D01*
X150117685Y-88885947D01*
X150117678Y-88885938D01*
X150001561Y-88769821D01*
X150001552Y-88769814D01*
X149860196Y-88686217D01*
X149860193Y-88686216D01*
X149702494Y-88640400D01*
X149702497Y-88640400D01*
X149700000Y-88640203D01*
X149300500Y-88640203D01*
X149300500Y-87346806D01*
X149297598Y-87309931D01*
X149291360Y-87288461D01*
X149251745Y-87152106D01*
X149251744Y-87152103D01*
X149251744Y-87152102D01*
X149176309Y-87024548D01*
X149167768Y-87010105D01*
X149150500Y-86946984D01*
X149150500Y-86087230D01*
X149170185Y-86020191D01*
X149186819Y-85999549D01*
X149267712Y-85918656D01*
X149359814Y-85769334D01*
X149371028Y-85735494D01*
X149410801Y-85678050D01*
X149475317Y-85651228D01*
X149488733Y-85650500D01*
X153314071Y-85650500D01*
X153398615Y-85633682D01*
X153439744Y-85625501D01*
X153558127Y-85576465D01*
X153577278Y-85563669D01*
X153664669Y-85505277D01*
X153679632Y-85490312D01*
X153740949Y-85456828D01*
X153755146Y-85454592D01*
X153936331Y-85436747D01*
X154115501Y-85382396D01*
X154280625Y-85294136D01*
X154425357Y-85175357D01*
X154544136Y-85030625D01*
X154632396Y-84865501D01*
X154686747Y-84686331D01*
X154705099Y-84500000D01*
X154686747Y-84313669D01*
X154685469Y-84309456D01*
X154684844Y-84239589D01*
X154722092Y-84180476D01*
X154785385Y-84150884D01*
X154804129Y-84149459D01*
X163961261Y-84149459D01*
X164028300Y-84169144D01*
G37*
%TD.AperFunction*%
%TA.AperFunction,Conductor*%
G36*
X155742722Y-97074294D02*
G01*
X155793684Y-97105052D01*
X156348924Y-97660292D01*
X156382409Y-97721615D01*
X156377425Y-97791307D01*
X156335553Y-97847240D01*
X156270089Y-97871657D01*
X156232647Y-97868631D01*
X156203198Y-97861651D01*
X156159011Y-97851179D01*
X155983523Y-97851179D01*
X155983522Y-97851179D01*
X155812766Y-97891649D01*
X155762192Y-97917049D01*
X155673493Y-97961595D01*
X155617843Y-97974785D01*
X154650494Y-97974785D01*
X154694549Y-97898479D01*
X154725216Y-97784029D01*
X154725216Y-97665541D01*
X154694549Y-97551091D01*
X154650494Y-97474785D01*
X155656099Y-97474785D01*
X155603898Y-97268649D01*
X155592447Y-97242543D01*
X155583544Y-97173243D01*
X155613521Y-97110131D01*
X155672860Y-97073244D01*
X155742722Y-97074294D01*
G37*
%TD.AperFunction*%
%TA.AperFunction,Conductor*%
G36*
X157219455Y-91355594D02*
G01*
X157265210Y-91408398D01*
X157275154Y-91477556D01*
X157246129Y-91541112D01*
X157240097Y-91547590D01*
X156820621Y-91967065D01*
X156820621Y-91967066D01*
X157469029Y-92615474D01*
X157405446Y-92632512D01*
X157291432Y-92698338D01*
X157198340Y-92791430D01*
X157132514Y-92905444D01*
X157115476Y-92969027D01*
X156467068Y-92320619D01*
X156467067Y-92320619D01*
X156008987Y-92778699D01*
X155971403Y-92825339D01*
X155911677Y-92956118D01*
X155911676Y-92956123D01*
X155891216Y-93098437D01*
X155911676Y-93240750D01*
X155911677Y-93240755D01*
X155971403Y-93371534D01*
X156008983Y-93418169D01*
X156467068Y-93876254D01*
X157115476Y-93227846D01*
X157132514Y-93291430D01*
X157198340Y-93405444D01*
X157291432Y-93498536D01*
X157405446Y-93564362D01*
X157469029Y-93581399D01*
X156820621Y-94229806D01*
X156820621Y-94229807D01*
X157278706Y-94687892D01*
X157325341Y-94725472D01*
X157456120Y-94785198D01*
X157456125Y-94785199D01*
X157598439Y-94805659D01*
X157740752Y-94785199D01*
X157740753Y-94785198D01*
X157867606Y-94727266D01*
X157936765Y-94717322D01*
X158000321Y-94746346D01*
X158038096Y-94805124D01*
X158042647Y-94850867D01*
X158038831Y-94894485D01*
X158038831Y-94894488D01*
X158059426Y-95129891D01*
X158059428Y-95129901D01*
X158120584Y-95358143D01*
X158120586Y-95358147D01*
X158120587Y-95358151D01*
X158168123Y-95460092D01*
X158220455Y-95572318D01*
X158220457Y-95572322D01*
X158323426Y-95719376D01*
X158355995Y-95765889D01*
X158523089Y-95932983D01*
X158619874Y-96000753D01*
X158716655Y-96068520D01*
X158716657Y-96068521D01*
X158716660Y-96068523D01*
X158930827Y-96168391D01*
X158930833Y-96168392D01*
X158930834Y-96168393D01*
X158971137Y-96179192D01*
X159159082Y-96229551D01*
X159347408Y-96246027D01*
X159394489Y-96250147D01*
X159394490Y-96250147D01*
X159394491Y-96250147D01*
X159433724Y-96246714D01*
X159629898Y-96229551D01*
X159858153Y-96168391D01*
X160072320Y-96068523D01*
X160265891Y-95932983D01*
X160432985Y-95765889D01*
X160510232Y-95655569D01*
X160564809Y-95611944D01*
X160634307Y-95604750D01*
X160696662Y-95636273D01*
X160732076Y-95696503D01*
X160735807Y-95726692D01*
X160735807Y-95950376D01*
X160735807Y-95950378D01*
X160735806Y-95950378D01*
X160757663Y-96060254D01*
X160760805Y-96076047D01*
X160760806Y-96076050D01*
X160790306Y-96147272D01*
X160799147Y-96206874D01*
X160794901Y-96249996D01*
X160794901Y-96250000D01*
X160796546Y-96266705D01*
X160813252Y-96436331D01*
X160813253Y-96436333D01*
X160867604Y-96615502D01*
X160955862Y-96780623D01*
X160956854Y-96781831D01*
X160957175Y-96782588D01*
X160959250Y-96785693D01*
X160958661Y-96786086D01*
X160984170Y-96846140D01*
X160972381Y-96915008D01*
X160925231Y-96966570D01*
X160861004Y-96984500D01*
X157847230Y-96984500D01*
X157780191Y-96964815D01*
X157759549Y-96948181D01*
X156157155Y-95345786D01*
X156157148Y-95345780D01*
X156083463Y-95296546D01*
X156083463Y-95296547D01*
X156034225Y-95263647D01*
X155897651Y-95207077D01*
X155897641Y-95207074D01*
X155752654Y-95178234D01*
X155752652Y-95178234D01*
X153728850Y-95178234D01*
X153661811Y-95158549D01*
X153625042Y-95122056D01*
X153588149Y-95065588D01*
X153588147Y-95065586D01*
X153588144Y-95065581D01*
X153430949Y-94894821D01*
X153353637Y-94834647D01*
X153277502Y-94775388D01*
X153236689Y-94718678D01*
X153229665Y-94677535D01*
X153229665Y-91633065D01*
X153249350Y-91566026D01*
X153265984Y-91545384D01*
X153439140Y-91372228D01*
X153500463Y-91338743D01*
X153526821Y-91335909D01*
X157152416Y-91335909D01*
X157219455Y-91355594D01*
G37*
%TD.AperFunction*%
%TA.AperFunction,Conductor*%
G36*
X158357476Y-91355594D02*
G01*
X158388286Y-91383741D01*
X158391016Y-91387249D01*
X158391019Y-91387253D01*
X158391021Y-91387255D01*
X158548216Y-91558015D01*
X158548219Y-91558017D01*
X158548222Y-91558020D01*
X158731365Y-91700566D01*
X158731371Y-91700570D01*
X158731374Y-91700572D01*
X158802743Y-91739195D01*
X158930644Y-91808412D01*
X158935497Y-91811038D01*
X159049487Y-91850170D01*
X159155015Y-91886399D01*
X159155017Y-91886399D01*
X159155019Y-91886400D01*
X159383951Y-91924602D01*
X159383952Y-91924602D01*
X159460731Y-91924602D01*
X159527770Y-91944287D01*
X159573525Y-91997091D01*
X159583469Y-92066249D01*
X159573525Y-92100114D01*
X159538093Y-92177696D01*
X159517612Y-92320153D01*
X159538093Y-92462609D01*
X159597880Y-92593523D01*
X159597881Y-92593524D01*
X159597882Y-92593526D01*
X159635501Y-92640209D01*
X159635504Y-92640212D01*
X159635509Y-92640218D01*
X160699488Y-93704195D01*
X160732973Y-93765518D01*
X160735807Y-93791876D01*
X160735807Y-94062284D01*
X160716122Y-94129323D01*
X160663318Y-94175078D01*
X160594160Y-94185022D01*
X160530604Y-94155997D01*
X160510232Y-94133407D01*
X160432984Y-94023085D01*
X160265892Y-93855994D01*
X160265885Y-93855989D01*
X160264208Y-93854815D01*
X160188797Y-93802011D01*
X160072324Y-93720455D01*
X160072320Y-93720453D01*
X159958987Y-93667605D01*
X159858153Y-93620585D01*
X159858149Y-93620584D01*
X159858145Y-93620582D01*
X159629903Y-93559426D01*
X159629893Y-93559424D01*
X159394491Y-93538829D01*
X159394488Y-93538829D01*
X159350869Y-93542645D01*
X159282369Y-93528878D01*
X159232186Y-93480263D01*
X159216253Y-93412234D01*
X159227268Y-93367604D01*
X159285200Y-93240751D01*
X159285201Y-93240750D01*
X159305661Y-93098437D01*
X159285201Y-92956123D01*
X159285200Y-92956118D01*
X159225474Y-92825339D01*
X159187894Y-92778704D01*
X158729809Y-92320619D01*
X158729808Y-92320619D01*
X158081401Y-92969026D01*
X158064364Y-92905444D01*
X157998538Y-92791430D01*
X157905446Y-92698338D01*
X157791432Y-92632512D01*
X157727849Y-92615474D01*
X158376256Y-91967066D01*
X157956780Y-91547590D01*
X157923295Y-91486267D01*
X157928279Y-91416575D01*
X157970151Y-91360642D01*
X158035615Y-91336225D01*
X158044461Y-91335909D01*
X158290437Y-91335909D01*
X158357476Y-91355594D01*
G37*
%TD.AperFunction*%
%TD*%
M02*
