M48
; DRILL file {KiCad 8.0.0} date 2024-03-24T16:16:40+0200
; FORMAT={-:-/ absolute / inch / decimal}
; #@! TF.CreationDate,2024-03-24T16:16:40+02:00
; #@! TF.GenerationSoftware,Kicad,Pcbnew,8.0.0
; #@! TF.FileFunction,Plated,1,2,PTH
FMAT,2
INCH
; #@! TA.AperFunction,Plated,PTH,ViaDrill
T1C0.0118
; #@! TA.AperFunction,Plated,PTH,ViaDrill
T2C0.0236
; #@! TA.AperFunction,Plated,PTH,ComponentDrill
T3C0.0354
; #@! TA.AperFunction,Plated,PTH,ComponentDrill
T4C0.0394
%
G90
G05
T1
X5.7185Y-4.3976
X5.748Y-4.1142
X6.0827Y-4.3976
T2
X4.6457Y-4.0453
X4.8628Y-3.8195
X5.1961Y-3.8674
X5.2362Y-3.9862
X5.6299Y-3.2185
X5.6791Y-3.376
X5.7283Y-3.9075
X5.8268Y-4.0551
X5.8465Y-3.8386
X5.9087Y-4.0224
X6.0138Y-3.4744
X6.0531Y-3.3268
X6.0827Y-3.2441
X6.3681Y-3.7894
X6.378Y-3.9961
X6.3973Y-4.0949
X6.4764Y-4.1831
X6.4961Y-4.1043
T3
X4.649Y-3.6579
X4.7197Y-3.5872
X4.857Y-3.9575
X4.9277Y-3.8868
X4.9985Y-3.8161
X5.3921Y-3.7215
X5.4413Y-3.3789
X5.4921Y-3.7215
X5.5413Y-3.3789
X5.5921Y-3.7215
X6.0031Y-3.7767
X6.0738Y-3.8474
X6.1445Y-3.9181
X6.2795Y-3.5639
X6.3502Y-3.6347
T4
X4.3809Y-4.1234
X4.3809Y-4.2234
X4.3886Y-3.937
X4.3939Y-3.4169
X4.4646Y-3.3462
X4.4886Y-3.937
X4.6358Y-3.9173
X4.7345Y-3.7478
X4.8052Y-3.6771
X4.8724Y-4.1913
X4.8724Y-4.2913
X4.9724Y-4.1913
X4.9724Y-4.2913
X5.0724Y-4.1913
X5.0724Y-4.2913
X5.1724Y-4.1913
X5.1724Y-4.2913
X5.2724Y-4.1913
X5.2724Y-4.2913
X5.3724Y-4.1913
X5.3724Y-4.2913
X5.4321Y-3.5039
X5.4522Y-3.0217
X5.4724Y-4.1913
X5.4724Y-4.2913
X5.5321Y-3.5039
X5.5522Y-3.0217
X5.5724Y-4.1913
X5.5724Y-4.2913
X5.6724Y-4.1913
X5.6724Y-4.2913
X5.6791Y-3.5039
X5.747Y-3.1791
X5.7671Y-3.0315
X5.7724Y-4.1913
X5.7724Y-4.2913
X5.847Y-3.1791
X5.8671Y-3.0315
X5.8724Y-4.1913
X5.8724Y-4.2913
X5.9724Y-4.1913
X5.9724Y-4.2913
X6.0724Y-4.1913
X6.0724Y-4.2913
X6.1724Y-4.1913
X6.1724Y-4.2913
X6.2047Y-3.6653
X6.2754Y-3.736
X6.4665Y-3.8567
X6.4665Y-3.9567
X6.5246Y-3.3071
X6.5354Y-3.6811
X6.5953Y-3.3778
X6.6142Y-3.8478
X6.6142Y-3.9478
M30
