%TF.GenerationSoftware,KiCad,Pcbnew,8.0.0*%
%TF.CreationDate,2024-03-24T12:31:55+02:00*%
%TF.ProjectId,sensor,73656e73-6f72-42e6-9b69-6361645f7063,rev?*%
%TF.SameCoordinates,Original*%
%TF.FileFunction,Copper,L2,Bot*%
%TF.FilePolarity,Positive*%
%FSLAX46Y46*%
G04 Gerber Fmt 4.6, Leading zero omitted, Abs format (unit mm)*
G04 Created by KiCad (PCBNEW 8.0.0) date 2024-03-24 12:31:55*
%MOMM*%
%LPD*%
G01*
G04 APERTURE LIST*
G04 Aperture macros list*
%AMRoundRect*
0 Rectangle with rounded corners*
0 $1 Rounding radius*
0 $2 $3 $4 $5 $6 $7 $8 $9 X,Y pos of 4 corners*
0 Add a 4 corners polygon primitive as box body*
4,1,4,$2,$3,$4,$5,$6,$7,$8,$9,$2,$3,0*
0 Add four circle primitives for the rounded corners*
1,1,$1+$1,$2,$3*
1,1,$1+$1,$4,$5*
1,1,$1+$1,$6,$7*
1,1,$1+$1,$8,$9*
0 Add four rect primitives between the rounded corners*
20,1,$1+$1,$2,$3,$4,$5,0*
20,1,$1+$1,$4,$5,$6,$7,0*
20,1,$1+$1,$6,$7,$8,$9,0*
20,1,$1+$1,$8,$9,$2,$3,0*%
%AMHorizOval*
0 Thick line with rounded ends*
0 $1 width*
0 $2 $3 position (X,Y) of the first rounded end (center of the circle)*
0 $4 $5 position (X,Y) of the second rounded end (center of the circle)*
0 Add line between two ends*
20,1,$1,$2,$3,$4,$5,0*
0 Add two circle primitives to create the rounded ends*
1,1,$1,$2,$3*
1,1,$1,$4,$5*%
%AMRotRect*
0 Rectangle, with rotation*
0 The origin of the aperture is its center*
0 $1 length*
0 $2 width*
0 $3 Rotation angle, in degrees counterclockwise*
0 Add horizontal line*
21,1,$1,$2,0,0,$3*%
G04 Aperture macros list end*
%TA.AperFunction,ComponentPad*%
%ADD10R,1.700000X1.700000*%
%TD*%
%TA.AperFunction,ComponentPad*%
%ADD11O,1.700000X1.700000*%
%TD*%
%TA.AperFunction,ComponentPad*%
%ADD12RotRect,1.700000X1.700000X315.000000*%
%TD*%
%TA.AperFunction,ComponentPad*%
%ADD13HorizOval,1.700000X0.000000X0.000000X0.000000X0.000000X0*%
%TD*%
%TA.AperFunction,ComponentPad*%
%ADD14RoundRect,0.250200X0.649800X0.649800X-0.649800X0.649800X-0.649800X-0.649800X0.649800X-0.649800X0*%
%TD*%
%TA.AperFunction,ComponentPad*%
%ADD15C,1.800000*%
%TD*%
%TA.AperFunction,ComponentPad*%
%ADD16RotRect,1.800000X1.800000X135.000000*%
%TD*%
%TA.AperFunction,ComponentPad*%
%ADD17R,1.800000X1.800000*%
%TD*%
%TA.AperFunction,ComponentPad*%
%ADD18RotRect,1.700000X1.700000X45.000000*%
%TD*%
%TA.AperFunction,ComponentPad*%
%ADD19HorizOval,1.700000X0.000000X0.000000X0.000000X0.000000X0*%
%TD*%
%TA.AperFunction,ComponentPad*%
%ADD20RoundRect,0.250200X0.000000X0.918956X-0.918956X0.000000X0.000000X-0.918956X0.918956X0.000000X0*%
%TD*%
%TA.AperFunction,ComponentPad*%
%ADD21RotRect,1.800000X1.800000X225.000000*%
%TD*%
%TA.AperFunction,ComponentPad*%
%ADD22RoundRect,0.250200X0.918956X0.000000X0.000000X0.918956X-0.918956X0.000000X0.000000X-0.918956X0*%
%TD*%
%TA.AperFunction,ViaPad*%
%ADD23C,0.900000*%
%TD*%
%TA.AperFunction,Conductor*%
%ADD24C,0.500000*%
%TD*%
%TA.AperFunction,Conductor*%
%ADD25C,0.300000*%
%TD*%
G04 APERTURE END LIST*
D10*
%TO.P,J9,1,Pin_1*%
%TO.N,Net-(J8-Pin_2)*%
X168000000Y-100275000D03*
D11*
%TO.P,J9,2,Pin_2*%
%TO.N,Net-(J9-Pin_2)*%
X168000000Y-97735000D03*
%TD*%
D12*
%TO.P,J5,1,Pin_1*%
%TO.N,GND*%
X122051562Y-93398437D03*
D13*
%TO.P,J5,2,Pin_2*%
%TO.N,Net-(J5-Pin_2)*%
X120255511Y-95194488D03*
%TD*%
D10*
%TO.P,J15,1,Pin_1*%
%TO.N,Net-(J13-Pin_2)*%
X144250000Y-89000000D03*
%TD*%
D12*
%TO.P,J1,1,Pin_1*%
%TO.N,/3V3*%
X113401562Y-84992926D03*
D13*
%TO.P,J1,2,Pin_2*%
%TO.N,Net-(J1-Pin_2)*%
X111605511Y-86788977D03*
%TD*%
D14*
%TO.P,U4,1,OUT*%
%TO.N,Net-(U1C-+)*%
X142040000Y-94525000D03*
D15*
%TO.P,U4,2,GND*%
%TO.N,GND*%
X139500000Y-94525000D03*
%TO.P,U4,3,Vs*%
%TO.N,/3V3*%
X136960000Y-94525000D03*
%TD*%
D16*
%TO.P,D3,1,K*%
%TO.N,Net-(D3-K)*%
X161386307Y-92381460D03*
D15*
%TO.P,D3,2,A*%
%TO.N,/3V3*%
X159590256Y-90585409D03*
%TD*%
D10*
%TO.P,J2,1,Pin_1*%
%TO.N,Net-(J1-Pin_2)*%
X111275000Y-107275000D03*
D11*
%TO.P,J2,2,Pin_2*%
%TO.N,Net-(J2-Pin_2)*%
X111275000Y-104735000D03*
%TD*%
D17*
%TO.P,D5,1,K*%
%TO.N,Net-(D5-K)*%
X140750000Y-85825000D03*
D15*
%TO.P,D5,2,A*%
%TO.N,/3V3*%
X138210000Y-85825000D03*
%TD*%
D18*
%TO.P,J12,1,Pin_1*%
%TO.N,GND*%
X157598439Y-93098437D03*
D19*
%TO.P,J12,2,Pin_2*%
%TO.N,Net-(J12-Pin_2)*%
X159394490Y-94894488D03*
%TD*%
D20*
%TO.P,U2,1,OUT*%
%TO.N,Net-(U1A-+)*%
X126960836Y-96928734D03*
D15*
%TO.P,U2,2,GND*%
%TO.N,GND*%
X125164785Y-98724785D03*
%TO.P,U2,3,Vs*%
%TO.N,/3V3*%
X123368734Y-100520836D03*
%TD*%
D10*
%TO.P,J3,1,Pin_1*%
%TO.N,/3V3*%
X123600000Y-106250000D03*
D11*
%TO.P,J3,2,Pin_2*%
%TO.N,/BATT*%
X123600000Y-108790000D03*
%TO.P,J3,3,Pin_3*%
%TO.N,/RESV2*%
X126140000Y-106250000D03*
%TO.P,J3,4,Pin_4*%
%TO.N,/PE15*%
X126140000Y-108790000D03*
%TO.P,J3,5,Pin_5*%
%TO.N,/PE14*%
X128680000Y-106250000D03*
%TO.P,J3,6,Pin_6*%
%TO.N,/PA13*%
X128680000Y-108790000D03*
%TO.P,J3,7,Pin_7*%
%TO.N,/PE12*%
X131220000Y-106250000D03*
%TO.P,J3,8,Pin_8*%
%TO.N,/PE11*%
X131220000Y-108790000D03*
%TO.P,J3,9,Pin_9*%
%TO.N,/PA10*%
X133760000Y-106250000D03*
%TO.P,J3,10,Pin_10*%
%TO.N,/PE9*%
X133760000Y-108790000D03*
%TO.P,J3,11,Pin_11*%
%TO.N,/PE8*%
X136300000Y-106250000D03*
%TO.P,J3,12,Pin_12*%
%TO.N,/RESV1*%
X136300000Y-108790000D03*
%TO.P,J3,13,Pin_13*%
%TO.N,/BATT*%
X138840000Y-106250000D03*
%TO.P,J3,14,Pin_14*%
%TO.N,/3V3*%
X138840000Y-108790000D03*
%TO.P,J3,15,Pin_15*%
%TO.N,GND*%
X141380000Y-106250000D03*
%TO.P,J3,16,Pin_16*%
%TO.N,/AB0*%
X141380000Y-108790000D03*
%TO.P,J3,17,Pin_17*%
%TO.N,/PC5*%
X143920000Y-106250000D03*
%TO.P,J3,18,Pin_18*%
%TO.N,GND*%
X143920000Y-108790000D03*
%TO.P,J3,19,Pin_19*%
%TO.N,/PC4*%
X146460000Y-106250000D03*
%TO.P,J3,20,Pin_20*%
%TO.N,/PA7*%
X146460000Y-108790000D03*
%TO.P,J3,21,Pin_21*%
%TO.N,GND*%
X149000000Y-106250000D03*
%TO.P,J3,22,Pin_22*%
%TO.N,/PA6*%
X149000000Y-108790000D03*
%TO.P,J3,23,Pin_23*%
%TO.N,/PA5*%
X151540000Y-106250000D03*
%TO.P,J3,24,Pin_24*%
%TO.N,GND*%
X151540000Y-108790000D03*
%TO.P,J3,25,Pin_25*%
%TO.N,/PA4*%
X154080000Y-106250000D03*
%TO.P,J3,26,Pin_26*%
%TO.N,/PA3*%
X154080000Y-108790000D03*
%TO.P,J3,27,Pin_27*%
%TO.N,GND*%
X156620000Y-106250000D03*
%TO.P,J3,28,Pin_28*%
%TO.N,/RESV3*%
X156620000Y-108790000D03*
%TD*%
D10*
%TO.P,J11,1,Pin_1*%
%TO.N,Net-(J10-Pin_2)*%
X145975000Y-80750000D03*
D11*
%TO.P,J11,2,Pin_2*%
%TO.N,Net-(J11-Pin_2)*%
X148515000Y-80750000D03*
%TD*%
D10*
%TO.P,J13,1,Pin_1*%
%TO.N,GND*%
X137975000Y-89000000D03*
D11*
%TO.P,J13,2,Pin_2*%
%TO.N,Net-(J13-Pin_2)*%
X140515000Y-89000000D03*
%TD*%
D18*
%TO.P,J8,1,Pin_1*%
%TO.N,/3V3*%
X165725000Y-84000000D03*
D19*
%TO.P,J8,2,Pin_2*%
%TO.N,Net-(J8-Pin_2)*%
X167521051Y-85796051D03*
%TD*%
D10*
%TO.P,J10,1,Pin_1*%
%TO.N,/3V3*%
X141025000Y-76750000D03*
D11*
%TO.P,J10,2,Pin_2*%
%TO.N,Net-(J10-Pin_2)*%
X138485000Y-76750000D03*
%TD*%
D10*
%TO.P,J7,1,Pin_1*%
%TO.N,Net-(J5-Pin_2)*%
X114010000Y-100000000D03*
D11*
%TO.P,J7,2,Pin_2*%
%TO.N,/3V3*%
X111470000Y-100000000D03*
%TD*%
D10*
%TO.P,J14,1,Pin_1*%
%TO.N,Net-(J12-Pin_2)*%
X166000000Y-93500000D03*
%TD*%
D21*
%TO.P,D1,1,K*%
%TO.N,Net-(D1-K)*%
X119831460Y-91113693D03*
D15*
%TO.P,D1,2,A*%
%TO.N,/3V3*%
X118035409Y-92909744D03*
%TD*%
D10*
%TO.P,J6,1,Pin_1*%
%TO.N,Net-(J5-Pin_2)*%
X117750000Y-99500000D03*
%TD*%
D22*
%TO.P,U3,1,OUT*%
%TO.N,Net-(U1B-+)*%
X156071267Y-99520836D03*
D15*
%TO.P,U3,2,GND*%
%TO.N,GND*%
X154275216Y-97724785D03*
%TO.P,U3,3,Vs*%
%TO.N,/3V3*%
X152479165Y-95928734D03*
%TD*%
D10*
%TO.P,J16,1,Pin_1*%
%TO.N,Net-(J12-Pin_2)*%
X164250000Y-100500000D03*
D11*
%TO.P,J16,2,Pin_2*%
%TO.N,/3V3*%
X164250000Y-97960000D03*
%TD*%
D10*
%TO.P,J17,1,Pin_1*%
%TO.N,Net-(J13-Pin_2)*%
X149025000Y-77000000D03*
D11*
%TO.P,J17,2,Pin_2*%
%TO.N,/3V3*%
X146485000Y-77000000D03*
%TD*%
D23*
%TO.N,/3V3*%
X160000000Y-107750000D03*
X159994314Y-110755686D03*
%TO.N,Net-(D3-K)*%
X162490564Y-104009436D03*
X161750000Y-96250000D03*
%TO.N,GND*%
X123515686Y-97015686D03*
X152750000Y-88250000D03*
X118000000Y-102750000D03*
%TO.N,Net-(J9-Pin_2)*%
X164500000Y-106250000D03*
X165000000Y-104250000D03*
%TO.N,/PC4*%
X133250000Y-104250000D03*
%TO.N,/PA6*%
X145500000Y-99250000D03*
%TO.N,Net-(J11-Pin_2)*%
X153750000Y-84500000D03*
X154500000Y-82398959D03*
%TO.N,/PE15*%
X148500000Y-97500000D03*
X139250000Y-111550000D03*
X162000000Y-101500000D03*
%TO.N,Net-(J13-Pin_2)*%
X144250000Y-85750000D03*
X143000000Y-81750000D03*
%TO.N,Net-(U1A-+)*%
X131981103Y-98231103D03*
X133000000Y-101250000D03*
%TO.N,Net-(U1B-+)*%
X150082107Y-102167893D03*
X148000000Y-103000000D03*
%TD*%
D24*
%TO.N,/3V3*%
X159994314Y-110755686D02*
X159994314Y-107755686D01*
X159994314Y-107755686D02*
X160000000Y-107750000D01*
D25*
%TO.N,Net-(D3-K)*%
X162800000Y-103700000D02*
X162800000Y-97300000D01*
X162800000Y-97300000D02*
X161750000Y-96250000D01*
X162490564Y-104009436D02*
X162800000Y-103700000D01*
%TO.N,GND*%
X132000000Y-89000000D02*
X137975000Y-89000000D01*
X141775000Y-92250000D02*
X147000000Y-92250000D01*
X154275216Y-97724785D02*
X157598439Y-94401562D01*
X122051562Y-93398437D02*
X127601563Y-93398437D01*
X147848437Y-93098437D02*
X157598439Y-93098437D01*
X118000000Y-102750000D02*
X122025215Y-98724785D01*
X139500000Y-94525000D02*
X141775000Y-92250000D01*
X122025215Y-98724785D02*
X125164785Y-98724785D01*
X137975000Y-89000000D02*
X137975000Y-93000000D01*
X147000000Y-92250000D02*
X147848437Y-93098437D01*
X127601563Y-93398437D02*
X132000000Y-89000000D01*
X122051562Y-95551562D02*
X122051562Y-93398437D01*
X137975000Y-93000000D02*
X139500000Y-94525000D01*
X152750000Y-88250000D02*
X157598439Y-93098437D01*
X123515686Y-97015686D02*
X122051562Y-95551562D01*
X157598439Y-94401562D02*
X157598439Y-93098437D01*
%TO.N,Net-(J9-Pin_2)*%
X164500000Y-104750000D02*
X165000000Y-104250000D01*
X164500000Y-106250000D02*
X164500000Y-104750000D01*
%TO.N,/PC4*%
X144460000Y-104250000D02*
X146460000Y-106250000D01*
X133250000Y-104250000D02*
X144460000Y-104250000D01*
%TO.N,/PA6*%
X147660000Y-103791371D02*
X145500000Y-101631371D01*
X145500000Y-101631371D02*
X145500000Y-99250000D01*
X147660000Y-107450000D02*
X147660000Y-103791371D01*
X149000000Y-108790000D02*
X147660000Y-107450000D01*
%TO.N,Net-(J11-Pin_2)*%
X154500000Y-82398959D02*
X154500000Y-83750000D01*
X154500000Y-83750000D02*
X153750000Y-84500000D01*
%TO.N,/PE15*%
X158250000Y-107000000D02*
X159625000Y-105625000D01*
X158250000Y-111500000D02*
X158250000Y-107000000D01*
X158200000Y-111550000D02*
X158250000Y-111500000D01*
X139250000Y-111550000D02*
X158200000Y-111550000D01*
X151500000Y-97500000D02*
X159625000Y-105625000D01*
X148500000Y-97500000D02*
X151500000Y-97500000D01*
X159625000Y-105625000D02*
X161750000Y-103500000D01*
X161750000Y-103500000D02*
X161750000Y-101750000D01*
X161750000Y-101750000D02*
X162000000Y-101500000D01*
%TO.N,Net-(J8-Pin_2)*%
X168000000Y-100275000D02*
X169600000Y-98675000D01*
X169600000Y-87875000D02*
X167521051Y-85796051D01*
X169600000Y-98675000D02*
X169600000Y-87875000D01*
%TO.N,Net-(J10-Pin_2)*%
X142485000Y-80750000D02*
X145975000Y-80750000D01*
X138485000Y-76750000D02*
X142485000Y-80750000D01*
%TO.N,Net-(J13-Pin_2)*%
X143000000Y-81750000D02*
X143000000Y-84500000D01*
X143000000Y-84500000D02*
X144250000Y-85750000D01*
%TO.N,Net-(J12-Pin_2)*%
X166000000Y-98275000D02*
X164000000Y-100275000D01*
X164605512Y-94894488D02*
X166000000Y-93500000D01*
X166000000Y-93500000D02*
X166000000Y-98275000D01*
X159394490Y-94894488D02*
X164605512Y-94894488D01*
%TO.N,Net-(U1A-+)*%
X131981103Y-98231103D02*
X133000000Y-99250000D01*
X133000000Y-99250000D02*
X133000000Y-101250000D01*
%TO.N,Net-(U1B-+)*%
X150082107Y-102167893D02*
X148832107Y-102167893D01*
X148832107Y-102167893D02*
X148000000Y-103000000D01*
%TD*%
%TA.AperFunction,Conductor*%
%TO.N,GND*%
G36*
X137592280Y-75520185D02*
G01*
X137638035Y-75572989D01*
X137647979Y-75642147D01*
X137618954Y-75705703D01*
X137612922Y-75712181D01*
X137446505Y-75878597D01*
X137310965Y-76072169D01*
X137310964Y-76072171D01*
X137211098Y-76286335D01*
X137211094Y-76286344D01*
X137149938Y-76514586D01*
X137149936Y-76514596D01*
X137129341Y-76749999D01*
X137129341Y-76750000D01*
X137149936Y-76985403D01*
X137149938Y-76985413D01*
X137211094Y-77213655D01*
X137211096Y-77213659D01*
X137211097Y-77213663D01*
X137310965Y-77427830D01*
X137310967Y-77427834D01*
X137336056Y-77463664D01*
X137446505Y-77621401D01*
X137613599Y-77788495D01*
X137710384Y-77856265D01*
X137807165Y-77924032D01*
X137807167Y-77924033D01*
X137807170Y-77924035D01*
X138021337Y-78023903D01*
X138249592Y-78085063D01*
X138429634Y-78100815D01*
X138484999Y-78105659D01*
X138485000Y-78105659D01*
X138485001Y-78105659D01*
X138540366Y-78100815D01*
X138720408Y-78085063D01*
X138792989Y-78065615D01*
X138862839Y-78067278D01*
X138912763Y-78097709D01*
X142070324Y-81255271D01*
X142075034Y-81259136D01*
X142073308Y-81261239D01*
X142110586Y-81305876D01*
X142119270Y-81375204D01*
X142115534Y-81391322D01*
X142063252Y-81563670D01*
X142044901Y-81750000D01*
X142063252Y-81936331D01*
X142063253Y-81936333D01*
X142117604Y-82115502D01*
X142169519Y-82212628D01*
X142205864Y-82280625D01*
X142321354Y-82421350D01*
X142348666Y-82485656D01*
X142349500Y-82500012D01*
X142349500Y-84564070D01*
X142357206Y-84602812D01*
X142366301Y-84648531D01*
X142372412Y-84679248D01*
X142372413Y-84679259D01*
X142372414Y-84679259D01*
X142374498Y-84689742D01*
X142374500Y-84689747D01*
X142423533Y-84808125D01*
X142494726Y-84914673D01*
X142494727Y-84914674D01*
X143259687Y-85679633D01*
X143293172Y-85740956D01*
X143295409Y-85755160D01*
X143313252Y-85936331D01*
X143313253Y-85936333D01*
X143367604Y-86115502D01*
X143455862Y-86280623D01*
X143455864Y-86280626D01*
X143574642Y-86425357D01*
X143719373Y-86544135D01*
X143719376Y-86544137D01*
X143865663Y-86622328D01*
X143884499Y-86632396D01*
X144041998Y-86680173D01*
X144063666Y-86686746D01*
X144063668Y-86686747D01*
X144077883Y-86688147D01*
X144250000Y-86705099D01*
X144436331Y-86686747D01*
X144615501Y-86632396D01*
X144780625Y-86544136D01*
X144925357Y-86425357D01*
X145044136Y-86280625D01*
X145132396Y-86115501D01*
X145186747Y-85936331D01*
X145205099Y-85750000D01*
X145186747Y-85563669D01*
X145132396Y-85384499D01*
X145084097Y-85294137D01*
X145044137Y-85219376D01*
X145044135Y-85219373D01*
X144925357Y-85074642D01*
X144780626Y-84955864D01*
X144780623Y-84955862D01*
X144615502Y-84867604D01*
X144436333Y-84813253D01*
X144436331Y-84813252D01*
X144255160Y-84795409D01*
X144190373Y-84769248D01*
X144179633Y-84759687D01*
X143919946Y-84500000D01*
X152794901Y-84500000D01*
X152813252Y-84686331D01*
X152813253Y-84686333D01*
X152867604Y-84865502D01*
X152955862Y-85030623D01*
X152955864Y-85030626D01*
X153074642Y-85175357D01*
X153219373Y-85294135D01*
X153219376Y-85294137D01*
X153358875Y-85368700D01*
X153384499Y-85382396D01*
X153563666Y-85436746D01*
X153563668Y-85436747D01*
X153580374Y-85438392D01*
X153750000Y-85455099D01*
X153936331Y-85436747D01*
X154115501Y-85382396D01*
X154280625Y-85294136D01*
X154425357Y-85175357D01*
X154544136Y-85030625D01*
X154632396Y-84865501D01*
X154686747Y-84686331D01*
X154704591Y-84505157D01*
X154730750Y-84440372D01*
X154740295Y-84429649D01*
X155005276Y-84164669D01*
X155076465Y-84058127D01*
X155125501Y-83939744D01*
X155128725Y-83923535D01*
X155150500Y-83814069D01*
X155150500Y-83148971D01*
X155170185Y-83081932D01*
X155178633Y-83070323D01*
X155294136Y-82929584D01*
X155382396Y-82764460D01*
X155436747Y-82585290D01*
X155455099Y-82398959D01*
X155436747Y-82212628D01*
X155382396Y-82033458D01*
X155341821Y-81957547D01*
X155294137Y-81868335D01*
X155294135Y-81868332D01*
X155175357Y-81723601D01*
X155030626Y-81604823D01*
X155030623Y-81604821D01*
X154865502Y-81516563D01*
X154686333Y-81462212D01*
X154686331Y-81462211D01*
X154500000Y-81443860D01*
X154313668Y-81462211D01*
X154313666Y-81462212D01*
X154134497Y-81516563D01*
X153969376Y-81604821D01*
X153969373Y-81604823D01*
X153824642Y-81723601D01*
X153705864Y-81868332D01*
X153705862Y-81868335D01*
X153617604Y-82033456D01*
X153563253Y-82212625D01*
X153563252Y-82212627D01*
X153544901Y-82398959D01*
X153563252Y-82585290D01*
X153563253Y-82585292D01*
X153617604Y-82764461D01*
X153705862Y-82929581D01*
X153705864Y-82929584D01*
X153821354Y-83070309D01*
X153848666Y-83134615D01*
X153849500Y-83148971D01*
X153849500Y-83422713D01*
X153829815Y-83489752D01*
X153777011Y-83535507D01*
X153737655Y-83546116D01*
X153563667Y-83563253D01*
X153563666Y-83563253D01*
X153384497Y-83617604D01*
X153219376Y-83705862D01*
X153219373Y-83705864D01*
X153074642Y-83824642D01*
X152955864Y-83969373D01*
X152955862Y-83969376D01*
X152867604Y-84134497D01*
X152813253Y-84313666D01*
X152813252Y-84313668D01*
X152794901Y-84500000D01*
X143919946Y-84500000D01*
X143686819Y-84266873D01*
X143653334Y-84205550D01*
X143650500Y-84179192D01*
X143650500Y-82500012D01*
X143670185Y-82432973D01*
X143678633Y-82421364D01*
X143794136Y-82280625D01*
X143882396Y-82115501D01*
X143936747Y-81936331D01*
X143955099Y-81750000D01*
X143936747Y-81563669D01*
X143935783Y-81560494D01*
X143935768Y-81558748D01*
X143935559Y-81557696D01*
X143935758Y-81557656D01*
X143935161Y-81490628D01*
X143972409Y-81431515D01*
X144035704Y-81401924D01*
X144054445Y-81400500D01*
X144500501Y-81400500D01*
X144567540Y-81420185D01*
X144613295Y-81472989D01*
X144624501Y-81524500D01*
X144624501Y-81647876D01*
X144630908Y-81707483D01*
X144681202Y-81842328D01*
X144681206Y-81842335D01*
X144767452Y-81957544D01*
X144767455Y-81957547D01*
X144882664Y-82043793D01*
X144882671Y-82043797D01*
X145017517Y-82094091D01*
X145017516Y-82094091D01*
X145024444Y-82094835D01*
X145077127Y-82100500D01*
X146872872Y-82100499D01*
X146932483Y-82094091D01*
X147067331Y-82043796D01*
X147182546Y-81957546D01*
X147268796Y-81842331D01*
X147317810Y-81710916D01*
X147359681Y-81654984D01*
X147425145Y-81630566D01*
X147493418Y-81645417D01*
X147521673Y-81666569D01*
X147643599Y-81788495D01*
X147740384Y-81856265D01*
X147837165Y-81924032D01*
X147837167Y-81924033D01*
X147837170Y-81924035D01*
X148051337Y-82023903D01*
X148279592Y-82085063D01*
X148456034Y-82100500D01*
X148514999Y-82105659D01*
X148515000Y-82105659D01*
X148515001Y-82105659D01*
X148573966Y-82100500D01*
X148750408Y-82085063D01*
X148978663Y-82023903D01*
X149192830Y-81924035D01*
X149386401Y-81788495D01*
X149553495Y-81621401D01*
X149689035Y-81427830D01*
X149788903Y-81213663D01*
X149850063Y-80985408D01*
X149870659Y-80750000D01*
X149850063Y-80514592D01*
X149788903Y-80286337D01*
X149689035Y-80072171D01*
X149682741Y-80063181D01*
X149553494Y-79878597D01*
X149386402Y-79711506D01*
X149386395Y-79711501D01*
X149192834Y-79575967D01*
X149192830Y-79575965D01*
X149192828Y-79575964D01*
X148978663Y-79476097D01*
X148978659Y-79476096D01*
X148978655Y-79476094D01*
X148750413Y-79414938D01*
X148750403Y-79414936D01*
X148515001Y-79394341D01*
X148514999Y-79394341D01*
X148279596Y-79414936D01*
X148279586Y-79414938D01*
X148051344Y-79476094D01*
X148051335Y-79476098D01*
X147837171Y-79575964D01*
X147837169Y-79575965D01*
X147643600Y-79711503D01*
X147521673Y-79833430D01*
X147460350Y-79866914D01*
X147390658Y-79861930D01*
X147334725Y-79820058D01*
X147317810Y-79789081D01*
X147268797Y-79657671D01*
X147268793Y-79657664D01*
X147182547Y-79542455D01*
X147182544Y-79542452D01*
X147067335Y-79456206D01*
X147067328Y-79456202D01*
X146932482Y-79405908D01*
X146932483Y-79405908D01*
X146872883Y-79399501D01*
X146872881Y-79399500D01*
X146872873Y-79399500D01*
X146872864Y-79399500D01*
X145077129Y-79399500D01*
X145077123Y-79399501D01*
X145017516Y-79405908D01*
X144882671Y-79456202D01*
X144882664Y-79456206D01*
X144767455Y-79542452D01*
X144767452Y-79542455D01*
X144681206Y-79657664D01*
X144681202Y-79657671D01*
X144630908Y-79792517D01*
X144624501Y-79852116D01*
X144624500Y-79852135D01*
X144624500Y-79975500D01*
X144604815Y-80042539D01*
X144552011Y-80088294D01*
X144500500Y-80099500D01*
X142805808Y-80099500D01*
X142738769Y-80079815D01*
X142718127Y-80063181D01*
X140967126Y-78312180D01*
X140933641Y-78250857D01*
X140938625Y-78181165D01*
X140980497Y-78125232D01*
X141045961Y-78100815D01*
X141054807Y-78100499D01*
X141922871Y-78100499D01*
X141922872Y-78100499D01*
X141982483Y-78094091D01*
X142117331Y-78043796D01*
X142232546Y-77957546D01*
X142318796Y-77842331D01*
X142369091Y-77707483D01*
X142375500Y-77647873D01*
X142375499Y-75852128D01*
X142369091Y-75792517D01*
X142336898Y-75706204D01*
X142322587Y-75667833D01*
X142317603Y-75598141D01*
X142351088Y-75536818D01*
X142412411Y-75503334D01*
X142438769Y-75500500D01*
X145945804Y-75500500D01*
X146012843Y-75520185D01*
X146058598Y-75572989D01*
X146068542Y-75642147D01*
X146039517Y-75705703D01*
X145998209Y-75736882D01*
X145807171Y-75825964D01*
X145807169Y-75825965D01*
X145613597Y-75961505D01*
X145446505Y-76128597D01*
X145310965Y-76322169D01*
X145310964Y-76322171D01*
X145211098Y-76536335D01*
X145211094Y-76536344D01*
X145149938Y-76764586D01*
X145149936Y-76764596D01*
X145129341Y-76999999D01*
X145129341Y-77000000D01*
X145149936Y-77235403D01*
X145149938Y-77235413D01*
X145211094Y-77463655D01*
X145211096Y-77463659D01*
X145211097Y-77463663D01*
X145310965Y-77677830D01*
X145310967Y-77677834D01*
X145419281Y-77832521D01*
X145446505Y-77871401D01*
X145613599Y-78038495D01*
X145692998Y-78094091D01*
X145807165Y-78174032D01*
X145807167Y-78174033D01*
X145807170Y-78174035D01*
X146021337Y-78273903D01*
X146249592Y-78335063D01*
X146426034Y-78350500D01*
X146484999Y-78355659D01*
X146485000Y-78355659D01*
X146485001Y-78355659D01*
X146543966Y-78350500D01*
X146720408Y-78335063D01*
X146948663Y-78273903D01*
X147162830Y-78174035D01*
X147356401Y-78038495D01*
X147478329Y-77916566D01*
X147539648Y-77883084D01*
X147609340Y-77888068D01*
X147665274Y-77929939D01*
X147682189Y-77960917D01*
X147731202Y-78092328D01*
X147731206Y-78092335D01*
X147817452Y-78207544D01*
X147817455Y-78207547D01*
X147932664Y-78293793D01*
X147932671Y-78293797D01*
X148067517Y-78344091D01*
X148067516Y-78344091D01*
X148074444Y-78344835D01*
X148127127Y-78350500D01*
X149922872Y-78350499D01*
X149982483Y-78344091D01*
X150117331Y-78293796D01*
X150232546Y-78207546D01*
X150318796Y-78092331D01*
X150369091Y-77957483D01*
X150375500Y-77897873D01*
X150375499Y-76102128D01*
X150369091Y-76042517D01*
X150367810Y-76039083D01*
X150318797Y-75907671D01*
X150318793Y-75907664D01*
X150232547Y-75792455D01*
X150232544Y-75792452D01*
X150140792Y-75723766D01*
X150098921Y-75667832D01*
X150093937Y-75598141D01*
X150127423Y-75536818D01*
X150188746Y-75503334D01*
X150215103Y-75500500D01*
X169625500Y-75500500D01*
X169692539Y-75520185D01*
X169738294Y-75572989D01*
X169749500Y-75624500D01*
X169749500Y-86805192D01*
X169729815Y-86872231D01*
X169677011Y-86917986D01*
X169607853Y-86927930D01*
X169544297Y-86898905D01*
X169537819Y-86892873D01*
X168868760Y-86223814D01*
X168835275Y-86162491D01*
X168836666Y-86104040D01*
X168837596Y-86100568D01*
X168856114Y-86031459D01*
X168876710Y-85796051D01*
X168856114Y-85560643D01*
X168794954Y-85332388D01*
X168695086Y-85118222D01*
X168633751Y-85030625D01*
X168559545Y-84924648D01*
X168392453Y-84757557D01*
X168392446Y-84757552D01*
X168198885Y-84622018D01*
X168198881Y-84622016D01*
X167984714Y-84522148D01*
X167984710Y-84522147D01*
X167984706Y-84522145D01*
X167756464Y-84460989D01*
X167756454Y-84460987D01*
X167521052Y-84440392D01*
X167521049Y-84440392D01*
X167478003Y-84444158D01*
X167409503Y-84430391D01*
X167359320Y-84381776D01*
X167343387Y-84313747D01*
X167354402Y-84269118D01*
X167395471Y-84179192D01*
X167412247Y-84142457D01*
X167432728Y-84000000D01*
X167412247Y-83857543D01*
X167397221Y-83824642D01*
X167352460Y-83726629D01*
X167352459Y-83726628D01*
X167352459Y-83726627D01*
X167314840Y-83679944D01*
X167314835Y-83679939D01*
X167314831Y-83679934D01*
X166045059Y-82410165D01*
X166045053Y-82410160D01*
X166045049Y-82410156D01*
X165998373Y-82372540D01*
X165867459Y-82312753D01*
X165867455Y-82312752D01*
X165725000Y-82292272D01*
X165582544Y-82312752D01*
X165582540Y-82312753D01*
X165451629Y-82372539D01*
X165404934Y-82410168D01*
X164135165Y-83679940D01*
X164135156Y-83679950D01*
X164097540Y-83726626D01*
X164037753Y-83857540D01*
X164037752Y-83857544D01*
X164017272Y-84000000D01*
X164037752Y-84142455D01*
X164037753Y-84142459D01*
X164097539Y-84273370D01*
X164097540Y-84273371D01*
X164097541Y-84273373D01*
X164135160Y-84320056D01*
X164135163Y-84320059D01*
X164135168Y-84320065D01*
X165197501Y-85382395D01*
X165404944Y-85589838D01*
X165404948Y-85589841D01*
X165404950Y-85589843D01*
X165451626Y-85627459D01*
X165582540Y-85687246D01*
X165582541Y-85687246D01*
X165582543Y-85687247D01*
X165725000Y-85707728D01*
X165867457Y-85687247D01*
X165994118Y-85629401D01*
X166063276Y-85619458D01*
X166126832Y-85648482D01*
X166164607Y-85707260D01*
X166169158Y-85753003D01*
X166165392Y-85796048D01*
X166165392Y-85796051D01*
X166185987Y-86031454D01*
X166185989Y-86031464D01*
X166247145Y-86259706D01*
X166247147Y-86259710D01*
X166247148Y-86259714D01*
X166313000Y-86400934D01*
X166347016Y-86473881D01*
X166347018Y-86473885D01*
X166402810Y-86553563D01*
X166482556Y-86667452D01*
X166649650Y-86834546D01*
X166684450Y-86858913D01*
X166843216Y-86970083D01*
X166843218Y-86970084D01*
X166843221Y-86970086D01*
X167057388Y-87069954D01*
X167057394Y-87069955D01*
X167057395Y-87069956D01*
X167104386Y-87082547D01*
X167285643Y-87131114D01*
X167473969Y-87147590D01*
X167521050Y-87151710D01*
X167521051Y-87151710D01*
X167521052Y-87151710D01*
X167560285Y-87148277D01*
X167756459Y-87131114D01*
X167829040Y-87111666D01*
X167898890Y-87113329D01*
X167948814Y-87143760D01*
X168913181Y-88108127D01*
X168946666Y-88169450D01*
X168949500Y-88195808D01*
X168949500Y-96512988D01*
X168929815Y-96580027D01*
X168877011Y-96625782D01*
X168807853Y-96635726D01*
X168754377Y-96614563D01*
X168677834Y-96560967D01*
X168677830Y-96560965D01*
X168651607Y-96548737D01*
X168463663Y-96461097D01*
X168463659Y-96461096D01*
X168463655Y-96461094D01*
X168235413Y-96399938D01*
X168235403Y-96399936D01*
X168000001Y-96379341D01*
X167999999Y-96379341D01*
X167764596Y-96399936D01*
X167764586Y-96399938D01*
X167536344Y-96461094D01*
X167536335Y-96461098D01*
X167322171Y-96560964D01*
X167322169Y-96560965D01*
X167128597Y-96696505D01*
X166961508Y-96863594D01*
X166876075Y-96985606D01*
X166821498Y-97029230D01*
X166751999Y-97036423D01*
X166689645Y-97004901D01*
X166654231Y-96944671D01*
X166650500Y-96914482D01*
X166650500Y-94974499D01*
X166670185Y-94907460D01*
X166722989Y-94861705D01*
X166774500Y-94850499D01*
X166897871Y-94850499D01*
X166897872Y-94850499D01*
X166957483Y-94844091D01*
X167092331Y-94793796D01*
X167207546Y-94707546D01*
X167293796Y-94592331D01*
X167344091Y-94457483D01*
X167350500Y-94397873D01*
X167350499Y-92602128D01*
X167344091Y-92542517D01*
X167337153Y-92523916D01*
X167293797Y-92407671D01*
X167293793Y-92407664D01*
X167207547Y-92292455D01*
X167207544Y-92292452D01*
X167092335Y-92206206D01*
X167092328Y-92206202D01*
X166957482Y-92155908D01*
X166957483Y-92155908D01*
X166897883Y-92149501D01*
X166897881Y-92149500D01*
X166897873Y-92149500D01*
X166897864Y-92149500D01*
X165102129Y-92149500D01*
X165102123Y-92149501D01*
X165042516Y-92155908D01*
X164907671Y-92206202D01*
X164907664Y-92206206D01*
X164792455Y-92292452D01*
X164792452Y-92292455D01*
X164706206Y-92407664D01*
X164706202Y-92407671D01*
X164655908Y-92542517D01*
X164649501Y-92602116D01*
X164649501Y-92602123D01*
X164649500Y-92602135D01*
X164649500Y-93879191D01*
X164629815Y-93946230D01*
X164613181Y-93966872D01*
X164372385Y-94207669D01*
X164311062Y-94241154D01*
X164284704Y-94243988D01*
X161803748Y-94243988D01*
X161736709Y-94224303D01*
X161690954Y-94171499D01*
X161681010Y-94102341D01*
X161710035Y-94038785D01*
X161716067Y-94032307D01*
X162815860Y-92932512D01*
X163046856Y-92701516D01*
X163084476Y-92654833D01*
X163144264Y-92523917D01*
X163164746Y-92381460D01*
X163144264Y-92239003D01*
X163084476Y-92108087D01*
X163046857Y-92061404D01*
X163046852Y-92061399D01*
X163046848Y-92061394D01*
X161706370Y-90720918D01*
X161706363Y-90720911D01*
X161659680Y-90683291D01*
X161562664Y-90638985D01*
X161528762Y-90623502D01*
X161528764Y-90623502D01*
X161386307Y-90603021D01*
X161243852Y-90623502D01*
X161168166Y-90658067D01*
X161099008Y-90668010D01*
X161035452Y-90638985D01*
X160997678Y-90580206D01*
X160993079Y-90555517D01*
X160976390Y-90354104D01*
X160973854Y-90344091D01*
X160919413Y-90129108D01*
X160826180Y-89916560D01*
X160699239Y-89722261D01*
X160699236Y-89722258D01*
X160699235Y-89722256D01*
X160542040Y-89551496D01*
X160542035Y-89551492D01*
X160542033Y-89551490D01*
X160358890Y-89408944D01*
X160358884Y-89408940D01*
X160154760Y-89298473D01*
X160154751Y-89298470D01*
X159935240Y-89223111D01*
X159754750Y-89192993D01*
X159706305Y-89184909D01*
X159474207Y-89184909D01*
X159428420Y-89192549D01*
X159245271Y-89223111D01*
X159025760Y-89298470D01*
X159025751Y-89298473D01*
X158821627Y-89408940D01*
X158821621Y-89408944D01*
X158638478Y-89551490D01*
X158638475Y-89551493D01*
X158481272Y-89722261D01*
X158354331Y-89916560D01*
X158261098Y-90129108D01*
X158204122Y-90354100D01*
X158204120Y-90354111D01*
X158184956Y-90585402D01*
X158184956Y-90585415D01*
X158204120Y-90816706D01*
X158204122Y-90816717D01*
X158261098Y-91041709D01*
X158354331Y-91254257D01*
X158481272Y-91448556D01*
X158481275Y-91448560D01*
X158481277Y-91448562D01*
X158638472Y-91619322D01*
X158638475Y-91619324D01*
X158638478Y-91619327D01*
X158821621Y-91761873D01*
X158821627Y-91761877D01*
X158821630Y-91761879D01*
X159025753Y-91872345D01*
X159139743Y-91911477D01*
X159245271Y-91947706D01*
X159245273Y-91947706D01*
X159245275Y-91947707D01*
X159474207Y-91985909D01*
X159474208Y-91985909D01*
X159550987Y-91985909D01*
X159618026Y-92005594D01*
X159663781Y-92058398D01*
X159673725Y-92127556D01*
X159663781Y-92161421D01*
X159628349Y-92239003D01*
X159607868Y-92381460D01*
X159628349Y-92523916D01*
X159688136Y-92654830D01*
X159688137Y-92654831D01*
X159688138Y-92654833D01*
X159725757Y-92701516D01*
X159725760Y-92701519D01*
X159725765Y-92701525D01*
X161056549Y-94032307D01*
X161090034Y-94093630D01*
X161085050Y-94163321D01*
X161043179Y-94219255D01*
X160977714Y-94243672D01*
X160968868Y-94243988D01*
X160652211Y-94243988D01*
X160585172Y-94224303D01*
X160550636Y-94191111D01*
X160432984Y-94023085D01*
X160265892Y-93855994D01*
X160265885Y-93855989D01*
X160072324Y-93720455D01*
X160072320Y-93720453D01*
X159958987Y-93667605D01*
X159858153Y-93620585D01*
X159858149Y-93620584D01*
X159858145Y-93620582D01*
X159629903Y-93559426D01*
X159629893Y-93559424D01*
X159394491Y-93538829D01*
X159394488Y-93538829D01*
X159350869Y-93542645D01*
X159282369Y-93528878D01*
X159232186Y-93480263D01*
X159216253Y-93412234D01*
X159227268Y-93367604D01*
X159285200Y-93240751D01*
X159285201Y-93240750D01*
X159305661Y-93098437D01*
X159285201Y-92956123D01*
X159285200Y-92956118D01*
X159225474Y-92825339D01*
X159187894Y-92778704D01*
X158729809Y-92320619D01*
X158729808Y-92320619D01*
X158081401Y-92969026D01*
X158064364Y-92905444D01*
X157998538Y-92791430D01*
X157905446Y-92698338D01*
X157791432Y-92632512D01*
X157727849Y-92615474D01*
X158376256Y-91967066D01*
X157918171Y-91508981D01*
X157871536Y-91471401D01*
X157740757Y-91411675D01*
X157740752Y-91411674D01*
X157598439Y-91391214D01*
X157456125Y-91411674D01*
X157456120Y-91411675D01*
X157325341Y-91471401D01*
X157278701Y-91508985D01*
X156820621Y-91967065D01*
X156820621Y-91967066D01*
X157469029Y-92615474D01*
X157405446Y-92632512D01*
X157291432Y-92698338D01*
X157198340Y-92791430D01*
X157132514Y-92905444D01*
X157115476Y-92969027D01*
X156467068Y-92320619D01*
X156467067Y-92320619D01*
X156008987Y-92778699D01*
X155971403Y-92825339D01*
X155911677Y-92956118D01*
X155911676Y-92956123D01*
X155891216Y-93098437D01*
X155911676Y-93240750D01*
X155911677Y-93240755D01*
X155971403Y-93371534D01*
X156008983Y-93418169D01*
X156467068Y-93876254D01*
X157115476Y-93227846D01*
X157132514Y-93291430D01*
X157198340Y-93405444D01*
X157291432Y-93498536D01*
X157405446Y-93564362D01*
X157469029Y-93581399D01*
X156820621Y-94229806D01*
X156820621Y-94229807D01*
X157278706Y-94687892D01*
X157325341Y-94725472D01*
X157456120Y-94785198D01*
X157456125Y-94785199D01*
X157598439Y-94805659D01*
X157740752Y-94785199D01*
X157740753Y-94785198D01*
X157867606Y-94727266D01*
X157936765Y-94717322D01*
X158000321Y-94746346D01*
X158038096Y-94805124D01*
X158042647Y-94850867D01*
X158038831Y-94894485D01*
X158038831Y-94894488D01*
X158059426Y-95129891D01*
X158059428Y-95129901D01*
X158120584Y-95358143D01*
X158120586Y-95358147D01*
X158120587Y-95358151D01*
X158154045Y-95429901D01*
X158220455Y-95572318D01*
X158220457Y-95572322D01*
X158328771Y-95727009D01*
X158355995Y-95765889D01*
X158523089Y-95932983D01*
X158619874Y-96000753D01*
X158716655Y-96068520D01*
X158716657Y-96068521D01*
X158716660Y-96068523D01*
X158930827Y-96168391D01*
X159159082Y-96229551D01*
X159333821Y-96244839D01*
X159394489Y-96250147D01*
X159394490Y-96250147D01*
X159394491Y-96250147D01*
X159455159Y-96244839D01*
X159629898Y-96229551D01*
X159858153Y-96168391D01*
X160072320Y-96068523D01*
X160265891Y-95932983D01*
X160432985Y-95765889D01*
X160550637Y-95597865D01*
X160605214Y-95554240D01*
X160652212Y-95544988D01*
X160842194Y-95544988D01*
X160909233Y-95564673D01*
X160954988Y-95617477D01*
X160964932Y-95686635D01*
X160951552Y-95727441D01*
X160867604Y-95884497D01*
X160813253Y-96063666D01*
X160813252Y-96063668D01*
X160794901Y-96250000D01*
X160813252Y-96436331D01*
X160813253Y-96436333D01*
X160867604Y-96615502D01*
X160955862Y-96780623D01*
X160955864Y-96780626D01*
X161074642Y-96925357D01*
X161219373Y-97044135D01*
X161219376Y-97044137D01*
X161302560Y-97088599D01*
X161384499Y-97132396D01*
X161527328Y-97175723D01*
X161563666Y-97186746D01*
X161563668Y-97186747D01*
X161586416Y-97188987D01*
X161744841Y-97204590D01*
X161809626Y-97230751D01*
X161820366Y-97240312D01*
X162113181Y-97533127D01*
X162146666Y-97594450D01*
X162149500Y-97620808D01*
X162149500Y-100422812D01*
X162129815Y-100489851D01*
X162077011Y-100535606D01*
X162013350Y-100546215D01*
X162000004Y-100544901D01*
X162000000Y-100544901D01*
X161813668Y-100563252D01*
X161813666Y-100563253D01*
X161634497Y-100617604D01*
X161469376Y-100705862D01*
X161469373Y-100705864D01*
X161324642Y-100824642D01*
X161205864Y-100969373D01*
X161205862Y-100969376D01*
X161117604Y-101134497D01*
X161063253Y-101313666D01*
X161063252Y-101313668D01*
X161044901Y-101500000D01*
X161063252Y-101686331D01*
X161063253Y-101686333D01*
X161087236Y-101765392D01*
X161091857Y-101780626D01*
X161094160Y-101788216D01*
X161099500Y-101824212D01*
X161099500Y-103179191D01*
X161079815Y-103246230D01*
X161063181Y-103266872D01*
X159712680Y-104617373D01*
X159651357Y-104650858D01*
X159581665Y-104645874D01*
X159537318Y-104617373D01*
X156276845Y-101356900D01*
X156243360Y-101295577D01*
X156248344Y-101225885D01*
X156290216Y-101169952D01*
X156323648Y-101154318D01*
X156322984Y-101152492D01*
X156329766Y-101150023D01*
X156329767Y-101150022D01*
X156329769Y-101150022D01*
X156486592Y-101071262D01*
X156566718Y-101005991D01*
X157556422Y-100016287D01*
X157621693Y-99936161D01*
X157700453Y-99779338D01*
X157737083Y-99624785D01*
X157740924Y-99608581D01*
X157740924Y-99433090D01*
X157700453Y-99262335D01*
X157700453Y-99262334D01*
X157621693Y-99105511D01*
X157556422Y-99025385D01*
X157556421Y-99025384D01*
X157556417Y-99025379D01*
X156566723Y-98035685D01*
X156486592Y-97970410D01*
X156329767Y-97891649D01*
X156159012Y-97851179D01*
X156159011Y-97851179D01*
X155983523Y-97851179D01*
X155983522Y-97851179D01*
X155812766Y-97891649D01*
X155799167Y-97898479D01*
X155673493Y-97961595D01*
X155617843Y-97974785D01*
X154650494Y-97974785D01*
X154694549Y-97898479D01*
X154725216Y-97784029D01*
X154725216Y-97665541D01*
X154694549Y-97551091D01*
X154650494Y-97474785D01*
X155656099Y-97474785D01*
X155603898Y-97268649D01*
X155510699Y-97056175D01*
X155383801Y-96861942D01*
X155226657Y-96691239D01*
X155226653Y-96691236D01*
X155043571Y-96548737D01*
X155043567Y-96548734D01*
X154839518Y-96438308D01*
X154839509Y-96438305D01*
X154620077Y-96362973D01*
X154525216Y-96347144D01*
X154525216Y-97349507D01*
X154448910Y-97305452D01*
X154334460Y-97274785D01*
X154215972Y-97274785D01*
X154101522Y-97305452D01*
X154025216Y-97349507D01*
X154025216Y-96347144D01*
X154025214Y-96347143D01*
X153995977Y-96352022D01*
X153926612Y-96343639D01*
X153872791Y-96299086D01*
X153851600Y-96232507D01*
X153855364Y-96199271D01*
X153865297Y-96160047D01*
X153865300Y-96160031D01*
X153884465Y-95928740D01*
X153884465Y-95928727D01*
X153865300Y-95697436D01*
X153865298Y-95697425D01*
X153808322Y-95472433D01*
X153715089Y-95259885D01*
X153588148Y-95065586D01*
X153588145Y-95065583D01*
X153588144Y-95065581D01*
X153430949Y-94894821D01*
X153430944Y-94894817D01*
X153430942Y-94894815D01*
X153247799Y-94752269D01*
X153247793Y-94752265D01*
X153043669Y-94641798D01*
X153043660Y-94641795D01*
X152824149Y-94566436D01*
X152652447Y-94537784D01*
X152595214Y-94528234D01*
X152363116Y-94528234D01*
X152317329Y-94535874D01*
X152134180Y-94566436D01*
X151914669Y-94641795D01*
X151914660Y-94641798D01*
X151710536Y-94752265D01*
X151710530Y-94752269D01*
X151527387Y-94894815D01*
X151527384Y-94894818D01*
X151370181Y-95065586D01*
X151243240Y-95259885D01*
X151150007Y-95472433D01*
X151093031Y-95697425D01*
X151093029Y-95697436D01*
X151073865Y-95928727D01*
X151073865Y-95928740D01*
X151093029Y-96160031D01*
X151093031Y-96160042D01*
X151150007Y-96385034D01*
X151243240Y-96597582D01*
X151282503Y-96657679D01*
X151302691Y-96724569D01*
X151283510Y-96791754D01*
X151231051Y-96837904D01*
X151178694Y-96849500D01*
X149250014Y-96849500D01*
X149182975Y-96829815D01*
X149171349Y-96821353D01*
X149030626Y-96705864D01*
X149030623Y-96705862D01*
X148865502Y-96617604D01*
X148686333Y-96563253D01*
X148686331Y-96563252D01*
X148500000Y-96544901D01*
X148313668Y-96563252D01*
X148313666Y-96563253D01*
X148134497Y-96617604D01*
X147969376Y-96705862D01*
X147969373Y-96705864D01*
X147824642Y-96824642D01*
X147705864Y-96969373D01*
X147705862Y-96969376D01*
X147617604Y-97134497D01*
X147563253Y-97313666D01*
X147563252Y-97313668D01*
X147544901Y-97500000D01*
X147563252Y-97686331D01*
X147563253Y-97686333D01*
X147617604Y-97865502D01*
X147705862Y-98030623D01*
X147705864Y-98030626D01*
X147824642Y-98175357D01*
X147969373Y-98294135D01*
X147969376Y-98294137D01*
X148106825Y-98367604D01*
X148134499Y-98382396D01*
X148250010Y-98417436D01*
X148313666Y-98436746D01*
X148313668Y-98436747D01*
X148320197Y-98437390D01*
X148500000Y-98455099D01*
X148686331Y-98436747D01*
X148865501Y-98382396D01*
X149030625Y-98294136D01*
X149059158Y-98270719D01*
X149171349Y-98178647D01*
X149235659Y-98151334D01*
X149250014Y-98150500D01*
X151179192Y-98150500D01*
X151246231Y-98170185D01*
X151266873Y-98186819D01*
X154963188Y-101883134D01*
X158617372Y-105537317D01*
X158650857Y-105598640D01*
X158645873Y-105668332D01*
X158617372Y-105712679D01*
X158171628Y-106158423D01*
X158110305Y-106191908D01*
X158040613Y-106186924D01*
X157984680Y-106145052D01*
X157960419Y-106081549D01*
X157954569Y-106014684D01*
X157954567Y-106014673D01*
X157893433Y-105786516D01*
X157893429Y-105786507D01*
X157793600Y-105572422D01*
X157793599Y-105572420D01*
X157658113Y-105378926D01*
X157658108Y-105378920D01*
X157491083Y-105211894D01*
X157491074Y-105211886D01*
X157470000Y-105197129D01*
X157470000Y-106976000D01*
X157450315Y-107043039D01*
X157397511Y-107088794D01*
X157346000Y-107100000D01*
X155894000Y-107100000D01*
X155826961Y-107080315D01*
X155781206Y-107027511D01*
X155770000Y-106976000D01*
X155770000Y-106315826D01*
X156120000Y-106315826D01*
X156154075Y-106442993D01*
X156219901Y-106557007D01*
X156312993Y-106650099D01*
X156427007Y-106715925D01*
X156554174Y-106750000D01*
X156685826Y-106750000D01*
X156812993Y-106715925D01*
X156927007Y-106650099D01*
X157020099Y-106557007D01*
X157085925Y-106442993D01*
X157120000Y-106315826D01*
X157120000Y-106184174D01*
X157085925Y-106057007D01*
X157020099Y-105942993D01*
X156927007Y-105849901D01*
X156812993Y-105784075D01*
X156685826Y-105750000D01*
X156554174Y-105750000D01*
X156427007Y-105784075D01*
X156312993Y-105849901D01*
X156219901Y-105942993D01*
X156154075Y-106057007D01*
X156120000Y-106184174D01*
X156120000Y-106315826D01*
X155770000Y-106315826D01*
X155770000Y-105197131D01*
X155748921Y-105211890D01*
X155581891Y-105378920D01*
X155581890Y-105378922D01*
X155451880Y-105564595D01*
X155397303Y-105608219D01*
X155327804Y-105615412D01*
X155265450Y-105583890D01*
X155248730Y-105564594D01*
X155118494Y-105378597D01*
X154951402Y-105211506D01*
X154951395Y-105211501D01*
X154757834Y-105075967D01*
X154757830Y-105075965D01*
X154757828Y-105075964D01*
X154543663Y-104976097D01*
X154543659Y-104976096D01*
X154543655Y-104976094D01*
X154315413Y-104914938D01*
X154315403Y-104914936D01*
X154080001Y-104894341D01*
X154079999Y-104894341D01*
X153844596Y-104914936D01*
X153844586Y-104914938D01*
X153616344Y-104976094D01*
X153616335Y-104976098D01*
X153402171Y-105075964D01*
X153402169Y-105075965D01*
X153208597Y-105211505D01*
X153041505Y-105378597D01*
X152911575Y-105564158D01*
X152856998Y-105607783D01*
X152787500Y-105614977D01*
X152725145Y-105583454D01*
X152708425Y-105564158D01*
X152578494Y-105378597D01*
X152411402Y-105211506D01*
X152411395Y-105211501D01*
X152217834Y-105075967D01*
X152217830Y-105075965D01*
X152217828Y-105075964D01*
X152003663Y-104976097D01*
X152003659Y-104976096D01*
X152003655Y-104976094D01*
X151775413Y-104914938D01*
X151775403Y-104914936D01*
X151540001Y-104894341D01*
X151539999Y-104894341D01*
X151304596Y-104914936D01*
X151304586Y-104914938D01*
X151076344Y-104976094D01*
X151076335Y-104976098D01*
X150862171Y-105075964D01*
X150862169Y-105075965D01*
X150668597Y-105211505D01*
X150501508Y-105378594D01*
X150371269Y-105564595D01*
X150316692Y-105608219D01*
X150247193Y-105615412D01*
X150184839Y-105583890D01*
X150168119Y-105564594D01*
X150038113Y-105378926D01*
X150038108Y-105378920D01*
X149871083Y-105211894D01*
X149871074Y-105211886D01*
X149850000Y-105197129D01*
X149850000Y-106976000D01*
X149830315Y-107043039D01*
X149777511Y-107088794D01*
X149726000Y-107100000D01*
X148434500Y-107100000D01*
X148367461Y-107080315D01*
X148321706Y-107027511D01*
X148310500Y-106976000D01*
X148310500Y-106315826D01*
X148500000Y-106315826D01*
X148534075Y-106442993D01*
X148599901Y-106557007D01*
X148692993Y-106650099D01*
X148807007Y-106715925D01*
X148934174Y-106750000D01*
X149065826Y-106750000D01*
X149192993Y-106715925D01*
X149307007Y-106650099D01*
X149400099Y-106557007D01*
X149465925Y-106442993D01*
X149500000Y-106315826D01*
X149500000Y-106184174D01*
X149465925Y-106057007D01*
X149400099Y-105942993D01*
X149307007Y-105849901D01*
X149192993Y-105784075D01*
X149065826Y-105750000D01*
X148934174Y-105750000D01*
X148807007Y-105784075D01*
X148692993Y-105849901D01*
X148599901Y-105942993D01*
X148534075Y-106057007D01*
X148500000Y-106184174D01*
X148500000Y-106315826D01*
X148310500Y-106315826D01*
X148310500Y-103986117D01*
X148330185Y-103919078D01*
X148376044Y-103876760D01*
X148530625Y-103794136D01*
X148675357Y-103675357D01*
X148794136Y-103530625D01*
X148882396Y-103365501D01*
X148936747Y-103186331D01*
X148954591Y-103005157D01*
X148980751Y-102940373D01*
X148990313Y-102929632D01*
X149065236Y-102854711D01*
X149126560Y-102821226D01*
X149152916Y-102818393D01*
X149332093Y-102818393D01*
X149399132Y-102838078D01*
X149410758Y-102846540D01*
X149551480Y-102962028D01*
X149551483Y-102962030D01*
X149716604Y-103050288D01*
X149716606Y-103050289D01*
X149895773Y-103104639D01*
X149895775Y-103104640D01*
X149912481Y-103106285D01*
X150082107Y-103122992D01*
X150268438Y-103104640D01*
X150447608Y-103050289D01*
X150612732Y-102962029D01*
X150757464Y-102843250D01*
X150876243Y-102698518D01*
X150964503Y-102533394D01*
X151018854Y-102354224D01*
X151037206Y-102167893D01*
X151018854Y-101981562D01*
X150964503Y-101802392D01*
X150907339Y-101695444D01*
X150876244Y-101637269D01*
X150876242Y-101637266D01*
X150757464Y-101492535D01*
X150612733Y-101373757D01*
X150612730Y-101373755D01*
X150447609Y-101285497D01*
X150268440Y-101231146D01*
X150268438Y-101231145D01*
X150082107Y-101212794D01*
X149895775Y-101231145D01*
X149895773Y-101231146D01*
X149716604Y-101285497D01*
X149551483Y-101373755D01*
X149551480Y-101373757D01*
X149410758Y-101489246D01*
X149346448Y-101516559D01*
X149332093Y-101517393D01*
X148768036Y-101517393D01*
X148642368Y-101542390D01*
X148642362Y-101542392D01*
X148523981Y-101591427D01*
X148417436Y-101662617D01*
X148417435Y-101662618D01*
X148070365Y-102009687D01*
X148009042Y-102043172D01*
X147994838Y-102045409D01*
X147813668Y-102063252D01*
X147813666Y-102063253D01*
X147634497Y-102117604D01*
X147469376Y-102205862D01*
X147469373Y-102205864D01*
X147324641Y-102324643D01*
X147316130Y-102335014D01*
X147258383Y-102374345D01*
X147188538Y-102376212D01*
X147132600Y-102344025D01*
X146186819Y-101398244D01*
X146153334Y-101336921D01*
X146150500Y-101310563D01*
X146150500Y-100000012D01*
X146170185Y-99932973D01*
X146178633Y-99921364D01*
X146294136Y-99780625D01*
X146382396Y-99615501D01*
X146436747Y-99436331D01*
X146455099Y-99250000D01*
X146436747Y-99063669D01*
X146382396Y-98884499D01*
X146356116Y-98835332D01*
X146294137Y-98719376D01*
X146294135Y-98719373D01*
X146175357Y-98574642D01*
X146030626Y-98455864D01*
X146030623Y-98455862D01*
X145865502Y-98367604D01*
X145686333Y-98313253D01*
X145686331Y-98313252D01*
X145500000Y-98294901D01*
X145313668Y-98313252D01*
X145313666Y-98313253D01*
X145134497Y-98367604D01*
X144969376Y-98455862D01*
X144969373Y-98455864D01*
X144824642Y-98574642D01*
X144705864Y-98719373D01*
X144705862Y-98719376D01*
X144617604Y-98884497D01*
X144563253Y-99063666D01*
X144563252Y-99063668D01*
X144544901Y-99250000D01*
X144563252Y-99436331D01*
X144563253Y-99436333D01*
X144617604Y-99615502D01*
X144686719Y-99744807D01*
X144705864Y-99780625D01*
X144821354Y-99921350D01*
X144848666Y-99985656D01*
X144849500Y-100000012D01*
X144849500Y-101695444D01*
X144873094Y-101814059D01*
X144873095Y-101814059D01*
X144874499Y-101821117D01*
X144923532Y-101939494D01*
X144951639Y-101981559D01*
X144994301Y-102045409D01*
X144994726Y-102046044D01*
X144994727Y-102046045D01*
X146973181Y-104024498D01*
X147006666Y-104085821D01*
X147009500Y-104112179D01*
X147009500Y-104837496D01*
X146989815Y-104904535D01*
X146937011Y-104950290D01*
X146867853Y-104960234D01*
X146853408Y-104957271D01*
X146695416Y-104914939D01*
X146695412Y-104914938D01*
X146695408Y-104914937D01*
X146695406Y-104914936D01*
X146695403Y-104914936D01*
X146460001Y-104894341D01*
X146459999Y-104894341D01*
X146224590Y-104914937D01*
X146224589Y-104914937D01*
X146152008Y-104934384D01*
X146082158Y-104932720D01*
X146032236Y-104902290D01*
X144874674Y-103744727D01*
X144874673Y-103744726D01*
X144874669Y-103744723D01*
X144768127Y-103673535D01*
X144649744Y-103624499D01*
X144649738Y-103624497D01*
X144524071Y-103599500D01*
X144524069Y-103599500D01*
X134000014Y-103599500D01*
X133932975Y-103579815D01*
X133921349Y-103571353D01*
X133780626Y-103455864D01*
X133780623Y-103455862D01*
X133615502Y-103367604D01*
X133436333Y-103313253D01*
X133436331Y-103313252D01*
X133250000Y-103294901D01*
X133063668Y-103313252D01*
X133063666Y-103313253D01*
X132884497Y-103367604D01*
X132719376Y-103455862D01*
X132719373Y-103455864D01*
X132574642Y-103574642D01*
X132455864Y-103719373D01*
X132455862Y-103719376D01*
X132367604Y-103884497D01*
X132313253Y-104063666D01*
X132313252Y-104063668D01*
X132294901Y-104250000D01*
X132313252Y-104436331D01*
X132313253Y-104436333D01*
X132367604Y-104615502D01*
X132455862Y-104780623D01*
X132455864Y-104780626D01*
X132574642Y-104925357D01*
X132719371Y-105044133D01*
X132719375Y-105044136D01*
X132791273Y-105082566D01*
X132841115Y-105131527D01*
X132856576Y-105199664D01*
X132832745Y-105265344D01*
X132820499Y-105279604D01*
X132721505Y-105378597D01*
X132591575Y-105564158D01*
X132536998Y-105607783D01*
X132467500Y-105614977D01*
X132405145Y-105583454D01*
X132388425Y-105564158D01*
X132258494Y-105378597D01*
X132091402Y-105211506D01*
X132091395Y-105211501D01*
X131897834Y-105075967D01*
X131897830Y-105075965D01*
X131897828Y-105075964D01*
X131683663Y-104976097D01*
X131683659Y-104976096D01*
X131683655Y-104976094D01*
X131455413Y-104914938D01*
X131455403Y-104914936D01*
X131220001Y-104894341D01*
X131219999Y-104894341D01*
X130984596Y-104914936D01*
X130984586Y-104914938D01*
X130756344Y-104976094D01*
X130756335Y-104976098D01*
X130542171Y-105075964D01*
X130542169Y-105075965D01*
X130348597Y-105211505D01*
X130181505Y-105378597D01*
X130051575Y-105564158D01*
X129996998Y-105607783D01*
X129927500Y-105614977D01*
X129865145Y-105583454D01*
X129848425Y-105564158D01*
X129718494Y-105378597D01*
X129551402Y-105211506D01*
X129551395Y-105211501D01*
X129357834Y-105075967D01*
X129357830Y-105075965D01*
X129357828Y-105075964D01*
X129143663Y-104976097D01*
X129143659Y-104976096D01*
X129143655Y-104976094D01*
X128915413Y-104914938D01*
X128915403Y-104914936D01*
X128680001Y-104894341D01*
X128679999Y-104894341D01*
X128444596Y-104914936D01*
X128444586Y-104914938D01*
X128216344Y-104976094D01*
X128216335Y-104976098D01*
X128002171Y-105075964D01*
X128002169Y-105075965D01*
X127808597Y-105211505D01*
X127641505Y-105378597D01*
X127511575Y-105564158D01*
X127456998Y-105607783D01*
X127387500Y-105614977D01*
X127325145Y-105583454D01*
X127308425Y-105564158D01*
X127178494Y-105378597D01*
X127011402Y-105211506D01*
X127011395Y-105211501D01*
X126817834Y-105075967D01*
X126817830Y-105075965D01*
X126817828Y-105075964D01*
X126603663Y-104976097D01*
X126603659Y-104976096D01*
X126603655Y-104976094D01*
X126375413Y-104914938D01*
X126375403Y-104914936D01*
X126140001Y-104894341D01*
X126139999Y-104894341D01*
X125904596Y-104914936D01*
X125904586Y-104914938D01*
X125676344Y-104976094D01*
X125676335Y-104976098D01*
X125462171Y-105075964D01*
X125462169Y-105075965D01*
X125268600Y-105211503D01*
X125146673Y-105333430D01*
X125085350Y-105366914D01*
X125015658Y-105361930D01*
X124959725Y-105320058D01*
X124942810Y-105289081D01*
X124893797Y-105157671D01*
X124893793Y-105157664D01*
X124807547Y-105042455D01*
X124807544Y-105042452D01*
X124692335Y-104956206D01*
X124692328Y-104956202D01*
X124557482Y-104905908D01*
X124557483Y-104905908D01*
X124497883Y-104899501D01*
X124497881Y-104899500D01*
X124497873Y-104899500D01*
X124497864Y-104899500D01*
X122702129Y-104899500D01*
X122702123Y-104899501D01*
X122642516Y-104905908D01*
X122507671Y-104956202D01*
X122507664Y-104956206D01*
X122392455Y-105042452D01*
X122392452Y-105042455D01*
X122306206Y-105157664D01*
X122306202Y-105157671D01*
X122255908Y-105292517D01*
X122249501Y-105352116D01*
X122249500Y-105352135D01*
X122249500Y-107147870D01*
X122249501Y-107147876D01*
X122255908Y-107207483D01*
X122306202Y-107342328D01*
X122306206Y-107342335D01*
X122392452Y-107457544D01*
X122392455Y-107457547D01*
X122507664Y-107543793D01*
X122507671Y-107543797D01*
X122639081Y-107592810D01*
X122695015Y-107634681D01*
X122719432Y-107700145D01*
X122704580Y-107768418D01*
X122683430Y-107796673D01*
X122561503Y-107918600D01*
X122425965Y-108112169D01*
X122425964Y-108112171D01*
X122326098Y-108326335D01*
X122326094Y-108326344D01*
X122264938Y-108554586D01*
X122264936Y-108554596D01*
X122244341Y-108789999D01*
X122244341Y-108790000D01*
X122264936Y-109025403D01*
X122264938Y-109025413D01*
X122326094Y-109253655D01*
X122326096Y-109253659D01*
X122326097Y-109253663D01*
X122405801Y-109424588D01*
X122425965Y-109467830D01*
X122425967Y-109467834D01*
X122534281Y-109622521D01*
X122561505Y-109661401D01*
X122728599Y-109828495D01*
X122749126Y-109842868D01*
X122922165Y-109964032D01*
X122922167Y-109964033D01*
X122922170Y-109964035D01*
X123136337Y-110063903D01*
X123364592Y-110125063D01*
X123552918Y-110141539D01*
X123599999Y-110145659D01*
X123600000Y-110145659D01*
X123600001Y-110145659D01*
X123643262Y-110141874D01*
X123835408Y-110125063D01*
X124063663Y-110063903D01*
X124277830Y-109964035D01*
X124471401Y-109828495D01*
X124638495Y-109661401D01*
X124768425Y-109475842D01*
X124823002Y-109432217D01*
X124892500Y-109425023D01*
X124954855Y-109456546D01*
X124971575Y-109475842D01*
X125101500Y-109661395D01*
X125101505Y-109661401D01*
X125268599Y-109828495D01*
X125289126Y-109842868D01*
X125462165Y-109964032D01*
X125462167Y-109964033D01*
X125462170Y-109964035D01*
X125676337Y-110063903D01*
X125904592Y-110125063D01*
X126092918Y-110141539D01*
X126139999Y-110145659D01*
X126140000Y-110145659D01*
X126140001Y-110145659D01*
X126183262Y-110141874D01*
X126375408Y-110125063D01*
X126603663Y-110063903D01*
X126817830Y-109964035D01*
X127011401Y-109828495D01*
X127178495Y-109661401D01*
X127308425Y-109475842D01*
X127363002Y-109432217D01*
X127432500Y-109425023D01*
X127494855Y-109456546D01*
X127511575Y-109475842D01*
X127641500Y-109661395D01*
X127641505Y-109661401D01*
X127808599Y-109828495D01*
X127829126Y-109842868D01*
X128002165Y-109964032D01*
X128002167Y-109964033D01*
X128002170Y-109964035D01*
X128216337Y-110063903D01*
X128444592Y-110125063D01*
X128632918Y-110141539D01*
X128679999Y-110145659D01*
X128680000Y-110145659D01*
X128680001Y-110145659D01*
X128723262Y-110141874D01*
X128915408Y-110125063D01*
X129143663Y-110063903D01*
X129357830Y-109964035D01*
X129551401Y-109828495D01*
X129718495Y-109661401D01*
X129848425Y-109475842D01*
X129903002Y-109432217D01*
X129972500Y-109425023D01*
X130034855Y-109456546D01*
X130051575Y-109475842D01*
X130181500Y-109661395D01*
X130181505Y-109661401D01*
X130348599Y-109828495D01*
X130369126Y-109842868D01*
X130542165Y-109964032D01*
X130542167Y-109964033D01*
X130542170Y-109964035D01*
X130756337Y-110063903D01*
X130984592Y-110125063D01*
X131172918Y-110141539D01*
X131219999Y-110145659D01*
X131220000Y-110145659D01*
X131220001Y-110145659D01*
X131263262Y-110141874D01*
X131455408Y-110125063D01*
X131683663Y-110063903D01*
X131897830Y-109964035D01*
X132091401Y-109828495D01*
X132258495Y-109661401D01*
X132388425Y-109475842D01*
X132443002Y-109432217D01*
X132512500Y-109425023D01*
X132574855Y-109456546D01*
X132591575Y-109475842D01*
X132721500Y-109661395D01*
X132721505Y-109661401D01*
X132888599Y-109828495D01*
X132909126Y-109842868D01*
X133082165Y-109964032D01*
X133082167Y-109964033D01*
X133082170Y-109964035D01*
X133296337Y-110063903D01*
X133524592Y-110125063D01*
X133712918Y-110141539D01*
X133759999Y-110145659D01*
X133760000Y-110145659D01*
X133760001Y-110145659D01*
X133803262Y-110141874D01*
X133995408Y-110125063D01*
X134223663Y-110063903D01*
X134437830Y-109964035D01*
X134631401Y-109828495D01*
X134798495Y-109661401D01*
X134928425Y-109475842D01*
X134983002Y-109432217D01*
X135052500Y-109425023D01*
X135114855Y-109456546D01*
X135131575Y-109475842D01*
X135261500Y-109661395D01*
X135261505Y-109661401D01*
X135428599Y-109828495D01*
X135449126Y-109842868D01*
X135622165Y-109964032D01*
X135622167Y-109964033D01*
X135622170Y-109964035D01*
X135836337Y-110063903D01*
X136064592Y-110125063D01*
X136252918Y-110141539D01*
X136299999Y-110145659D01*
X136300000Y-110145659D01*
X136300001Y-110145659D01*
X136343262Y-110141874D01*
X136535408Y-110125063D01*
X136763663Y-110063903D01*
X136977830Y-109964035D01*
X137171401Y-109828495D01*
X137338495Y-109661401D01*
X137468425Y-109475842D01*
X137523002Y-109432217D01*
X137592500Y-109425023D01*
X137654855Y-109456546D01*
X137671575Y-109475842D01*
X137801500Y-109661395D01*
X137801505Y-109661401D01*
X137968599Y-109828495D01*
X137989126Y-109842868D01*
X138162165Y-109964032D01*
X138162167Y-109964033D01*
X138162170Y-109964035D01*
X138376337Y-110063903D01*
X138604592Y-110125063D01*
X138792918Y-110141539D01*
X138839999Y-110145659D01*
X138840000Y-110145659D01*
X138840001Y-110145659D01*
X138883262Y-110141874D01*
X139075408Y-110125063D01*
X139303663Y-110063903D01*
X139517830Y-109964035D01*
X139711401Y-109828495D01*
X139878495Y-109661401D01*
X140008425Y-109475842D01*
X140063002Y-109432217D01*
X140132500Y-109425023D01*
X140194855Y-109456546D01*
X140211575Y-109475842D01*
X140341500Y-109661395D01*
X140341505Y-109661401D01*
X140508599Y-109828495D01*
X140529126Y-109842868D01*
X140702165Y-109964032D01*
X140702167Y-109964033D01*
X140702170Y-109964035D01*
X140916337Y-110063903D01*
X141144592Y-110125063D01*
X141332918Y-110141539D01*
X141379999Y-110145659D01*
X141380000Y-110145659D01*
X141380001Y-110145659D01*
X141423262Y-110141874D01*
X141615408Y-110125063D01*
X141843663Y-110063903D01*
X142057830Y-109964035D01*
X142251401Y-109828495D01*
X142418495Y-109661401D01*
X142548730Y-109475405D01*
X142603307Y-109431781D01*
X142672805Y-109424587D01*
X142735160Y-109456110D01*
X142751879Y-109475405D01*
X142881890Y-109661078D01*
X143048921Y-109828109D01*
X143070000Y-109842868D01*
X143070000Y-108855826D01*
X143420000Y-108855826D01*
X143454075Y-108982993D01*
X143519901Y-109097007D01*
X143612993Y-109190099D01*
X143727007Y-109255925D01*
X143854174Y-109290000D01*
X143985826Y-109290000D01*
X144112993Y-109255925D01*
X144227007Y-109190099D01*
X144320099Y-109097007D01*
X144385925Y-108982993D01*
X144420000Y-108855826D01*
X144420000Y-108724174D01*
X144385925Y-108597007D01*
X144320099Y-108482993D01*
X144227007Y-108389901D01*
X144112993Y-108324075D01*
X143985826Y-108290000D01*
X143854174Y-108290000D01*
X143727007Y-108324075D01*
X143612993Y-108389901D01*
X143519901Y-108482993D01*
X143454075Y-108597007D01*
X143420000Y-108724174D01*
X143420000Y-108855826D01*
X143070000Y-108855826D01*
X143070000Y-108064000D01*
X143089685Y-107996961D01*
X143142489Y-107951206D01*
X143194000Y-107940000D01*
X144646000Y-107940000D01*
X144713039Y-107959685D01*
X144758794Y-108012489D01*
X144770000Y-108064000D01*
X144770000Y-109842868D01*
X144791078Y-109828109D01*
X144958105Y-109661082D01*
X145088119Y-109475405D01*
X145142696Y-109431781D01*
X145212195Y-109424588D01*
X145274549Y-109456110D01*
X145291269Y-109475405D01*
X145421505Y-109661401D01*
X145588599Y-109828495D01*
X145609126Y-109842868D01*
X145782165Y-109964032D01*
X145782167Y-109964033D01*
X145782170Y-109964035D01*
X145996337Y-110063903D01*
X146224592Y-110125063D01*
X146412918Y-110141539D01*
X146459999Y-110145659D01*
X146460000Y-110145659D01*
X146460001Y-110145659D01*
X146503262Y-110141874D01*
X146695408Y-110125063D01*
X146923663Y-110063903D01*
X147137830Y-109964035D01*
X147331401Y-109828495D01*
X147498495Y-109661401D01*
X147628425Y-109475842D01*
X147683002Y-109432217D01*
X147752500Y-109425023D01*
X147814855Y-109456546D01*
X147831575Y-109475842D01*
X147961500Y-109661395D01*
X147961505Y-109661401D01*
X148128599Y-109828495D01*
X148149126Y-109842868D01*
X148322165Y-109964032D01*
X148322167Y-109964033D01*
X148322170Y-109964035D01*
X148536337Y-110063903D01*
X148764592Y-110125063D01*
X148952918Y-110141539D01*
X148999999Y-110145659D01*
X149000000Y-110145659D01*
X149000001Y-110145659D01*
X149043262Y-110141874D01*
X149235408Y-110125063D01*
X149463663Y-110063903D01*
X149677830Y-109964035D01*
X149871401Y-109828495D01*
X150038495Y-109661401D01*
X150168730Y-109475405D01*
X150223307Y-109431781D01*
X150292805Y-109424587D01*
X150355160Y-109456110D01*
X150371879Y-109475405D01*
X150501890Y-109661078D01*
X150668921Y-109828109D01*
X150690000Y-109842868D01*
X150690000Y-108855826D01*
X151040000Y-108855826D01*
X151074075Y-108982993D01*
X151139901Y-109097007D01*
X151232993Y-109190099D01*
X151347007Y-109255925D01*
X151474174Y-109290000D01*
X151605826Y-109290000D01*
X151732993Y-109255925D01*
X151847007Y-109190099D01*
X151940099Y-109097007D01*
X152005925Y-108982993D01*
X152040000Y-108855826D01*
X152040000Y-108724174D01*
X152005925Y-108597007D01*
X151940099Y-108482993D01*
X151847007Y-108389901D01*
X151732993Y-108324075D01*
X151605826Y-108290000D01*
X151474174Y-108290000D01*
X151347007Y-108324075D01*
X151232993Y-108389901D01*
X151139901Y-108482993D01*
X151074075Y-108597007D01*
X151040000Y-108724174D01*
X151040000Y-108855826D01*
X150690000Y-108855826D01*
X150690000Y-108064000D01*
X150709685Y-107996961D01*
X150762489Y-107951206D01*
X150814000Y-107940000D01*
X152266000Y-107940000D01*
X152333039Y-107959685D01*
X152378794Y-108012489D01*
X152390000Y-108064000D01*
X152390000Y-109842868D01*
X152411078Y-109828109D01*
X152578105Y-109661082D01*
X152708119Y-109475405D01*
X152762696Y-109431781D01*
X152832195Y-109424588D01*
X152894549Y-109456110D01*
X152911269Y-109475405D01*
X153041505Y-109661401D01*
X153208599Y-109828495D01*
X153229126Y-109842868D01*
X153402165Y-109964032D01*
X153402167Y-109964033D01*
X153402170Y-109964035D01*
X153616337Y-110063903D01*
X153844592Y-110125063D01*
X154032918Y-110141539D01*
X154079999Y-110145659D01*
X154080000Y-110145659D01*
X154080001Y-110145659D01*
X154123262Y-110141874D01*
X154315408Y-110125063D01*
X154543663Y-110063903D01*
X154757830Y-109964035D01*
X154951401Y-109828495D01*
X155118495Y-109661401D01*
X155248425Y-109475842D01*
X155303002Y-109432217D01*
X155372500Y-109425023D01*
X155434855Y-109456546D01*
X155451575Y-109475842D01*
X155581500Y-109661395D01*
X155581505Y-109661401D01*
X155748599Y-109828495D01*
X155769126Y-109842868D01*
X155942165Y-109964032D01*
X155942167Y-109964033D01*
X155942170Y-109964035D01*
X156156337Y-110063903D01*
X156384592Y-110125063D01*
X156572918Y-110141539D01*
X156619999Y-110145659D01*
X156620000Y-110145659D01*
X156620001Y-110145659D01*
X156663262Y-110141874D01*
X156855408Y-110125063D01*
X157083663Y-110063903D01*
X157297830Y-109964035D01*
X157404377Y-109889429D01*
X157470582Y-109867103D01*
X157538350Y-109884113D01*
X157586163Y-109935061D01*
X157599500Y-109991005D01*
X157599500Y-110775500D01*
X157579815Y-110842539D01*
X157527011Y-110888294D01*
X157475500Y-110899500D01*
X140000014Y-110899500D01*
X139932975Y-110879815D01*
X139921349Y-110871353D01*
X139780626Y-110755864D01*
X139780623Y-110755862D01*
X139615502Y-110667604D01*
X139436333Y-110613253D01*
X139436331Y-110613252D01*
X139250000Y-110594901D01*
X139063668Y-110613252D01*
X139063666Y-110613253D01*
X138884497Y-110667604D01*
X138719376Y-110755862D01*
X138719373Y-110755864D01*
X138574642Y-110874642D01*
X138455864Y-111019373D01*
X138455862Y-111019376D01*
X138367604Y-111184497D01*
X138313253Y-111363666D01*
X138313252Y-111363668D01*
X138294901Y-111550000D01*
X138313252Y-111736327D01*
X138313252Y-111736329D01*
X138313253Y-111736331D01*
X138344551Y-111839506D01*
X138345174Y-111909371D01*
X138307926Y-111968484D01*
X138244632Y-111998075D01*
X138225890Y-111999500D01*
X109624500Y-111999500D01*
X109557461Y-111979815D01*
X109511706Y-111927011D01*
X109500500Y-111875500D01*
X109500500Y-104735000D01*
X109919341Y-104735000D01*
X109939936Y-104970403D01*
X109939938Y-104970413D01*
X110001094Y-105198655D01*
X110001096Y-105198659D01*
X110001097Y-105198663D01*
X110085153Y-105378922D01*
X110100965Y-105412830D01*
X110100967Y-105412834D01*
X110206926Y-105564158D01*
X110236501Y-105606396D01*
X110236506Y-105606402D01*
X110358430Y-105728326D01*
X110391915Y-105789649D01*
X110386931Y-105859341D01*
X110345059Y-105915274D01*
X110314083Y-105932189D01*
X110182669Y-105981203D01*
X110182664Y-105981206D01*
X110067455Y-106067452D01*
X110067452Y-106067455D01*
X109981206Y-106182664D01*
X109981202Y-106182671D01*
X109930908Y-106317517D01*
X109924501Y-106377116D01*
X109924501Y-106377123D01*
X109924500Y-106377135D01*
X109924500Y-108172870D01*
X109924501Y-108172876D01*
X109930908Y-108232483D01*
X109981202Y-108367328D01*
X109981206Y-108367335D01*
X110067452Y-108482544D01*
X110067455Y-108482547D01*
X110182664Y-108568793D01*
X110182671Y-108568797D01*
X110317517Y-108619091D01*
X110317516Y-108619091D01*
X110324444Y-108619835D01*
X110377127Y-108625500D01*
X112172872Y-108625499D01*
X112232483Y-108619091D01*
X112367331Y-108568796D01*
X112482546Y-108482546D01*
X112568796Y-108367331D01*
X112619091Y-108232483D01*
X112625500Y-108172873D01*
X112625499Y-106377128D01*
X112619091Y-106317517D01*
X112618460Y-106315826D01*
X112568797Y-106182671D01*
X112568793Y-106182664D01*
X112482547Y-106067455D01*
X112482544Y-106067452D01*
X112367335Y-105981206D01*
X112367328Y-105981202D01*
X112235917Y-105932189D01*
X112179983Y-105890318D01*
X112155566Y-105824853D01*
X112170418Y-105756580D01*
X112191563Y-105728332D01*
X112313495Y-105606401D01*
X112449035Y-105412830D01*
X112548903Y-105198663D01*
X112610063Y-104970408D01*
X112630659Y-104735000D01*
X112610063Y-104499592D01*
X112548903Y-104271337D01*
X112449035Y-104057171D01*
X112426158Y-104024498D01*
X112313494Y-103863597D01*
X112146402Y-103696506D01*
X112146395Y-103696501D01*
X112116198Y-103675357D01*
X112007864Y-103599500D01*
X111952834Y-103560967D01*
X111952830Y-103560965D01*
X111887768Y-103530626D01*
X111738663Y-103461097D01*
X111738659Y-103461096D01*
X111738655Y-103461094D01*
X111510413Y-103399938D01*
X111510403Y-103399936D01*
X111275001Y-103379341D01*
X111274999Y-103379341D01*
X111039596Y-103399936D01*
X111039586Y-103399938D01*
X110811344Y-103461094D01*
X110811335Y-103461098D01*
X110597171Y-103560964D01*
X110597169Y-103560965D01*
X110403597Y-103696505D01*
X110236505Y-103863597D01*
X110100965Y-104057169D01*
X110100964Y-104057171D01*
X110001098Y-104271335D01*
X110001094Y-104271344D01*
X109939938Y-104499586D01*
X109939936Y-104499596D01*
X109919341Y-104734999D01*
X109919341Y-104735000D01*
X109500500Y-104735000D01*
X109500500Y-100000000D01*
X110114341Y-100000000D01*
X110134936Y-100235403D01*
X110134938Y-100235413D01*
X110196094Y-100463655D01*
X110196096Y-100463659D01*
X110196097Y-100463663D01*
X110242537Y-100563253D01*
X110295965Y-100677830D01*
X110295967Y-100677834D01*
X110347998Y-100752141D01*
X110431505Y-100871401D01*
X110598599Y-101038495D01*
X110695384Y-101106265D01*
X110792165Y-101174032D01*
X110792167Y-101174033D01*
X110792170Y-101174035D01*
X111006337Y-101273903D01*
X111234592Y-101335063D01*
X111411034Y-101350500D01*
X111469999Y-101355659D01*
X111470000Y-101355659D01*
X111470001Y-101355659D01*
X111528966Y-101350500D01*
X111705408Y-101335063D01*
X111933663Y-101273903D01*
X112147830Y-101174035D01*
X112341401Y-101038495D01*
X112463329Y-100916566D01*
X112524648Y-100883084D01*
X112594340Y-100888068D01*
X112650274Y-100929939D01*
X112667189Y-100960917D01*
X112716202Y-101092328D01*
X112716206Y-101092335D01*
X112802452Y-101207544D01*
X112802455Y-101207547D01*
X112917664Y-101293793D01*
X112917671Y-101293797D01*
X113052517Y-101344091D01*
X113052516Y-101344091D01*
X113059444Y-101344835D01*
X113112127Y-101350500D01*
X114907872Y-101350499D01*
X114967483Y-101344091D01*
X115102331Y-101293796D01*
X115217546Y-101207546D01*
X115303796Y-101092331D01*
X115354091Y-100957483D01*
X115360500Y-100897873D01*
X115360500Y-100397870D01*
X116399500Y-100397870D01*
X116399501Y-100397876D01*
X116405908Y-100457483D01*
X116456202Y-100592328D01*
X116456206Y-100592335D01*
X116542452Y-100707544D01*
X116542455Y-100707547D01*
X116657664Y-100793793D01*
X116657671Y-100793797D01*
X116792517Y-100844091D01*
X116792516Y-100844091D01*
X116799444Y-100844835D01*
X116852127Y-100850500D01*
X118647872Y-100850499D01*
X118707483Y-100844091D01*
X118842331Y-100793796D01*
X118957546Y-100707546D01*
X119043796Y-100592331D01*
X119070460Y-100520842D01*
X121963434Y-100520842D01*
X121982598Y-100752133D01*
X121982600Y-100752144D01*
X122039576Y-100977136D01*
X122132809Y-101189684D01*
X122259750Y-101383983D01*
X122259753Y-101383987D01*
X122259755Y-101383989D01*
X122416950Y-101554749D01*
X122416953Y-101554751D01*
X122416956Y-101554754D01*
X122600099Y-101697300D01*
X122600105Y-101697304D01*
X122600108Y-101697306D01*
X122804231Y-101807772D01*
X122910025Y-101844091D01*
X123023749Y-101883133D01*
X123023751Y-101883133D01*
X123023753Y-101883134D01*
X123252685Y-101921336D01*
X123252686Y-101921336D01*
X123484782Y-101921336D01*
X123484783Y-101921336D01*
X123713715Y-101883134D01*
X123933237Y-101807772D01*
X124137360Y-101697306D01*
X124139753Y-101695444D01*
X124242462Y-101615502D01*
X124320518Y-101554749D01*
X124477713Y-101383989D01*
X124604658Y-101189685D01*
X124697891Y-100977136D01*
X124754868Y-100752141D01*
X124757583Y-100719375D01*
X124774034Y-100520842D01*
X124774034Y-100520829D01*
X124754869Y-100289538D01*
X124754867Y-100289527D01*
X124697891Y-100064535D01*
X124604658Y-99851987D01*
X124477717Y-99657688D01*
X124477714Y-99657685D01*
X124477713Y-99657683D01*
X124447428Y-99624785D01*
X126064785Y-99624785D01*
X126064785Y-99798367D01*
X126116228Y-99758328D01*
X126116232Y-99758324D01*
X126239164Y-99624786D01*
X126239164Y-99624785D01*
X126064785Y-99624785D01*
X124447428Y-99624785D01*
X124320518Y-99486923D01*
X124320513Y-99486919D01*
X124320511Y-99486917D01*
X124137368Y-99344371D01*
X124137362Y-99344367D01*
X123933238Y-99233900D01*
X123933229Y-99233897D01*
X123713718Y-99158538D01*
X123534288Y-99128597D01*
X123484783Y-99120336D01*
X123252685Y-99120336D01*
X123206898Y-99127976D01*
X123023749Y-99158538D01*
X122804238Y-99233897D01*
X122804229Y-99233900D01*
X122600105Y-99344367D01*
X122600099Y-99344371D01*
X122416956Y-99486917D01*
X122416953Y-99486920D01*
X122259750Y-99657688D01*
X122132809Y-99851987D01*
X122039576Y-100064535D01*
X121982600Y-100289527D01*
X121982598Y-100289538D01*
X121963434Y-100520829D01*
X121963434Y-100520842D01*
X119070460Y-100520842D01*
X119094091Y-100457483D01*
X119100500Y-100397873D01*
X119100499Y-98784029D01*
X124714785Y-98784029D01*
X124745452Y-98898479D01*
X124804695Y-99001091D01*
X124888479Y-99084875D01*
X124991091Y-99144118D01*
X125105541Y-99174785D01*
X125224029Y-99174785D01*
X125338479Y-99144118D01*
X125441091Y-99084875D01*
X125524875Y-99001091D01*
X125584118Y-98898479D01*
X125614785Y-98784029D01*
X125614785Y-98665541D01*
X125584118Y-98551091D01*
X125524875Y-98448479D01*
X125441091Y-98364695D01*
X125338479Y-98305452D01*
X125224029Y-98274785D01*
X125105541Y-98274785D01*
X124991091Y-98305452D01*
X124888479Y-98364695D01*
X124804695Y-98448479D01*
X124745452Y-98551091D01*
X124714785Y-98665541D01*
X124714785Y-98784029D01*
X119100499Y-98784029D01*
X119100499Y-98602128D01*
X119094091Y-98542517D01*
X119070460Y-98479160D01*
X119043797Y-98407671D01*
X119043793Y-98407664D01*
X118957547Y-98292455D01*
X118957544Y-98292452D01*
X118842335Y-98206206D01*
X118842328Y-98206202D01*
X118707482Y-98155908D01*
X118707483Y-98155908D01*
X118647883Y-98149501D01*
X118647881Y-98149500D01*
X118647873Y-98149500D01*
X118647864Y-98149500D01*
X116852129Y-98149500D01*
X116852123Y-98149501D01*
X116792516Y-98155908D01*
X116657671Y-98206202D01*
X116657664Y-98206206D01*
X116542455Y-98292452D01*
X116542452Y-98292455D01*
X116456206Y-98407664D01*
X116456202Y-98407671D01*
X116405908Y-98542517D01*
X116399501Y-98602116D01*
X116399501Y-98602123D01*
X116399500Y-98602135D01*
X116399500Y-100397870D01*
X115360500Y-100397870D01*
X115360499Y-99102128D01*
X115354091Y-99042517D01*
X115352810Y-99039083D01*
X115303797Y-98907671D01*
X115303793Y-98907664D01*
X115217547Y-98792455D01*
X115217544Y-98792452D01*
X115102335Y-98706206D01*
X115102328Y-98706202D01*
X114967482Y-98655908D01*
X114967483Y-98655908D01*
X114907883Y-98649501D01*
X114907881Y-98649500D01*
X114907873Y-98649500D01*
X114907864Y-98649500D01*
X113112129Y-98649500D01*
X113112123Y-98649501D01*
X113052516Y-98655908D01*
X112917671Y-98706202D01*
X112917664Y-98706206D01*
X112802455Y-98792452D01*
X112802452Y-98792455D01*
X112716206Y-98907664D01*
X112716203Y-98907669D01*
X112667189Y-99039083D01*
X112625317Y-99095016D01*
X112559853Y-99119433D01*
X112491580Y-99104581D01*
X112463326Y-99083430D01*
X112341402Y-98961506D01*
X112341395Y-98961501D01*
X112147834Y-98825967D01*
X112147830Y-98825965D01*
X112147828Y-98825964D01*
X111933663Y-98726097D01*
X111933659Y-98726096D01*
X111933655Y-98726094D01*
X111705413Y-98664938D01*
X111705403Y-98664936D01*
X111470001Y-98644341D01*
X111469999Y-98644341D01*
X111234596Y-98664936D01*
X111234586Y-98664938D01*
X111006344Y-98726094D01*
X111006335Y-98726098D01*
X110792171Y-98825964D01*
X110792169Y-98825965D01*
X110598597Y-98961505D01*
X110431505Y-99128597D01*
X110295965Y-99322169D01*
X110295964Y-99322171D01*
X110196098Y-99536335D01*
X110196094Y-99536344D01*
X110134938Y-99764586D01*
X110134936Y-99764596D01*
X110114341Y-99999999D01*
X110114341Y-100000000D01*
X109500500Y-100000000D01*
X109500500Y-97824783D01*
X124090405Y-97824783D01*
X124090406Y-97824785D01*
X124264785Y-97824785D01*
X124264785Y-97651201D01*
X124264784Y-97651201D01*
X124213342Y-97691240D01*
X124213337Y-97691245D01*
X124090405Y-97824783D01*
X109500500Y-97824783D01*
X109500500Y-97016479D01*
X125291179Y-97016479D01*
X125331649Y-97187234D01*
X125410410Y-97344059D01*
X125475685Y-97424190D01*
X126465379Y-98413884D01*
X126465384Y-98413888D01*
X126465385Y-98413889D01*
X126545511Y-98479160D01*
X126702334Y-98557920D01*
X126772889Y-98574642D01*
X126873091Y-98598391D01*
X126873092Y-98598391D01*
X127048581Y-98598391D01*
X127105499Y-98584900D01*
X127219338Y-98557920D01*
X127376161Y-98479160D01*
X127456287Y-98413889D01*
X127639073Y-98231103D01*
X131026004Y-98231103D01*
X131044355Y-98417434D01*
X131044356Y-98417436D01*
X131098707Y-98596605D01*
X131186965Y-98761726D01*
X131186967Y-98761729D01*
X131305745Y-98906460D01*
X131450476Y-99025238D01*
X131450479Y-99025240D01*
X131600657Y-99105511D01*
X131615602Y-99113499D01*
X131716539Y-99144118D01*
X131794769Y-99167849D01*
X131794771Y-99167850D01*
X131817519Y-99170090D01*
X131975944Y-99185693D01*
X132040729Y-99211854D01*
X132051469Y-99221415D01*
X132313181Y-99483127D01*
X132346666Y-99544450D01*
X132349500Y-99570808D01*
X132349500Y-100499986D01*
X132329815Y-100567025D01*
X132321353Y-100578651D01*
X132205864Y-100719373D01*
X132205862Y-100719376D01*
X132117604Y-100884497D01*
X132063253Y-101063666D01*
X132063252Y-101063668D01*
X132044901Y-101250000D01*
X132063252Y-101436331D01*
X132063253Y-101436333D01*
X132117604Y-101615502D01*
X132205862Y-101780623D01*
X132205864Y-101780626D01*
X132324642Y-101925357D01*
X132469373Y-102044135D01*
X132469376Y-102044137D01*
X132606825Y-102117604D01*
X132634499Y-102132396D01*
X132813666Y-102186746D01*
X132813668Y-102186747D01*
X132830374Y-102188392D01*
X133000000Y-102205099D01*
X133186331Y-102186747D01*
X133365501Y-102132396D01*
X133530625Y-102044136D01*
X133675357Y-101925357D01*
X133794136Y-101780625D01*
X133882396Y-101615501D01*
X133936747Y-101436331D01*
X133955099Y-101250000D01*
X133936747Y-101063669D01*
X133882396Y-100884499D01*
X133833913Y-100793793D01*
X133794137Y-100719376D01*
X133794135Y-100719373D01*
X133678647Y-100578651D01*
X133651334Y-100514341D01*
X133650500Y-100499986D01*
X133650500Y-99185928D01*
X133625502Y-99060261D01*
X133625501Y-99060260D01*
X133625501Y-99060256D01*
X133576465Y-98941873D01*
X133565525Y-98925500D01*
X133565524Y-98925497D01*
X133505278Y-98835332D01*
X133505272Y-98835325D01*
X132971415Y-98301469D01*
X132937930Y-98240146D01*
X132935694Y-98225953D01*
X132917850Y-98044772D01*
X132863499Y-97865602D01*
X132841681Y-97824783D01*
X132775240Y-97700479D01*
X132775238Y-97700476D01*
X132656460Y-97555745D01*
X132511729Y-97436967D01*
X132511726Y-97436965D01*
X132346605Y-97348707D01*
X132167436Y-97294356D01*
X132167434Y-97294355D01*
X131981103Y-97276004D01*
X131794771Y-97294355D01*
X131794769Y-97294356D01*
X131615600Y-97348707D01*
X131450479Y-97436965D01*
X131450476Y-97436967D01*
X131305745Y-97555745D01*
X131186967Y-97700476D01*
X131186965Y-97700479D01*
X131098707Y-97865600D01*
X131044356Y-98044769D01*
X131044355Y-98044771D01*
X131026004Y-98231103D01*
X127639073Y-98231103D01*
X128445991Y-97424185D01*
X128511262Y-97344059D01*
X128590022Y-97187236D01*
X128617002Y-97073397D01*
X128630493Y-97016479D01*
X128630493Y-96840988D01*
X128590022Y-96670233D01*
X128590022Y-96670232D01*
X128511262Y-96513409D01*
X128445991Y-96433283D01*
X128445990Y-96433282D01*
X128445986Y-96433277D01*
X127456292Y-95443583D01*
X127376161Y-95378308D01*
X127219336Y-95299547D01*
X127048581Y-95259077D01*
X127048580Y-95259077D01*
X126873092Y-95259077D01*
X126873091Y-95259077D01*
X126702335Y-95299547D01*
X126545510Y-95378308D01*
X126465379Y-95443583D01*
X125475685Y-96433277D01*
X125410410Y-96513408D01*
X125331649Y-96670233D01*
X125291179Y-96840988D01*
X125291179Y-97016479D01*
X109500500Y-97016479D01*
X109500500Y-95194488D01*
X118899852Y-95194488D01*
X118920447Y-95429891D01*
X118920449Y-95429901D01*
X118981605Y-95658143D01*
X118981607Y-95658147D01*
X118981608Y-95658151D01*
X119031845Y-95765884D01*
X119081476Y-95872318D01*
X119081478Y-95872322D01*
X119123954Y-95932983D01*
X119217016Y-96065889D01*
X119384110Y-96232983D01*
X119408413Y-96250000D01*
X119577676Y-96368520D01*
X119577678Y-96368521D01*
X119577681Y-96368523D01*
X119791848Y-96468391D01*
X120020103Y-96529551D01*
X120208429Y-96546027D01*
X120255510Y-96550147D01*
X120255511Y-96550147D01*
X120255512Y-96550147D01*
X120294745Y-96546714D01*
X120490919Y-96529551D01*
X120719174Y-96468391D01*
X120933341Y-96368523D01*
X121126912Y-96232983D01*
X121294006Y-96065889D01*
X121429546Y-95872318D01*
X121529414Y-95658151D01*
X121590574Y-95429896D01*
X121611170Y-95194488D01*
X121607353Y-95150866D01*
X121621119Y-95082369D01*
X121669733Y-95032185D01*
X121737761Y-95016251D01*
X121782393Y-95027266D01*
X121909244Y-95085198D01*
X121909248Y-95085199D01*
X122051562Y-95105659D01*
X122193875Y-95085199D01*
X122193880Y-95085198D01*
X122324659Y-95025472D01*
X122371294Y-94987892D01*
X122371298Y-94987888D01*
X122405115Y-94954072D01*
X121976049Y-94525006D01*
X135554700Y-94525006D01*
X135573864Y-94756297D01*
X135573866Y-94756308D01*
X135630842Y-94981300D01*
X135724075Y-95193848D01*
X135851016Y-95388147D01*
X135851019Y-95388151D01*
X135851021Y-95388153D01*
X136008216Y-95558913D01*
X136008219Y-95558915D01*
X136008222Y-95558918D01*
X136191365Y-95701464D01*
X136191371Y-95701468D01*
X136191374Y-95701470D01*
X136310410Y-95765889D01*
X136394652Y-95811479D01*
X136395497Y-95811936D01*
X136509487Y-95851068D01*
X136615015Y-95887297D01*
X136615017Y-95887297D01*
X136615019Y-95887298D01*
X136843951Y-95925500D01*
X136843952Y-95925500D01*
X137076048Y-95925500D01*
X137076049Y-95925500D01*
X137304981Y-95887298D01*
X137524503Y-95811936D01*
X137728626Y-95701470D01*
X137729170Y-95701047D01*
X137803002Y-95643581D01*
X137911784Y-95558913D01*
X138068979Y-95388153D01*
X138126490Y-95300124D01*
X138179635Y-95254769D01*
X138248866Y-95245345D01*
X138312202Y-95274846D01*
X138334107Y-95300125D01*
X138348812Y-95322633D01*
X139057861Y-94613584D01*
X139080667Y-94698694D01*
X139139910Y-94801306D01*
X139223694Y-94885090D01*
X139326306Y-94944333D01*
X139411414Y-94967138D01*
X138701201Y-95677351D01*
X138731649Y-95701050D01*
X138935697Y-95811476D01*
X138935706Y-95811479D01*
X139155139Y-95886811D01*
X139383993Y-95925000D01*
X139616007Y-95925000D01*
X139844860Y-95886811D01*
X140064293Y-95811479D01*
X140064301Y-95811476D01*
X140268355Y-95701047D01*
X140298797Y-95677351D01*
X140298798Y-95677350D01*
X139588585Y-94967137D01*
X139673694Y-94944333D01*
X139776306Y-94885090D01*
X139860090Y-94801306D01*
X139919333Y-94698694D01*
X139942138Y-94613584D01*
X140626156Y-95297602D01*
X140656180Y-95346278D01*
X140688424Y-95443583D01*
X140705202Y-95494217D01*
X140705204Y-95494222D01*
X140721098Y-95519990D01*
X140797330Y-95643581D01*
X140921419Y-95767670D01*
X141070780Y-95859797D01*
X141153771Y-95887297D01*
X141237361Y-95914996D01*
X141274236Y-95918763D01*
X141340174Y-95925500D01*
X141340178Y-95925500D01*
X142739822Y-95925500D01*
X142739826Y-95925500D01*
X142842638Y-95914996D01*
X143009220Y-95859797D01*
X143158581Y-95767670D01*
X143282670Y-95643581D01*
X143374797Y-95494220D01*
X143429996Y-95327638D01*
X143440500Y-95224826D01*
X143440500Y-93825174D01*
X143433763Y-93759236D01*
X143429996Y-93722361D01*
X143382356Y-93578592D01*
X143374797Y-93555780D01*
X143282670Y-93406419D01*
X143158581Y-93282330D01*
X143065791Y-93225097D01*
X143009222Y-93190204D01*
X143009217Y-93190202D01*
X142842638Y-93135003D01*
X142739833Y-93124500D01*
X142739826Y-93124500D01*
X141340174Y-93124500D01*
X141340166Y-93124500D01*
X141237361Y-93135003D01*
X141070782Y-93190202D01*
X141070777Y-93190204D01*
X140921417Y-93282331D01*
X140797331Y-93406417D01*
X140705204Y-93555777D01*
X140705202Y-93555782D01*
X140656181Y-93703719D01*
X140626156Y-93752396D01*
X139942137Y-94436414D01*
X139919333Y-94351306D01*
X139860090Y-94248694D01*
X139776306Y-94164910D01*
X139673694Y-94105667D01*
X139588584Y-94082861D01*
X140298797Y-93372647D01*
X140298797Y-93372645D01*
X140268360Y-93348955D01*
X140268354Y-93348951D01*
X140064302Y-93238523D01*
X140064293Y-93238520D01*
X139844860Y-93163188D01*
X139616007Y-93125000D01*
X139383993Y-93125000D01*
X139155139Y-93163188D01*
X138935706Y-93238520D01*
X138935697Y-93238523D01*
X138731650Y-93348949D01*
X138701200Y-93372647D01*
X139411415Y-94082861D01*
X139326306Y-94105667D01*
X139223694Y-94164910D01*
X139139910Y-94248694D01*
X139080667Y-94351306D01*
X139057861Y-94436415D01*
X138348811Y-93727365D01*
X138334106Y-93749873D01*
X138280959Y-93795230D01*
X138211728Y-93804653D01*
X138148392Y-93775150D01*
X138126489Y-93749873D01*
X138105778Y-93718173D01*
X138068979Y-93661847D01*
X137911784Y-93491087D01*
X137911779Y-93491083D01*
X137911777Y-93491081D01*
X137728634Y-93348535D01*
X137728628Y-93348531D01*
X137524504Y-93238064D01*
X137524495Y-93238061D01*
X137304984Y-93162702D01*
X137133282Y-93134050D01*
X137076049Y-93124500D01*
X136843951Y-93124500D01*
X136798164Y-93132140D01*
X136615015Y-93162702D01*
X136395504Y-93238061D01*
X136395495Y-93238064D01*
X136191371Y-93348531D01*
X136191365Y-93348535D01*
X136008222Y-93491081D01*
X136008219Y-93491084D01*
X136008216Y-93491086D01*
X136008216Y-93491087D01*
X135962494Y-93540755D01*
X135851016Y-93661852D01*
X135724075Y-93856151D01*
X135630842Y-94068699D01*
X135573866Y-94293691D01*
X135573864Y-94293702D01*
X135554700Y-94524993D01*
X135554700Y-94525006D01*
X121976049Y-94525006D01*
X120915306Y-93464263D01*
X121551562Y-93464263D01*
X121585637Y-93591430D01*
X121651463Y-93705444D01*
X121744555Y-93798536D01*
X121858569Y-93864362D01*
X121985736Y-93898437D01*
X122117388Y-93898437D01*
X122244555Y-93864362D01*
X122358569Y-93798536D01*
X122451661Y-93705444D01*
X122517487Y-93591430D01*
X122551562Y-93464263D01*
X122551562Y-93398437D01*
X123253644Y-93398437D01*
X123607197Y-93751990D01*
X123641013Y-93718173D01*
X123641017Y-93718169D01*
X123678597Y-93671534D01*
X123738323Y-93540755D01*
X123738324Y-93540750D01*
X123758784Y-93398437D01*
X123738324Y-93256123D01*
X123738323Y-93256118D01*
X123678597Y-93125339D01*
X123641017Y-93078704D01*
X123607197Y-93044884D01*
X123253644Y-93398437D01*
X122551562Y-93398437D01*
X122551562Y-93332611D01*
X122517487Y-93205444D01*
X122451661Y-93091430D01*
X122358569Y-92998338D01*
X122244555Y-92932512D01*
X122117388Y-92898437D01*
X121985736Y-92898437D01*
X121858569Y-92932512D01*
X121744555Y-92998338D01*
X121651463Y-93091430D01*
X121585637Y-93205444D01*
X121551562Y-93332611D01*
X121551562Y-93464263D01*
X120915306Y-93464263D01*
X120495927Y-93044884D01*
X120462110Y-93078700D01*
X120462106Y-93078704D01*
X120424526Y-93125339D01*
X120364800Y-93256118D01*
X120364799Y-93256123D01*
X120344339Y-93398437D01*
X120364799Y-93540750D01*
X120364800Y-93540754D01*
X120422732Y-93667605D01*
X120432676Y-93736764D01*
X120403651Y-93800319D01*
X120344873Y-93838094D01*
X120299131Y-93842645D01*
X120255513Y-93838829D01*
X120255510Y-93838829D01*
X120020107Y-93859424D01*
X120020097Y-93859426D01*
X119791855Y-93920582D01*
X119791846Y-93920586D01*
X119577682Y-94020452D01*
X119577680Y-94020453D01*
X119384108Y-94155993D01*
X119217016Y-94323085D01*
X119081476Y-94516657D01*
X119081475Y-94516659D01*
X118981609Y-94730823D01*
X118981605Y-94730832D01*
X118920449Y-94959074D01*
X118920447Y-94959084D01*
X118899852Y-95194487D01*
X118899852Y-95194488D01*
X109500500Y-95194488D01*
X109500500Y-92909750D01*
X116630109Y-92909750D01*
X116649273Y-93141041D01*
X116649275Y-93141052D01*
X116706251Y-93366044D01*
X116799484Y-93578592D01*
X116926425Y-93772891D01*
X116926428Y-93772895D01*
X116926430Y-93772897D01*
X117083625Y-93943657D01*
X117083628Y-93943659D01*
X117083631Y-93943662D01*
X117266774Y-94086208D01*
X117266780Y-94086212D01*
X117266783Y-94086214D01*
X117470906Y-94196680D01*
X117529103Y-94216659D01*
X117690424Y-94272041D01*
X117690426Y-94272041D01*
X117690428Y-94272042D01*
X117919360Y-94310244D01*
X117919361Y-94310244D01*
X118151457Y-94310244D01*
X118151458Y-94310244D01*
X118380390Y-94272042D01*
X118599912Y-94196680D01*
X118804035Y-94086214D01*
X118812496Y-94079629D01*
X118983887Y-93946230D01*
X118987193Y-93943657D01*
X119144388Y-93772897D01*
X119271333Y-93578593D01*
X119364566Y-93366044D01*
X119421543Y-93141049D01*
X119438231Y-92939638D01*
X119463385Y-92874456D01*
X119519787Y-92833217D01*
X119589530Y-92829019D01*
X119613317Y-92837084D01*
X119689003Y-92871650D01*
X119689002Y-92871650D01*
X119706909Y-92874224D01*
X119831460Y-92892132D01*
X119973917Y-92871650D01*
X120104833Y-92811862D01*
X120151516Y-92774243D01*
X121082956Y-91842802D01*
X121698009Y-91842802D01*
X122051562Y-92196355D01*
X122405115Y-91842802D01*
X122371294Y-91808981D01*
X122324659Y-91771401D01*
X122193880Y-91711675D01*
X122193875Y-91711674D01*
X122051562Y-91691214D01*
X121909248Y-91711674D01*
X121909243Y-91711675D01*
X121778464Y-91771401D01*
X121731829Y-91808981D01*
X121731825Y-91808985D01*
X121698009Y-91842802D01*
X121082956Y-91842802D01*
X121492009Y-91433749D01*
X121529629Y-91387066D01*
X121589417Y-91256150D01*
X121609899Y-91113693D01*
X121589417Y-90971236D01*
X121529629Y-90840320D01*
X121492010Y-90793637D01*
X121492005Y-90793632D01*
X121492001Y-90793627D01*
X120596217Y-89897844D01*
X136625000Y-89897844D01*
X136631401Y-89957372D01*
X136631403Y-89957379D01*
X136681645Y-90092086D01*
X136681649Y-90092093D01*
X136767809Y-90207187D01*
X136767812Y-90207190D01*
X136882906Y-90293350D01*
X136882913Y-90293354D01*
X137017620Y-90343596D01*
X137017627Y-90343598D01*
X137077155Y-90349999D01*
X137077172Y-90350000D01*
X137725000Y-90350000D01*
X137725000Y-89433012D01*
X137782007Y-89465925D01*
X137909174Y-89500000D01*
X138040826Y-89500000D01*
X138167993Y-89465925D01*
X138225000Y-89433012D01*
X138225000Y-90350000D01*
X138872828Y-90350000D01*
X138872844Y-90349999D01*
X138932372Y-90343598D01*
X138932379Y-90343596D01*
X139067086Y-90293354D01*
X139067093Y-90293350D01*
X139182187Y-90207190D01*
X139182190Y-90207187D01*
X139268350Y-90092093D01*
X139268354Y-90092086D01*
X139317422Y-89960529D01*
X139359293Y-89904595D01*
X139424757Y-89880178D01*
X139493030Y-89895030D01*
X139521285Y-89916181D01*
X139643599Y-90038495D01*
X139740384Y-90106265D01*
X139837165Y-90174032D01*
X139837167Y-90174033D01*
X139837170Y-90174035D01*
X140051337Y-90273903D01*
X140279592Y-90335063D01*
X140456034Y-90350500D01*
X140514999Y-90355659D01*
X140515000Y-90355659D01*
X140515001Y-90355659D01*
X140573966Y-90350500D01*
X140750408Y-90335063D01*
X140978663Y-90273903D01*
X141192830Y-90174035D01*
X141386401Y-90038495D01*
X141527026Y-89897870D01*
X142899500Y-89897870D01*
X142899501Y-89897876D01*
X142905908Y-89957483D01*
X142956202Y-90092328D01*
X142956206Y-90092335D01*
X143042452Y-90207544D01*
X143042455Y-90207547D01*
X143157664Y-90293793D01*
X143157671Y-90293797D01*
X143292517Y-90344091D01*
X143292516Y-90344091D01*
X143299444Y-90344835D01*
X143352127Y-90350500D01*
X145147872Y-90350499D01*
X145207483Y-90344091D01*
X145342331Y-90293796D01*
X145457546Y-90207546D01*
X145543796Y-90092331D01*
X145594091Y-89957483D01*
X145600500Y-89897873D01*
X145600499Y-88102128D01*
X145594091Y-88042517D01*
X145564437Y-87963011D01*
X145543797Y-87907671D01*
X145543793Y-87907664D01*
X145457547Y-87792455D01*
X145457544Y-87792452D01*
X145342335Y-87706206D01*
X145342328Y-87706202D01*
X145207482Y-87655908D01*
X145207483Y-87655908D01*
X145147883Y-87649501D01*
X145147881Y-87649500D01*
X145147873Y-87649500D01*
X145147864Y-87649500D01*
X143352129Y-87649500D01*
X143352123Y-87649501D01*
X143292516Y-87655908D01*
X143157671Y-87706202D01*
X143157664Y-87706206D01*
X143042455Y-87792452D01*
X143042452Y-87792455D01*
X142956206Y-87907664D01*
X142956202Y-87907671D01*
X142905908Y-88042517D01*
X142901468Y-88083819D01*
X142899501Y-88102123D01*
X142899500Y-88102135D01*
X142899500Y-89897870D01*
X141527026Y-89897870D01*
X141553495Y-89871401D01*
X141689035Y-89677830D01*
X141788903Y-89463663D01*
X141850063Y-89235408D01*
X141870659Y-89000000D01*
X141850063Y-88764592D01*
X141788903Y-88536337D01*
X141689035Y-88322171D01*
X141564725Y-88144636D01*
X141553494Y-88128597D01*
X141386402Y-87961506D01*
X141386395Y-87961501D01*
X141192834Y-87825967D01*
X141192830Y-87825965D01*
X141121727Y-87792809D01*
X140978663Y-87726097D01*
X140978659Y-87726096D01*
X140978655Y-87726094D01*
X140750413Y-87664938D01*
X140750403Y-87664936D01*
X140515001Y-87644341D01*
X140514999Y-87644341D01*
X140279596Y-87664936D01*
X140279586Y-87664938D01*
X140051344Y-87726094D01*
X140051335Y-87726098D01*
X139837171Y-87825964D01*
X139837169Y-87825965D01*
X139643600Y-87961503D01*
X139521284Y-88083819D01*
X139459961Y-88117303D01*
X139390269Y-88112319D01*
X139334336Y-88070447D01*
X139317421Y-88039470D01*
X139268354Y-87907913D01*
X139268350Y-87907906D01*
X139182190Y-87792812D01*
X139182187Y-87792809D01*
X139067093Y-87706649D01*
X139067086Y-87706645D01*
X138932379Y-87656403D01*
X138932372Y-87656401D01*
X138872844Y-87650000D01*
X138225000Y-87650000D01*
X138225000Y-88566988D01*
X138167993Y-88534075D01*
X138040826Y-88500000D01*
X137909174Y-88500000D01*
X137782007Y-88534075D01*
X137725000Y-88566988D01*
X137725000Y-87650000D01*
X137077155Y-87650000D01*
X137017627Y-87656401D01*
X137017620Y-87656403D01*
X136882913Y-87706645D01*
X136882906Y-87706649D01*
X136767812Y-87792809D01*
X136767809Y-87792812D01*
X136681649Y-87907906D01*
X136681645Y-87907913D01*
X136631403Y-88042620D01*
X136631401Y-88042627D01*
X136625000Y-88102155D01*
X136625000Y-88750000D01*
X137541988Y-88750000D01*
X137509075Y-88807007D01*
X137475000Y-88934174D01*
X137475000Y-89065826D01*
X137509075Y-89192993D01*
X137541988Y-89250000D01*
X136625000Y-89250000D01*
X136625000Y-89897844D01*
X120596217Y-89897844D01*
X120151523Y-89453151D01*
X120151516Y-89453144D01*
X120104833Y-89415524D01*
X120090416Y-89408940D01*
X119973915Y-89355735D01*
X119973917Y-89355735D01*
X119831460Y-89335254D01*
X119689003Y-89355735D01*
X119558089Y-89415522D01*
X119511394Y-89453151D01*
X118170918Y-90793629D01*
X118170912Y-90793636D01*
X118133290Y-90840321D01*
X118133289Y-90840323D01*
X118073502Y-90971236D01*
X118053021Y-91113693D01*
X118073502Y-91256149D01*
X118108934Y-91333732D01*
X118118878Y-91402891D01*
X118089853Y-91466446D01*
X118031075Y-91504221D01*
X117996140Y-91509244D01*
X117919360Y-91509244D01*
X117873573Y-91516884D01*
X117690424Y-91547446D01*
X117470913Y-91622805D01*
X117470904Y-91622808D01*
X117266780Y-91733275D01*
X117266774Y-91733279D01*
X117083631Y-91875825D01*
X117083628Y-91875828D01*
X116926425Y-92046596D01*
X116799484Y-92240895D01*
X116706251Y-92453443D01*
X116649275Y-92678435D01*
X116649273Y-92678446D01*
X116630109Y-92909737D01*
X116630109Y-92909750D01*
X109500500Y-92909750D01*
X109500500Y-86788977D01*
X110249852Y-86788977D01*
X110270447Y-87024380D01*
X110270449Y-87024390D01*
X110331605Y-87252632D01*
X110331607Y-87252636D01*
X110331608Y-87252640D01*
X110431476Y-87466807D01*
X110431478Y-87466811D01*
X110539792Y-87621498D01*
X110567016Y-87660378D01*
X110734110Y-87827472D01*
X110830895Y-87895242D01*
X110927676Y-87963009D01*
X110927678Y-87963010D01*
X110927681Y-87963012D01*
X111141848Y-88062880D01*
X111370103Y-88124040D01*
X111558429Y-88140516D01*
X111605510Y-88144636D01*
X111605511Y-88144636D01*
X111605512Y-88144636D01*
X111644745Y-88141203D01*
X111840919Y-88124040D01*
X112069174Y-88062880D01*
X112283341Y-87963012D01*
X112476912Y-87827472D01*
X112644006Y-87660378D01*
X112779546Y-87466807D01*
X112879414Y-87252640D01*
X112940574Y-87024385D01*
X112961170Y-86788977D01*
X112957403Y-86745928D01*
X112971169Y-86677431D01*
X113019783Y-86627248D01*
X113087811Y-86611313D01*
X113132443Y-86622328D01*
X113259102Y-86680172D01*
X113259103Y-86680172D01*
X113259105Y-86680173D01*
X113401562Y-86700654D01*
X113544019Y-86680173D01*
X113674935Y-86620385D01*
X113721618Y-86582766D01*
X114479377Y-85825006D01*
X136804700Y-85825006D01*
X136823864Y-86056297D01*
X136823866Y-86056308D01*
X136880842Y-86281300D01*
X136974075Y-86493848D01*
X137101016Y-86688147D01*
X137101019Y-86688151D01*
X137101021Y-86688153D01*
X137258216Y-86858913D01*
X137258219Y-86858915D01*
X137258222Y-86858918D01*
X137441365Y-87001464D01*
X137441371Y-87001468D01*
X137441374Y-87001470D01*
X137645497Y-87111936D01*
X137701355Y-87131112D01*
X137865015Y-87187297D01*
X137865017Y-87187297D01*
X137865019Y-87187298D01*
X138093951Y-87225500D01*
X138093952Y-87225500D01*
X138326048Y-87225500D01*
X138326049Y-87225500D01*
X138554981Y-87187298D01*
X138774503Y-87111936D01*
X138978626Y-87001470D01*
X139161784Y-86858913D01*
X139170130Y-86849846D01*
X139230010Y-86813854D01*
X139299849Y-86815949D01*
X139357468Y-86855469D01*
X139377544Y-86890491D01*
X139406203Y-86967330D01*
X139406206Y-86967335D01*
X139492452Y-87082544D01*
X139492455Y-87082547D01*
X139607664Y-87168793D01*
X139607671Y-87168797D01*
X139742517Y-87219091D01*
X139742516Y-87219091D01*
X139749444Y-87219835D01*
X139802127Y-87225500D01*
X141697872Y-87225499D01*
X141757483Y-87219091D01*
X141892331Y-87168796D01*
X142007546Y-87082546D01*
X142093796Y-86967331D01*
X142144091Y-86832483D01*
X142150500Y-86772873D01*
X142150499Y-84877128D01*
X142144091Y-84817517D01*
X142142500Y-84813252D01*
X142093797Y-84682671D01*
X142093793Y-84682664D01*
X142007547Y-84567455D01*
X142007544Y-84567452D01*
X141892335Y-84481206D01*
X141892328Y-84481202D01*
X141757482Y-84430908D01*
X141757483Y-84430908D01*
X141697883Y-84424501D01*
X141697881Y-84424500D01*
X141697873Y-84424500D01*
X141697864Y-84424500D01*
X139802129Y-84424500D01*
X139802123Y-84424501D01*
X139742516Y-84430908D01*
X139607671Y-84481202D01*
X139607664Y-84481206D01*
X139492455Y-84567452D01*
X139492452Y-84567455D01*
X139406206Y-84682664D01*
X139406203Y-84682670D01*
X139377544Y-84759508D01*
X139335672Y-84815441D01*
X139270208Y-84839858D01*
X139201935Y-84825006D01*
X139170135Y-84800158D01*
X139161784Y-84791087D01*
X139161778Y-84791082D01*
X139161777Y-84791081D01*
X138978634Y-84648535D01*
X138978628Y-84648531D01*
X138774504Y-84538064D01*
X138774495Y-84538061D01*
X138554984Y-84462702D01*
X138364450Y-84430908D01*
X138326049Y-84424500D01*
X138093951Y-84424500D01*
X138063203Y-84429631D01*
X137865015Y-84462702D01*
X137645504Y-84538061D01*
X137645495Y-84538064D01*
X137441371Y-84648531D01*
X137441365Y-84648535D01*
X137258222Y-84791081D01*
X137258219Y-84791084D01*
X137258216Y-84791086D01*
X137258216Y-84791087D01*
X137213319Y-84839858D01*
X137101016Y-84961852D01*
X136974075Y-85156151D01*
X136880842Y-85368699D01*
X136823866Y-85593691D01*
X136823864Y-85593702D01*
X136804700Y-85824993D01*
X136804700Y-85825006D01*
X114479377Y-85825006D01*
X114991400Y-85312982D01*
X115029021Y-85266299D01*
X115088809Y-85135383D01*
X115109290Y-84992926D01*
X115088809Y-84850469D01*
X115077180Y-84825006D01*
X115029022Y-84719555D01*
X115029021Y-84719554D01*
X115029021Y-84719553D01*
X114991402Y-84672870D01*
X114991397Y-84672865D01*
X114991393Y-84672860D01*
X113721621Y-83403091D01*
X113721615Y-83403086D01*
X113721611Y-83403082D01*
X113674935Y-83365466D01*
X113544021Y-83305679D01*
X113544017Y-83305678D01*
X113401562Y-83285198D01*
X113259106Y-83305678D01*
X113259102Y-83305679D01*
X113128191Y-83365465D01*
X113081496Y-83403094D01*
X111811727Y-84672866D01*
X111811718Y-84672876D01*
X111774102Y-84719552D01*
X111714315Y-84850466D01*
X111714314Y-84850470D01*
X111693834Y-84992926D01*
X111714314Y-85135381D01*
X111714315Y-85135386D01*
X111772159Y-85262044D01*
X111782103Y-85331203D01*
X111753078Y-85394759D01*
X111694300Y-85432533D01*
X111648558Y-85437084D01*
X111605513Y-85433318D01*
X111605510Y-85433318D01*
X111370107Y-85453913D01*
X111370097Y-85453915D01*
X111141855Y-85515071D01*
X111141846Y-85515075D01*
X110927682Y-85614941D01*
X110927680Y-85614942D01*
X110734108Y-85750482D01*
X110567016Y-85917574D01*
X110431476Y-86111146D01*
X110431475Y-86111148D01*
X110331609Y-86325312D01*
X110331605Y-86325321D01*
X110270449Y-86553563D01*
X110270447Y-86553573D01*
X110249852Y-86788976D01*
X110249852Y-86788977D01*
X109500500Y-86788977D01*
X109500500Y-75624500D01*
X109520185Y-75557461D01*
X109572989Y-75511706D01*
X109624500Y-75500500D01*
X137525241Y-75500500D01*
X137592280Y-75520185D01*
G37*
%TD.AperFunction*%
%TA.AperFunction,Conductor*%
G36*
X152828172Y-97310317D02*
G01*
X152881995Y-97354870D01*
X152903185Y-97421448D01*
X152899423Y-97454683D01*
X152894333Y-97474785D01*
X153899938Y-97474785D01*
X153855883Y-97551091D01*
X153825216Y-97665541D01*
X153825216Y-97784029D01*
X153855883Y-97898479D01*
X153899938Y-97974785D01*
X152946093Y-97974785D01*
X152879054Y-97955100D01*
X152858412Y-97938466D01*
X152460861Y-97540915D01*
X152427376Y-97479592D01*
X152432360Y-97409900D01*
X152474232Y-97353967D01*
X152539696Y-97329550D01*
X152548542Y-97329234D01*
X152595213Y-97329234D01*
X152595214Y-97329234D01*
X152758807Y-97301935D01*
X152828172Y-97310317D01*
G37*
%TD.AperFunction*%
%TD*%
M02*
