%TF.GenerationSoftware,KiCad,Pcbnew,8.0.0*%
%TF.CreationDate,2024-03-23T03:09:38+02:00*%
%TF.ProjectId,sensor,73656e73-6f72-42e6-9b69-6361645f7063,rev?*%
%TF.SameCoordinates,Original*%
%TF.FileFunction,Legend,Top*%
%TF.FilePolarity,Positive*%
%FSLAX46Y46*%
G04 Gerber Fmt 4.6, Leading zero omitted, Abs format (unit mm)*
G04 Created by KiCad (PCBNEW 8.0.0) date 2024-03-23 03:09:38*
%MOMM*%
%LPD*%
G01*
G04 APERTURE LIST*
G04 Aperture macros list*
%AMRoundRect*
0 Rectangle with rounded corners*
0 $1 Rounding radius*
0 $2 $3 $4 $5 $6 $7 $8 $9 X,Y pos of 4 corners*
0 Add a 4 corners polygon primitive as box body*
4,1,4,$2,$3,$4,$5,$6,$7,$8,$9,$2,$3,0*
0 Add four circle primitives for the rounded corners*
1,1,$1+$1,$2,$3*
1,1,$1+$1,$4,$5*
1,1,$1+$1,$6,$7*
1,1,$1+$1,$8,$9*
0 Add four rect primitives between the rounded corners*
20,1,$1+$1,$2,$3,$4,$5,0*
20,1,$1+$1,$4,$5,$6,$7,0*
20,1,$1+$1,$6,$7,$8,$9,0*
20,1,$1+$1,$8,$9,$2,$3,0*%
G04 Aperture macros list end*
%ADD10C,0.150000*%
%ADD11C,0.120000*%
%ADD12R,1.700000X1.700000*%
%ADD13O,1.700000X1.700000*%
%ADD14R,1.800000X1.800000*%
%ADD15C,1.800000*%
%ADD16RoundRect,0.250200X-0.649800X0.649800X-0.649800X-0.649800X0.649800X-0.649800X0.649800X0.649800X0*%
%ADD17RoundRect,0.250200X0.649800X-0.649800X0.649800X0.649800X-0.649800X0.649800X-0.649800X-0.649800X0*%
%ADD18RoundRect,0.150000X0.150000X-0.587500X0.150000X0.587500X-0.150000X0.587500X-0.150000X-0.587500X0*%
%ADD19C,1.000000*%
%ADD20RoundRect,0.250000X0.312500X0.625000X-0.312500X0.625000X-0.312500X-0.625000X0.312500X-0.625000X0*%
%ADD21RoundRect,0.150000X-0.587500X-0.150000X0.587500X-0.150000X0.587500X0.150000X-0.587500X0.150000X0*%
%ADD22RoundRect,0.250000X0.625000X-0.312500X0.625000X0.312500X-0.625000X0.312500X-0.625000X-0.312500X0*%
%ADD23RoundRect,0.250200X0.649800X0.649800X-0.649800X0.649800X-0.649800X-0.649800X0.649800X-0.649800X0*%
%ADD24RoundRect,0.250000X-0.312500X-0.625000X0.312500X-0.625000X0.312500X0.625000X-0.312500X0.625000X0*%
%ADD25RoundRect,0.150000X0.587500X0.150000X-0.587500X0.150000X-0.587500X-0.150000X0.587500X-0.150000X0*%
%ADD26RoundRect,0.150000X0.150000X-0.825000X0.150000X0.825000X-0.150000X0.825000X-0.150000X-0.825000X0*%
G04 APERTURE END LIST*
D10*
X149819819Y-127459523D02*
X150534104Y-127459523D01*
X150534104Y-127459523D02*
X150676961Y-127507142D01*
X150676961Y-127507142D02*
X150772200Y-127602380D01*
X150772200Y-127602380D02*
X150819819Y-127745237D01*
X150819819Y-127745237D02*
X150819819Y-127840475D01*
X150819819Y-126459523D02*
X150819819Y-127030951D01*
X150819819Y-126745237D02*
X149819819Y-126745237D01*
X149819819Y-126745237D02*
X149962676Y-126840475D01*
X149962676Y-126840475D02*
X150057914Y-126935713D01*
X150057914Y-126935713D02*
X150105533Y-127030951D01*
X149819819Y-125602380D02*
X149819819Y-125792856D01*
X149819819Y-125792856D02*
X149867438Y-125888094D01*
X149867438Y-125888094D02*
X149915057Y-125935713D01*
X149915057Y-125935713D02*
X150057914Y-126030951D01*
X150057914Y-126030951D02*
X150248390Y-126078570D01*
X150248390Y-126078570D02*
X150629342Y-126078570D01*
X150629342Y-126078570D02*
X150724580Y-126030951D01*
X150724580Y-126030951D02*
X150772200Y-125983332D01*
X150772200Y-125983332D02*
X150819819Y-125888094D01*
X150819819Y-125888094D02*
X150819819Y-125697618D01*
X150819819Y-125697618D02*
X150772200Y-125602380D01*
X150772200Y-125602380D02*
X150724580Y-125554761D01*
X150724580Y-125554761D02*
X150629342Y-125507142D01*
X150629342Y-125507142D02*
X150391247Y-125507142D01*
X150391247Y-125507142D02*
X150296009Y-125554761D01*
X150296009Y-125554761D02*
X150248390Y-125602380D01*
X150248390Y-125602380D02*
X150200771Y-125697618D01*
X150200771Y-125697618D02*
X150200771Y-125888094D01*
X150200771Y-125888094D02*
X150248390Y-125983332D01*
X150248390Y-125983332D02*
X150296009Y-126030951D01*
X150296009Y-126030951D02*
X150391247Y-126078570D01*
X106366905Y-105874819D02*
X106366905Y-104874819D01*
X106366905Y-104874819D02*
X106605000Y-104874819D01*
X106605000Y-104874819D02*
X106747857Y-104922438D01*
X106747857Y-104922438D02*
X106843095Y-105017676D01*
X106843095Y-105017676D02*
X106890714Y-105112914D01*
X106890714Y-105112914D02*
X106938333Y-105303390D01*
X106938333Y-105303390D02*
X106938333Y-105446247D01*
X106938333Y-105446247D02*
X106890714Y-105636723D01*
X106890714Y-105636723D02*
X106843095Y-105731961D01*
X106843095Y-105731961D02*
X106747857Y-105827200D01*
X106747857Y-105827200D02*
X106605000Y-105874819D01*
X106605000Y-105874819D02*
X106366905Y-105874819D01*
X107843095Y-104874819D02*
X107366905Y-104874819D01*
X107366905Y-104874819D02*
X107319286Y-105351009D01*
X107319286Y-105351009D02*
X107366905Y-105303390D01*
X107366905Y-105303390D02*
X107462143Y-105255771D01*
X107462143Y-105255771D02*
X107700238Y-105255771D01*
X107700238Y-105255771D02*
X107795476Y-105303390D01*
X107795476Y-105303390D02*
X107843095Y-105351009D01*
X107843095Y-105351009D02*
X107890714Y-105446247D01*
X107890714Y-105446247D02*
X107890714Y-105684342D01*
X107890714Y-105684342D02*
X107843095Y-105779580D01*
X107843095Y-105779580D02*
X107795476Y-105827200D01*
X107795476Y-105827200D02*
X107700238Y-105874819D01*
X107700238Y-105874819D02*
X107462143Y-105874819D01*
X107462143Y-105874819D02*
X107366905Y-105827200D01*
X107366905Y-105827200D02*
X107319286Y-105779580D01*
X100879819Y-113031904D02*
X101689342Y-113031904D01*
X101689342Y-113031904D02*
X101784580Y-112984285D01*
X101784580Y-112984285D02*
X101832200Y-112936666D01*
X101832200Y-112936666D02*
X101879819Y-112841428D01*
X101879819Y-112841428D02*
X101879819Y-112650952D01*
X101879819Y-112650952D02*
X101832200Y-112555714D01*
X101832200Y-112555714D02*
X101784580Y-112508095D01*
X101784580Y-112508095D02*
X101689342Y-112460476D01*
X101689342Y-112460476D02*
X100879819Y-112460476D01*
X100975057Y-112031904D02*
X100927438Y-111984285D01*
X100927438Y-111984285D02*
X100879819Y-111889047D01*
X100879819Y-111889047D02*
X100879819Y-111650952D01*
X100879819Y-111650952D02*
X100927438Y-111555714D01*
X100927438Y-111555714D02*
X100975057Y-111508095D01*
X100975057Y-111508095D02*
X101070295Y-111460476D01*
X101070295Y-111460476D02*
X101165533Y-111460476D01*
X101165533Y-111460476D02*
X101308390Y-111508095D01*
X101308390Y-111508095D02*
X101879819Y-112079523D01*
X101879819Y-112079523D02*
X101879819Y-111460476D01*
X138124819Y-126809523D02*
X138839104Y-126809523D01*
X138839104Y-126809523D02*
X138981961Y-126857142D01*
X138981961Y-126857142D02*
X139077200Y-126952380D01*
X139077200Y-126952380D02*
X139124819Y-127095237D01*
X139124819Y-127095237D02*
X139124819Y-127190475D01*
X139124819Y-125809523D02*
X139124819Y-126380951D01*
X139124819Y-126095237D02*
X138124819Y-126095237D01*
X138124819Y-126095237D02*
X138267676Y-126190475D01*
X138267676Y-126190475D02*
X138362914Y-126285713D01*
X138362914Y-126285713D02*
X138410533Y-126380951D01*
X138458152Y-124952380D02*
X139124819Y-124952380D01*
X138077200Y-125190475D02*
X138791485Y-125428570D01*
X138791485Y-125428570D02*
X138791485Y-124809523D01*
X131460476Y-101964819D02*
X131460476Y-102679104D01*
X131460476Y-102679104D02*
X131412857Y-102821961D01*
X131412857Y-102821961D02*
X131317619Y-102917200D01*
X131317619Y-102917200D02*
X131174762Y-102964819D01*
X131174762Y-102964819D02*
X131079524Y-102964819D01*
X132460476Y-102964819D02*
X131889048Y-102964819D01*
X132174762Y-102964819D02*
X132174762Y-101964819D01*
X132174762Y-101964819D02*
X132079524Y-102107676D01*
X132079524Y-102107676D02*
X131984286Y-102202914D01*
X131984286Y-102202914D02*
X131889048Y-102250533D01*
X132793810Y-101964819D02*
X133460476Y-101964819D01*
X133460476Y-101964819D02*
X133031905Y-102964819D01*
X132054819Y-112801904D02*
X132864342Y-112801904D01*
X132864342Y-112801904D02*
X132959580Y-112754285D01*
X132959580Y-112754285D02*
X133007200Y-112706666D01*
X133007200Y-112706666D02*
X133054819Y-112611428D01*
X133054819Y-112611428D02*
X133054819Y-112420952D01*
X133054819Y-112420952D02*
X133007200Y-112325714D01*
X133007200Y-112325714D02*
X132959580Y-112278095D01*
X132959580Y-112278095D02*
X132864342Y-112230476D01*
X132864342Y-112230476D02*
X132054819Y-112230476D01*
X132054819Y-111849523D02*
X132054819Y-111230476D01*
X132054819Y-111230476D02*
X132435771Y-111563809D01*
X132435771Y-111563809D02*
X132435771Y-111420952D01*
X132435771Y-111420952D02*
X132483390Y-111325714D01*
X132483390Y-111325714D02*
X132531009Y-111278095D01*
X132531009Y-111278095D02*
X132626247Y-111230476D01*
X132626247Y-111230476D02*
X132864342Y-111230476D01*
X132864342Y-111230476D02*
X132959580Y-111278095D01*
X132959580Y-111278095D02*
X133007200Y-111325714D01*
X133007200Y-111325714D02*
X133054819Y-111420952D01*
X133054819Y-111420952D02*
X133054819Y-111706666D01*
X133054819Y-111706666D02*
X133007200Y-111801904D01*
X133007200Y-111801904D02*
X132959580Y-111849523D01*
X93009819Y-118748094D02*
X92009819Y-118748094D01*
X92009819Y-118748094D02*
X92009819Y-118509999D01*
X92009819Y-118509999D02*
X92057438Y-118367142D01*
X92057438Y-118367142D02*
X92152676Y-118271904D01*
X92152676Y-118271904D02*
X92247914Y-118224285D01*
X92247914Y-118224285D02*
X92438390Y-118176666D01*
X92438390Y-118176666D02*
X92581247Y-118176666D01*
X92581247Y-118176666D02*
X92771723Y-118224285D01*
X92771723Y-118224285D02*
X92866961Y-118271904D01*
X92866961Y-118271904D02*
X92962200Y-118367142D01*
X92962200Y-118367142D02*
X93009819Y-118509999D01*
X93009819Y-118509999D02*
X93009819Y-118748094D01*
X93009819Y-117224285D02*
X93009819Y-117795713D01*
X93009819Y-117509999D02*
X92009819Y-117509999D01*
X92009819Y-117509999D02*
X92152676Y-117605237D01*
X92152676Y-117605237D02*
X92247914Y-117700475D01*
X92247914Y-117700475D02*
X92295533Y-117795713D01*
X109840057Y-116997738D02*
X109792438Y-117092976D01*
X109792438Y-117092976D02*
X109697200Y-117188214D01*
X109697200Y-117188214D02*
X109554342Y-117331071D01*
X109554342Y-117331071D02*
X109506723Y-117426309D01*
X109506723Y-117426309D02*
X109506723Y-117521547D01*
X109744819Y-117473928D02*
X109697200Y-117569166D01*
X109697200Y-117569166D02*
X109601961Y-117664404D01*
X109601961Y-117664404D02*
X109411485Y-117712023D01*
X109411485Y-117712023D02*
X109078152Y-117712023D01*
X109078152Y-117712023D02*
X108887676Y-117664404D01*
X108887676Y-117664404D02*
X108792438Y-117569166D01*
X108792438Y-117569166D02*
X108744819Y-117473928D01*
X108744819Y-117473928D02*
X108744819Y-117283452D01*
X108744819Y-117283452D02*
X108792438Y-117188214D01*
X108792438Y-117188214D02*
X108887676Y-117092976D01*
X108887676Y-117092976D02*
X109078152Y-117045357D01*
X109078152Y-117045357D02*
X109411485Y-117045357D01*
X109411485Y-117045357D02*
X109601961Y-117092976D01*
X109601961Y-117092976D02*
X109697200Y-117188214D01*
X109697200Y-117188214D02*
X109744819Y-117283452D01*
X109744819Y-117283452D02*
X109744819Y-117473928D01*
X108744819Y-116712023D02*
X108744819Y-116092976D01*
X108744819Y-116092976D02*
X109125771Y-116426309D01*
X109125771Y-116426309D02*
X109125771Y-116283452D01*
X109125771Y-116283452D02*
X109173390Y-116188214D01*
X109173390Y-116188214D02*
X109221009Y-116140595D01*
X109221009Y-116140595D02*
X109316247Y-116092976D01*
X109316247Y-116092976D02*
X109554342Y-116092976D01*
X109554342Y-116092976D02*
X109649580Y-116140595D01*
X109649580Y-116140595D02*
X109697200Y-116188214D01*
X109697200Y-116188214D02*
X109744819Y-116283452D01*
X109744819Y-116283452D02*
X109744819Y-116569166D01*
X109744819Y-116569166D02*
X109697200Y-116664404D01*
X109697200Y-116664404D02*
X109649580Y-116712023D01*
X99929819Y-99719523D02*
X100644104Y-99719523D01*
X100644104Y-99719523D02*
X100786961Y-99767142D01*
X100786961Y-99767142D02*
X100882200Y-99862380D01*
X100882200Y-99862380D02*
X100929819Y-100005237D01*
X100929819Y-100005237D02*
X100929819Y-100100475D01*
X100929819Y-98719523D02*
X100929819Y-99290951D01*
X100929819Y-99005237D02*
X99929819Y-99005237D01*
X99929819Y-99005237D02*
X100072676Y-99100475D01*
X100072676Y-99100475D02*
X100167914Y-99195713D01*
X100167914Y-99195713D02*
X100215533Y-99290951D01*
X100929819Y-97767142D02*
X100929819Y-98338570D01*
X100929819Y-98052856D02*
X99929819Y-98052856D01*
X99929819Y-98052856D02*
X100072676Y-98148094D01*
X100072676Y-98148094D02*
X100167914Y-98243332D01*
X100167914Y-98243332D02*
X100215533Y-98338570D01*
X94784819Y-127333333D02*
X95499104Y-127333333D01*
X95499104Y-127333333D02*
X95641961Y-127380952D01*
X95641961Y-127380952D02*
X95737200Y-127476190D01*
X95737200Y-127476190D02*
X95784819Y-127619047D01*
X95784819Y-127619047D02*
X95784819Y-127714285D01*
X94784819Y-126428571D02*
X94784819Y-126619047D01*
X94784819Y-126619047D02*
X94832438Y-126714285D01*
X94832438Y-126714285D02*
X94880057Y-126761904D01*
X94880057Y-126761904D02*
X95022914Y-126857142D01*
X95022914Y-126857142D02*
X95213390Y-126904761D01*
X95213390Y-126904761D02*
X95594342Y-126904761D01*
X95594342Y-126904761D02*
X95689580Y-126857142D01*
X95689580Y-126857142D02*
X95737200Y-126809523D01*
X95737200Y-126809523D02*
X95784819Y-126714285D01*
X95784819Y-126714285D02*
X95784819Y-126523809D01*
X95784819Y-126523809D02*
X95737200Y-126428571D01*
X95737200Y-126428571D02*
X95689580Y-126380952D01*
X95689580Y-126380952D02*
X95594342Y-126333333D01*
X95594342Y-126333333D02*
X95356247Y-126333333D01*
X95356247Y-126333333D02*
X95261009Y-126380952D01*
X95261009Y-126380952D02*
X95213390Y-126428571D01*
X95213390Y-126428571D02*
X95165771Y-126523809D01*
X95165771Y-126523809D02*
X95165771Y-126714285D01*
X95165771Y-126714285D02*
X95213390Y-126809523D01*
X95213390Y-126809523D02*
X95261009Y-126857142D01*
X95261009Y-126857142D02*
X95356247Y-126904761D01*
X142669819Y-105718094D02*
X141669819Y-105718094D01*
X141669819Y-105718094D02*
X141669819Y-105479999D01*
X141669819Y-105479999D02*
X141717438Y-105337142D01*
X141717438Y-105337142D02*
X141812676Y-105241904D01*
X141812676Y-105241904D02*
X141907914Y-105194285D01*
X141907914Y-105194285D02*
X142098390Y-105146666D01*
X142098390Y-105146666D02*
X142241247Y-105146666D01*
X142241247Y-105146666D02*
X142431723Y-105194285D01*
X142431723Y-105194285D02*
X142526961Y-105241904D01*
X142526961Y-105241904D02*
X142622200Y-105337142D01*
X142622200Y-105337142D02*
X142669819Y-105479999D01*
X142669819Y-105479999D02*
X142669819Y-105718094D01*
X141669819Y-104813332D02*
X141669819Y-104194285D01*
X141669819Y-104194285D02*
X142050771Y-104527618D01*
X142050771Y-104527618D02*
X142050771Y-104384761D01*
X142050771Y-104384761D02*
X142098390Y-104289523D01*
X142098390Y-104289523D02*
X142146009Y-104241904D01*
X142146009Y-104241904D02*
X142241247Y-104194285D01*
X142241247Y-104194285D02*
X142479342Y-104194285D01*
X142479342Y-104194285D02*
X142574580Y-104241904D01*
X142574580Y-104241904D02*
X142622200Y-104289523D01*
X142622200Y-104289523D02*
X142669819Y-104384761D01*
X142669819Y-104384761D02*
X142669819Y-104670475D01*
X142669819Y-104670475D02*
X142622200Y-104765713D01*
X142622200Y-104765713D02*
X142574580Y-104813332D01*
X93009819Y-105758094D02*
X92009819Y-105758094D01*
X92009819Y-105758094D02*
X92009819Y-105519999D01*
X92009819Y-105519999D02*
X92057438Y-105377142D01*
X92057438Y-105377142D02*
X92152676Y-105281904D01*
X92152676Y-105281904D02*
X92247914Y-105234285D01*
X92247914Y-105234285D02*
X92438390Y-105186666D01*
X92438390Y-105186666D02*
X92581247Y-105186666D01*
X92581247Y-105186666D02*
X92771723Y-105234285D01*
X92771723Y-105234285D02*
X92866961Y-105281904D01*
X92866961Y-105281904D02*
X92962200Y-105377142D01*
X92962200Y-105377142D02*
X93009819Y-105519999D01*
X93009819Y-105519999D02*
X93009819Y-105758094D01*
X92105057Y-104805713D02*
X92057438Y-104758094D01*
X92057438Y-104758094D02*
X92009819Y-104662856D01*
X92009819Y-104662856D02*
X92009819Y-104424761D01*
X92009819Y-104424761D02*
X92057438Y-104329523D01*
X92057438Y-104329523D02*
X92105057Y-104281904D01*
X92105057Y-104281904D02*
X92200295Y-104234285D01*
X92200295Y-104234285D02*
X92295533Y-104234285D01*
X92295533Y-104234285D02*
X92438390Y-104281904D01*
X92438390Y-104281904D02*
X93009819Y-104853332D01*
X93009819Y-104853332D02*
X93009819Y-104234285D01*
X138932819Y-118231904D02*
X138932819Y-117660476D01*
X139932819Y-117946190D02*
X138932819Y-117946190D01*
X139932819Y-117327142D02*
X138932819Y-117327142D01*
X138932819Y-117327142D02*
X138932819Y-116946190D01*
X138932819Y-116946190D02*
X138980438Y-116850952D01*
X138980438Y-116850952D02*
X139028057Y-116803333D01*
X139028057Y-116803333D02*
X139123295Y-116755714D01*
X139123295Y-116755714D02*
X139266152Y-116755714D01*
X139266152Y-116755714D02*
X139361390Y-116803333D01*
X139361390Y-116803333D02*
X139409009Y-116850952D01*
X139409009Y-116850952D02*
X139456628Y-116946190D01*
X139456628Y-116946190D02*
X139456628Y-117327142D01*
X138932819Y-115850952D02*
X138932819Y-116327142D01*
X138932819Y-116327142D02*
X139409009Y-116374761D01*
X139409009Y-116374761D02*
X139361390Y-116327142D01*
X139361390Y-116327142D02*
X139313771Y-116231904D01*
X139313771Y-116231904D02*
X139313771Y-115993809D01*
X139313771Y-115993809D02*
X139361390Y-115898571D01*
X139361390Y-115898571D02*
X139409009Y-115850952D01*
X139409009Y-115850952D02*
X139504247Y-115803333D01*
X139504247Y-115803333D02*
X139742342Y-115803333D01*
X139742342Y-115803333D02*
X139837580Y-115850952D01*
X139837580Y-115850952D02*
X139885200Y-115898571D01*
X139885200Y-115898571D02*
X139932819Y-115993809D01*
X139932819Y-115993809D02*
X139932819Y-116231904D01*
X139932819Y-116231904D02*
X139885200Y-116327142D01*
X139885200Y-116327142D02*
X139837580Y-116374761D01*
X110724819Y-99404523D02*
X111439104Y-99404523D01*
X111439104Y-99404523D02*
X111581961Y-99452142D01*
X111581961Y-99452142D02*
X111677200Y-99547380D01*
X111677200Y-99547380D02*
X111724819Y-99690237D01*
X111724819Y-99690237D02*
X111724819Y-99785475D01*
X111724819Y-98404523D02*
X111724819Y-98975951D01*
X111724819Y-98690237D02*
X110724819Y-98690237D01*
X110724819Y-98690237D02*
X110867676Y-98785475D01*
X110867676Y-98785475D02*
X110962914Y-98880713D01*
X110962914Y-98880713D02*
X111010533Y-98975951D01*
X110724819Y-97785475D02*
X110724819Y-97690237D01*
X110724819Y-97690237D02*
X110772438Y-97594999D01*
X110772438Y-97594999D02*
X110820057Y-97547380D01*
X110820057Y-97547380D02*
X110915295Y-97499761D01*
X110915295Y-97499761D02*
X111105771Y-97452142D01*
X111105771Y-97452142D02*
X111343866Y-97452142D01*
X111343866Y-97452142D02*
X111534342Y-97499761D01*
X111534342Y-97499761D02*
X111629580Y-97547380D01*
X111629580Y-97547380D02*
X111677200Y-97594999D01*
X111677200Y-97594999D02*
X111724819Y-97690237D01*
X111724819Y-97690237D02*
X111724819Y-97785475D01*
X111724819Y-97785475D02*
X111677200Y-97880713D01*
X111677200Y-97880713D02*
X111629580Y-97928332D01*
X111629580Y-97928332D02*
X111534342Y-97975951D01*
X111534342Y-97975951D02*
X111343866Y-98023570D01*
X111343866Y-98023570D02*
X111105771Y-98023570D01*
X111105771Y-98023570D02*
X110915295Y-97975951D01*
X110915295Y-97975951D02*
X110820057Y-97928332D01*
X110820057Y-97928332D02*
X110772438Y-97880713D01*
X110772438Y-97880713D02*
X110724819Y-97785475D01*
X110889819Y-103894523D02*
X111604104Y-103894523D01*
X111604104Y-103894523D02*
X111746961Y-103942142D01*
X111746961Y-103942142D02*
X111842200Y-104037380D01*
X111842200Y-104037380D02*
X111889819Y-104180237D01*
X111889819Y-104180237D02*
X111889819Y-104275475D01*
X111889819Y-102894523D02*
X111889819Y-103465951D01*
X111889819Y-103180237D02*
X110889819Y-103180237D01*
X110889819Y-103180237D02*
X111032676Y-103275475D01*
X111032676Y-103275475D02*
X111127914Y-103370713D01*
X111127914Y-103370713D02*
X111175533Y-103465951D01*
X110889819Y-102561189D02*
X110889819Y-101942142D01*
X110889819Y-101942142D02*
X111270771Y-102275475D01*
X111270771Y-102275475D02*
X111270771Y-102132618D01*
X111270771Y-102132618D02*
X111318390Y-102037380D01*
X111318390Y-102037380D02*
X111366009Y-101989761D01*
X111366009Y-101989761D02*
X111461247Y-101942142D01*
X111461247Y-101942142D02*
X111699342Y-101942142D01*
X111699342Y-101942142D02*
X111794580Y-101989761D01*
X111794580Y-101989761D02*
X111842200Y-102037380D01*
X111842200Y-102037380D02*
X111889819Y-102132618D01*
X111889819Y-102132618D02*
X111889819Y-102418332D01*
X111889819Y-102418332D02*
X111842200Y-102513570D01*
X111842200Y-102513570D02*
X111794580Y-102561189D01*
X96994819Y-123423333D02*
X97709104Y-123423333D01*
X97709104Y-123423333D02*
X97851961Y-123470952D01*
X97851961Y-123470952D02*
X97947200Y-123566190D01*
X97947200Y-123566190D02*
X97994819Y-123709047D01*
X97994819Y-123709047D02*
X97994819Y-123804285D01*
X96994819Y-123042380D02*
X96994819Y-122423333D01*
X96994819Y-122423333D02*
X97375771Y-122756666D01*
X97375771Y-122756666D02*
X97375771Y-122613809D01*
X97375771Y-122613809D02*
X97423390Y-122518571D01*
X97423390Y-122518571D02*
X97471009Y-122470952D01*
X97471009Y-122470952D02*
X97566247Y-122423333D01*
X97566247Y-122423333D02*
X97804342Y-122423333D01*
X97804342Y-122423333D02*
X97899580Y-122470952D01*
X97899580Y-122470952D02*
X97947200Y-122518571D01*
X97947200Y-122518571D02*
X97994819Y-122613809D01*
X97994819Y-122613809D02*
X97994819Y-122899523D01*
X97994819Y-122899523D02*
X97947200Y-122994761D01*
X97947200Y-122994761D02*
X97899580Y-123042380D01*
X96833333Y-108274819D02*
X96500000Y-107798628D01*
X96261905Y-108274819D02*
X96261905Y-107274819D01*
X96261905Y-107274819D02*
X96642857Y-107274819D01*
X96642857Y-107274819D02*
X96738095Y-107322438D01*
X96738095Y-107322438D02*
X96785714Y-107370057D01*
X96785714Y-107370057D02*
X96833333Y-107465295D01*
X96833333Y-107465295D02*
X96833333Y-107608152D01*
X96833333Y-107608152D02*
X96785714Y-107703390D01*
X96785714Y-107703390D02*
X96738095Y-107751009D01*
X96738095Y-107751009D02*
X96642857Y-107798628D01*
X96642857Y-107798628D02*
X96261905Y-107798628D01*
X97214286Y-107370057D02*
X97261905Y-107322438D01*
X97261905Y-107322438D02*
X97357143Y-107274819D01*
X97357143Y-107274819D02*
X97595238Y-107274819D01*
X97595238Y-107274819D02*
X97690476Y-107322438D01*
X97690476Y-107322438D02*
X97738095Y-107370057D01*
X97738095Y-107370057D02*
X97785714Y-107465295D01*
X97785714Y-107465295D02*
X97785714Y-107560533D01*
X97785714Y-107560533D02*
X97738095Y-107703390D01*
X97738095Y-107703390D02*
X97166667Y-108274819D01*
X97166667Y-108274819D02*
X97785714Y-108274819D01*
X132904761Y-116150057D02*
X132809523Y-116102438D01*
X132809523Y-116102438D02*
X132714285Y-116007200D01*
X132714285Y-116007200D02*
X132571428Y-115864342D01*
X132571428Y-115864342D02*
X132476190Y-115816723D01*
X132476190Y-115816723D02*
X132380952Y-115816723D01*
X132428571Y-116054819D02*
X132333333Y-116007200D01*
X132333333Y-116007200D02*
X132238095Y-115911961D01*
X132238095Y-115911961D02*
X132190476Y-115721485D01*
X132190476Y-115721485D02*
X132190476Y-115388152D01*
X132190476Y-115388152D02*
X132238095Y-115197676D01*
X132238095Y-115197676D02*
X132333333Y-115102438D01*
X132333333Y-115102438D02*
X132428571Y-115054819D01*
X132428571Y-115054819D02*
X132619047Y-115054819D01*
X132619047Y-115054819D02*
X132714285Y-115102438D01*
X132714285Y-115102438D02*
X132809523Y-115197676D01*
X132809523Y-115197676D02*
X132857142Y-115388152D01*
X132857142Y-115388152D02*
X132857142Y-115721485D01*
X132857142Y-115721485D02*
X132809523Y-115911961D01*
X132809523Y-115911961D02*
X132714285Y-116007200D01*
X132714285Y-116007200D02*
X132619047Y-116054819D01*
X132619047Y-116054819D02*
X132428571Y-116054819D01*
X133238095Y-115150057D02*
X133285714Y-115102438D01*
X133285714Y-115102438D02*
X133380952Y-115054819D01*
X133380952Y-115054819D02*
X133619047Y-115054819D01*
X133619047Y-115054819D02*
X133714285Y-115102438D01*
X133714285Y-115102438D02*
X133761904Y-115150057D01*
X133761904Y-115150057D02*
X133809523Y-115245295D01*
X133809523Y-115245295D02*
X133809523Y-115340533D01*
X133809523Y-115340533D02*
X133761904Y-115483390D01*
X133761904Y-115483390D02*
X133190476Y-116054819D01*
X133190476Y-116054819D02*
X133809523Y-116054819D01*
X100759819Y-102801666D02*
X100283628Y-103134999D01*
X100759819Y-103373094D02*
X99759819Y-103373094D01*
X99759819Y-103373094D02*
X99759819Y-102992142D01*
X99759819Y-102992142D02*
X99807438Y-102896904D01*
X99807438Y-102896904D02*
X99855057Y-102849285D01*
X99855057Y-102849285D02*
X99950295Y-102801666D01*
X99950295Y-102801666D02*
X100093152Y-102801666D01*
X100093152Y-102801666D02*
X100188390Y-102849285D01*
X100188390Y-102849285D02*
X100236009Y-102896904D01*
X100236009Y-102896904D02*
X100283628Y-102992142D01*
X100283628Y-102992142D02*
X100283628Y-103373094D01*
X100093152Y-101944523D02*
X100759819Y-101944523D01*
X99712200Y-102182618D02*
X100426485Y-102420713D01*
X100426485Y-102420713D02*
X100426485Y-101801666D01*
X121158095Y-109326819D02*
X121729523Y-109326819D01*
X121443809Y-110326819D02*
X121443809Y-109326819D01*
X122062857Y-110326819D02*
X122062857Y-109326819D01*
X122062857Y-109326819D02*
X122443809Y-109326819D01*
X122443809Y-109326819D02*
X122539047Y-109374438D01*
X122539047Y-109374438D02*
X122586666Y-109422057D01*
X122586666Y-109422057D02*
X122634285Y-109517295D01*
X122634285Y-109517295D02*
X122634285Y-109660152D01*
X122634285Y-109660152D02*
X122586666Y-109755390D01*
X122586666Y-109755390D02*
X122539047Y-109803009D01*
X122539047Y-109803009D02*
X122443809Y-109850628D01*
X122443809Y-109850628D02*
X122062857Y-109850628D01*
X123491428Y-109326819D02*
X123300952Y-109326819D01*
X123300952Y-109326819D02*
X123205714Y-109374438D01*
X123205714Y-109374438D02*
X123158095Y-109422057D01*
X123158095Y-109422057D02*
X123062857Y-109564914D01*
X123062857Y-109564914D02*
X123015238Y-109755390D01*
X123015238Y-109755390D02*
X123015238Y-110136342D01*
X123015238Y-110136342D02*
X123062857Y-110231580D01*
X123062857Y-110231580D02*
X123110476Y-110279200D01*
X123110476Y-110279200D02*
X123205714Y-110326819D01*
X123205714Y-110326819D02*
X123396190Y-110326819D01*
X123396190Y-110326819D02*
X123491428Y-110279200D01*
X123491428Y-110279200D02*
X123539047Y-110231580D01*
X123539047Y-110231580D02*
X123586666Y-110136342D01*
X123586666Y-110136342D02*
X123586666Y-109898247D01*
X123586666Y-109898247D02*
X123539047Y-109803009D01*
X123539047Y-109803009D02*
X123491428Y-109755390D01*
X123491428Y-109755390D02*
X123396190Y-109707771D01*
X123396190Y-109707771D02*
X123205714Y-109707771D01*
X123205714Y-109707771D02*
X123110476Y-109755390D01*
X123110476Y-109755390D02*
X123062857Y-109803009D01*
X123062857Y-109803009D02*
X123015238Y-109898247D01*
X100726819Y-108141904D02*
X100726819Y-107570476D01*
X101726819Y-107856190D02*
X100726819Y-107856190D01*
X101726819Y-107237142D02*
X100726819Y-107237142D01*
X100726819Y-107237142D02*
X100726819Y-106856190D01*
X100726819Y-106856190D02*
X100774438Y-106760952D01*
X100774438Y-106760952D02*
X100822057Y-106713333D01*
X100822057Y-106713333D02*
X100917295Y-106665714D01*
X100917295Y-106665714D02*
X101060152Y-106665714D01*
X101060152Y-106665714D02*
X101155390Y-106713333D01*
X101155390Y-106713333D02*
X101203009Y-106760952D01*
X101203009Y-106760952D02*
X101250628Y-106856190D01*
X101250628Y-106856190D02*
X101250628Y-107237142D01*
X101726819Y-105713333D02*
X101726819Y-106284761D01*
X101726819Y-105999047D02*
X100726819Y-105999047D01*
X100726819Y-105999047D02*
X100869676Y-106094285D01*
X100869676Y-106094285D02*
X100964914Y-106189523D01*
X100964914Y-106189523D02*
X101012533Y-106284761D01*
X143925476Y-114059819D02*
X143925476Y-114774104D01*
X143925476Y-114774104D02*
X143877857Y-114916961D01*
X143877857Y-114916961D02*
X143782619Y-115012200D01*
X143782619Y-115012200D02*
X143639762Y-115059819D01*
X143639762Y-115059819D02*
X143544524Y-115059819D01*
X144925476Y-115059819D02*
X144354048Y-115059819D01*
X144639762Y-115059819D02*
X144639762Y-114059819D01*
X144639762Y-114059819D02*
X144544524Y-114202676D01*
X144544524Y-114202676D02*
X144449286Y-114297914D01*
X144449286Y-114297914D02*
X144354048Y-114345533D01*
X145306429Y-114155057D02*
X145354048Y-114107438D01*
X145354048Y-114107438D02*
X145449286Y-114059819D01*
X145449286Y-114059819D02*
X145687381Y-114059819D01*
X145687381Y-114059819D02*
X145782619Y-114107438D01*
X145782619Y-114107438D02*
X145830238Y-114155057D01*
X145830238Y-114155057D02*
X145877857Y-114250295D01*
X145877857Y-114250295D02*
X145877857Y-114345533D01*
X145877857Y-114345533D02*
X145830238Y-114488390D01*
X145830238Y-114488390D02*
X145258810Y-115059819D01*
X145258810Y-115059819D02*
X145877857Y-115059819D01*
X129833333Y-108274819D02*
X129500000Y-107798628D01*
X129261905Y-108274819D02*
X129261905Y-107274819D01*
X129261905Y-107274819D02*
X129642857Y-107274819D01*
X129642857Y-107274819D02*
X129738095Y-107322438D01*
X129738095Y-107322438D02*
X129785714Y-107370057D01*
X129785714Y-107370057D02*
X129833333Y-107465295D01*
X129833333Y-107465295D02*
X129833333Y-107608152D01*
X129833333Y-107608152D02*
X129785714Y-107703390D01*
X129785714Y-107703390D02*
X129738095Y-107751009D01*
X129738095Y-107751009D02*
X129642857Y-107798628D01*
X129642857Y-107798628D02*
X129261905Y-107798628D01*
X130166667Y-107274819D02*
X130785714Y-107274819D01*
X130785714Y-107274819D02*
X130452381Y-107655771D01*
X130452381Y-107655771D02*
X130595238Y-107655771D01*
X130595238Y-107655771D02*
X130690476Y-107703390D01*
X130690476Y-107703390D02*
X130738095Y-107751009D01*
X130738095Y-107751009D02*
X130785714Y-107846247D01*
X130785714Y-107846247D02*
X130785714Y-108084342D01*
X130785714Y-108084342D02*
X130738095Y-108179580D01*
X130738095Y-108179580D02*
X130690476Y-108227200D01*
X130690476Y-108227200D02*
X130595238Y-108274819D01*
X130595238Y-108274819D02*
X130309524Y-108274819D01*
X130309524Y-108274819D02*
X130214286Y-108227200D01*
X130214286Y-108227200D02*
X130166667Y-108179580D01*
X103512819Y-111101904D02*
X103512819Y-110530476D01*
X104512819Y-110816190D02*
X103512819Y-110816190D01*
X104512819Y-110197142D02*
X103512819Y-110197142D01*
X103512819Y-110197142D02*
X103512819Y-109816190D01*
X103512819Y-109816190D02*
X103560438Y-109720952D01*
X103560438Y-109720952D02*
X103608057Y-109673333D01*
X103608057Y-109673333D02*
X103703295Y-109625714D01*
X103703295Y-109625714D02*
X103846152Y-109625714D01*
X103846152Y-109625714D02*
X103941390Y-109673333D01*
X103941390Y-109673333D02*
X103989009Y-109720952D01*
X103989009Y-109720952D02*
X104036628Y-109816190D01*
X104036628Y-109816190D02*
X104036628Y-110197142D01*
X103608057Y-109244761D02*
X103560438Y-109197142D01*
X103560438Y-109197142D02*
X103512819Y-109101904D01*
X103512819Y-109101904D02*
X103512819Y-108863809D01*
X103512819Y-108863809D02*
X103560438Y-108768571D01*
X103560438Y-108768571D02*
X103608057Y-108720952D01*
X103608057Y-108720952D02*
X103703295Y-108673333D01*
X103703295Y-108673333D02*
X103798533Y-108673333D01*
X103798533Y-108673333D02*
X103941390Y-108720952D01*
X103941390Y-108720952D02*
X104512819Y-109292380D01*
X104512819Y-109292380D02*
X104512819Y-108673333D01*
X90401666Y-107849819D02*
X90401666Y-108564104D01*
X90401666Y-108564104D02*
X90354047Y-108706961D01*
X90354047Y-108706961D02*
X90258809Y-108802200D01*
X90258809Y-108802200D02*
X90115952Y-108849819D01*
X90115952Y-108849819D02*
X90020714Y-108849819D01*
X91354047Y-107849819D02*
X90877857Y-107849819D01*
X90877857Y-107849819D02*
X90830238Y-108326009D01*
X90830238Y-108326009D02*
X90877857Y-108278390D01*
X90877857Y-108278390D02*
X90973095Y-108230771D01*
X90973095Y-108230771D02*
X91211190Y-108230771D01*
X91211190Y-108230771D02*
X91306428Y-108278390D01*
X91306428Y-108278390D02*
X91354047Y-108326009D01*
X91354047Y-108326009D02*
X91401666Y-108421247D01*
X91401666Y-108421247D02*
X91401666Y-108659342D01*
X91401666Y-108659342D02*
X91354047Y-108754580D01*
X91354047Y-108754580D02*
X91306428Y-108802200D01*
X91306428Y-108802200D02*
X91211190Y-108849819D01*
X91211190Y-108849819D02*
X90973095Y-108849819D01*
X90973095Y-108849819D02*
X90877857Y-108802200D01*
X90877857Y-108802200D02*
X90830238Y-108754580D01*
X121366905Y-105874819D02*
X121366905Y-104874819D01*
X121366905Y-104874819D02*
X121605000Y-104874819D01*
X121605000Y-104874819D02*
X121747857Y-104922438D01*
X121747857Y-104922438D02*
X121843095Y-105017676D01*
X121843095Y-105017676D02*
X121890714Y-105112914D01*
X121890714Y-105112914D02*
X121938333Y-105303390D01*
X121938333Y-105303390D02*
X121938333Y-105446247D01*
X121938333Y-105446247D02*
X121890714Y-105636723D01*
X121890714Y-105636723D02*
X121843095Y-105731961D01*
X121843095Y-105731961D02*
X121747857Y-105827200D01*
X121747857Y-105827200D02*
X121605000Y-105874819D01*
X121605000Y-105874819D02*
X121366905Y-105874819D01*
X122795476Y-104874819D02*
X122605000Y-104874819D01*
X122605000Y-104874819D02*
X122509762Y-104922438D01*
X122509762Y-104922438D02*
X122462143Y-104970057D01*
X122462143Y-104970057D02*
X122366905Y-105112914D01*
X122366905Y-105112914D02*
X122319286Y-105303390D01*
X122319286Y-105303390D02*
X122319286Y-105684342D01*
X122319286Y-105684342D02*
X122366905Y-105779580D01*
X122366905Y-105779580D02*
X122414524Y-105827200D01*
X122414524Y-105827200D02*
X122509762Y-105874819D01*
X122509762Y-105874819D02*
X122700238Y-105874819D01*
X122700238Y-105874819D02*
X122795476Y-105827200D01*
X122795476Y-105827200D02*
X122843095Y-105779580D01*
X122843095Y-105779580D02*
X122890714Y-105684342D01*
X122890714Y-105684342D02*
X122890714Y-105446247D01*
X122890714Y-105446247D02*
X122843095Y-105351009D01*
X122843095Y-105351009D02*
X122795476Y-105303390D01*
X122795476Y-105303390D02*
X122700238Y-105255771D01*
X122700238Y-105255771D02*
X122509762Y-105255771D01*
X122509762Y-105255771D02*
X122414524Y-105303390D01*
X122414524Y-105303390D02*
X122366905Y-105351009D01*
X122366905Y-105351009D02*
X122319286Y-105446247D01*
X126069819Y-101711666D02*
X125593628Y-102044999D01*
X126069819Y-102283094D02*
X125069819Y-102283094D01*
X125069819Y-102283094D02*
X125069819Y-101902142D01*
X125069819Y-101902142D02*
X125117438Y-101806904D01*
X125117438Y-101806904D02*
X125165057Y-101759285D01*
X125165057Y-101759285D02*
X125260295Y-101711666D01*
X125260295Y-101711666D02*
X125403152Y-101711666D01*
X125403152Y-101711666D02*
X125498390Y-101759285D01*
X125498390Y-101759285D02*
X125546009Y-101806904D01*
X125546009Y-101806904D02*
X125593628Y-101902142D01*
X125593628Y-101902142D02*
X125593628Y-102283094D01*
X125069819Y-100854523D02*
X125069819Y-101044999D01*
X125069819Y-101044999D02*
X125117438Y-101140237D01*
X125117438Y-101140237D02*
X125165057Y-101187856D01*
X125165057Y-101187856D02*
X125307914Y-101283094D01*
X125307914Y-101283094D02*
X125498390Y-101330713D01*
X125498390Y-101330713D02*
X125879342Y-101330713D01*
X125879342Y-101330713D02*
X125974580Y-101283094D01*
X125974580Y-101283094D02*
X126022200Y-101235475D01*
X126022200Y-101235475D02*
X126069819Y-101140237D01*
X126069819Y-101140237D02*
X126069819Y-100949761D01*
X126069819Y-100949761D02*
X126022200Y-100854523D01*
X126022200Y-100854523D02*
X125974580Y-100806904D01*
X125974580Y-100806904D02*
X125879342Y-100759285D01*
X125879342Y-100759285D02*
X125641247Y-100759285D01*
X125641247Y-100759285D02*
X125546009Y-100806904D01*
X125546009Y-100806904D02*
X125498390Y-100854523D01*
X125498390Y-100854523D02*
X125450771Y-100949761D01*
X125450771Y-100949761D02*
X125450771Y-101140237D01*
X125450771Y-101140237D02*
X125498390Y-101235475D01*
X125498390Y-101235475D02*
X125546009Y-101283094D01*
X125546009Y-101283094D02*
X125641247Y-101330713D01*
X83584819Y-123333333D02*
X84299104Y-123333333D01*
X84299104Y-123333333D02*
X84441961Y-123380952D01*
X84441961Y-123380952D02*
X84537200Y-123476190D01*
X84537200Y-123476190D02*
X84584819Y-123619047D01*
X84584819Y-123619047D02*
X84584819Y-123714285D01*
X83680057Y-122904761D02*
X83632438Y-122857142D01*
X83632438Y-122857142D02*
X83584819Y-122761904D01*
X83584819Y-122761904D02*
X83584819Y-122523809D01*
X83584819Y-122523809D02*
X83632438Y-122428571D01*
X83632438Y-122428571D02*
X83680057Y-122380952D01*
X83680057Y-122380952D02*
X83775295Y-122333333D01*
X83775295Y-122333333D02*
X83870533Y-122333333D01*
X83870533Y-122333333D02*
X84013390Y-122380952D01*
X84013390Y-122380952D02*
X84584819Y-122952380D01*
X84584819Y-122952380D02*
X84584819Y-122333333D01*
X114488095Y-111234819D02*
X114488095Y-112044342D01*
X114488095Y-112044342D02*
X114535714Y-112139580D01*
X114535714Y-112139580D02*
X114583333Y-112187200D01*
X114583333Y-112187200D02*
X114678571Y-112234819D01*
X114678571Y-112234819D02*
X114869047Y-112234819D01*
X114869047Y-112234819D02*
X114964285Y-112187200D01*
X114964285Y-112187200D02*
X115011904Y-112139580D01*
X115011904Y-112139580D02*
X115059523Y-112044342D01*
X115059523Y-112044342D02*
X115059523Y-111234819D01*
X115964285Y-111568152D02*
X115964285Y-112234819D01*
X115726190Y-111187200D02*
X115488095Y-111901485D01*
X115488095Y-111901485D02*
X116107142Y-111901485D01*
X140833333Y-120634819D02*
X140500000Y-120158628D01*
X140261905Y-120634819D02*
X140261905Y-119634819D01*
X140261905Y-119634819D02*
X140642857Y-119634819D01*
X140642857Y-119634819D02*
X140738095Y-119682438D01*
X140738095Y-119682438D02*
X140785714Y-119730057D01*
X140785714Y-119730057D02*
X140833333Y-119825295D01*
X140833333Y-119825295D02*
X140833333Y-119968152D01*
X140833333Y-119968152D02*
X140785714Y-120063390D01*
X140785714Y-120063390D02*
X140738095Y-120111009D01*
X140738095Y-120111009D02*
X140642857Y-120158628D01*
X140642857Y-120158628D02*
X140261905Y-120158628D01*
X141738095Y-119634819D02*
X141261905Y-119634819D01*
X141261905Y-119634819D02*
X141214286Y-120111009D01*
X141214286Y-120111009D02*
X141261905Y-120063390D01*
X141261905Y-120063390D02*
X141357143Y-120015771D01*
X141357143Y-120015771D02*
X141595238Y-120015771D01*
X141595238Y-120015771D02*
X141690476Y-120063390D01*
X141690476Y-120063390D02*
X141738095Y-120111009D01*
X141738095Y-120111009D02*
X141785714Y-120206247D01*
X141785714Y-120206247D02*
X141785714Y-120444342D01*
X141785714Y-120444342D02*
X141738095Y-120539580D01*
X141738095Y-120539580D02*
X141690476Y-120587200D01*
X141690476Y-120587200D02*
X141595238Y-120634819D01*
X141595238Y-120634819D02*
X141357143Y-120634819D01*
X141357143Y-120634819D02*
X141261905Y-120587200D01*
X141261905Y-120587200D02*
X141214286Y-120539580D01*
X124489819Y-98204523D02*
X125204104Y-98204523D01*
X125204104Y-98204523D02*
X125346961Y-98252142D01*
X125346961Y-98252142D02*
X125442200Y-98347380D01*
X125442200Y-98347380D02*
X125489819Y-98490237D01*
X125489819Y-98490237D02*
X125489819Y-98585475D01*
X125489819Y-97204523D02*
X125489819Y-97775951D01*
X125489819Y-97490237D02*
X124489819Y-97490237D01*
X124489819Y-97490237D02*
X124632676Y-97585475D01*
X124632676Y-97585475D02*
X124727914Y-97680713D01*
X124727914Y-97680713D02*
X124775533Y-97775951D01*
X124489819Y-96299761D02*
X124489819Y-96775951D01*
X124489819Y-96775951D02*
X124966009Y-96823570D01*
X124966009Y-96823570D02*
X124918390Y-96775951D01*
X124918390Y-96775951D02*
X124870771Y-96680713D01*
X124870771Y-96680713D02*
X124870771Y-96442618D01*
X124870771Y-96442618D02*
X124918390Y-96347380D01*
X124918390Y-96347380D02*
X124966009Y-96299761D01*
X124966009Y-96299761D02*
X125061247Y-96252142D01*
X125061247Y-96252142D02*
X125299342Y-96252142D01*
X125299342Y-96252142D02*
X125394580Y-96299761D01*
X125394580Y-96299761D02*
X125442200Y-96347380D01*
X125442200Y-96347380D02*
X125489819Y-96442618D01*
X125489819Y-96442618D02*
X125489819Y-96680713D01*
X125489819Y-96680713D02*
X125442200Y-96775951D01*
X125442200Y-96775951D02*
X125394580Y-96823570D01*
X148941666Y-106849819D02*
X148941666Y-107564104D01*
X148941666Y-107564104D02*
X148894047Y-107706961D01*
X148894047Y-107706961D02*
X148798809Y-107802200D01*
X148798809Y-107802200D02*
X148655952Y-107849819D01*
X148655952Y-107849819D02*
X148560714Y-107849819D01*
X149560714Y-107278390D02*
X149465476Y-107230771D01*
X149465476Y-107230771D02*
X149417857Y-107183152D01*
X149417857Y-107183152D02*
X149370238Y-107087914D01*
X149370238Y-107087914D02*
X149370238Y-107040295D01*
X149370238Y-107040295D02*
X149417857Y-106945057D01*
X149417857Y-106945057D02*
X149465476Y-106897438D01*
X149465476Y-106897438D02*
X149560714Y-106849819D01*
X149560714Y-106849819D02*
X149751190Y-106849819D01*
X149751190Y-106849819D02*
X149846428Y-106897438D01*
X149846428Y-106897438D02*
X149894047Y-106945057D01*
X149894047Y-106945057D02*
X149941666Y-107040295D01*
X149941666Y-107040295D02*
X149941666Y-107087914D01*
X149941666Y-107087914D02*
X149894047Y-107183152D01*
X149894047Y-107183152D02*
X149846428Y-107230771D01*
X149846428Y-107230771D02*
X149751190Y-107278390D01*
X149751190Y-107278390D02*
X149560714Y-107278390D01*
X149560714Y-107278390D02*
X149465476Y-107326009D01*
X149465476Y-107326009D02*
X149417857Y-107373628D01*
X149417857Y-107373628D02*
X149370238Y-107468866D01*
X149370238Y-107468866D02*
X149370238Y-107659342D01*
X149370238Y-107659342D02*
X149417857Y-107754580D01*
X149417857Y-107754580D02*
X149465476Y-107802200D01*
X149465476Y-107802200D02*
X149560714Y-107849819D01*
X149560714Y-107849819D02*
X149751190Y-107849819D01*
X149751190Y-107849819D02*
X149846428Y-107802200D01*
X149846428Y-107802200D02*
X149894047Y-107754580D01*
X149894047Y-107754580D02*
X149941666Y-107659342D01*
X149941666Y-107659342D02*
X149941666Y-107468866D01*
X149941666Y-107468866D02*
X149894047Y-107373628D01*
X149894047Y-107373628D02*
X149846428Y-107326009D01*
X149846428Y-107326009D02*
X149751190Y-107278390D01*
X83584819Y-127333333D02*
X84299104Y-127333333D01*
X84299104Y-127333333D02*
X84441961Y-127380952D01*
X84441961Y-127380952D02*
X84537200Y-127476190D01*
X84537200Y-127476190D02*
X84584819Y-127619047D01*
X84584819Y-127619047D02*
X84584819Y-127714285D01*
X83584819Y-126952380D02*
X83584819Y-126285714D01*
X83584819Y-126285714D02*
X84584819Y-126714285D01*
X104434761Y-119910057D02*
X104339523Y-119862438D01*
X104339523Y-119862438D02*
X104244285Y-119767200D01*
X104244285Y-119767200D02*
X104101428Y-119624342D01*
X104101428Y-119624342D02*
X104006190Y-119576723D01*
X104006190Y-119576723D02*
X103910952Y-119576723D01*
X103958571Y-119814819D02*
X103863333Y-119767200D01*
X103863333Y-119767200D02*
X103768095Y-119671961D01*
X103768095Y-119671961D02*
X103720476Y-119481485D01*
X103720476Y-119481485D02*
X103720476Y-119148152D01*
X103720476Y-119148152D02*
X103768095Y-118957676D01*
X103768095Y-118957676D02*
X103863333Y-118862438D01*
X103863333Y-118862438D02*
X103958571Y-118814819D01*
X103958571Y-118814819D02*
X104149047Y-118814819D01*
X104149047Y-118814819D02*
X104244285Y-118862438D01*
X104244285Y-118862438D02*
X104339523Y-118957676D01*
X104339523Y-118957676D02*
X104387142Y-119148152D01*
X104387142Y-119148152D02*
X104387142Y-119481485D01*
X104387142Y-119481485D02*
X104339523Y-119671961D01*
X104339523Y-119671961D02*
X104244285Y-119767200D01*
X104244285Y-119767200D02*
X104149047Y-119814819D01*
X104149047Y-119814819D02*
X103958571Y-119814819D01*
X105339523Y-119814819D02*
X104768095Y-119814819D01*
X105053809Y-119814819D02*
X105053809Y-118814819D01*
X105053809Y-118814819D02*
X104958571Y-118957676D01*
X104958571Y-118957676D02*
X104863333Y-119052914D01*
X104863333Y-119052914D02*
X104768095Y-119100533D01*
X86401666Y-115059819D02*
X86401666Y-115774104D01*
X86401666Y-115774104D02*
X86354047Y-115916961D01*
X86354047Y-115916961D02*
X86258809Y-116012200D01*
X86258809Y-116012200D02*
X86115952Y-116059819D01*
X86115952Y-116059819D02*
X86020714Y-116059819D01*
X87401666Y-116059819D02*
X86830238Y-116059819D01*
X87115952Y-116059819D02*
X87115952Y-115059819D01*
X87115952Y-115059819D02*
X87020714Y-115202676D01*
X87020714Y-115202676D02*
X86925476Y-115297914D01*
X86925476Y-115297914D02*
X86830238Y-115345533D01*
X142669819Y-118718094D02*
X141669819Y-118718094D01*
X141669819Y-118718094D02*
X141669819Y-118479999D01*
X141669819Y-118479999D02*
X141717438Y-118337142D01*
X141717438Y-118337142D02*
X141812676Y-118241904D01*
X141812676Y-118241904D02*
X141907914Y-118194285D01*
X141907914Y-118194285D02*
X142098390Y-118146666D01*
X142098390Y-118146666D02*
X142241247Y-118146666D01*
X142241247Y-118146666D02*
X142431723Y-118194285D01*
X142431723Y-118194285D02*
X142526961Y-118241904D01*
X142526961Y-118241904D02*
X142622200Y-118337142D01*
X142622200Y-118337142D02*
X142669819Y-118479999D01*
X142669819Y-118479999D02*
X142669819Y-118718094D01*
X142003152Y-117289523D02*
X142669819Y-117289523D01*
X141622200Y-117527618D02*
X142336485Y-117765713D01*
X142336485Y-117765713D02*
X142336485Y-117146666D01*
X135046819Y-120541904D02*
X135046819Y-119970476D01*
X136046819Y-120256190D02*
X135046819Y-120256190D01*
X136046819Y-119637142D02*
X135046819Y-119637142D01*
X135046819Y-119637142D02*
X135046819Y-119256190D01*
X135046819Y-119256190D02*
X135094438Y-119160952D01*
X135094438Y-119160952D02*
X135142057Y-119113333D01*
X135142057Y-119113333D02*
X135237295Y-119065714D01*
X135237295Y-119065714D02*
X135380152Y-119065714D01*
X135380152Y-119065714D02*
X135475390Y-119113333D01*
X135475390Y-119113333D02*
X135523009Y-119160952D01*
X135523009Y-119160952D02*
X135570628Y-119256190D01*
X135570628Y-119256190D02*
X135570628Y-119637142D01*
X135046819Y-118732380D02*
X135046819Y-118113333D01*
X135046819Y-118113333D02*
X135427771Y-118446666D01*
X135427771Y-118446666D02*
X135427771Y-118303809D01*
X135427771Y-118303809D02*
X135475390Y-118208571D01*
X135475390Y-118208571D02*
X135523009Y-118160952D01*
X135523009Y-118160952D02*
X135618247Y-118113333D01*
X135618247Y-118113333D02*
X135856342Y-118113333D01*
X135856342Y-118113333D02*
X135951580Y-118160952D01*
X135951580Y-118160952D02*
X135999200Y-118208571D01*
X135999200Y-118208571D02*
X136046819Y-118303809D01*
X136046819Y-118303809D02*
X136046819Y-118589523D01*
X136046819Y-118589523D02*
X135999200Y-118684761D01*
X135999200Y-118684761D02*
X135951580Y-118732380D01*
X93833333Y-124274819D02*
X93500000Y-123798628D01*
X93261905Y-124274819D02*
X93261905Y-123274819D01*
X93261905Y-123274819D02*
X93642857Y-123274819D01*
X93642857Y-123274819D02*
X93738095Y-123322438D01*
X93738095Y-123322438D02*
X93785714Y-123370057D01*
X93785714Y-123370057D02*
X93833333Y-123465295D01*
X93833333Y-123465295D02*
X93833333Y-123608152D01*
X93833333Y-123608152D02*
X93785714Y-123703390D01*
X93785714Y-123703390D02*
X93738095Y-123751009D01*
X93738095Y-123751009D02*
X93642857Y-123798628D01*
X93642857Y-123798628D02*
X93261905Y-123798628D01*
X94785714Y-124274819D02*
X94214286Y-124274819D01*
X94500000Y-124274819D02*
X94500000Y-123274819D01*
X94500000Y-123274819D02*
X94404762Y-123417676D01*
X94404762Y-123417676D02*
X94309524Y-123512914D01*
X94309524Y-123512914D02*
X94214286Y-123560533D01*
X123936819Y-107391904D02*
X123936819Y-106820476D01*
X124936819Y-107106190D02*
X123936819Y-107106190D01*
X124936819Y-106487142D02*
X123936819Y-106487142D01*
X123936819Y-106487142D02*
X123936819Y-106106190D01*
X123936819Y-106106190D02*
X123984438Y-106010952D01*
X123984438Y-106010952D02*
X124032057Y-105963333D01*
X124032057Y-105963333D02*
X124127295Y-105915714D01*
X124127295Y-105915714D02*
X124270152Y-105915714D01*
X124270152Y-105915714D02*
X124365390Y-105963333D01*
X124365390Y-105963333D02*
X124413009Y-106010952D01*
X124413009Y-106010952D02*
X124460628Y-106106190D01*
X124460628Y-106106190D02*
X124460628Y-106487142D01*
X124270152Y-105058571D02*
X124936819Y-105058571D01*
X123889200Y-105296666D02*
X124603485Y-105534761D01*
X124603485Y-105534761D02*
X124603485Y-104915714D01*
X149794819Y-123333333D02*
X150509104Y-123333333D01*
X150509104Y-123333333D02*
X150651961Y-123380952D01*
X150651961Y-123380952D02*
X150747200Y-123476190D01*
X150747200Y-123476190D02*
X150794819Y-123619047D01*
X150794819Y-123619047D02*
X150794819Y-123714285D01*
X150794819Y-122809523D02*
X150794819Y-122619047D01*
X150794819Y-122619047D02*
X150747200Y-122523809D01*
X150747200Y-122523809D02*
X150699580Y-122476190D01*
X150699580Y-122476190D02*
X150556723Y-122380952D01*
X150556723Y-122380952D02*
X150366247Y-122333333D01*
X150366247Y-122333333D02*
X149985295Y-122333333D01*
X149985295Y-122333333D02*
X149890057Y-122380952D01*
X149890057Y-122380952D02*
X149842438Y-122428571D01*
X149842438Y-122428571D02*
X149794819Y-122523809D01*
X149794819Y-122523809D02*
X149794819Y-122714285D01*
X149794819Y-122714285D02*
X149842438Y-122809523D01*
X149842438Y-122809523D02*
X149890057Y-122857142D01*
X149890057Y-122857142D02*
X149985295Y-122904761D01*
X149985295Y-122904761D02*
X150223390Y-122904761D01*
X150223390Y-122904761D02*
X150318628Y-122857142D01*
X150318628Y-122857142D02*
X150366247Y-122809523D01*
X150366247Y-122809523D02*
X150413866Y-122714285D01*
X150413866Y-122714285D02*
X150413866Y-122523809D01*
X150413866Y-122523809D02*
X150366247Y-122428571D01*
X150366247Y-122428571D02*
X150318628Y-122380952D01*
X150318628Y-122380952D02*
X150223390Y-122333333D01*
X116174819Y-116881904D02*
X116984342Y-116881904D01*
X116984342Y-116881904D02*
X117079580Y-116834285D01*
X117079580Y-116834285D02*
X117127200Y-116786666D01*
X117127200Y-116786666D02*
X117174819Y-116691428D01*
X117174819Y-116691428D02*
X117174819Y-116500952D01*
X117174819Y-116500952D02*
X117127200Y-116405714D01*
X117127200Y-116405714D02*
X117079580Y-116358095D01*
X117079580Y-116358095D02*
X116984342Y-116310476D01*
X116984342Y-116310476D02*
X116174819Y-116310476D01*
X117174819Y-115310476D02*
X117174819Y-115881904D01*
X117174819Y-115596190D02*
X116174819Y-115596190D01*
X116174819Y-115596190D02*
X116317676Y-115691428D01*
X116317676Y-115691428D02*
X116412914Y-115786666D01*
X116412914Y-115786666D02*
X116460533Y-115881904D01*
X119374819Y-128333333D02*
X120089104Y-128333333D01*
X120089104Y-128333333D02*
X120231961Y-128380952D01*
X120231961Y-128380952D02*
X120327200Y-128476190D01*
X120327200Y-128476190D02*
X120374819Y-128619047D01*
X120374819Y-128619047D02*
X120374819Y-128714285D01*
X119708152Y-127428571D02*
X120374819Y-127428571D01*
X119327200Y-127666666D02*
X120041485Y-127904761D01*
X120041485Y-127904761D02*
X120041485Y-127285714D01*
D11*
%TO.C,J16*%
X144165000Y-125320000D02*
X144165000Y-127980000D01*
X146765000Y-125320000D02*
X144165000Y-125320000D01*
X146765000Y-125320000D02*
X146765000Y-127980000D01*
X146765000Y-127980000D02*
X144165000Y-127980000D01*
X148035000Y-125320000D02*
X149365000Y-125320000D01*
X149365000Y-125320000D02*
X149365000Y-126650000D01*
%TO.C,D5*%
X105145000Y-101130000D02*
X105545000Y-101130000D01*
X105145000Y-102250000D02*
X105145000Y-101130000D01*
X105545000Y-101130000D02*
X105545000Y-102250000D01*
X105545000Y-102250000D02*
X105145000Y-102250000D01*
X105545000Y-102250000D02*
X105545000Y-98390000D01*
X105835000Y-102250000D02*
X105835000Y-102250000D01*
X105835000Y-102250000D02*
X105835000Y-102380000D01*
X105835000Y-102380000D02*
X105835000Y-102250000D01*
X105835000Y-102380000D02*
X105835000Y-102380000D01*
X108375000Y-102250000D02*
X108375000Y-102250000D01*
X108375000Y-102250000D02*
X108375000Y-102380000D01*
X108375000Y-102380000D02*
X108375000Y-102250000D01*
X108375000Y-102380000D02*
X108375000Y-102380000D01*
X108665000Y-102250000D02*
X105545000Y-102250000D01*
X108665000Y-102250000D02*
X108665000Y-98390000D01*
X105545000Y-98390000D02*
G75*
G02*
X108665000Y-98390000I1560000J0D01*
G01*
%TO.C,U2*%
X97525000Y-114910000D02*
X97525000Y-109820000D01*
X97865000Y-114910000D02*
X97525000Y-114910000D01*
X100185000Y-114910000D02*
X100535000Y-114910000D01*
X100535000Y-114910000D02*
X100535000Y-112310000D01*
X97525000Y-114409999D02*
G75*
G02*
X97523264Y-110210084I100000J2099999D01*
G01*
%TO.C,J14*%
X139670000Y-127330000D02*
X139670000Y-126000000D01*
X141000000Y-127330000D02*
X139670000Y-127330000D01*
X142270000Y-124670000D02*
X142330000Y-124670000D01*
X142270000Y-127330000D02*
X142270000Y-124670000D01*
X142270000Y-127330000D02*
X142330000Y-127330000D01*
X142330000Y-127330000D02*
X142330000Y-124670000D01*
%TO.C,J17*%
X130940000Y-98910000D02*
X130940000Y-96310000D01*
X133600000Y-96310000D02*
X130940000Y-96310000D01*
X133600000Y-98910000D02*
X130940000Y-98910000D01*
X133600000Y-98910000D02*
X133600000Y-96310000D01*
X133600000Y-100180000D02*
X133600000Y-101510000D01*
X133600000Y-101510000D02*
X132270000Y-101510000D01*
%TO.C,U3*%
X133490000Y-109400000D02*
X133490000Y-112000000D01*
X133840000Y-109400000D02*
X133490000Y-109400000D01*
X136160000Y-109400000D02*
X136500000Y-109400000D01*
X136500000Y-109400000D02*
X136500000Y-114490000D01*
X136500000Y-109900001D02*
G75*
G02*
X136501736Y-114099916I-100000J-2099999D01*
G01*
%TO.C,D1*%
X88265000Y-119570000D02*
X89385000Y-119570000D01*
X88265000Y-119970000D02*
X88265000Y-119570000D01*
X89385000Y-116450000D02*
X85525000Y-116450000D01*
X89385000Y-116450000D02*
X89385000Y-119570000D01*
X89385000Y-116740000D02*
X89385000Y-116740000D01*
X89385000Y-116740000D02*
X89515000Y-116740000D01*
X89385000Y-119280000D02*
X89385000Y-119280000D01*
X89385000Y-119280000D02*
X89515000Y-119280000D01*
X89385000Y-119570000D02*
X85525000Y-119570000D01*
X89385000Y-119570000D02*
X89385000Y-119970000D01*
X89385000Y-119970000D02*
X88265000Y-119970000D01*
X89515000Y-116740000D02*
X89385000Y-116740000D01*
X89515000Y-116740000D02*
X89515000Y-116740000D01*
X89515000Y-119280000D02*
X89385000Y-119280000D01*
X89515000Y-119280000D02*
X89515000Y-119280000D01*
X85525000Y-119570000D02*
G75*
G02*
X85525000Y-116450000I0J1560000D01*
G01*
%TO.C,Q3*%
X110130000Y-116902500D02*
X110130000Y-116252500D01*
X110130000Y-116902500D02*
X110130000Y-117552500D01*
X113250000Y-116902500D02*
X113250000Y-116252500D01*
X113250000Y-116902500D02*
X113250000Y-117552500D01*
X110180000Y-118065000D02*
X109850000Y-118305000D01*
X109850000Y-117825000D01*
X110180000Y-118065000D01*
G36*
X110180000Y-118065000D02*
G01*
X109850000Y-118305000D01*
X109850000Y-117825000D01*
X110180000Y-118065000D01*
G37*
%TO.C,J11*%
X94275000Y-97580000D02*
X94275000Y-100240000D01*
X96875000Y-97580000D02*
X94275000Y-97580000D01*
X96875000Y-97580000D02*
X96875000Y-100240000D01*
X96875000Y-100240000D02*
X94275000Y-100240000D01*
X98145000Y-97580000D02*
X99475000Y-97580000D01*
X99475000Y-97580000D02*
X99475000Y-98910000D01*
%TO.C,J6*%
X91670000Y-125670000D02*
X91670000Y-128330000D01*
X91730000Y-125670000D02*
X91670000Y-125670000D01*
X91730000Y-125670000D02*
X91730000Y-128330000D01*
X91730000Y-128330000D02*
X91670000Y-128330000D01*
X93000000Y-125670000D02*
X94330000Y-125670000D01*
X94330000Y-125670000D02*
X94330000Y-127000000D01*
%TO.C,D3*%
X145255000Y-103710000D02*
X145255000Y-103710000D01*
X145255000Y-103710000D02*
X145385000Y-103710000D01*
X145255000Y-106250000D02*
X145255000Y-106250000D01*
X145255000Y-106250000D02*
X145385000Y-106250000D01*
X145385000Y-103020000D02*
X146505000Y-103020000D01*
X145385000Y-103420000D02*
X145385000Y-103020000D01*
X145385000Y-103420000D02*
X149245000Y-103420000D01*
X145385000Y-103710000D02*
X145255000Y-103710000D01*
X145385000Y-103710000D02*
X145385000Y-103710000D01*
X145385000Y-106250000D02*
X145255000Y-106250000D01*
X145385000Y-106250000D02*
X145385000Y-106250000D01*
X145385000Y-106540000D02*
X145385000Y-103420000D01*
X145385000Y-106540000D02*
X149245000Y-106540000D01*
X146505000Y-103020000D02*
X146505000Y-103420000D01*
X146505000Y-103420000D02*
X145385000Y-103420000D01*
X149245000Y-103420000D02*
G75*
G02*
X149245000Y-106540000I0J-1560000D01*
G01*
%TO.C,D2*%
X88265000Y-106580000D02*
X89385000Y-106580000D01*
X88265000Y-106980000D02*
X88265000Y-106580000D01*
X89385000Y-103460000D02*
X85525000Y-103460000D01*
X89385000Y-103460000D02*
X89385000Y-106580000D01*
X89385000Y-103750000D02*
X89385000Y-103750000D01*
X89385000Y-103750000D02*
X89515000Y-103750000D01*
X89385000Y-106290000D02*
X89385000Y-106290000D01*
X89385000Y-106290000D02*
X89515000Y-106290000D01*
X89385000Y-106580000D02*
X85525000Y-106580000D01*
X89385000Y-106580000D02*
X89385000Y-106980000D01*
X89385000Y-106980000D02*
X88265000Y-106980000D01*
X89515000Y-103750000D02*
X89385000Y-103750000D01*
X89515000Y-103750000D02*
X89515000Y-103750000D01*
X89515000Y-106290000D02*
X89385000Y-106290000D01*
X89515000Y-106290000D02*
X89515000Y-106290000D01*
X85525000Y-106580000D02*
G75*
G02*
X85525000Y-103460000I0J1560000D01*
G01*
%TO.C,TP5*%
X138730000Y-116970000D02*
G75*
G02*
X137330000Y-116970000I-700000J0D01*
G01*
X137330000Y-116970000D02*
G75*
G02*
X138730000Y-116970000I700000J0D01*
G01*
%TO.C,J10*%
X112270000Y-99925000D02*
X112270000Y-98595000D01*
X113600000Y-99925000D02*
X112270000Y-99925000D01*
X114870000Y-97265000D02*
X117470000Y-97265000D01*
X114870000Y-99925000D02*
X114870000Y-97265000D01*
X114870000Y-99925000D02*
X117470000Y-99925000D01*
X117470000Y-99925000D02*
X117470000Y-97265000D01*
%TO.C,J13*%
X112435000Y-104415000D02*
X112435000Y-103085000D01*
X113765000Y-104415000D02*
X112435000Y-104415000D01*
X115035000Y-101755000D02*
X117635000Y-101755000D01*
X115035000Y-104415000D02*
X115035000Y-101755000D01*
X115035000Y-104415000D02*
X117635000Y-104415000D01*
X117635000Y-104415000D02*
X117635000Y-101755000D01*
%TO.C,J3*%
X98980000Y-120490000D02*
X100310000Y-120490000D01*
X98980000Y-121820000D02*
X98980000Y-120490000D01*
X98980000Y-123090000D02*
X101580000Y-123090000D01*
X98980000Y-125690000D02*
X98980000Y-123090000D01*
X98980000Y-125690000D02*
X134660000Y-125690000D01*
X101580000Y-120490000D02*
X134660000Y-120490000D01*
X101580000Y-123090000D02*
X101580000Y-120490000D01*
X134660000Y-125690000D02*
X134660000Y-120490000D01*
%TO.C,R2*%
X97727064Y-105090000D02*
X96272936Y-105090000D01*
X97727064Y-106910000D02*
X96272936Y-106910000D01*
%TO.C,Q2*%
X133000000Y-116440000D02*
X132350000Y-116440000D01*
X133000000Y-116440000D02*
X133650000Y-116440000D01*
X133000000Y-119560000D02*
X132350000Y-119560000D01*
X133000000Y-119560000D02*
X133650000Y-119560000D01*
X131837500Y-116490000D02*
X131597500Y-116160000D01*
X132077500Y-116160000D01*
X131837500Y-116490000D01*
G36*
X131837500Y-116490000D02*
G01*
X131597500Y-116160000D01*
X132077500Y-116160000D01*
X131837500Y-116490000D01*
G37*
%TO.C,R4*%
X101215000Y-103362064D02*
X101215000Y-101907936D01*
X103035000Y-103362064D02*
X103035000Y-101907936D01*
%TO.C,TP6*%
X123120000Y-111320000D02*
G75*
G02*
X121720000Y-111320000I-700000J0D01*
G01*
X121720000Y-111320000D02*
G75*
G02*
X123120000Y-111320000I700000J0D01*
G01*
%TO.C,TP1*%
X103420000Y-106880000D02*
G75*
G02*
X102020000Y-106880000I-700000J0D01*
G01*
X102020000Y-106880000D02*
G75*
G02*
X103420000Y-106880000I700000J0D01*
G01*
%TO.C,J12*%
X143405000Y-111005000D02*
X143405000Y-108405000D01*
X146065000Y-108405000D02*
X143405000Y-108405000D01*
X146065000Y-111005000D02*
X143405000Y-111005000D01*
X146065000Y-111005000D02*
X146065000Y-108405000D01*
X146065000Y-112275000D02*
X146065000Y-113605000D01*
X146065000Y-113605000D02*
X144735000Y-113605000D01*
%TO.C,R3*%
X130727064Y-105090000D02*
X129272936Y-105090000D01*
X130727064Y-106910000D02*
X129272936Y-106910000D01*
%TO.C,TP2*%
X103310000Y-109840000D02*
G75*
G02*
X101910000Y-109840000I-700000J0D01*
G01*
X101910000Y-109840000D02*
G75*
G02*
X103310000Y-109840000I700000J0D01*
G01*
%TO.C,J5*%
X89405000Y-109395000D02*
X90735000Y-109395000D01*
X89405000Y-110725000D02*
X89405000Y-109395000D01*
X89405000Y-111995000D02*
X89405000Y-114595000D01*
X89405000Y-111995000D02*
X92065000Y-111995000D01*
X89405000Y-114595000D02*
X92065000Y-114595000D01*
X92065000Y-111995000D02*
X92065000Y-114595000D01*
%TO.C,D6*%
X120145000Y-101130000D02*
X120545000Y-101130000D01*
X120145000Y-102250000D02*
X120145000Y-101130000D01*
X120545000Y-101130000D02*
X120545000Y-102250000D01*
X120545000Y-102250000D02*
X120145000Y-102250000D01*
X120545000Y-102250000D02*
X120545000Y-98390000D01*
X120835000Y-102250000D02*
X120835000Y-102250000D01*
X120835000Y-102250000D02*
X120835000Y-102380000D01*
X120835000Y-102380000D02*
X120835000Y-102250000D01*
X120835000Y-102380000D02*
X120835000Y-102380000D01*
X123375000Y-102250000D02*
X123375000Y-102250000D01*
X123375000Y-102250000D02*
X123375000Y-102380000D01*
X123375000Y-102380000D02*
X123375000Y-102250000D01*
X123375000Y-102380000D02*
X123375000Y-102380000D01*
X123665000Y-102250000D02*
X120545000Y-102250000D01*
X123665000Y-102250000D02*
X123665000Y-98390000D01*
X120545000Y-98390000D02*
G75*
G02*
X123665000Y-98390000I1560000J0D01*
G01*
%TO.C,R6*%
X126525000Y-102272064D02*
X126525000Y-100817936D01*
X128345000Y-102272064D02*
X128345000Y-100817936D01*
%TO.C,J2*%
X85130000Y-124330000D02*
X85130000Y-123000000D01*
X86460000Y-124330000D02*
X85130000Y-124330000D01*
X87730000Y-121670000D02*
X90330000Y-121670000D01*
X87730000Y-124330000D02*
X87730000Y-121670000D01*
X87730000Y-124330000D02*
X90330000Y-124330000D01*
X90330000Y-124330000D02*
X90330000Y-121670000D01*
%TO.C,U4*%
X112610000Y-107880000D02*
X117700000Y-107880000D01*
X112610000Y-108220000D02*
X112610000Y-107880000D01*
X112610000Y-110540000D02*
X112610000Y-110890000D01*
X112610000Y-110890000D02*
X115210000Y-110890000D01*
X113110001Y-107880000D02*
G75*
G02*
X117309916Y-107878264I2099999J-100000D01*
G01*
%TO.C,R5*%
X140272936Y-121090000D02*
X141727064Y-121090000D01*
X140272936Y-122910000D02*
X141727064Y-122910000D01*
%TO.C,J15*%
X126035000Y-98725000D02*
X126035000Y-97395000D01*
X127365000Y-98725000D02*
X126035000Y-98725000D01*
X128635000Y-96065000D02*
X128695000Y-96065000D01*
X128635000Y-98725000D02*
X128635000Y-96065000D01*
X128635000Y-98725000D02*
X128695000Y-98725000D01*
X128695000Y-98725000D02*
X128695000Y-96065000D01*
%TO.C,J8*%
X147945000Y-108395000D02*
X149275000Y-108395000D01*
X147945000Y-109725000D02*
X147945000Y-108395000D01*
X147945000Y-110995000D02*
X147945000Y-113595000D01*
X147945000Y-110995000D02*
X150605000Y-110995000D01*
X147945000Y-113595000D02*
X150605000Y-113595000D01*
X150605000Y-110995000D02*
X150605000Y-113595000D01*
%TO.C,J7*%
X85130000Y-128330000D02*
X85130000Y-127000000D01*
X86460000Y-128330000D02*
X85130000Y-128330000D01*
X87730000Y-125670000D02*
X90330000Y-125670000D01*
X87730000Y-128330000D02*
X87730000Y-125670000D01*
X87730000Y-128330000D02*
X90330000Y-128330000D01*
X90330000Y-128330000D02*
X90330000Y-125670000D01*
%TO.C,Q1*%
X104530000Y-115400000D02*
X103880000Y-115400000D01*
X104530000Y-115400000D02*
X105180000Y-115400000D01*
X104530000Y-118520000D02*
X103880000Y-118520000D01*
X104530000Y-118520000D02*
X105180000Y-118520000D01*
X105932500Y-118800000D02*
X105452500Y-118800000D01*
X105692500Y-118470000D01*
X105932500Y-118800000D01*
G36*
X105932500Y-118800000D02*
G01*
X105452500Y-118800000D01*
X105692500Y-118470000D01*
X105932500Y-118800000D01*
G37*
%TO.C,J1*%
X85405000Y-112005000D02*
X85405000Y-109405000D01*
X88065000Y-109405000D02*
X85405000Y-109405000D01*
X88065000Y-112005000D02*
X85405000Y-112005000D01*
X88065000Y-112005000D02*
X88065000Y-109405000D01*
X88065000Y-113275000D02*
X88065000Y-114605000D01*
X88065000Y-114605000D02*
X86735000Y-114605000D01*
%TO.C,D4*%
X145255000Y-116710000D02*
X145255000Y-116710000D01*
X145255000Y-116710000D02*
X145385000Y-116710000D01*
X145255000Y-119250000D02*
X145255000Y-119250000D01*
X145255000Y-119250000D02*
X145385000Y-119250000D01*
X145385000Y-116020000D02*
X146505000Y-116020000D01*
X145385000Y-116420000D02*
X145385000Y-116020000D01*
X145385000Y-116420000D02*
X149245000Y-116420000D01*
X145385000Y-116710000D02*
X145255000Y-116710000D01*
X145385000Y-116710000D02*
X145385000Y-116710000D01*
X145385000Y-119250000D02*
X145255000Y-119250000D01*
X145385000Y-119250000D02*
X145385000Y-119250000D01*
X145385000Y-119540000D02*
X145385000Y-116420000D01*
X145385000Y-119540000D02*
X149245000Y-119540000D01*
X146505000Y-116020000D02*
X146505000Y-116420000D01*
X146505000Y-116420000D02*
X145385000Y-116420000D01*
X149245000Y-116420000D02*
G75*
G02*
X149245000Y-119540000I0J-1560000D01*
G01*
%TO.C,TP3*%
X137740000Y-119280000D02*
G75*
G02*
X136340000Y-119280000I-700000J0D01*
G01*
X136340000Y-119280000D02*
G75*
G02*
X137740000Y-119280000I700000J0D01*
G01*
%TO.C,R1*%
X94727064Y-121090000D02*
X93272936Y-121090000D01*
X94727064Y-122910000D02*
X93272936Y-122910000D01*
%TO.C,TP4*%
X126630000Y-106130000D02*
G75*
G02*
X125230000Y-106130000I-700000J0D01*
G01*
X125230000Y-106130000D02*
G75*
G02*
X126630000Y-106130000I700000J0D01*
G01*
%TO.C,J9*%
X144140000Y-121670000D02*
X144140000Y-124330000D01*
X146740000Y-121670000D02*
X144140000Y-121670000D01*
X146740000Y-121670000D02*
X146740000Y-124330000D01*
X146740000Y-124330000D02*
X144140000Y-124330000D01*
X148010000Y-121670000D02*
X149340000Y-121670000D01*
X149340000Y-121670000D02*
X149340000Y-123000000D01*
%TO.C,U1*%
X117565000Y-116120000D02*
X117565000Y-114170000D01*
X117565000Y-116120000D02*
X117565000Y-118070000D01*
X126435000Y-116120000D02*
X126435000Y-114170000D01*
X126435000Y-116120000D02*
X126435000Y-118070000D01*
X117630000Y-118820000D02*
X117300000Y-119060000D01*
X117300000Y-118580000D01*
X117630000Y-118820000D01*
G36*
X117630000Y-118820000D02*
G01*
X117300000Y-119060000D01*
X117300000Y-118580000D01*
X117630000Y-118820000D01*
G37*
%TO.C,J4*%
X116260000Y-126670000D02*
X116260000Y-129330000D01*
X116320000Y-126670000D02*
X116260000Y-126670000D01*
X116320000Y-126670000D02*
X116320000Y-129330000D01*
X116320000Y-129330000D02*
X116260000Y-129330000D01*
X117590000Y-126670000D02*
X118920000Y-126670000D01*
X118920000Y-126670000D02*
X118920000Y-128000000D01*
%TD*%
%LPC*%
D12*
%TO.C,J16*%
X148035000Y-126650000D03*
D13*
X145495000Y-126650000D03*
%TD*%
D14*
%TO.C,D5*%
X108375000Y-103460000D03*
D15*
X105835000Y-103460000D03*
%TD*%
D16*
%TO.C,U2*%
X99025000Y-109770000D03*
D15*
X99025000Y-112310000D03*
X99025000Y-114850000D03*
%TD*%
D12*
%TO.C,J14*%
X141000000Y-126000000D03*
%TD*%
%TO.C,J17*%
X132270000Y-100180000D03*
D13*
X132270000Y-97640000D03*
%TD*%
D17*
%TO.C,U3*%
X135000000Y-114540000D03*
D15*
X135000000Y-112000000D03*
X135000000Y-109460000D03*
%TD*%
D14*
%TO.C,D1*%
X90595000Y-116740000D03*
D15*
X90595000Y-119280000D03*
%TD*%
D18*
%TO.C,Q3*%
X110740000Y-117840000D03*
X112640000Y-117840000D03*
X111690000Y-115965000D03*
%TD*%
D12*
%TO.C,J11*%
X98145000Y-98910000D03*
D13*
X95605000Y-98910000D03*
%TD*%
D12*
%TO.C,J6*%
X93000000Y-127000000D03*
%TD*%
D14*
%TO.C,D3*%
X144175000Y-106250000D03*
D15*
X144175000Y-103710000D03*
%TD*%
D14*
%TO.C,D2*%
X90595000Y-103750000D03*
D15*
X90595000Y-106290000D03*
%TD*%
D19*
%TO.C,TP5*%
X138030000Y-116970000D03*
%TD*%
D12*
%TO.C,J10*%
X113600000Y-98595000D03*
D13*
X116140000Y-98595000D03*
%TD*%
D12*
%TO.C,J13*%
X113765000Y-103085000D03*
D13*
X116305000Y-103085000D03*
%TD*%
D12*
%TO.C,J3*%
X100310000Y-121820000D03*
D13*
X100310000Y-124360000D03*
X102850000Y-121820000D03*
X102850000Y-124360000D03*
X105390000Y-121820000D03*
X105390000Y-124360000D03*
X107930000Y-121820000D03*
X107930000Y-124360000D03*
X110470000Y-121820000D03*
X110470000Y-124360000D03*
X113010000Y-121820000D03*
X113010000Y-124360000D03*
X115550000Y-121820000D03*
X115550000Y-124360000D03*
X118090000Y-121820000D03*
X118090000Y-124360000D03*
X120630000Y-121820000D03*
X120630000Y-124360000D03*
X123170000Y-121820000D03*
X123170000Y-124360000D03*
X125710000Y-121820000D03*
X125710000Y-124360000D03*
X128250000Y-121820000D03*
X128250000Y-124360000D03*
X130790000Y-121820000D03*
X130790000Y-124360000D03*
X133330000Y-121820000D03*
X133330000Y-124360000D03*
%TD*%
D20*
%TO.C,R2*%
X98462500Y-106000000D03*
X95537500Y-106000000D03*
%TD*%
D21*
%TO.C,Q2*%
X132062500Y-117050000D03*
X132062500Y-118950000D03*
X133937500Y-118000000D03*
%TD*%
D22*
%TO.C,R4*%
X102125000Y-104097500D03*
X102125000Y-101172500D03*
%TD*%
D19*
%TO.C,TP6*%
X122420000Y-111320000D03*
%TD*%
%TO.C,TP1*%
X102720000Y-106880000D03*
%TD*%
D12*
%TO.C,J12*%
X144735000Y-112275000D03*
D13*
X144735000Y-109735000D03*
%TD*%
D20*
%TO.C,R3*%
X131462500Y-106000000D03*
X128537500Y-106000000D03*
%TD*%
D19*
%TO.C,TP2*%
X102610000Y-109840000D03*
%TD*%
D12*
%TO.C,J5*%
X90735000Y-110725000D03*
D13*
X90735000Y-113265000D03*
%TD*%
D14*
%TO.C,D6*%
X123375000Y-103460000D03*
D15*
X120835000Y-103460000D03*
%TD*%
D22*
%TO.C,R6*%
X127435000Y-103007500D03*
X127435000Y-100082500D03*
%TD*%
D12*
%TO.C,J2*%
X86460000Y-123000000D03*
D13*
X89000000Y-123000000D03*
%TD*%
D23*
%TO.C,U4*%
X117750000Y-109380000D03*
D15*
X115210000Y-109380000D03*
X112670000Y-109380000D03*
%TD*%
D24*
%TO.C,R5*%
X139537500Y-122000000D03*
X142462500Y-122000000D03*
%TD*%
D12*
%TO.C,J15*%
X127365000Y-97395000D03*
%TD*%
%TO.C,J8*%
X149275000Y-109725000D03*
D13*
X149275000Y-112265000D03*
%TD*%
D12*
%TO.C,J7*%
X86460000Y-127000000D03*
D13*
X89000000Y-127000000D03*
%TD*%
D25*
%TO.C,Q1*%
X105467500Y-117910000D03*
X105467500Y-116010000D03*
X103592500Y-116960000D03*
%TD*%
D12*
%TO.C,J1*%
X86735000Y-113275000D03*
D13*
X86735000Y-110735000D03*
%TD*%
D14*
%TO.C,D4*%
X144175000Y-119250000D03*
D15*
X144175000Y-116710000D03*
%TD*%
D19*
%TO.C,TP3*%
X137040000Y-119280000D03*
%TD*%
D20*
%TO.C,R1*%
X95462500Y-122000000D03*
X92537500Y-122000000D03*
%TD*%
D19*
%TO.C,TP4*%
X125930000Y-106130000D03*
%TD*%
D12*
%TO.C,J9*%
X148010000Y-123000000D03*
D13*
X145470000Y-123000000D03*
%TD*%
D26*
%TO.C,U1*%
X118190000Y-118595000D03*
X119460000Y-118595000D03*
X120730000Y-118595000D03*
X122000000Y-118595000D03*
X123270000Y-118595000D03*
X124540000Y-118595000D03*
X125810000Y-118595000D03*
X125810000Y-113645000D03*
X124540000Y-113645000D03*
X123270000Y-113645000D03*
X122000000Y-113645000D03*
X120730000Y-113645000D03*
X119460000Y-113645000D03*
X118190000Y-113645000D03*
%TD*%
D12*
%TO.C,J4*%
X117590000Y-128000000D03*
%TD*%
%LPD*%
M02*
