M48
; DRILL file {KiCad 8.0.0} date 2024-03-23T03:09:38+0200
; FORMAT={-:-/ absolute / inch / decimal}
; #@! TF.CreationDate,2024-03-23T03:09:38+02:00
; #@! TF.GenerationSoftware,Kicad,Pcbnew,8.0.0
; #@! TF.FileFunction,Plated,1,2,PTH
FMAT,2
INCH
; #@! TA.AperFunction,Plated,PTH,ViaDrill
T1C0.0236
; #@! TA.AperFunction,Plated,PTH,ComponentDrill
T2C0.0354
; #@! TA.AperFunction,Plated,PTH,ComponentDrill
T3C0.0394
%
G90
G05
T1
X3.6441Y-4.3701
X3.6831Y-4.6917
X3.8531Y-4.7228
X3.8965Y-4.615
X3.9902Y-4.5957
X3.9909Y-4.6634
X4.024Y-4.472
X4.0898Y-4.3661
X4.0945Y-4.0551
X4.1047Y-3.8075
X4.1059Y-4.1602
X4.1213Y-4.4614
X4.3362Y-4.4957
X4.3764Y-4.3756
X4.4278Y-4.4793
X4.5906Y-4.6102
X4.7882Y-4.3484
X4.8225Y-4.2713
X4.939Y-4.602
X5.0047Y-4.6118
X5.0091Y-4.5197
X5.0394Y-4.7244
X5.198Y-4.3177
X5.198Y-4.4862
X5.2362Y-4.5669
X5.2756Y-4.685
T2
X3.5667Y-4.0846
X3.5667Y-4.1846
X3.5667Y-4.5961
X3.5667Y-4.6961
X3.8986Y-4.3217
X3.8986Y-4.4217
X3.8986Y-4.5217
X4.1667Y-4.0732
X4.2667Y-4.0732
X4.4358Y-4.3063
X4.5358Y-4.3063
X4.6358Y-4.3063
X4.7573Y-4.0732
X4.8573Y-4.0732
X5.315Y-4.3094
X5.315Y-4.4094
X5.315Y-4.5094
X5.6762Y-4.0831
X5.6762Y-4.1831
X5.6762Y-4.5949
X5.6762Y-4.6949
T3
X3.4039Y-4.8425
X3.4039Y-5.0
X3.4148Y-4.3596
X3.4148Y-4.4596
X3.5039Y-4.8425
X3.5039Y-5.0
X3.5722Y-4.3593
X3.5722Y-4.4593
X3.6614Y-5.0
X3.764Y-3.8941
X3.864Y-3.8941
X3.9492Y-4.7961
X3.9492Y-4.8961
X4.0492Y-4.7961
X4.0492Y-4.8961
X4.1492Y-4.7961
X4.1492Y-4.8961
X4.2492Y-4.7961
X4.2492Y-4.8961
X4.3492Y-4.7961
X4.3492Y-4.8961
X4.4492Y-4.7961
X4.4492Y-4.8961
X4.4724Y-3.8817
X4.4789Y-4.0585
X4.5492Y-4.7961
X4.5492Y-4.8961
X4.5724Y-3.8817
X4.5789Y-4.0585
X4.6295Y-5.0394
X4.6492Y-4.7961
X4.6492Y-4.8961
X4.7492Y-4.7961
X4.7492Y-4.8961
X4.8492Y-4.7961
X4.8492Y-4.8961
X4.9492Y-4.7961
X4.9492Y-4.8961
X5.0144Y-3.8344
X5.0492Y-4.7961
X5.0492Y-4.8961
X5.1492Y-4.7961
X5.1492Y-4.8961
X5.2075Y-3.8441
X5.2075Y-3.9441
X5.2492Y-4.7961
X5.2492Y-4.8961
X5.5512Y-4.9606
X5.6982Y-4.3203
X5.6982Y-4.4203
X5.7272Y-4.8425
X5.7281Y-4.9862
X5.8272Y-4.8425
X5.8281Y-4.9862
X5.877Y-4.3199
X5.877Y-4.4199
M30
