%TF.GenerationSoftware,KiCad,Pcbnew,8.0.0*%
%TF.CreationDate,2024-03-24T16:16:40+02:00*%
%TF.ProjectId,sensor,73656e73-6f72-42e6-9b69-6361645f7063,rev?*%
%TF.SameCoordinates,Original*%
%TF.FileFunction,Legend,Bot*%
%TF.FilePolarity,Positive*%
%FSLAX46Y46*%
G04 Gerber Fmt 4.6, Leading zero omitted, Abs format (unit mm)*
G04 Created by KiCad (PCBNEW 8.0.0) date 2024-03-24 16:16:40*
%MOMM*%
%LPD*%
G01*
G04 APERTURE LIST*
G04 Aperture macros list*
%AMRoundRect*
0 Rectangle with rounded corners*
0 $1 Rounding radius*
0 $2 $3 $4 $5 $6 $7 $8 $9 X,Y pos of 4 corners*
0 Add a 4 corners polygon primitive as box body*
4,1,4,$2,$3,$4,$5,$6,$7,$8,$9,$2,$3,0*
0 Add four circle primitives for the rounded corners*
1,1,$1+$1,$2,$3*
1,1,$1+$1,$4,$5*
1,1,$1+$1,$6,$7*
1,1,$1+$1,$8,$9*
0 Add four rect primitives between the rounded corners*
20,1,$1+$1,$2,$3,$4,$5,0*
20,1,$1+$1,$4,$5,$6,$7,0*
20,1,$1+$1,$6,$7,$8,$9,0*
20,1,$1+$1,$8,$9,$2,$3,0*%
%AMHorizOval*
0 Thick line with rounded ends*
0 $1 width*
0 $2 $3 position (X,Y) of the first rounded end (center of the circle)*
0 $4 $5 position (X,Y) of the second rounded end (center of the circle)*
0 Add line between two ends*
20,1,$1,$2,$3,$4,$5,0*
0 Add two circle primitives to create the rounded ends*
1,1,$1,$2,$3*
1,1,$1,$4,$5*%
%AMRotRect*
0 Rectangle, with rotation*
0 The origin of the aperture is its center*
0 $1 length*
0 $2 width*
0 $3 Rotation angle, in degrees counterclockwise*
0 Add horizontal line*
21,1,$1,$2,0,0,$3*%
G04 Aperture macros list end*
%ADD10C,0.100000*%
%ADD11R,1.700000X1.700000*%
%ADD12O,1.700000X1.700000*%
%ADD13RotRect,1.700000X1.700000X315.000000*%
%ADD14HorizOval,1.700000X0.000000X0.000000X0.000000X0.000000X0*%
%ADD15RoundRect,0.250200X0.649800X0.649800X-0.649800X0.649800X-0.649800X-0.649800X0.649800X-0.649800X0*%
%ADD16C,1.800000*%
%ADD17RotRect,1.800000X1.800000X135.000000*%
%ADD18RotRect,1.700000X1.700000X45.000000*%
%ADD19HorizOval,1.700000X0.000000X0.000000X0.000000X0.000000X0*%
%ADD20RoundRect,0.250200X0.000000X0.918956X-0.918956X0.000000X0.000000X-0.918956X0.918956X0.000000X0*%
%ADD21RotRect,1.800000X1.800000X225.000000*%
%ADD22R,1.800000X1.800000*%
%ADD23RoundRect,0.250200X0.918956X0.000000X0.000000X0.918956X-0.918956X0.000000X0.000000X-0.918956X0*%
G04 APERTURE END LIST*
D10*
X166621353Y-76012587D02*
X165954687Y-76012587D01*
X165954687Y-76012587D02*
X166621353Y-77012587D01*
X166621353Y-77012587D02*
X165954687Y-77012587D01*
X165668972Y-76345920D02*
X165478496Y-77012587D01*
X165478496Y-77012587D02*
X165288020Y-76536396D01*
X165288020Y-76536396D02*
X165097544Y-77012587D01*
X165097544Y-77012587D02*
X164907068Y-76345920D01*
X164526115Y-77012587D02*
X164526115Y-76345920D01*
X164526115Y-76012587D02*
X164573734Y-76060206D01*
X164573734Y-76060206D02*
X164526115Y-76107825D01*
X164526115Y-76107825D02*
X164478496Y-76060206D01*
X164478496Y-76060206D02*
X164526115Y-76012587D01*
X164526115Y-76012587D02*
X164526115Y-76107825D01*
X164145163Y-76345920D02*
X163907068Y-77012587D01*
X163907068Y-77012587D02*
X163668973Y-76345920D01*
X163288020Y-77012587D02*
X163288020Y-76012587D01*
X162859449Y-77012587D02*
X162859449Y-76488777D01*
X162859449Y-76488777D02*
X162907068Y-76393539D01*
X162907068Y-76393539D02*
X163002306Y-76345920D01*
X163002306Y-76345920D02*
X163145163Y-76345920D01*
X163145163Y-76345920D02*
X163240401Y-76393539D01*
X163240401Y-76393539D02*
X163288020Y-76441158D01*
X161954687Y-76345920D02*
X161954687Y-77012587D01*
X162383258Y-76345920D02*
X162383258Y-76869729D01*
X162383258Y-76869729D02*
X162335639Y-76964968D01*
X162335639Y-76964968D02*
X162240401Y-77012587D01*
X162240401Y-77012587D02*
X162097544Y-77012587D01*
X162097544Y-77012587D02*
X162002306Y-76964968D01*
X162002306Y-76964968D02*
X161954687Y-76917348D01*
X161573734Y-76345920D02*
X161335639Y-77012587D01*
X161097544Y-76345920D02*
X161335639Y-77012587D01*
X161335639Y-77012587D02*
X161430877Y-77250682D01*
X161430877Y-77250682D02*
X161478496Y-77298301D01*
X161478496Y-77298301D02*
X161573734Y-77345920D01*
X160288020Y-77012587D02*
X160288020Y-76488777D01*
X160288020Y-76488777D02*
X160335639Y-76393539D01*
X160335639Y-76393539D02*
X160430877Y-76345920D01*
X160430877Y-76345920D02*
X160621353Y-76345920D01*
X160621353Y-76345920D02*
X160716591Y-76393539D01*
X160288020Y-76964968D02*
X160383258Y-77012587D01*
X160383258Y-77012587D02*
X160621353Y-77012587D01*
X160621353Y-77012587D02*
X160716591Y-76964968D01*
X160716591Y-76964968D02*
X160764210Y-76869729D01*
X160764210Y-76869729D02*
X160764210Y-76774491D01*
X160764210Y-76774491D02*
X160716591Y-76679253D01*
X160716591Y-76679253D02*
X160621353Y-76631634D01*
X160621353Y-76631634D02*
X160383258Y-76631634D01*
X160383258Y-76631634D02*
X160288020Y-76584015D01*
X159049924Y-77012587D02*
X159049924Y-76012587D01*
X159049924Y-76012587D02*
X158478496Y-77012587D01*
X158478496Y-77012587D02*
X158478496Y-76012587D01*
X157573734Y-77012587D02*
X157573734Y-76012587D01*
X157573734Y-76964968D02*
X157668972Y-77012587D01*
X157668972Y-77012587D02*
X157859448Y-77012587D01*
X157859448Y-77012587D02*
X157954686Y-76964968D01*
X157954686Y-76964968D02*
X158002305Y-76917348D01*
X158002305Y-76917348D02*
X158049924Y-76822110D01*
X158049924Y-76822110D02*
X158049924Y-76536396D01*
X158049924Y-76536396D02*
X158002305Y-76441158D01*
X158002305Y-76441158D02*
X157954686Y-76393539D01*
X157954686Y-76393539D02*
X157859448Y-76345920D01*
X157859448Y-76345920D02*
X157668972Y-76345920D01*
X157668972Y-76345920D02*
X157573734Y-76393539D01*
X156954686Y-77012587D02*
X157049924Y-76964968D01*
X157049924Y-76964968D02*
X157097543Y-76917348D01*
X157097543Y-76917348D02*
X157145162Y-76822110D01*
X157145162Y-76822110D02*
X157145162Y-76536396D01*
X157145162Y-76536396D02*
X157097543Y-76441158D01*
X157097543Y-76441158D02*
X157049924Y-76393539D01*
X157049924Y-76393539D02*
X156954686Y-76345920D01*
X156954686Y-76345920D02*
X156811829Y-76345920D01*
X156811829Y-76345920D02*
X156716591Y-76393539D01*
X156716591Y-76393539D02*
X156668972Y-76441158D01*
X156668972Y-76441158D02*
X156621353Y-76536396D01*
X156621353Y-76536396D02*
X156621353Y-76822110D01*
X156621353Y-76822110D02*
X156668972Y-76917348D01*
X156668972Y-76917348D02*
X156716591Y-76964968D01*
X156716591Y-76964968D02*
X156811829Y-77012587D01*
X156811829Y-77012587D02*
X156954686Y-77012587D01*
X155764210Y-76345920D02*
X155764210Y-77012587D01*
X156192781Y-76345920D02*
X156192781Y-76869729D01*
X156192781Y-76869729D02*
X156145162Y-76964968D01*
X156145162Y-76964968D02*
X156049924Y-77012587D01*
X156049924Y-77012587D02*
X155907067Y-77012587D01*
X155907067Y-77012587D02*
X155811829Y-76964968D01*
X155811829Y-76964968D02*
X155764210Y-76917348D01*
X166526115Y-78622531D02*
X166526115Y-77622531D01*
X166526115Y-77622531D02*
X165954687Y-78622531D01*
X165954687Y-78622531D02*
X165954687Y-77622531D01*
X165478496Y-78622531D02*
X165478496Y-77622531D01*
X165478496Y-77622531D02*
X165240401Y-77622531D01*
X165240401Y-77622531D02*
X165097544Y-77670150D01*
X165097544Y-77670150D02*
X165002306Y-77765388D01*
X165002306Y-77765388D02*
X164954687Y-77860626D01*
X164954687Y-77860626D02*
X164907068Y-78051102D01*
X164907068Y-78051102D02*
X164907068Y-78193959D01*
X164907068Y-78193959D02*
X164954687Y-78384435D01*
X164954687Y-78384435D02*
X165002306Y-78479673D01*
X165002306Y-78479673D02*
X165097544Y-78574912D01*
X165097544Y-78574912D02*
X165240401Y-78622531D01*
X165240401Y-78622531D02*
X165478496Y-78622531D01*
X164573734Y-77622531D02*
X163907068Y-78622531D01*
X163907068Y-77622531D02*
X164573734Y-78622531D01*
X163621353Y-77622531D02*
X162954687Y-77622531D01*
X162954687Y-77622531D02*
X163621353Y-78622531D01*
X163621353Y-78622531D02*
X162954687Y-78622531D01*
X162668972Y-77622531D02*
X162430877Y-78622531D01*
X162430877Y-78622531D02*
X162240401Y-77908245D01*
X162240401Y-77908245D02*
X162049925Y-78622531D01*
X162049925Y-78622531D02*
X161811830Y-77622531D01*
X161430877Y-78622531D02*
X161430877Y-77622531D01*
X160764211Y-77622531D02*
X160668973Y-77622531D01*
X160668973Y-77622531D02*
X160573735Y-77670150D01*
X160573735Y-77670150D02*
X160526116Y-77717769D01*
X160526116Y-77717769D02*
X160478497Y-77813007D01*
X160478497Y-77813007D02*
X160430878Y-78003483D01*
X160430878Y-78003483D02*
X160430878Y-78241578D01*
X160430878Y-78241578D02*
X160478497Y-78432054D01*
X160478497Y-78432054D02*
X160526116Y-78527292D01*
X160526116Y-78527292D02*
X160573735Y-78574912D01*
X160573735Y-78574912D02*
X160668973Y-78622531D01*
X160668973Y-78622531D02*
X160764211Y-78622531D01*
X160764211Y-78622531D02*
X160859449Y-78574912D01*
X160859449Y-78574912D02*
X160907068Y-78527292D01*
X160907068Y-78527292D02*
X160954687Y-78432054D01*
X160954687Y-78432054D02*
X161002306Y-78241578D01*
X161002306Y-78241578D02*
X161002306Y-78003483D01*
X161002306Y-78003483D02*
X160954687Y-77813007D01*
X160954687Y-77813007D02*
X160907068Y-77717769D01*
X160907068Y-77717769D02*
X160859449Y-77670150D01*
X160859449Y-77670150D02*
X160764211Y-77622531D01*
X159811830Y-77622531D02*
X159716592Y-77622531D01*
X159716592Y-77622531D02*
X159621354Y-77670150D01*
X159621354Y-77670150D02*
X159573735Y-77717769D01*
X159573735Y-77717769D02*
X159526116Y-77813007D01*
X159526116Y-77813007D02*
X159478497Y-78003483D01*
X159478497Y-78003483D02*
X159478497Y-78241578D01*
X159478497Y-78241578D02*
X159526116Y-78432054D01*
X159526116Y-78432054D02*
X159573735Y-78527292D01*
X159573735Y-78527292D02*
X159621354Y-78574912D01*
X159621354Y-78574912D02*
X159716592Y-78622531D01*
X159716592Y-78622531D02*
X159811830Y-78622531D01*
X159811830Y-78622531D02*
X159907068Y-78574912D01*
X159907068Y-78574912D02*
X159954687Y-78527292D01*
X159954687Y-78527292D02*
X160002306Y-78432054D01*
X160002306Y-78432054D02*
X160049925Y-78241578D01*
X160049925Y-78241578D02*
X160049925Y-78003483D01*
X160049925Y-78003483D02*
X160002306Y-77813007D01*
X160002306Y-77813007D02*
X159954687Y-77717769D01*
X159954687Y-77717769D02*
X159907068Y-77670150D01*
X159907068Y-77670150D02*
X159811830Y-77622531D01*
X159097544Y-77717769D02*
X159049925Y-77670150D01*
X159049925Y-77670150D02*
X158954687Y-77622531D01*
X158954687Y-77622531D02*
X158716592Y-77622531D01*
X158716592Y-77622531D02*
X158621354Y-77670150D01*
X158621354Y-77670150D02*
X158573735Y-77717769D01*
X158573735Y-77717769D02*
X158526116Y-77813007D01*
X158526116Y-77813007D02*
X158526116Y-77908245D01*
X158526116Y-77908245D02*
X158573735Y-78051102D01*
X158573735Y-78051102D02*
X159145163Y-78622531D01*
X159145163Y-78622531D02*
X158526116Y-78622531D01*
X166526115Y-79708665D02*
X166192782Y-79708665D01*
X166049925Y-80232475D02*
X166526115Y-80232475D01*
X166526115Y-80232475D02*
X166526115Y-79232475D01*
X166526115Y-79232475D02*
X166049925Y-79232475D01*
X165621353Y-79708665D02*
X165288020Y-79708665D01*
X165145163Y-80232475D02*
X165621353Y-80232475D01*
X165621353Y-80232475D02*
X165621353Y-79232475D01*
X165621353Y-79232475D02*
X165145163Y-79232475D01*
X164716591Y-79708665D02*
X164383258Y-79708665D01*
X164240401Y-80232475D02*
X164716591Y-80232475D01*
X164716591Y-80232475D02*
X164716591Y-79232475D01*
X164716591Y-79232475D02*
X164240401Y-79232475D01*
X163907067Y-79232475D02*
X163288020Y-79232475D01*
X163288020Y-79232475D02*
X163621353Y-79613427D01*
X163621353Y-79613427D02*
X163478496Y-79613427D01*
X163478496Y-79613427D02*
X163383258Y-79661046D01*
X163383258Y-79661046D02*
X163335639Y-79708665D01*
X163335639Y-79708665D02*
X163288020Y-79803903D01*
X163288020Y-79803903D02*
X163288020Y-80041998D01*
X163288020Y-80041998D02*
X163335639Y-80137236D01*
X163335639Y-80137236D02*
X163383258Y-80184856D01*
X163383258Y-80184856D02*
X163478496Y-80232475D01*
X163478496Y-80232475D02*
X163764210Y-80232475D01*
X163764210Y-80232475D02*
X163859448Y-80184856D01*
X163859448Y-80184856D02*
X163907067Y-80137236D01*
X162668972Y-79232475D02*
X162573734Y-79232475D01*
X162573734Y-79232475D02*
X162478496Y-79280094D01*
X162478496Y-79280094D02*
X162430877Y-79327713D01*
X162430877Y-79327713D02*
X162383258Y-79422951D01*
X162383258Y-79422951D02*
X162335639Y-79613427D01*
X162335639Y-79613427D02*
X162335639Y-79851522D01*
X162335639Y-79851522D02*
X162383258Y-80041998D01*
X162383258Y-80041998D02*
X162430877Y-80137236D01*
X162430877Y-80137236D02*
X162478496Y-80184856D01*
X162478496Y-80184856D02*
X162573734Y-80232475D01*
X162573734Y-80232475D02*
X162668972Y-80232475D01*
X162668972Y-80232475D02*
X162764210Y-80184856D01*
X162764210Y-80184856D02*
X162811829Y-80137236D01*
X162811829Y-80137236D02*
X162859448Y-80041998D01*
X162859448Y-80041998D02*
X162907067Y-79851522D01*
X162907067Y-79851522D02*
X162907067Y-79613427D01*
X162907067Y-79613427D02*
X162859448Y-79422951D01*
X162859448Y-79422951D02*
X162811829Y-79327713D01*
X162811829Y-79327713D02*
X162764210Y-79280094D01*
X162764210Y-79280094D02*
X162668972Y-79232475D01*
X161764210Y-79661046D02*
X161859448Y-79613427D01*
X161859448Y-79613427D02*
X161907067Y-79565808D01*
X161907067Y-79565808D02*
X161954686Y-79470570D01*
X161954686Y-79470570D02*
X161954686Y-79422951D01*
X161954686Y-79422951D02*
X161907067Y-79327713D01*
X161907067Y-79327713D02*
X161859448Y-79280094D01*
X161859448Y-79280094D02*
X161764210Y-79232475D01*
X161764210Y-79232475D02*
X161573734Y-79232475D01*
X161573734Y-79232475D02*
X161478496Y-79280094D01*
X161478496Y-79280094D02*
X161430877Y-79327713D01*
X161430877Y-79327713D02*
X161383258Y-79422951D01*
X161383258Y-79422951D02*
X161383258Y-79470570D01*
X161383258Y-79470570D02*
X161430877Y-79565808D01*
X161430877Y-79565808D02*
X161478496Y-79613427D01*
X161478496Y-79613427D02*
X161573734Y-79661046D01*
X161573734Y-79661046D02*
X161764210Y-79661046D01*
X161764210Y-79661046D02*
X161859448Y-79708665D01*
X161859448Y-79708665D02*
X161907067Y-79756284D01*
X161907067Y-79756284D02*
X161954686Y-79851522D01*
X161954686Y-79851522D02*
X161954686Y-80041998D01*
X161954686Y-80041998D02*
X161907067Y-80137236D01*
X161907067Y-80137236D02*
X161859448Y-80184856D01*
X161859448Y-80184856D02*
X161764210Y-80232475D01*
X161764210Y-80232475D02*
X161573734Y-80232475D01*
X161573734Y-80232475D02*
X161478496Y-80184856D01*
X161478496Y-80184856D02*
X161430877Y-80137236D01*
X161430877Y-80137236D02*
X161383258Y-80041998D01*
X161383258Y-80041998D02*
X161383258Y-79851522D01*
X161383258Y-79851522D02*
X161430877Y-79756284D01*
X161430877Y-79756284D02*
X161478496Y-79708665D01*
X161478496Y-79708665D02*
X161573734Y-79661046D01*
X160811829Y-79661046D02*
X160907067Y-79613427D01*
X160907067Y-79613427D02*
X160954686Y-79565808D01*
X160954686Y-79565808D02*
X161002305Y-79470570D01*
X161002305Y-79470570D02*
X161002305Y-79422951D01*
X161002305Y-79422951D02*
X160954686Y-79327713D01*
X160954686Y-79327713D02*
X160907067Y-79280094D01*
X160907067Y-79280094D02*
X160811829Y-79232475D01*
X160811829Y-79232475D02*
X160621353Y-79232475D01*
X160621353Y-79232475D02*
X160526115Y-79280094D01*
X160526115Y-79280094D02*
X160478496Y-79327713D01*
X160478496Y-79327713D02*
X160430877Y-79422951D01*
X160430877Y-79422951D02*
X160430877Y-79470570D01*
X160430877Y-79470570D02*
X160478496Y-79565808D01*
X160478496Y-79565808D02*
X160526115Y-79613427D01*
X160526115Y-79613427D02*
X160621353Y-79661046D01*
X160621353Y-79661046D02*
X160811829Y-79661046D01*
X160811829Y-79661046D02*
X160907067Y-79708665D01*
X160907067Y-79708665D02*
X160954686Y-79756284D01*
X160954686Y-79756284D02*
X161002305Y-79851522D01*
X161002305Y-79851522D02*
X161002305Y-80041998D01*
X161002305Y-80041998D02*
X160954686Y-80137236D01*
X160954686Y-80137236D02*
X160907067Y-80184856D01*
X160907067Y-80184856D02*
X160811829Y-80232475D01*
X160811829Y-80232475D02*
X160621353Y-80232475D01*
X160621353Y-80232475D02*
X160526115Y-80184856D01*
X160526115Y-80184856D02*
X160478496Y-80137236D01*
X160478496Y-80137236D02*
X160430877Y-80041998D01*
X160430877Y-80041998D02*
X160430877Y-79851522D01*
X160430877Y-79851522D02*
X160478496Y-79756284D01*
X160478496Y-79756284D02*
X160526115Y-79708665D01*
X160526115Y-79708665D02*
X160621353Y-79661046D01*
X159668972Y-79708665D02*
X160002305Y-79708665D01*
X160002305Y-80232475D02*
X160002305Y-79232475D01*
X160002305Y-79232475D02*
X159526115Y-79232475D01*
X166573734Y-81794800D02*
X166430877Y-81842419D01*
X166430877Y-81842419D02*
X166192782Y-81842419D01*
X166192782Y-81842419D02*
X166097544Y-81794800D01*
X166097544Y-81794800D02*
X166049925Y-81747180D01*
X166049925Y-81747180D02*
X166002306Y-81651942D01*
X166002306Y-81651942D02*
X166002306Y-81556704D01*
X166002306Y-81556704D02*
X166049925Y-81461466D01*
X166049925Y-81461466D02*
X166097544Y-81413847D01*
X166097544Y-81413847D02*
X166192782Y-81366228D01*
X166192782Y-81366228D02*
X166383258Y-81318609D01*
X166383258Y-81318609D02*
X166478496Y-81270990D01*
X166478496Y-81270990D02*
X166526115Y-81223371D01*
X166526115Y-81223371D02*
X166573734Y-81128133D01*
X166573734Y-81128133D02*
X166573734Y-81032895D01*
X166573734Y-81032895D02*
X166526115Y-80937657D01*
X166526115Y-80937657D02*
X166478496Y-80890038D01*
X166478496Y-80890038D02*
X166383258Y-80842419D01*
X166383258Y-80842419D02*
X166145163Y-80842419D01*
X166145163Y-80842419D02*
X166002306Y-80890038D01*
X165573734Y-81318609D02*
X165240401Y-81318609D01*
X165097544Y-81842419D02*
X165573734Y-81842419D01*
X165573734Y-81842419D02*
X165573734Y-80842419D01*
X165573734Y-80842419D02*
X165097544Y-80842419D01*
X164668972Y-81842419D02*
X164668972Y-80842419D01*
X164668972Y-80842419D02*
X164097544Y-81842419D01*
X164097544Y-81842419D02*
X164097544Y-80842419D01*
X163668972Y-81794800D02*
X163526115Y-81842419D01*
X163526115Y-81842419D02*
X163288020Y-81842419D01*
X163288020Y-81842419D02*
X163192782Y-81794800D01*
X163192782Y-81794800D02*
X163145163Y-81747180D01*
X163145163Y-81747180D02*
X163097544Y-81651942D01*
X163097544Y-81651942D02*
X163097544Y-81556704D01*
X163097544Y-81556704D02*
X163145163Y-81461466D01*
X163145163Y-81461466D02*
X163192782Y-81413847D01*
X163192782Y-81413847D02*
X163288020Y-81366228D01*
X163288020Y-81366228D02*
X163478496Y-81318609D01*
X163478496Y-81318609D02*
X163573734Y-81270990D01*
X163573734Y-81270990D02*
X163621353Y-81223371D01*
X163621353Y-81223371D02*
X163668972Y-81128133D01*
X163668972Y-81128133D02*
X163668972Y-81032895D01*
X163668972Y-81032895D02*
X163621353Y-80937657D01*
X163621353Y-80937657D02*
X163573734Y-80890038D01*
X163573734Y-80890038D02*
X163478496Y-80842419D01*
X163478496Y-80842419D02*
X163240401Y-80842419D01*
X163240401Y-80842419D02*
X163097544Y-80890038D01*
X162478496Y-80842419D02*
X162288020Y-80842419D01*
X162288020Y-80842419D02*
X162192782Y-80890038D01*
X162192782Y-80890038D02*
X162097544Y-80985276D01*
X162097544Y-80985276D02*
X162049925Y-81175752D01*
X162049925Y-81175752D02*
X162049925Y-81509085D01*
X162049925Y-81509085D02*
X162097544Y-81699561D01*
X162097544Y-81699561D02*
X162192782Y-81794800D01*
X162192782Y-81794800D02*
X162288020Y-81842419D01*
X162288020Y-81842419D02*
X162478496Y-81842419D01*
X162478496Y-81842419D02*
X162573734Y-81794800D01*
X162573734Y-81794800D02*
X162668972Y-81699561D01*
X162668972Y-81699561D02*
X162716591Y-81509085D01*
X162716591Y-81509085D02*
X162716591Y-81175752D01*
X162716591Y-81175752D02*
X162668972Y-80985276D01*
X162668972Y-80985276D02*
X162573734Y-80890038D01*
X162573734Y-80890038D02*
X162478496Y-80842419D01*
X161049925Y-81842419D02*
X161383258Y-81366228D01*
X161621353Y-81842419D02*
X161621353Y-80842419D01*
X161621353Y-80842419D02*
X161240401Y-80842419D01*
X161240401Y-80842419D02*
X161145163Y-80890038D01*
X161145163Y-80890038D02*
X161097544Y-80937657D01*
X161097544Y-80937657D02*
X161049925Y-81032895D01*
X161049925Y-81032895D02*
X161049925Y-81175752D01*
X161049925Y-81175752D02*
X161097544Y-81270990D01*
X161097544Y-81270990D02*
X161145163Y-81318609D01*
X161145163Y-81318609D02*
X161240401Y-81366228D01*
X161240401Y-81366228D02*
X161621353Y-81366228D01*
X159526115Y-81318609D02*
X159383258Y-81366228D01*
X159383258Y-81366228D02*
X159335639Y-81413847D01*
X159335639Y-81413847D02*
X159288020Y-81509085D01*
X159288020Y-81509085D02*
X159288020Y-81651942D01*
X159288020Y-81651942D02*
X159335639Y-81747180D01*
X159335639Y-81747180D02*
X159383258Y-81794800D01*
X159383258Y-81794800D02*
X159478496Y-81842419D01*
X159478496Y-81842419D02*
X159859448Y-81842419D01*
X159859448Y-81842419D02*
X159859448Y-80842419D01*
X159859448Y-80842419D02*
X159526115Y-80842419D01*
X159526115Y-80842419D02*
X159430877Y-80890038D01*
X159430877Y-80890038D02*
X159383258Y-80937657D01*
X159383258Y-80937657D02*
X159335639Y-81032895D01*
X159335639Y-81032895D02*
X159335639Y-81128133D01*
X159335639Y-81128133D02*
X159383258Y-81223371D01*
X159383258Y-81223371D02*
X159430877Y-81270990D01*
X159430877Y-81270990D02*
X159526115Y-81318609D01*
X159526115Y-81318609D02*
X159859448Y-81318609D01*
X158668972Y-80842419D02*
X158478496Y-80842419D01*
X158478496Y-80842419D02*
X158383258Y-80890038D01*
X158383258Y-80890038D02*
X158288020Y-80985276D01*
X158288020Y-80985276D02*
X158240401Y-81175752D01*
X158240401Y-81175752D02*
X158240401Y-81509085D01*
X158240401Y-81509085D02*
X158288020Y-81699561D01*
X158288020Y-81699561D02*
X158383258Y-81794800D01*
X158383258Y-81794800D02*
X158478496Y-81842419D01*
X158478496Y-81842419D02*
X158668972Y-81842419D01*
X158668972Y-81842419D02*
X158764210Y-81794800D01*
X158764210Y-81794800D02*
X158859448Y-81699561D01*
X158859448Y-81699561D02*
X158907067Y-81509085D01*
X158907067Y-81509085D02*
X158907067Y-81175752D01*
X158907067Y-81175752D02*
X158859448Y-80985276D01*
X158859448Y-80985276D02*
X158764210Y-80890038D01*
X158764210Y-80890038D02*
X158668972Y-80842419D01*
X157859448Y-81556704D02*
X157383258Y-81556704D01*
X157954686Y-81842419D02*
X157621353Y-80842419D01*
X157621353Y-80842419D02*
X157288020Y-81842419D01*
X156383258Y-81842419D02*
X156716591Y-81366228D01*
X156954686Y-81842419D02*
X156954686Y-80842419D01*
X156954686Y-80842419D02*
X156573734Y-80842419D01*
X156573734Y-80842419D02*
X156478496Y-80890038D01*
X156478496Y-80890038D02*
X156430877Y-80937657D01*
X156430877Y-80937657D02*
X156383258Y-81032895D01*
X156383258Y-81032895D02*
X156383258Y-81175752D01*
X156383258Y-81175752D02*
X156430877Y-81270990D01*
X156430877Y-81270990D02*
X156478496Y-81318609D01*
X156478496Y-81318609D02*
X156573734Y-81366228D01*
X156573734Y-81366228D02*
X156954686Y-81366228D01*
X155954686Y-81842419D02*
X155954686Y-80842419D01*
X155954686Y-80842419D02*
X155716591Y-80842419D01*
X155716591Y-80842419D02*
X155573734Y-80890038D01*
X155573734Y-80890038D02*
X155478496Y-80985276D01*
X155478496Y-80985276D02*
X155430877Y-81080514D01*
X155430877Y-81080514D02*
X155383258Y-81270990D01*
X155383258Y-81270990D02*
X155383258Y-81413847D01*
X155383258Y-81413847D02*
X155430877Y-81604323D01*
X155430877Y-81604323D02*
X155478496Y-81699561D01*
X155478496Y-81699561D02*
X155573734Y-81794800D01*
X155573734Y-81794800D02*
X155716591Y-81842419D01*
X155716591Y-81842419D02*
X155954686Y-81842419D01*
%LPC*%
D11*
%TO.C,J9*%
X168000000Y-100275000D03*
D12*
X168000000Y-97735000D03*
%TD*%
D13*
%TO.C,J5*%
X122051562Y-93398437D03*
D14*
X120255511Y-95194488D03*
%TD*%
D11*
%TO.C,J15*%
X144250000Y-89000000D03*
%TD*%
D13*
%TO.C,J1*%
X113401562Y-84992926D03*
D14*
X111605511Y-86788977D03*
%TD*%
D15*
%TO.C,U4*%
X142040000Y-94525000D03*
D16*
X139500000Y-94525000D03*
X136960000Y-94525000D03*
%TD*%
D17*
%TO.C,D1*%
X161296051Y-92320153D03*
D16*
X159500000Y-90524102D03*
%TD*%
D11*
%TO.C,J2*%
X111275000Y-107275000D03*
D12*
X111275000Y-104735000D03*
%TD*%
D18*
%TO.C,J12*%
X157598439Y-93098437D03*
D19*
X159394490Y-94894488D03*
%TD*%
D20*
%TO.C,U2*%
X126960836Y-96928734D03*
D16*
X125164785Y-98724785D03*
X123368734Y-100520836D03*
%TD*%
D11*
%TO.C,J11*%
X145975000Y-80750000D03*
D12*
X148515000Y-80750000D03*
%TD*%
D11*
%TO.C,J13*%
X137975000Y-89000000D03*
D12*
X140515000Y-89000000D03*
%TD*%
D18*
%TO.C,J8*%
X165725000Y-84000000D03*
D19*
X167521051Y-85796051D03*
%TD*%
D11*
%TO.C,J10*%
X141025000Y-76750000D03*
D12*
X138485000Y-76750000D03*
%TD*%
D11*
%TO.C,J7*%
X114010000Y-100000000D03*
D12*
X111470000Y-100000000D03*
%TD*%
D11*
%TO.C,J14*%
X166000000Y-93500000D03*
%TD*%
%TO.C,J3*%
X156780000Y-106460000D03*
D12*
X156780000Y-109000000D03*
X154240000Y-106460000D03*
X154240000Y-109000000D03*
X151700000Y-106460000D03*
X151700000Y-109000000D03*
X149160000Y-106460000D03*
X149160000Y-109000000D03*
X146620000Y-106460000D03*
X146620000Y-109000000D03*
X144080000Y-106460000D03*
X144080000Y-109000000D03*
X141540000Y-106460000D03*
X141540000Y-109000000D03*
X139000000Y-106460000D03*
X139000000Y-109000000D03*
X136460000Y-106460000D03*
X136460000Y-109000000D03*
X133920000Y-106460000D03*
X133920000Y-109000000D03*
X131380000Y-106460000D03*
X131380000Y-109000000D03*
X128840000Y-106460000D03*
X128840000Y-109000000D03*
X126300000Y-106460000D03*
X126300000Y-109000000D03*
X123760000Y-106460000D03*
X123760000Y-109000000D03*
%TD*%
D21*
%TO.C,D2*%
X119881460Y-91113693D03*
D16*
X118085409Y-92909744D03*
%TD*%
D11*
%TO.C,J6*%
X117750000Y-99500000D03*
%TD*%
D22*
%TO.C,D3*%
X140750000Y-85825000D03*
D16*
X138210000Y-85825000D03*
%TD*%
D23*
%TO.C,U3*%
X156071267Y-99520836D03*
D16*
X154275216Y-97724785D03*
X152479165Y-95928734D03*
%TD*%
D11*
%TO.C,J16*%
X164250000Y-100500000D03*
D12*
X164250000Y-97960000D03*
%TD*%
D11*
%TO.C,J17*%
X149025000Y-77000000D03*
D12*
X146485000Y-77000000D03*
%TD*%
%LPD*%
M02*
